<svg xmlns="http://www.w3.org/2000/svg" viewBox="0 0 351.7 471"><path d="M257.3 167c0 8.8 7.2 16 16 16h24c12.4 0 22.4 10 22.4 22.4v211.2c0 12.4-10 22.4-22.4 22.4H54.4C42 439 32 428.9 32 416.6V205.4C32 193 42 183 54.4 183h27c8.8 0 16-7.2 16-16s-7.2-16-16-16h-27C24.4 151 0 175.3 0 205.4v211.2c0 30 24.4 54.4 54.4 54.4h242.9c30 0 54.4-24.4 54.4-54.4V205.4c0-30-24.4-54.4-54.4-54.4h-24c-8.9 0-16 7.1-16 16z" fill="#007bff"/><path d="M93.9 80.4c-5.7 6.8-4.7 16.9 2 22.5 6.8 5.7 16.8 4.8 22.5-1.9L160 51.5V279c0 8.8 7.2 16 16 16s16-7.2 16-16V51.1l41.3 49.8c5.7 6.8 15.8 7.7 22.6 2.1 6.8-5.7 7.7-15.8 2.1-22.6l-56.6-68.6C190.1-1.9 170-4 156.3 7.2c-1.7 1.4-3.2 2.9-4.6 4.6L93.9 80.4z" fill="#007bff"/></svg>