
<svg xmlns="http://www.w3.org/2000/svg" viewBox="0 0 188.5 216.8">
    <path fill="#fff" d="M138.8 42.7c0-3.5-.5-6.9-1.5-10.1l4.8-10.4-6.5-9-11.4 1.3c-2.7-1.9-5.7-3.5-8.9-4.6L109.8 0H98.7l-5.5 9.8c-3.3 1.1-6.5 2.7-9.3 4.7l-11.1-1.3-6.5 9 4.7 10c-1 3.3-1.6 6.8-1.6 10.5s.6 7.2 1.6 10.5l-4.7 10 6.5 9L84 70.8c2.8 2 5.9 3.6 9.3 4.7l5.5 9.8h11.1l5.6-9.9c3.2-1.1 6.2-2.7 8.9-4.6l11.4 1.3 6.5-9-4.8-10.4c.8-3.2 1.3-6.5 1.3-10zm-34.7 19.6c-10.8 0-19.6-8.8-19.6-19.6s8.8-19.6 19.6-19.6 19.6 8.8 19.6 19.6-8.8 19.6-19.6 19.6zM38 110.3c4.7-.9 7.8-5.4 7-10.1l-8.4-48.9c8.1 0 14.7-6.6 14.7-14.7V34H33.7l-2.4-14.1c-.7-4.1-4.2-7.2-8.4-7.2H7.3c-3.8.7-6.8 3.8-7.2 7.6-.6 4.7 2.9 9 7.6 9.6h8.5l12 73.2c.7 4.1 4.2 7.2 8.4 7.2H38zM150 162.5c-14.8.2-26.6 12.4-26.4 27.2v.7c.4 15 12.9 26.8 27.9 26.4 15-.4 26.8-12.9 26.4-27.9-.5-14.9-12.9-26.8-27.9-26.4zm0 36.8v.2c-5.2-.2-9.4-4.5-9.3-9.7v-.3-.3c.2-5.4 4.8-9.5 10.2-9.3 5.4.2 9.5 4.8 9.3 10.2-.3 5.2-4.9 9.4-10.2 9.2z"/>
    <path fill="#fff" d="M180 34h-18.6v8.2c0 5 4.1 9.1 9.1 9.1l-4 49.6-125.6 32.4c-3.8 1-6.4 4.4-6.4 8.3l-.4 45.4c-.1.3-.1.7 0 1v2.2c.3 12.9 9.6 23.9 22.3 26.1 17.5 3 32.4-10.6 32-27.4-.4-15-12.8-26.8-27.8-26.5-3.2 0-6.3.6-9.3 1.8v-15.9l125.2-32.1c3.6-.9 6.3-4.1 6.6-7.8l5.4-65.3v-.6c0-4.6-3.8-8.5-8.5-8.5zM60.5 180.3c5.3 0 9.6 4.2 9.6 9.5s-4.2 9.6-9.5 9.6h-.1c-5.3 0-9.5-4.3-9.5-9.5 0-5.3 4.2-9.6 9.5-9.6z"/>
</svg>