<svg xmlns="http://www.w3.org/2000/svg" viewBox="0 0 21.6 19.5">
    <path fill="#fff" d="M9.7 19.5c-2.3 0-4.4-.8-6.2-2.2-2-1.7-3.2-4-3.5-6.6-.2-2.6.5-5.1 2.2-7.1 1.7-2 4-3.2 6.6-3.5 3.1-.3 6.1.9 8.2 3.1.3.3.3.8-.1 1.1-.3.3-.8.3-1.1-.1-1.7-1.8-4.3-2.8-6.8-2.6-2.2.2-4.1 1.3-5.5 2.9s-2 3.8-1.8 5.9c.2 2.2 1.2 4.1 2.9 5.5 1.7 1.4 3.8 2 5.9 1.8 2.2-.2 4.1-1.2 5.5-2.9s2-3.8 1.8-5.9c0-.4.3-.8.7-.9.4 0 .8.3.9.7.2 2.6-.5 5.1-2.2 7.1-1.7 2-4 3.2-6.6 3.5-.3.2-.6.2-.9.2z"/>
    <path fill="#fff" d="M9.7 15.9c-.2 0-.4-.1-.6-.2L3.7 10c-.3-.3-.3-.8 0-1.1.3-.3.8-.3 1.1 0l4.9 5L20.2 2.2c.3-.3.8-.4 1.1-.1.3.3.4.8.1 1.1L10.3 15.6c-.1.2-.3.3-.6.3z"/>
</svg>
