<svg xmlns="http://www.w3.org/2000/svg" viewBox="0 0 490.7 512"><path d="M298.7 426.7c0 47.1-38.2 85.3-85.3 85.3S128 473.8 128 426.7s38.2-85.3 85.3-85.3 85.4 38.1 85.4 85.3z" fill="#ffbc00"/><path d="M362.8 254.3c-72.3-10.3-128.2-72.5-128.2-147.6 0-21.3 4.6-41.6 12.6-59.9-10.9-2.6-22.3-4.1-34-4.1C131 42.7 64 109.7 64 192v59.5c0 42.2-18.5 82.1-50.9 109.5C4.8 368.1 0 378.4 0 389.3c0 20.6 16.7 37.3 37.3 37.3h352c20.6 0 37.3-16.7 37.3-37.3 0-10.9-4.8-21.3-13.3-28.5-31.4-26.7-49.7-65.3-50.5-106.5z" fill="#fdcc00"/><path d="M384 0c-58.9 0-106.7 47.8-106.7 106.7S325.1 213.3 384 213.3s106.7-47.8 106.7-106.7S442.9 0 384 0zm9.3 166.8c-2.7 2.6-6.4 3.9-11.2 3.9-4.9 0-8.7-1.3-11.4-3.8-2.7-2.5-4-6.1-4-10.6 0-4.7 1.3-8.3 3.9-10.8 2.6-2.4 6.5-3.6 11.5-3.6 4.9 0 8.6 1.2 11.3 3.7 2.7 2.5 4 6.1 4 10.7 0 4.4-1.4 8-4.1 10.5zm29-77.3c-2.9 4.5-8.5 9.6-16.7 15.3-5.6 4-9.2 7.1-10.7 9.2-1.5 2.1-2.2 4.8-2.2 8.2 0 2.8-2.3 5.1-5.1 5.1h-13.1c-2.8 0-5.1-2.3-5.1-5.1V121c0-5.4 1.2-10.1 3.6-14.2 2.4-4 6.8-8.3 13.2-12.8 6.1-4.2 10.2-7.7 12.2-10.3 2-2.7 2.9-5.6 2.9-8.9 0-3.7-1.4-6.5-4.2-8.4-2.8-1.9-6.7-2.9-11.8-2.9-7.6 0-16.2 2.1-25.7 6.3-2.4 1.1-5.3 0-6.5-2.3l-5-9.7c-1.3-2.6-.2-5.7 2.4-7 11.6-5.5 23.9-8.2 36.8-8.2 12 0 21.6 2.8 28.7 8.4 7.1 5.6 10.7 13.1 10.7 22.4 0 6.2-1.5 11.6-4.4 16.1z" fill="#324cce"/></svg>