<svg xmlns="http://www.w3.org/2000/svg" viewBox="0 0 490.7 512"><path d="M298.7 426.7c0 47.1-38.2 85.3-85.3 85.3S128 473.8 128 426.7s38.2-85.3 85.3-85.3 85.4 38.1 85.4 85.3z" fill="#ffbc00"/><path d="M362.8 254.3c-72.3-10.3-128.2-72.5-128.2-147.6 0-21.3 4.6-41.6 12.6-59.9-10.9-2.6-22.3-4.1-34-4.1C131 42.7 64 109.7 64 192v59.5c0 42.2-18.5 82.1-50.9 109.5C4.8 368.1 0 378.4 0 389.3c0 20.6 16.7 37.3 37.3 37.3h352c20.6 0 37.3-16.7 37.3-37.3 0-10.9-4.8-21.3-13.3-28.5-31.4-26.7-49.7-65.3-50.5-106.5z" fill="#fdcc00"/><path d="M384 0c-58.9 0-106.7 47.8-106.7 106.7 0 58.9 47.8 106.6 106.7 106.6 58.9 0 106.7-47.8 106.7-106.7C490.7 47.7 442.9 0 384 0zm53.7 140.9c5.4 5.4 5.4 14.1 0 19.4-5.4 5.4-14.1 5.4-19.4 0L384 126.1l-34.2 34.2c-5.4 5.4-14.1 5.4-19.4 0-5.4-5.4-5.4-14.1 0-19.4l34.2-34.2-34.2-34.2c-5.4-5.4-5.4-14.1 0-19.4 5.4-5.4 14.1-5.4 19.4 0L384 87.2 418.3 53c5.4-5.4 14.1-5.4 19.4 0 5.4 5.4 5.4 14.1 0 19.4l-34.2 34.2 34.2 34.3z" fill="#e41f12"/></svg>