<svg xmlns="http://www.w3.org/2000/svg" viewBox="0 0 33.8 42.1"><path d="M29.6 21.1c0 4.6 1.4 8.9 3.9 12.7 0 0 1.6 2.2-3 2.2h-6.3c-.7 3.6-3.8 6.1-7.4 6.1-3.6 0-6.7-2.6-7.4-6.1H3C-.8 36 .1 33.8.1 33.8 2.7 30 4 25.6 4 21.1v-4.5C4 10.9 7.7 6 12.8 4.3V4c0-2.2 1.8-4 4-4s4 1.8 4 4v.3c5.3 1.7 8.8 6.6 8.8 12.2v4.6zM16.8 39.3c2.1 0 3.9-1.4 4.5-3.3h-9.1c.7 1.9 2.6 3.3 4.6 3.3zm0-36.5c-.5 0-1 .4-1.2.9h2.3c-.1-.5-.5-.9-1.1-.9zm10 13.6c0-2.7-1-5.2-2.9-7.1C22.6 8 21 7.1 19.3 6.7l-.2-.1-.8-.2h-.4c-.3 0-.6-.1-.9-.1H15.2c-4.8.9-8.2 5.1-8.2 10v4.5c0 4.2-1.1 8.4-3.1 12.1H30c-2-3.7-3.1-7.9-3.1-12.1-.1.3-.1-4.4-.1-4.4z"/></svg>