<svg xmlns="http://www.w3.org/2000/svg" viewBox="0 0 49 39"><path d="M49 30a2.72 2.72 0 0 1-3.01 2.98h-3.54a6.562 6.562 0 0 1-13.08 0h-6.8a6.562 6.562 0 0 1-13.08 0H7s3.05.02 0 .02a2.9 2.9 0 0 1-3-3l-.02-5H7v4.99h3a6.633 6.633 0 0 1 12.06 0h7.82a6.529 6.529 0 0 1 4.1-3.56c0-4.02.02-15.59.02-20.43 0-.62.06-3-3-3-5.51 0-20.02-.01-20.02-.01H7.01v-3S27.17 0 31 0c6.64 0 6 6 6 6l-.01 3.02h4.45c2.94 0 7.57 2.51 7.57 9.28zm-32.97-.82a3.381 3.381 0 1 0 3.45 3.38 3.426 3.426 0 0 0-3.45-3.38zm19.88 0a3.381 3.381 0 1 0 3.45 3.38 3.417 3.417 0 0 0-3.45-3.38zm10.07-5.19V18.3c0-4.5-3.31-6.33-4.54-6.33h-4.45v14.26a6.547 6.547 0 0 1 4.95 3.76h4.04v-3m-27.03-18H4.01v-3h14.94v3zM4.01 21.02v-3.04H13v3.04H4.01zM15.03 15H.01v-3h15.02v3z" fill="#37b841" fill-rule="evenodd"/></svg>
