<svg xmlns="http://www.w3.org/2000/svg" viewBox="0 0 48.462 39"><path d="M45.271 24.47h-2.61a14.656 14.656 0 0 1-6.1 8.51v4.52a1.473 1.473 0 0 1-1.45 1.49h-7.25a1.43 1.43 0 0 1-1.03-.44 1.523 1.523 0 0 1-.42-1.06V35h-7.97v2.5a1.475 1.475 0 0 1-1.46 1.49h-7.27a1.475 1.475 0 0 1-1.46-1.49v-4.84a15.686 15.686 0 0 1-6.51-12.51 15.475 15.475 0 0 1 9.44-14.28 16.454 16.454 0 0 1 2.82-.71 6.962 6.962 0 0 1 13.32-.43c1.79-2.72 6.28-4.34 6.28-4.34a1.451 1.451 0 0 1 1.44.02 1.493 1.493 0 0 1 .72 1.28l.01 5.19a15.93 15.93 0 0 1 6.2 7.44h3.3a1.481 1.481 0 0 1 1.46 1.49v7.17a1.475 1.475 0 0 1-1.46 1.49zM20.731 3a4 4 0 1 0 4 4 4 4 0 0 0-4-4zm23.09 14.22h-2.84a1.473 1.473 0 0 1-1.38-.99 12.58 12.58 0 0 0-5.86-7.14 1.5 1.5 0 0 1-.79-1.33l-.01-3.55s-3.22.16-5.21 4.79c-.1-.03-.2-.05-.3-.08a7.379 7.379 0 0 1-.99 2.08h.79a1.5 1.5 0 0 1 0 3h-13a1.5 1.5 0 0 1 0-3h.81a6.9 6.9 0 0 1-1.2-2.91 11.261 11.261 0 0 0-1.58.54c-4.16 1.33-7.61 6.44-7.61 11.52a12.7 12.7 0 0 0 5.84 10.47 1.477 1.477 0 0 1 .67 1.25v4.22h4.37v-2.5a1.475 1.475 0 0 1 1.46-1.49h10.88a1.43 1.43 0 0 1 1.03.44 1.489 1.489 0 0 1 .43 1.06l-.01 2.49h4.34v-3.94a1.494 1.494 0 0 1 .71-1.28 11.7 11.7 0 0 0 5.71-8.08 1.456 1.456 0 0 1 1.43-1.21h2.31v-4.36zm-10.17.72a2.16 2.16 0 1 1 2.17-2.16 2.168 2.168 0 0 1-2.17 2.16z" fill="#37b841" fill-rule="evenodd"/></svg>
