<svg xmlns="http://www.w3.org/2000/svg" viewBox="0 0 48 44">
    <path d="M38.92 19.68v-2.8h8.27v2.8h-8.27zm-1.7-8.56l7.63-3.17 1.08 2.59-7.64 3.17-1.07-2.59zm-3.78-4.68L39.29.59l1.98 1.99-5.85 5.85-1.98-1.99zm2.96 16.54c0 4.55 1.36 8.93 3.93 12.68 0 0 1.61 2.2-3.03 2.2H31A7.55 7.55 0 0 1 23.59 44a7.55 7.55 0 0 1-7.4-6.14H9.75c-3.8 0-2.89-2.2-2.89-2.2a22.33 22.33 0 0 0 3.93-12.68V18.5c0-5.72 3.69-10.59 8.8-12.29v-.28a4 4 0 1 1 8.01 0v.26a12.82 12.82 0 0 1 8.8 12.18v4.61zM23.59 41.19c2.13 0 3.93-1.4 4.53-3.33h-9.05a4.74 4.74 0 0 0 4.52 3.33zm0-36.47c-.55 0-1.02.38-1.16.89l.08-.01.12-.01.19-.01.12-.01h.2l.1-.01h.62l.27.01h.03l.28.01.02.01.29.02a1.2 1.2 0 0 0-1.16-.89zM33.6 18.37c0-2.68-1.05-5.2-2.94-7.09a9.94 9.94 0 0 0-4.6-2.61l-.18-.05-.84-.16-.12-.01-.12-.02a1.5 1.5 0 0 1-.21-.02h-.01c-.3-.03-.61-.05-.91-.05h-.11l-.27.01h-.09l-.18.01-.11.01-.16.01-.12.01-.15.01-.13.02-.12.02-.15.02-.1.01a5.7 5.7 0 0 0-.17.03l-.05.01a10.13 10.13 0 0 0-8.17 9.97v4.48c0 4.25-1.06 8.38-3.07 12.07h26.15a25.06 25.06 0 0 1-3.07-12.07v-4.61zm-10.01-5.8V9.76a8.62 8.62 0 0 1 8.61 8.61h-2.81c0-3.2-2.6-5.8-5.8-5.8zM5.92 2.58L7.9.59l5.85 5.85-1.98 1.99-5.85-5.85zM8.9 13.71l-7.64-3.17 1.07-2.59 7.64 3.17-1.07 2.59zm-.63 5.97H0v-2.8h8.27v2.8z" fill="#324dcf"/>
</svg>
