<svg xmlns="http://www.w3.org/2000/svg" viewBox="0 0 49.41 39"><path d="M45.205 15.11c0-.61-.46-.98-1.38-1.13l-12.37-1.8L25.905 1a1.224 1.224 0 0 0-2.41 0l-5.54 11.18-12.37 1.8c-.92.15-1.38.52-1.38 1.13a1.865 1.865 0 0 0 .61 1.18l8.97 8.7-2.12 12.29a4.663 4.663 0 0 0-.05.49 1.469 1.469 0 0 0 .26.87.891.891 0 0 0 .78.36 2.066 2.066 0 0 0 .98-.3l11.07-5.8 11.06 5.8a1.946 1.946 0 0 0 .98.3 1 1 0 0 0 1.02-1.23 3.016 3.016 0 0 0-.03-.49l-2.12-12.29 8.95-8.7a1.816 1.816 0 0 0 .64-1.18zm-12.52 9.02l1.88 10.98-9.86-5.19-9.89 5.19 1.91-10.98-8.01-7.75 11.04-1.62 4.95-9.97 4.94 9.97 11.04 1.62z" fill="#37b841" fill-rule="evenodd"/></svg>
