<svg id="Layer_1" data-name="Layer 1" xmlns="http://www.w3.org/2000/svg" viewBox="0 0 305.28 89.4"><defs><style>.cls-1{fill:#fff;}.cls-2{fill:#f48047;}.cls-3{fill:#f16423;}</style></defs><title>Artboard 5</title><path class="cls-1" d="M103,30.32c.48.87,1,2,1.66,3.24s1.27,2.68,1.95,4.18,1.35,3,2,4.6,1.29,3,1.87,4.42c.59-1.39,1.21-2.86,1.88-4.42s1.33-3.1,2-4.6,1.33-2.89,2-4.18,1.18-2.37,1.65-3.24h5.66c.26,1.83.51,3.88.73,6.15s.43,4.63.6,7.08.33,4.92.48,7.38.27,4.79.37,7h-6q-.12-4-.32-8.76t-.6-9.55c-.48,1.11-1,2.35-1.6,3.7s-1.16,2.71-1.73,4.06-1.13,2.65-1.66,3.88l-1.36,3.17h-4.34c-.37-.88-.82-1.94-1.35-3.17s-1.09-2.53-1.66-3.88-1.15-2.7-1.74-4.06l-1.59-3.7q-.41,4.81-.6,9.55T101,57.9h-6c.11-2.18.23-4.5.38-7s.31-4.92.48-7.38.37-4.82.59-7.08.48-4.32.74-6.15Z"/><path class="cls-1" d="M136.53,36.41a14,14,0,0,1,4.38.59,6.89,6.89,0,0,1,2.81,1.71,6.36,6.36,0,0,1,1.49,2.71,13.4,13.4,0,0,1,.44,3.54V57.3c-.85.19-2,.41-3.55.66a34.32,34.32,0,0,1-5.49.37,17.36,17.36,0,0,1-3.68-.35,7.84,7.84,0,0,1-2.84-1.18,5.35,5.35,0,0,1-1.84-2.13,7.39,7.39,0,0,1-.63-3.22,6.1,6.1,0,0,1,.73-3.1,5.72,5.72,0,0,1,2-2,9,9,0,0,1,2.83-1.1,16.2,16.2,0,0,1,3.3-.34,20.52,20.52,0,0,1,2.05.1,10.65,10.65,0,0,1,1.46.26v-.55a3.29,3.29,0,0,0-.92-2.43,4.43,4.43,0,0,0-3.18-.92,21.15,21.15,0,0,0-3,.22,12.88,12.88,0,0,0-2.55.62l-.75-4.78c.34-.11.77-.22,1.29-.34s1.08-.22,1.69-.31,1.26-.18,1.93-.25S135.84,36.41,136.53,36.41ZM137,53.76c.58,0,1.14,0,1.67,0s1-.07,1.28-.12V49.1c-.24-.05-.6-.1-1.08-.16A11.59,11.59,0,0,0,136,49a4.32,4.32,0,0,0-1.3.38,2.23,2.23,0,0,0-.87.76,2.43,2.43,0,0,0,.61,3.12A5.17,5.17,0,0,0,137,53.76Z"/><path class="cls-1" d="M167.1,55.27q0,5.13-2.61,7.62c-1.74,1.66-4.42,2.49-8.06,2.49a21.44,21.44,0,0,1-3.82-.34,23.17,23.17,0,0,1-3.54-.89l1-5a18.43,18.43,0,0,0,2.93.88,17.38,17.38,0,0,0,3.48.31,4.82,4.82,0,0,0,3.6-1.11,4,4,0,0,0,1.06-2.86v-.76a10.14,10.14,0,0,1-2,.66,11,11,0,0,1-2.21.22,8.48,8.48,0,0,1-6.65-2.57A10.36,10.36,0,0,1,148,46.76a11.81,11.81,0,0,1,.72-4.21,9,9,0,0,1,2.09-3.24,9.26,9.26,0,0,1,3.36-2.09,13,13,0,0,1,4.5-.73c.71,0,1.45,0,2.21.09s1.5.16,2.25.26,1.45.24,2.12.38,1.28.3,1.82.46Zm-13-8.51q0,5,4,5a5.89,5.89,0,0,0,1.71-.24,7,7,0,0,0,1.36-.56V41.46c-.3-.05-.64-.1-1-.14s-.86-.06-1.39-.06a4.11,4.11,0,0,0-3.51,1.55A6.51,6.51,0,0,0,154.08,46.76Z"/><path class="cls-1" d="M169.69,47.59a12.85,12.85,0,0,1,.85-4.88,10.46,10.46,0,0,1,2.25-3.48,9.34,9.34,0,0,1,3.2-2.11,10,10,0,0,1,3.72-.71,9.29,9.29,0,0,1,7,2.72q2.58,2.73,2.58,8c0,.35,0,.72,0,1.14s-.06.77-.08,1.09H175.77a4,4,0,0,0,1.72,2.91,6.89,6.89,0,0,0,4,1.07,17.12,17.12,0,0,0,3.21-.3,12.13,12.13,0,0,0,2.56-.73l.8,4.81a8.19,8.19,0,0,1-1.27.48,16.54,16.54,0,0,1-1.77.42c-.65.12-1.35.22-2.09.29a21,21,0,0,1-2.23.13,13.16,13.16,0,0,1-4.92-.84,9.65,9.65,0,0,1-3.46-2.29,9.24,9.24,0,0,1-2-3.44A13.59,13.59,0,0,1,169.69,47.59Zm13.92-2.27a6.11,6.11,0,0,0-.25-1.47,3.79,3.79,0,0,0-.68-1.27,3.53,3.53,0,0,0-1.16-.92,3.73,3.73,0,0,0-1.73-.36,4.07,4.07,0,0,0-1.71.34,3.47,3.47,0,0,0-1.19.9,3.92,3.92,0,0,0-.74,1.29,8.81,8.81,0,0,0-.38,1.49Z"/><path class="cls-1" d="M198.66,56.15a9,9,0,0,0,5-1.18,4.2,4.2,0,0,0,1.79-3.81,5.12,5.12,0,0,0-.57-2.53,5.51,5.51,0,0,0-1.54-1.72,9.9,9.9,0,0,0-2.19-1.19l-2.58-1a33.51,33.51,0,0,1-3.07-1.38,10.41,10.41,0,0,1-2.3-1.61,6.08,6.08,0,0,1-1.46-2,6.83,6.83,0,0,1-.49-2.71,6.4,6.4,0,0,1,2.34-5.37,10.41,10.41,0,0,1,6.53-1.83,14.48,14.48,0,0,1,2.19.16,17.75,17.75,0,0,1,2,.42,13.68,13.68,0,0,1,1.71.58,6.41,6.41,0,0,1,1.29.67l-1,2.27a9.46,9.46,0,0,0-2.81-1.27,12.71,12.71,0,0,0-3.56-.48,10.6,10.6,0,0,0-2.41.26,5.25,5.25,0,0,0-1.89.83,4.15,4.15,0,0,0-1.25,1.45,4.47,4.47,0,0,0-.46,2.11,4.41,4.41,0,0,0,.48,2.15,4.69,4.69,0,0,0,1.33,1.52,10.6,10.6,0,0,0,2,1.15l2.51,1.08c1.09.45,2.12.9,3.08,1.35a11.12,11.12,0,0,1,2.53,1.59,6.62,6.62,0,0,1,1.71,2.23,7.25,7.25,0,0,1,.64,3.22,6.43,6.43,0,0,1-2.61,5.61,11.87,11.87,0,0,1-7.06,1.88,18.59,18.59,0,0,1-2.91-.21,17.7,17.7,0,0,1-2.34-.49,14,14,0,0,1-1.76-.62,11.18,11.18,0,0,1-1.11-.56l.87-2.34c.27.16.63.34,1.08.55a12.61,12.61,0,0,0,1.59.62,15.74,15.74,0,0,0,2.07.5A15.34,15.34,0,0,0,198.66,56.15Z"/><path class="cls-1" d="M227,57.18c-.76.21-1.8.45-3.1.72a24.83,24.83,0,0,1-4.78.39,9.75,9.75,0,0,1-3.86-.67,6.24,6.24,0,0,1-2.5-1.91,7.71,7.71,0,0,1-1.38-3,17.06,17.06,0,0,1-.41-3.86V37.32h2.58V48a18.45,18.45,0,0,0,.32,3.7,6,6,0,0,0,1,2.45,4,4,0,0,0,1.85,1.35,7.93,7.93,0,0,0,2.76.42,22.75,22.75,0,0,0,3.19-.2,8.09,8.09,0,0,0,1.71-.36V37.32H227Z"/><path class="cls-1" d="M235,31.11a1.85,1.85,0,0,1-1.91,2,1.9,1.9,0,0,1-1.35-.53,2,2,0,0,1-.56-1.46,1.93,1.93,0,0,1,.56-1.45,1.86,1.86,0,0,1,1.35-.54,1.87,1.87,0,0,1,1.91,2ZM234.4,57.9h-2.59V37.32h2.59Z"/><path class="cls-1" d="M241.68,37.32h8.2v2.19h-8.2v11a11.06,11.06,0,0,0,.3,2.84,4,4,0,0,0,.85,1.69,2.75,2.75,0,0,0,1.36.8,7.32,7.32,0,0,0,1.75.2,7.56,7.56,0,0,0,2.62-.38,11.69,11.69,0,0,0,1.56-.7l.63,2.15a9.45,9.45,0,0,1-1.95.82,9.75,9.75,0,0,1-3,.45,9.07,9.07,0,0,1-3.21-.49,4.61,4.61,0,0,1-2.06-1.51,6.16,6.16,0,0,1-1.1-2.53,17.74,17.74,0,0,1-.32-3.58V31.27l2.59-.48Z"/><path class="cls-1" d="M251.43,47.59a13,13,0,0,1,.78-4.72,10.15,10.15,0,0,1,2-3.36,8,8,0,0,1,2.86-2,8.71,8.71,0,0,1,3.33-.66,7.8,7.8,0,0,1,6,2.47q2.24,2.47,2.24,7.6c0,.22,0,.43,0,.64a5.54,5.54,0,0,1-.06.6H254.18A9.1,9.1,0,0,0,256.05,54q1.74,2,5.57,2a11.38,11.38,0,0,0,3.34-.4,13.37,13.37,0,0,0,1.79-.68l.48,2.23a10.73,10.73,0,0,1-2.09.76,13.25,13.25,0,0,1-3.6.43,12,12,0,0,1-4.62-.79,8.31,8.31,0,0,1-3.14-2.23,8.8,8.8,0,0,1-1.79-3.4A15.85,15.85,0,0,1,251.43,47.59ZM266,46a8.21,8.21,0,0,0-1.52-5,4.89,4.89,0,0,0-4-1.79,5.43,5.43,0,0,0-2.49.56,6.29,6.29,0,0,0-1.91,1.49,7,7,0,0,0-1.28,2.17,9,9,0,0,0-.53,2.59Z"/><path class="cls-1" d="M276.15,56.19a2.26,2.26,0,0,1-.58,1.55,2.39,2.39,0,0,1-3.23,0,2.25,2.25,0,0,1-.57-1.55,2.27,2.27,0,0,1,.57-1.56,2.39,2.39,0,0,1,3.23,0A2.28,2.28,0,0,1,276.15,56.19Z"/><path class="cls-1" d="M283.47,31.11a2,2,0,0,1-.56,1.46,1.9,1.9,0,0,1-1.35.53,1.92,1.92,0,0,1-1.36-.53,2,2,0,0,1-.55-1.46,1.92,1.92,0,0,1,.55-1.45,1.89,1.89,0,0,1,1.36-.54,1.86,1.86,0,0,1,1.35.54A1.93,1.93,0,0,1,283.47,31.11Zm-.6,26.79h-2.59V37.32h2.59Z"/><path class="cls-1" d="M305.28,47.63a13.44,13.44,0,0,1-.7,4.42,9.68,9.68,0,0,1-1.95,3.38,8.87,8.87,0,0,1-3,2.17,9.66,9.66,0,0,1-7.56,0,8.83,8.83,0,0,1-3-2.17,9.68,9.68,0,0,1-1.95-3.38,14.3,14.3,0,0,1,0-8.84,9.87,9.87,0,0,1,1.95-3.4,8.76,8.76,0,0,1,3-2.19,9.55,9.55,0,0,1,7.56,0,8.79,8.79,0,0,1,3,2.19,9.87,9.87,0,0,1,1.95,3.4A13.44,13.44,0,0,1,305.28,47.63Zm-2.75,0a9.76,9.76,0,0,0-1.79-6.15,6.29,6.29,0,0,0-9.71,0,9.69,9.69,0,0,0-1.79,6.15A9.6,9.6,0,0,0,291,53.76a6.33,6.33,0,0,0,9.71,0A9.66,9.66,0,0,0,302.53,47.63Z"/><polygon class="cls-2" points="60.08 25.77 70.36 19.83 36.97 0 3.72 19.84 13.99 25.77 36.96 12.47 60.08 25.77"/><polygon class="cls-3" points="37.07 43.5 37.07 43.5 37.07 43.5 0 22.12 0 56.18 0 68.03 10.3 73.98 10.3 73.98 10.3 40.03 37.06 55.97 63.76 40.02 63.76 73.96 74.03 68.03 74.03 22.12 37.07 43.5"/><polygon class="cls-2" points="59.93 64.26 37.02 77.5 37.02 77.5 37.02 77.5 37.01 77.5 35.45 76.6 14.13 64.31 14.13 76.17 37.01 89.4 59.93 76.15 59.93 64.26"/></svg>