<svg xmlns="http://www.w3.org/2000/svg" viewBox="0 0 388.1 59.1"><path d="M21.4 40.3c-1.3.2-2.5.3-3.6.3-3.1 0-5.3-.8-6.5-2.4s-1.9-3.8-1.9-6.8c0-2.7.7-5 2-6.6 1.3-1.7 3.3-2.5 6-2.5 1.3 0 2.4.1 3.4.4 1 .2 2 .5 2.8.9l1.9-7.3c-1.3-.6-2.7-1-4.2-1.3-1.4-.3-3-.5-4.7-.5-2.6 0-4.9.5-7 1.4-2 .9-3.8 2.1-5.2 3.7C3 21.1 1.9 22.9 1.1 25 .3 27.1 0 29.3 0 31.6c0 2.4.3 4.7.9 6.7.6 2.1 1.6 3.9 3 5.4s3.1 2.7 5.2 3.6c2.1.9 4.7 1.3 7.6 1.3 1.9 0 3.7-.2 5.3-.5s2.9-.7 4-1.2l-1.3-7.5c-.9.4-2.1.7-3.3.9zm27-24.9c-.7-.1-1.4-.3-2.1-.4-.7-.1-1.4-.2-2.1-.2-.7-.1-1.3-.1-1.8-.1-2.7 0-5.2.3-7.4.8s-4.2 1.1-5.8 1.6v30.6h9.1V23c.4-.1 1-.2 1.8-.3s1.5-.2 2.1-.2c1.3 0 2.5.1 3.6.3s2.1.4 2.9.6l1.5-7.6c-.5-.1-1.1-.3-1.8-.4zm16.9-.9c-2 0-3.9.4-5.7 1.1-1.9.7-3.5 1.8-4.9 3.3-1.4 1.4-2.6 3.2-3.5 5.4s-1.3 4.7-1.3 7.5c0 2.4.3 4.6 1 6.6s1.7 3.8 3.1 5.3c1.4 1.5 3.2 2.7 5.3 3.5 2.1.9 4.7 1.3 7.6 1.3 1.1 0 2.3-.1 3.4-.2s2.2-.3 3.2-.5 1.9-.4 2.7-.6 1.5-.5 2-.7L77 39.1c-1 .5-2.3.8-4 1.1-1.6.3-3.3.5-4.9.5-2.6 0-4.7-.6-6.3-1.7s-2.4-2.6-2.6-4.5h20.7c0-.5.1-1.1.1-1.7 0-.6.1-1.2.1-1.7 0-5.4-1.3-9.6-4-12.4-2.6-2.8-6.2-4.2-10.8-4.2zm-6.1 13.7c.1-.8.3-1.5.6-2.3s.6-1.4 1.1-2 1.1-1 1.8-1.4c.7-.3 1.6-.5 2.6-.5 1.1 0 1.9.2 2.7.6.7.4 1.3.8 1.8 1.4.5.6.8 1.2 1 2 .2.7.4 1.5.4 2.3l-12-.1zM106.8 18c-1.1-1.1-2.5-2-4.3-2.6s-4-.9-6.7-.9c-1.1 0-2.1.1-3.2.2-1 .1-2 .2-3 .4-.9.1-1.8.3-2.6.5s-1.5.4-2 .5l1.2 7.4c1.1-.4 2.4-.7 3.9-1 1.5-.2 3-.3 4.6-.3 2.3 0 4 .5 4.9 1.4s1.4 2.2 1.4 3.7v.9c-.6-.2-1.3-.3-2.2-.4-.9-.1-2-.2-3.2-.2-1.8 0-3.5.2-5.1.5s-3.1.9-4.4 1.7c-1.3.8-2.3 1.8-3 3.1-.8 1.3-1.1 2.9-1.1 4.8 0 2 .3 3.6 1 5s1.6 2.4 2.8 3.3c1.2.8 2.7 1.4 4.4 1.8s3.6.6 5.7.6c3.3 0 6.1-.2 8.5-.6 2.3-.4 4.1-.7 5.5-1v-19c0-2-.2-3.8-.7-5.5-.6-1.7-1.4-3.1-2.4-4.3zM101 41c-.5.1-1.1.1-2 .2-.8 0-1.7.1-2.6.1-1.7 0-3-.3-4-.8-1-.6-1.4-1.5-1.4-3 0-.7.2-1.4.5-1.8.3-.5.8-.9 1.3-1.2.6-.3 1.2-.5 2-.6s1.6-.2 2.4-.2c.6 0 1.3 0 2 .1s1.3.2 1.7.2v7h.1zm30.9-.6c-1 .2-2.1.3-3 .3-2 0-3.4-.6-4.1-1.7s-1-2.7-1-4.6V23h11v-7.6h-11V5.9l-9.1 1.5v27.1c0 2.1.2 4 .6 5.7.4 1.7 1.1 3.2 2.1 4.4 1 1.2 2.3 2.2 3.9 2.8 1.6.7 3.7 1 6.2 1 2 0 3.6-.2 5-.5 1.3-.3 2.6-.7 3.7-1.2l-1.3-7.1c-1 .3-2 .6-3 .8zM143.6.6c-1.5 0-2.7.5-3.8 1.4-1.1 1-1.6 2.3-1.6 4s.5 3 1.6 4 2.4 1.4 3.8 1.4c1.5 0 2.7-.5 3.8-1.4 1.1-1 1.6-2.3 1.6-4s-.5-3-1.6-4c-1-.9-2.3-1.4-3.8-1.4zm-4.5 47h9.1V15.3h-9.1v32.3zm58.5-33.1c-2 0-3.9.4-5.7 1.1-1.9.7-3.5 1.8-4.9 3.3-1.4 1.4-2.6 3.2-3.5 5.4s-1.3 4.7-1.3 7.5c0 2.4.3 4.6 1 6.6s1.7 3.8 3.1 5.3 3.2 2.7 5.3 3.5c2.1.9 4.7 1.3 7.6 1.3 1.1 0 2.3-.1 3.4-.2s2.2-.3 3.2-.5 1.9-.4 2.7-.6c.8-.2 1.5-.5 2-.7l-1.2-7.4c-1 .5-2.3.8-4 1.1-1.6.3-3.3.5-4.9.5-2.6 0-4.7-.6-6.3-1.7-1.6-1.1-2.4-2.6-2.6-4.5h20.7c0-.5.1-1.1.1-1.7 0-.6.1-1.2.1-1.7 0-5.4-1.3-9.6-4-12.4-2.6-2.8-6.2-4.2-10.8-4.2zm-6.1 13.7c.1-.8.3-1.5.6-2.3.3-.8.6-1.4 1.1-2s1.1-1 1.8-1.4c.7-.3 1.6-.5 2.6-.5 1.1 0 1.9.2 2.7.6.7.4 1.3.8 1.8 1.4.5.6.8 1.2 1 2 .2.7.4 1.5.4 2.3l-12-.1zm41.5 5.1c-.9-.7-1.8-1.3-3-1.8-1.1-.5-2.3-1-3.5-1.5s-2.2-.9-3.2-1.3c-.9-.4-1.7-.8-2.3-1.3-.6-.5-1.1-1-1.4-1.6s-.5-1.4-.5-2.2c0-.9.2-1.6.6-2.2.4-.6.9-1.1 1.5-1.5s1.3-.7 2.1-.9c.8-.2 1.6-.3 2.5-.3 2.2 0 4 .2 5.1.6 1.2.4 2 .7 2.5 1l.9-3.6c-.6-.3-1.6-.6-3-1s-3.2-.6-5.4-.6c-3.4 0-6.1.8-8 2.4-1.9 1.6-2.9 3.7-2.9 6.3 0 1.4.2 2.5.7 3.4s1.1 1.8 2 2.4c.8.7 1.8 1.3 2.8 1.8 1.1.5 2.2 1 3.4 1.5 1.5.6 2.7 1.1 3.7 1.6s1.8.9 2.4 1.4 1.1 1 1.3 1.7c.3.6.4 1.4.4 2.2 0 1.8-.7 3.1-2.2 3.8-1.5.8-3.4 1.1-5.7 1.1-1.3 0-2.4-.1-3.3-.2-1-.2-1.8-.4-2.5-.6s-1.2-.4-1.7-.6c-.4-.2-.7-.3-.8-.4l-1 3.6c.5.2 1.5.6 2.9 1.1 1.5.5 3.6.7 6.4.7 3.7 0 6.6-.7 8.8-2.2 2.1-1.5 3.2-3.6 3.2-6.5 0-1.5-.3-2.8-.8-3.8-.4-.9-1.1-1.8-2-2.5zm29.6-14c-1-1.3-2.3-2.3-3.9-3s-3.7-1-6.1-1c-1.3 0-2.7.1-4 .4-1.3.3-2.7.6-4 1.1V0l-4 .7v46.9h4V20.3c.2-.1.5-.2 1.1-.4s1.2-.3 1.9-.5c.7-.1 1.4-.3 2.2-.4.8-.1 1.5-.2 2.2-.2 1.8 0 3.3.2 4.5.6 1.2.4 2.1 1.1 2.8 2.1.7 1 1.2 2.3 1.5 3.8.3 1.6.5 3.5.5 5.7v16.5h4V29.9c0-2.2-.2-4.2-.6-6-.4-1.8-1.1-3.3-2.1-4.6zm32.7.4c-1.3-1.5-2.8-2.6-4.6-3.4-1.8-.8-3.7-1.2-5.8-1.2-2.1 0-4.1.4-5.8 1.2-1.8.8-3.3 1.9-4.6 3.4-1.3 1.5-2.3 3.2-3 5.2s-1.1 4.3-1.1 6.8.4 4.8 1.1 6.8 1.7 3.8 3 5.2c1.3 1.4 2.8 2.5 4.6 3.3 1.8.8 3.7 1.2 5.8 1.2 2.1 0 4.1-.4 5.8-1.2 1.8-.8 3.3-1.9 4.6-3.3 1.3-1.4 2.3-3.2 3-5.2s1.1-4.3 1.1-6.8-.4-4.8-1.1-6.8-1.7-3.7-3-5.2zm-2.9 21.6c-1.8 2.3-4.3 3.5-7.5 3.5-3.1 0-5.6-1.2-7.5-3.5-1.8-2.3-2.8-5.5-2.8-9.5s.9-7.1 2.8-9.5c1.8-2.4 4.3-3.5 7.5-3.5 3.1 0 5.6 1.2 7.5 3.5 1.8 2.4 2.8 5.5 2.8 9.5-.1 4-1 7.1-2.8 9.5zm35.3-21.6c-1.4-1.4-3-2.5-4.9-3.3s-4-1.1-6.3-1.1c-2.8 0-5.1.2-7 .6-1.8.4-3.3.8-4.5 1.2v42h4V45.8c.7.5 1.8 1.1 3.3 1.7s3.3.9 5.4.9c2.3 0 4.3-.4 6.1-1.2 1.8-.8 3.3-2 4.5-3.4 1.2-1.5 2.2-3.2 2.8-5.2.6-2 .9-4.2.9-6.7 0-2.6-.4-4.9-1.1-6.9-.8-2.1-1.8-3.9-3.2-5.3zm-.4 17.2c-.4 1.6-1 2.9-1.8 4.1s-1.9 2.1-3.2 2.8c-1.3.7-3 1-4.9 1-.9 0-1.8-.1-2.7-.3-.9-.2-1.7-.4-2.4-.7-.7-.3-1.4-.6-1.9-.9-.6-.3-1-.6-1.4-.9V19.8c.6-.2 1.5-.4 2.7-.6 1.2-.2 2.8-.3 4.7-.3 3.4 0 6.2 1.1 8.3 3.3 2.1 2.2 3.1 5.4 3.1 9.6 0 1.8-.2 3.5-.5 5.1zm12.6 4.7c-1.1 0-1.9.3-2.5 1s-.9 1.5-.9 2.4.3 1.7.9 2.4c.6.7 1.4 1 2.5 1s1.9-.3 2.5-1 .9-1.5.9-2.4-.3-1.7-.9-2.4c-.6-.6-1.5-1-2.5-1zm9.7 6h4V15.9h-4v31.7zm2-44.4c-.8 0-1.5.3-2.1.8-.6.6-.9 1.3-.9 2.2s.3 1.7.9 2.2c.6.6 1.3.8 2.1.8s1.5-.3 2.1-.8c.6-.6.9-1.3.9-2.2s-.3-1.7-.9-2.2-1.3-.8-2.1-.8zM387 25c-.7-2-1.7-3.8-3-5.2-1.3-1.5-2.8-2.6-4.6-3.4-1.8-.8-3.7-1.2-5.8-1.2-2.1 0-4.1.4-5.8 1.2-1.8.8-3.3 1.9-4.6 3.4-1.3 1.5-2.3 3.2-3 5.2s-1.1 4.3-1.1 6.8.4 4.8 1.1 6.8 1.7 3.8 3 5.2c1.3 1.4 2.8 2.5 4.6 3.3 1.8.8 3.7 1.2 5.8 1.2s4.1-.4 5.8-1.2c1.8-.8 3.3-1.9 4.6-3.3s2.3-3.2 3-5.2 1.1-4.3 1.1-6.8-.4-4.8-1.1-6.8zm-5.9 16.3c-1.8 2.3-4.3 3.5-7.5 3.5-3.1 0-5.6-1.2-7.5-3.5-1.8-2.3-2.8-5.5-2.8-9.5s.9-7.1 2.8-9.5c1.8-2.4 4.3-3.5 7.5-3.5 3.1 0 5.6 1.2 7.5 3.5 1.8 2.4 2.8 5.5 2.8 9.5s-.9 7.1-2.8 9.5zM161 15.3h-9.5l9.2 27.4 4.8-14.2-4.5-13.2z" fill="#fff"/><path fill="#324dcf" d="M178.1.6l-15.7 47h9.5l15.7-47z"/></svg>