<svg xmlns="http://www.w3.org/2000/svg" height="55.14" width="189">
  <path d="M23.33 0L0 14.13V41l6.06 3.57V17.7L23.34 7.2l17.29 10.49.07.04v26.8l6-3.53V14.14L23.33 0zm3.1 16.54v31.4l-3.1 1.9-3.09-1.9V16.56l-8 4.93v26.86l11.1 6.79 11.18-6.84V21.47l-8.1-4.93z" fill="#ED7402"/>
  <path d="M12.24 21.5l8 4.88v-9.82l-8 4.93zm14.18-4.96v9.9l8.1-4.97-8.1-4.93zm20.28-2.4L23.33 0 0 14.13l6.06 3.57L23.34 7.2 40.7 17.73l6-3.6z" fill="#F8B97F"/>
  <path d="M82.33 39.98l-1.61-20.54-8.16 20.66h-2.65l-8.16-20.66-1.57 20.54h-3.3l2.07-25.8h4.34l8.04 21.16 8.04-21.17h4.3l2.02 25.81h-3.36zM99.91 39.98l-.38-2.4a8.42 8.42 0 0 1-6.28 2.78c-3.22 0-5.24-1.95-5.24-4.98 0-4.45 3.82-6.2 11.26-7v-.74c0-2.25-1.34-3.03-3.4-3.03-2.17 0-4.23.67-6.17 1.53l-.45-2.88c2.13-.86 4.15-1.5 6.92-1.5 4.34 0 6.44 1.76 6.44 5.73v12.5h-2.7zm-.64-9.05c-6.58.64-7.97 2.43-7.97 4.27 0 1.45.98 2.39 2.66 2.39 1.95 0 3.82-.98 5.31-2.5v-4.16zM121.72 21.88l.48 2.99-3.4.33c.49.83.71 1.76.71 2.77 0 3.82-3.22 6.14-6.84 6.14-.45 0-.9-.04-1.35-.11-.53.33-.9.75-.9 1.08 0 .64.63.79 3.78 1.35l1.27.22c3.78.68 6.13 1.87 6.13 4.64 0 3.74-4.07 5.5-8.71 5.5-4.64 0-8.34-1.46-8.34-4.6 0-1.83 1.27-3.25 3.77-4.6-.78-.56-1.12-1.2-1.12-1.87 0-.86.67-1.73 1.87-2.44a5.8 5.8 0 0 1-3.33-5.3c0-3.86 3.22-6.22 6.85-6.22 1.8 0 3.37.53 4.6 1.5l4.53-1.38zm-13.99 20.05c0 1.42 1.83 2.47 5.31 2.47 3.48 0 5.43-1.2 5.43-2.7 0-1.08-.83-1.83-3.37-2.28l-2.13-.37-2.21-.45c-2.1 1.05-3.03 2.1-3.03 3.33zm4.86-17.74c-2.24 0-3.63 1.73-3.63 3.9 0 2.05 1.42 3.66 3.63 3.66 2.28 0 3.7-1.68 3.7-3.81a3.58 3.58 0 0 0-3.7-3.75zM137.58 31.42h-12.12c.11 4.15 2.1 6.1 5.2 6.1 2.58 0 4.45-1.02 6.4-2.55l.48 3a11.1 11.1 0 0 1-7.14 2.39c-4.65 0-8.27-2.8-8.27-9.36 0-5.72 3.36-9.23 7.85-9.23 5.2 0 7.6 4 7.6 8.94v.7zm-7.63-7.04c-2.06 0-3.82 1.46-4.34 4.53h8.6c-.4-2.88-1.68-4.53-4.26-4.53zM151.61 39.98V27.82c0-1.83-.79-3.06-2.73-3.06-1.76 0-3.55 1.16-5.16 2.88v12.34h-3.33V22.14h2.65l.42 2.58c1.68-1.53 3.78-2.95 6.32-2.95 3.37 0 5.16 2.01 5.16 5.23v12.98h-3.33zM164.78 40.28c-3.14 0-5.2-1.12-5.2-4.71V24.94h-2.7v-2.8h2.7v-5.95l3.26-.49v6.44h3.85l.45 2.8h-4.3v10.03c0 1.46.6 2.36 2.47 2.36.6 0 1.12-.04 1.53-.12l.45 2.85c-.57.1-1.35.22-2.51.22zM175.82 40.36c-4.75 0-8.2-3.4-8.2-9.28 0-5.87 3.45-9.31 8.2-9.31 4.79 0 8.3 3.44 8.3 9.3 0 5.88-3.52 9.29-8.3 9.29zm0-15.8c-3.22 0-4.83 2.78-4.83 6.52 0 3.67 1.69 6.51 4.83 6.51 3.3 0 4.94-2.77 4.94-6.51-.01-3.67-1.73-6.51-4.94-6.51zM186.48 24.81c-1.34 0-2.27-.93-2.27-2.32 0-1.38.95-2.33 2.27-2.33 1.34 0 2.27.94 2.27 2.33 0 1.38-.95 2.32-2.27 2.32zm0-4.38c-1.08 0-1.94.74-1.94 2.06 0 1.31.86 2.05 1.94 2.05 1.09 0 1.95-.74 1.95-2.05 0-1.32-.87-2.06-1.95-2.06zm.67 3.3l-.77-1.1h-.25v1.06h-.44v-2.57h.78c.54 0 .9.27.9.75 0 .37-.2.61-.52.71l.74 1.05-.44.1zm-.68-2.2h-.34v.75h.32c.29 0 .47-.12.47-.38 0-.25-.16-.38-.45-.38z" fill="#131108"/>
</svg>
