<svg xmlns="http://www.w3.org/2000/svg" width="175.75" height="38.79">
    <path fill="#FECC00" d="M175.75 0v38.8H0V0h175.75"/>
    <path fill="#D50029" d="M56.66 16.2c-.76 1.05-2.05 2.85-2.83 3.9-.4.55-1.1 1.52 1.26 1.52h12.5l3.72-5.04c2.3-3.12.2-9.62-8.03-9.62H30.9l-5.6 7.63h30.6c1.54 0 1.52.58.77 1.6zm-9.2 7.3c-2.37 0-1.65-.97-1.25-1.5.8-1.07 2.1-2.85 2.86-3.9.76-1.02.78-1.6-.77-1.6h-14L23.02 31.8h27.5c9.08 0 14.14-6.18 15.7-8.32H47.47zm17.9 8.32H81.5l6.1-8.32H71.5l-6.12 8.32zM107 6.96l-6.2 8.4h-7.2l6.18-8.4H83.65l-10.8 14.66h39.48L123.1 6.96H107zM88.7 31.82h16.12l6.12-8.32H94.8l-6.1 8.32zM0 26.78v1.77h22.47l1.3-1.77H0zm26.18-3.28H0v1.77h24.88l1.3-1.77zM0 31.82h20.06l1.3-1.76H0v1.76zm152.07-3.27h23.68v-1.77h-22.38l-1.3 1.77zm-2.4 3.27h26.08v-1.76h-24.8l-1.28 1.76zm6.1-8.32l-1.28 1.77h21.25V23.5h-19.97zm-21.1-1.88l10.78-14.66h-17.08l-10.8 14.66h17.1zm-18.48 1.88l-1.77 2.4c-2.02 2.73-.23 5.92 6.38 5.92h25.9l6.13-8.3H116.2z"/>
</svg>
