<svg xmlns="http://www.w3.org/2000/svg" viewBox="0 0 225.7 73.1">
    <path fill="#00579F" d="M97.8 72H79.6L91 1.3h18.3M164.1 3c-3.6-1.4-9.3-3-16.4-3-18.1 0-30.8 9.6-30.9 23.4-.1 10.2 9.1 15.8 16 19.2 7.1 3.5 9.5 5.7 9.5 8.8-.1 4.7-5.7 6.9-11 6.9a36 36 0 0 1-17.2-3.8l-2.4-1.1-2.4 15.9c4.3 2 12.2 3.7 20.4 3.8 19.2 0 31.7-9.5 31.8-24.2.1-8.1-4.8-14.2-15.4-19.3-6.4-3.2-10.3-5.4-10.3-8.7.1-3 3.3-6.1 10.5-6.1 5.9-.2 10.3 1.3 13.6 2.7l1.8.8L164.1 3zm24.3 44l7.3-19.8 2.4-6.8 1.3 6.1 4.2 20.5h-15.2zM211 1.3h-14.1c-4.4 0-7.7 1.3-9.6 5.9l-27.2 64.9h19.2l3.8-10.6h23.5l2.2 10.6h16.9L211 1.3zm-146.7 0L46.4 49.5l-2-9.8a54.3 54.3 0 0 0-25.3-29.6l16.4 61.8h19.3L83.6 1.3H64.3z"/>
    <path fill="#FAA61A" d="M29.7 1.3H.3L0 2.7c23 5.9 38.2 20 44.4 37L38 7.2c-1-4.5-4.3-5.8-8.3-5.9z"/>
</svg>
