<svg width="96" height="64" xmlns="http://www.w3.org/2000/svg" xmlns:xlink="http://www.w3.org/1999/xlink"><defs><rect id="a" width="96" height="64" rx="5"/></defs><g fill="none" fill-rule="evenodd"><g><mask id="b" fill="#fff"><use xlink:href="#a"/></mask><g mask="url(#b)" fill="#EB6F93"><path d="M0 0h96v64H0z"/></g></g><g fill-rule="nonzero" fill="#FFF"><path d="M30.204 44H27.35c0 2.332-1.075 4.46-2.945 5.863l-1.126.84 4.379 5.94h3.597l-4.033-5.468A10.026 10.026 0 0 0 30.204 44zM20 44h2.919v12.643H20zM32.099 44h2.753v12.643h-2.753zM59 47.658c-1.05 0-2.049.318-2.715 1.223V47.9h-2.612v8.743h2.65v-4.588c0-1.326.897-1.976 1.972-1.976 1.153 0 1.818.689 1.818 1.963v4.614h2.625v-5.57c0-2.039-1.626-3.428-3.738-3.428zM43.174 47.9v.56a4.587 4.587 0 0 0-2.612-.802c-2.56 0-4.634 2.065-4.634 4.614s2.074 4.613 4.634 4.613c.974 0 1.87-.293 2.612-.803v.561H45.8V47.9h-2.625zm-2.394 6.615c-1.319 0-2.381-1.007-2.381-2.243 0-1.237 1.062-2.244 2.381-2.244 1.319 0 2.382 1.007 2.382 2.244 0 1.236-1.063 2.243-2.382 2.243zM49.87 49.034V47.9h-2.688v8.743h2.701v-4.078c0-1.377 1.498-2.116 2.536-2.116h.025V47.9c-1.063 0-2.048.459-2.573 1.134zM70.907 47.9v.56a4.587 4.587 0 0 0-2.612-.802c-2.56 0-4.635 2.065-4.635 4.614s2.074 4.613 4.635 4.613c.973 0 1.87-.293 2.612-.803v.561h2.625V47.9h-2.625zm-2.394 6.615c-1.32 0-2.382-1.007-2.382-2.243 0-1.237 1.063-2.244 2.382-2.244 1.318 0 2.381 1.007 2.381 2.244.013 1.236-1.063 2.243-2.381 2.243zM76.336 53.546c-.91 0-1.652.74-1.652 1.644a1.652 1.652 0 0 0 3.303 0c0-.917-.742-1.644-1.651-1.644z"/></g><g fill-rule="nonzero" fill="#FFF"><path d="M44.551 29.746c.678.666.692 1.754.033 2.438l-.133.139a1.734 1.734 0 0 1-2.439.03l-3.84-3.803c-1.056-1.062-1.208-2.37-.535-3.06l.135-.142a1.566 1.566 0 0 1 2.088-.134.691.691 0 0 0 .855-1.085 2.95 2.95 0 0 0-3.94.262l-.134.141c-1.246 1.28-.995 3.437.556 4.995l3.85 3.814a3.12 3.12 0 0 0 4.398-.06l.136-.142a3.112 3.112 0 0 0-.06-4.377.691.691 0 0 0-.97.984zM42.253 9.122l1.572 12.923a.69.69 0 0 0 1.371-.166L43.62 8.916l-.016-.084c-.269-1.075.4-2.28 1.29-2.47a1.905 1.905 0 0 1 2.266 1.493l2.736 11.691a.69.69 0 0 0 1.345-.314l-2.73-11.667a3.287 3.287 0 0 0-3.904-2.553c-1.676.357-2.776 2.32-2.354 4.11z"/><path d="M56.695 24.308l3.107-15.49a3.28 3.28 0 0 0-2.278-3.832 3.427 3.427 0 0 0-4.172 2.43l-3.44 11.786a.69.69 0 1 0 1.326.387l3.445-11.803a2.044 2.044 0 0 1 2.475-1.469c.927.276 1.502 1.246 1.291 2.219l-3.109 15.5a.69.69 0 1 0 1.355.272zM48.87 39.232c-4.926 0-9.04-3.613-9.04-8.747a.69.69 0 0 0-1.381 0c0 5.94 4.769 10.127 10.42 10.127a.69.69 0 1 0 0-1.38zM46.433 27.157a1.708 1.708 0 0 1-.68.95l-.147.1a1.737 1.737 0 0 1-2.406-.463l-3.02-4.495c-.824-1.25-.716-2.566.077-3.11l.148-.098c1.017-.59 1.882-.142 2.77 1.151l2.526 3.76a.691.691 0 0 0 1.147-.77l-2.53-3.765c-1.249-1.819-2.797-2.62-4.643-1.547l-.192.126c-1.485 1.018-1.662 3.184-.453 5.018l3.026 4.503a3.12 3.12 0 0 0 4.319.836l.153-.102a3.095 3.095 0 0 0 1.236-1.725.69.69 0 1 0-1.331-.369z"/><path d="M51.007 29.444c-1.435.8-2.328 2.31-2.439 4.592a.69.69 0 0 0 1.38.067c.1-2.067.905-3.183 2.205-3.672.695-.262 1.452-.314 2.118-.243.09.01.15.019.173.023.89.166 1.16-1.155.277-1.352l-5.312-1.186c-2.486-.68-2.862-1.6-2.401-3.134.198-.668.607-1.011 1.223-1.148.406-.09.863-.079 1.297-.003.126.022.214.043.253.054l8.064 1.882c.054.01.091.02.157.05.133.061.272.158.408.303.54.577.839 1.666.688 3.454-.526 6.269-3.45 10.162-10.378 10.101a.69.69 0 1 0-.013 1.38c7.787.069 11.188-4.46 11.767-11.365.182-2.15-.222-3.624-1.056-4.514-.46-.49-.944-.71-1.316-.764l-7.973-1.863a3.734 3.734 0 0 0-.362-.078c-.598-.104-1.227-.12-1.836.016-1.082.24-1.898.925-2.247 2.1-.665 2.214.045 3.953 3.392 4.868l1.931.432z"/></g></g></svg>