<svg xmlns="http://www.w3.org/2000/svg" viewBox="0 0 35 41" width="35" height="41">
    <path fill="#324dcf" d="M34.6 8.9c0 .6-.5 1-1.1 1L32 10v25c0 3.3-1.7 6-5 6H8c-3.3 0-5-2.7-5-6V10H1c-.5 0-1-.5-1-1.1C0 8.2.4 7 1 7h8V5c0-2.4 2.6-5 5-5h6c2.4 0 5 2.6 5 5v2h9c.6 0 .6 1.3.6 1.9zM22 5c0-1.2-.8-2-2-2h-6c-1.2 0-2 .8-2 2v2h10V5zm7 5H6v25c0 2 1 3 3 3h17c2 0 3-1 3-3V10zm-4.5 23c-.8 0-1.5-.5-1.5-1V16c0-.5.7-1 1.5-1s1.5.5 1.5 1v16c0 .5-.7 1-1.5 1zm-7 0c-.8 0-1.5-.5-1.5-1V16c0-.5.7-1 1.5-1s1.5.5 1.5 1v16c0 .5-.7 1-1.5 1zm-7 0c-.8 0-1.5-.5-1.5-1V16c0-.5.7-1 1.5-1s1.5.5 1.5 1v16c0 .5-.7 1-1.5 1z"/>
</svg>
