<svg id="Layer_1" data-name="Layer 1" xmlns="http://www.w3.org/2000/svg" viewBox="0 0 89.4 89.4"><defs><style>.cls-2{fill:#f48047;}.cls-3{fill:#f16423;}</style></defs><title>Artboard 3</title><polygon class="cls-2" points="60.08 25.77 70.36 19.83 36.97 0 3.72 19.84 13.99 25.77 36.96 12.47 60.08 25.77"/><polygon class="cls-3" points="37.07 43.5 37.07 43.5 37.07 43.5 0 22.12 0 56.18 0 68.03 10.3 73.98 10.3 73.98 10.3 40.03 37.06 55.97 63.76 40.02 63.76 73.96 74.03 68.03 74.03 22.12 37.07 43.5"/><polygon class="cls-2" points="59.93 64.26 37.02 77.5 37.02 77.5 37.02 77.5 37.01 77.5 35.45 76.6 14.13 64.31 14.13 76.17 37.01 89.4 59.93 76.15 59.93 64.26"/></svg>