<svg xmlns="http://www.w3.org/2000/svg" viewBox="0 0 58.719 44.372"><defs><clipPath id="a"><path data-name="Rectangle 3709" fill="#fdcc03" d="M0 0h51.438v28.049H0z"/></clipPath><clipPath id="b"><path data-name="Rectangle 3710" fill="#ffbc00" d="M0 0h24.363v16.321H0z"/></clipPath></defs><g data-name="Group 4218" transform="translate(0 16.322)" clip-path="url(#a)"><path data-name="Path 3908" d="M32.729 0H2.338A2.345 2.345 0 0 0 0 2.338a2.734 2.734 0 0 0 .082.628l5.927 21.67a4.688 4.688 0 0 0 4.513 3.414h30.395a4.66 4.66 0 0 0 4.5-3.425l5.927-21.67a2.078 2.078 0 0 0 .094-.62A2.342 2.342 0 0 0 49.132 0Zm-7.006 18.706a4.676 4.676 0 1 1 4.676-4.676 4.676 4.676 0 0 1-4.681 4.67" fill="#fdcc03"/></g><g data-name="Group 4219"><g data-name="Group 4220" transform="translate(13.537)" clip-path="url(#b)"><path data-name="Path 3909" d="M12.182.001a2.3 2.3 0 0 0-1.939.994L0 16.321h5.168l7.014-10.288 7.011 10.288h5.171L14.122.995a2.272 2.272 0 0 0-1.94-.994" fill="#ffbc00"/></g></g><g data-name="rebuy" transform="translate(-211.281 -817)"><circle data-name="Ellipse 190" cx="10" cy="10" r="10" transform="translate(250 825)" fill="#324dce"/><path data-name="Icon awesome-redo-alt" d="M260.008 830.521a4.463 4.463 0 0 1 3.086 1.238l.645-.645a.433.433 0 0 1 .74.306v2.424a.433.433 0 0 1-.433.433h-2.422a.433.433 0 0 1-.306-.74l.754-.754a3.034 3.034 0 1 0-.074 4.5.216.216 0 0 1 .3.01l.716.716a.217.217 0 0 1-.009.315 4.479 4.479 0 1 1-2.997-7.803Z" fill="#fff"/></g></svg>