<svg xmlns="http://www.w3.org/2000/svg" viewBox="0 0 19.1 16.2"><path d="M.7 2.9h2.9c0 .8.7 1.5 1.5 1.5h1.5c.8 0 1.5-.7 1.5-1.5h10.3c.4 0 .7-.3.7-.7 0-.4-.3-.7-.7-.7H8.1C8.1.7 7.4 0 6.6 0H5.1c-.8 0-1.4.7-1.4 1.5h-3c-.4 0-.7.3-.7.7 0 .4.3.7.7.7zm17.7 4.4H14c0-.8-.7-1.5-1.5-1.5H11c-.8 0-1.5.7-1.5 1.5H.7c-.4 0-.7.4-.7.8s.3.7.7.7h8.8c0 .8.7 1.5 1.5 1.5h1.5c.8 0 1.5-.7 1.5-1.5h4.4c.4 0 .7-.3.7-.7 0-.4-.3-.8-.7-.8zm0 5.9H8.1c0-.8-.7-1.5-1.5-1.5H5.1c-.8 0-1.5.7-1.5 1.5H.7c-.4 0-.7.4-.7.8s.3.7.7.7h2.9c0 .8.7 1.5 1.5 1.5h1.5c.8 0 1.5-.7 1.5-1.5h10.3c.4 0 .7-.3.7-.7 0-.4-.3-.8-.7-.8z"/></svg>