<?xml version="1.0" encoding="utf-8"?>
<svg xmlns="http://www.w3.org/2000/svg" viewBox="0 0 579 601">
  <path id="thumb-up-svg-icon__shape" fill="currentColor" d="M561.6 408.6a74.9 74.9 0 0 0 17.3-49.9 76.2 76.2 0 0 0-16.2-43.2c8.1-20.4 11.2-52.5-15.8-77.3-19.8-18.2-53.4-26.4-100-24.1-20.6 1-41.1 3.6-61.3 7.9h-.1c-6.2 1.1-12.8 2.5-19.6 4-.5-8.1.9-28 15.6-73 17.4-53.5 16.4-94.5-3.2-121.9C357.6 2.2 324.6 0 314.9 0c-9.3-.1-18.1 4-24 11.1-13.8 16.2-12.2 46.1-10.5 60C264 115.6 217.9 224.7 178.9 255a134.3 134.3 0 0 0-26.4 38.8c-7.6-4.1-16-6.3-24.7-6.3h-76A51.8 51.8 0 0 0 0 339.6v204.2a52.1 52.1 0 0 0 51.8 52.3h76a51 51 0 0 0 29.9-9.6L187 590c4.5.7 84.2 10.9 166 9.2 14.8 1.2 28.8 1.8 41.7 1.8a278 278 0 0 0 57.9-5.3c38.1-8.1 64.1-24.5 77.3-48.5a77.6 77.6 0 0 0 8.5-48.1 80.8 80.8 0 0 0 23.2-90.5zM51.8 562.2a18.4 18.4 0 0 1-18.2-18.4V339.4c0-10.1 8.1-18.2 18.2-18.3h76c10.1.1 18.2 8.2 18.2 18.3v204.3c0 10.1-8.1 18.3-18.2 18.3h-76v.2zm477.9-168.3a16.9 16.9 0 0 0-2.2 20.5 51.4 51.4 0 0 1 5.7 21c.9 16.4-7 31-23.4 43.4a17.2 17.2 0 0 0-5.7 19.4c0 .1 5.4 16.7-3.4 32.4-8.3 15.1-26.9 25.9-55.1 31.9-22.5 4.9-53.2 5.8-90.8 2.8h-1.7c-80.1 1.8-161-8.8-161.9-8.9h-.1l-12.6-1.5c.8-3.7 1.1-7.4 1.1-11.1V339.4c0-5.3-.8-10.5-2.4-15.5 2.2-8.4 8.5-27.2 23.2-43.1C256.3 236 311 85.1 313.4 78.5a15 15 0 0 0 .7-8.4c-2.1-14.1-1.4-31.3 1.6-36.5 6.6.1 24.4 2 35.1 17 12.7 17.7 12.2 49.4-1.5 91.4-20.9 64-22.7 97.7-6.1 112.5a27 27 0 0 0 27.2 4.9c7.6-1.8 14.8-3.3 21.7-4.4l1.6-.4c38.2-8.4 106.7-13.6 130.5 8.3 20.2 18.6 5.9 43.3 4.2 45.9a17 17 0 0 0 3 21.9c.1.1 13.2 12.5 13.8 29.2.6 11.2-4.6 22.7-15.5 34z" />
  <path id="thumb-up-svg-icon__fill" fill="transparent" d="M561.6 408.6a74.9 74.9 0 0 0 17.3-49.9 76.2 76.2 0 0 0-16.2-43.2c8.1-20.4 11.2-52.5-15.8-77.3-19.8-18.2-53.4-26.4-100-24.1-20.6 1-41.1 3.6-61.3 7.9h-.1c-6.2 1.1-12.8 2.5-19.6 4-.5-8.1.9-28 15.6-73 17.4-53.5 16.4-94.5-3.2-121.9C357.6 2.2 324.6 0 314.9 0c-9.3-.1-18.1 4-24 11.1-13.8 16.2-12.2 46.1-10.5 60C264 115.6 217.9 224.7 178.9 255a134.3 134.3 0 0 0-26.4 38.8c-7.6-4.1-16-6.3-24.7-6.3h-76A51.8 51.8 0 0 0 0 339.6v204.2a52.1 52.1 0 0 0 51.8 52.3h76a51 51 0 0 0 29.9-9.6L187 590c4.5.7 84.2 10.9 166 9.2 14.8 1.2 28.8 1.8 41.7 1.8a278 278 0 0 0 57.9-5.3c38.1-8.1 64.1-24.5 77.3-48.5a77.6 77.6 0 0 0 8.5-48.1 80.8 80.8 0 0 0 23.2-90.5zM51.8 562.2a18.4 18.4 0 0 1-18.2-18.4V339.4c0-10.1 8.1-18.2 18.2-18.3h76c10.1.1 18.2 8.2 18.2 18.3v204.3c0 10.1-8.1 18.3-18.2 18.3h-76v.2z"/>
</svg>
