<?xml version="1.0" encoding="utf-8"?>
<svg xmlns="http://www.w3.org/2000/svg" viewBox="0 0 579 601">
  <path id="thumb-down-svg-icon__shape" fill="currentColor" d="M17.4 192.4A74.9 74.9 0 0 0 .1 242.3a76.2 76.2 0 0 0 16.2 43.2C8.2 305.9 5 338 32.1 362.8c19.8 18.2 53.4 26.4 100 24.1 20.6-1 41.1-3.6 61.3-7.9h.1c6.2-1.1 12.8-2.5 19.6-4 .5 8.1-.9 28-15.6 73-17.4 53.5-16.4 94.5 3.2 121.9 20.7 28.8 53.7 31.1 63.4 31.1 9.3.1 18.1-4 24-11.1 13.8-16.2 12.2-46.1 10.5-60C315 485.4 361.1 376.3 400.1 346a134.3 134.3 0 0 0 26.4-38.8c7.6 4.1 16 6.3 24.7 6.3h76a52.1 52.1 0 0 0 51.8-52.3v-204a52.1 52.1 0 0 0-51.8-52.3h-76a51 51 0 0 0-29.9 9.6L392 11c-4.5-.7-84.2-10.9-166-9.2A519.5 519.5 0 0 0 184.3 0a278 278 0 0 0-57.9 5.3C88.2 13.4 62.2 29.8 49 53.8a77.6 77.6 0 0 0-8.5 48.1 80.8 80.8 0 0 0-23.1 90.5zM527.2 38.8c10.1.1 18.2 8.3 18.2 18.4v204.4c0 10.1-8.1 18.2-18.2 18.3h-76a18.3 18.3 0 0 1-18.2-18.3V57.3c0-10.1 8.1-18.3 18.2-18.3h76v-.2zM49.3 207.1a16.9 16.9 0 0 0 2.2-20.5 51.4 51.4 0 0 1-5.7-21c-.9-16.4 7-31 23.4-43.4a17.2 17.2 0 0 0 5.7-19.4c0-.1-5.4-16.7 3.4-32.4 8.3-15.1 26.9-25.9 55.1-31.9 22.5-4.9 53.2-5.8 90.8-2.8h1.7c80.1-1.8 161 8.8 161.9 8.9h.1l12.6 1.5c-.8 3.7-1.1 7.4-1.1 11.1v204.4c0 5.3.8 10.5 2.4 15.5-2.2 8.4-8.5 27.2-23.2 43.1-56 44.8-110.6 195.7-113 202.2a15 15 0 0 0-.7 8.4c2.1 14.1 1.4 31.3-1.6 36.5-6.6-.1-24.4-2-35.1-17-12.7-17.7-12.2-49.4 1.5-91.4 20.9-64 22.7-97.7 6.1-112.5a27 27 0 0 0-27.2-4.9c-7.6 1.8-14.8 3.3-21.7 4.4l-1.6.4c-38.2 8.4-106.7 13.6-130.5-8.3-20.2-18.6-5.9-43.3-4.2-45.9a17 17 0 0 0-3-21.9c-.1-.1-13.2-12.5-13.8-29.2-.6-11.1 4.6-22.6 15.5-33.9z"/>
  <path id="thumb-down-svg-icon__fill" fill="transparent" d="M17.4 192.4A74.9 74.9 0 0 0 .1 242.3a76.2 76.2 0 0 0 16.2 43.2C8.2 305.9 5 338 32.1 362.8c19.8 18.2 53.4 26.4 100 24.1 20.6-1 41.1-3.6 61.3-7.9h.1c6.2-1.1 12.8-2.5 19.6-4 .5 8.1-.9 28-15.6 73-17.4 53.5-16.4 94.5 3.2 121.9 20.7 28.8 53.7 31.1 63.4 31.1 9.3.1 18.1-4 24-11.1 13.8-16.2 12.2-46.1 10.5-60C315 485.4 361.1 376.3 400.1 346a134.3 134.3 0 0 0 26.4-38.8c7.6 4.1 16 6.3 24.7 6.3h76a52.1 52.1 0 0 0 51.8-52.3v-204a52.1 52.1 0 0 0-51.8-52.3h-76a51 51 0 0 0-29.9 9.6L392 11c-4.5-.7-84.2-10.9-166-9.2A519.5 519.5 0 0 0 184.3 0a278 278 0 0 0-57.9 5.3C88.2 13.4 62.2 29.8 49 53.8a77.6 77.6 0 0 0-8.5 48.1 80.8 80.8 0 0 0-23.1 90.5zM527.2 38.8c10.1.1 18.2 8.3 18.2 18.4v204.4c0 10.1-8.1 18.2-18.2 18.3h-76a18.3 18.3 0 0 1-18.2-18.3V57.3c0-10.1 8.1-18.3 18.2-18.3h76v-.2z"/>
</svg>
