<svg xmlns="http://www.w3.org/2000/svg" viewBox="0 0 31.72 33.32">
  <path d="M30.3 0H27.7a1.42 1.42 0 0 0-1.4 1.18l-.4 2.3H1.43A1.42 1.42 0 0 0 0 5l.9 10.65A1.42 1.42 0 0 0 2 16.92l20.94 5.25v2.6a4.38 4.38 0 0 0-1.55-.3 4.43 4.43 0 1 0 4.42 4.43v-.26a1.4 1.4 0 0 0 0-.17l-.07-7.42a1.42 1.42 0 0 0-1.07-1.36l-21-5.28L3 6.32h22.4L24 14.3a1.42 1.42 0 0 0 1.16 1.64h.24a1.42 1.42 0 0 0 1.4-1.18l2-11.94h1.43A1.42 1.42 0 0 0 30.3 0zm-8.9 30.5a1.6 1.6 0 1 1 1.6-1.6 1.6 1.6 0 0 1-1.6 1.6zM6.44 24.47a4.43 4.43 0 1 0 4.42 4.43 4.43 4.43 0 0 0-4.42-4.43zm0 6A1.6 1.6 0 1 1 8 28.9a1.6 1.6 0 0 1-1.56 1.6z" fill="#ffffff"/>
</svg>
