<svg xmlns="http://www.w3.org/2000/svg" viewBox="0 0 36.86 33.41">
    <path fill="#e41f12" d="M18.43 33.4a1.4 1.4 0 0 1-.77-.22A64 64 0 0 1 5.16 22.9C3.7 21.38 0 16.35 0 11.32A11.33 11.33 0 0 1 11.32 0a11.2 11.2 0 0 1 7.1 2.52A11.2 11.2 0 0 1 25.55 0a11.33 11.33 0 0 1 11.32 11.32c0 5-3.72 10.06-5.15 11.58a64 64 0 0 1-12.5 10.28 1.4 1.4 0 0 1-.77.23zm-7.1-30.57a8.5 8.5 0 0 0-8.5 8.5c0 3.77 2.95 8.1 4.38 9.62a60.58 60.58 0 0 0 11.23 9.35A60.6 60.6 0 0 0 29.65 21c1.43-1.56 4.35-5.9 4.35-9.68a8.48 8.48 0 0 0-14.58-5.9 1.42 1.42 0 0 1-1 .43 1.42 1.42 0 0 1-1-.43 8.4 8.4 0 0 0-6.1-2.6z"/>
</svg>
