<svg xmlns="http://www.w3.org/2000/svg" viewBox="0 0 62.39 24.67">
    <path d="M12.33 0a12.33 12.33 0 1 0 12.34 12.33A12.35 12.35 0 0 0 12.33 0zm0 21.83a9.5 9.5 0 1 1 9.5-9.5 9.51 9.51 0 0 1-9.5 9.5z"/>
    <path d="M14.93 12.12a8.75 8.75 0 0 0-2.18-.73 6.28 6.28 0 0 1-1.85-.61 1 1 0 0 1-.46-.85 1.14 1.14 0 0 1 .49-1 2.09 2.09 0 0 1 1.27-.36 1.94 1.94 0 0 1 1.34.45A1.46 1.46 0 0 1 14 10.2h2.36a3 3 0 0 0-1.16-2.42 4.25 4.25 0 0 0-2-.84v-1.5h-2.14V7h.06a4.14 4.14 0 0 0-1.84.81A2.8 2.8 0 0 0 8.13 10a2.69 2.69 0 0 0 1.77 2.52 8.88 8.88 0 0 0 2 .64 5.53 5.53 0 0 1 1.73.58 1.07 1.07 0 0 1 .52 1 1.1 1.1 0 0 1-.49.93 2.39 2.39 0 0 1-1.42.36 2.46 2.46 0 0 1-1.55-.45 1.66 1.66 0 0 1-.63-1.29H7.78A3 3 0 0 0 8.35 16a3.8 3.8 0 0 0 1.58 1.28 4.92 4.92 0 0 0 1.14.36v1.41h2.17v-1.37a4.48 4.48 0 0 0 2.07-.8 2.74 2.74 0 0 0 1.18-2.3 2.59 2.59 0 0 0-.38-1.44 3.09 3.09 0 0 0-1.18-1.02zM52.08 12.33a1.42 1.42 0 0 0-.42-1L43 2.69a1.42 1.42 0 0 0-2 2l6.22 6.22h-14a1.42 1.42 0 0 0 0 2.83h14L41 20a1.42 1.42 0 1 0 2 2l8.64-8.64a1.42 1.42 0 0 0 .44-1.03z"/>
    <path d="M62 11.33l-8.66-8.64a1.42 1.42 0 0 0-2 2L59 12.33 51.34 20a1.42 1.42 0 1 0 2 2L62 13.34a1.42 1.42 0 0 0 0-2.01z"/>
</svg>
