<svg xmlns="http://www.w3.org/2000/svg" width="24.842" height="26.198" viewBox="0 0 24.842 26.198">
  <path id="attachment_placeholder" d="M9.62,26.783A8.113,8.113,0,0,1,3.881,12.931L14.532,2.28a5.8,5.8,0,0,1,8.2,8.2L12.068,21.13a3.478,3.478,0,0,1-4.918-4.919l9.84-9.828a1.159,1.159,0,1,1,1.638,1.64L8.788,17.851a1.16,1.16,0,0,0,1.641,1.64L21.092,8.84a3.479,3.479,0,0,0-4.921-4.92L5.52,14.57a5.8,5.8,0,0,0,8.2,8.2L24.371,12.12a1.159,1.159,0,1,1,1.639,1.639L15.359,24.41A8.091,8.091,0,0,1,9.62,26.783Z" transform="translate(-1.507 -0.585)" fill="#f0f0f0"/>
</svg>
