<svg xmlns="http://www.w3.org/2000/svg" viewBox="0 0 51 45">
  <path d="M50.04 30.84l-22.58 7.53.02.26C27.6 42 25 44.87 21.65 45h-.25c-3.28 0-5.95-2.57-6.1-5.87-.05-1.63.52-3.2 1.62-4.4.37-.4.78-.74 1.22-1.03L9.37 7.05.77 2.7C.07 2.35-.2 1.5.14.8c.35-.72 1.2-1 1.9-.65l9.1 4.6c.35.18.6.48.73.84l8.96 27.16.32-.02h.26c2.2 0 4.1 1.15 5.17 2.9l22.58-7.53c.75-.24 1.56.17 1.8.92s-.16 1.56-.9 1.82zM21.4 35.62h-.13c-.87.03-1.67.4-2.26 1.04-.58.64-.88 1.47-.85 2.35.07 1.8 1.58 3.22 3.38 3.14 1.8-.07 3.2-1.6 3.12-3.38-.07-1.77-1.5-3.14-3.24-3.14zm26.2-10.6l-21.82 7.26c-.15.06-.3.08-.44.08-.6 0-1.15-.38-1.35-1L16.82 9.63c-.25-.75.15-1.57.9-1.8l10.9-3.65L39.53.52c.37-.1.75-.08 1.1.1.33.16.6.45.7.8L48.5 23.2c.1.36.07.75-.1 1.1-.16.33-.46.6-.8.7zM39.1 3.68l-8.23 2.73 1.74 5.27c.25.75-.15 1.57-.9 1.8-.15.06-.3.1-.44.1-.6 0-1.15-.4-1.34-1l-1.74-5.28-8.2 2.76 6.26 19.04 19.12-6.38L39.1 3.7z"/>
</svg>
