<svg xmlns="http://www.w3.org/2000/svg" viewBox="0 0 61.09 44.96">
    <path d="M30.56 10.17A12.33 12.33 0 1 0 42.89 22.5a12.35 12.35 0 0 0-12.33-12.33zm0 21.83a9.5 9.5 0 1 1 9.5-9.5 9.51 9.51 0 0 1-9.5 9.5z"/>
    <path d="M33.15 22.29a8.75 8.75 0 0 0-2.15-.73 6.28 6.28 0 0 1-1.88-.56 1 1 0 0 1-.46-.85 1.14 1.14 0 0 1 .49-1 2.09 2.09 0 0 1 1.27-.36 1.94 1.94 0 0 1 1.34.45 1.46 1.46 0 0 1 .51 1.13h2.36A3 3 0 0 0 33.47 18a4.25 4.25 0 0 0-2-.84v-1.5h-2.18v1.52h.06a4.14 4.14 0 0 0-1.84.81 2.8 2.8 0 0 0-1.15 2.28 2.69 2.69 0 0 0 1.77 2.48 8.88 8.88 0 0 0 2 .64 5.53 5.53 0 0 1 1.73.58 1.07 1.07 0 0 1 .52 1 1.1 1.1 0 0 1-.49.93 2.39 2.39 0 0 1-1.42.36 2.45 2.45 0 0 1-1.55-.45 1.66 1.66 0 0 1-.63-1.29H26a3 3 0 0 0 .56 1.76 3.8 3.8 0 0 0 1.58 1.28 4.93 4.93 0 0 0 1.14.36v1.41h2.17v-1.48a4.48 4.48 0 0 0 2.07-.8 2.74 2.74 0 0 0 1.18-2.3 2.59 2.59 0 0 0-.38-1.44 3.08 3.08 0 0 0-1.17-1.02zM35.36 42.13h-7.55A18.66 18.66 0 0 1 9.17 23.49v-1.65l3.92 3.92a1.42 1.42 0 1 0 2-2l-6.33-6.34a1.42 1.42 0 0 0-.46-.31 1.41 1.41 0 0 0-.5-.1 1.41 1.41 0 0 0-.5.1 1.42 1.42 0 0 0-.46.31L.42 23.75a1.42 1.42 0 0 0 2 2l3.92-3.92v1.65A21.5 21.5 0 0 0 27.81 45h7.54a1.42 1.42 0 1 0 .01-2.87zM60.68 19.21a1.41 1.41 0 0 0-2 0l-3.9 3.9v-1.63A21.5 21.5 0 0 0 33.3 0h-7.54a1.42 1.42 0 0 0 0 2.83h7.54a18.66 18.66 0 0 1 18.64 18.65v1.67L48 19.21a1.42 1.42 0 0 0-2 2l6.34 6.34.09.06a1.41 1.41 0 0 0 .31.21l.13.05a1.41 1.41 0 0 0 .45.09 1.41 1.41 0 0 0 1.09-.52l6.23-6.23a1.42 1.42 0 0 0 .04-2z"/>
</svg>
