<svg xmlns="http://www.w3.org/2000/svg" viewBox="0 0 41 46"><path d="M40.48 34.86l-19.47 11c-.16.09-.33.13-.51.13s-.35-.04-.51-.13l-19.47-11c-.32-.18-.52-.52-.52-.88v-22c0-.36.2-.7.52-.87L19.99.1c.31-.18.71-.18 1.02 0l19.47 11.01c.32.17.52.51.52.87v22c0 .36-.2.7-.52.88zM2.06 31.92l.66-.37c.49-.28 1.12-.12 1.41.36.28.48.11 1.1-.38 1.38l-.95.53 16.67 9.43V24.27h-.04c-.35 0-.7-.18-.89-.5a1 1 0 0 1-.09-.79L2.06 13.72v18.2zM21.53 2.71v.43c0 .56-.46 1.01-1.03 1.01-.57 0-1.03-.45-1.03-1.01v-.43L3.09 11.98l16.4 9.27c.1-.46.51-.8 1.01-.8s.91.34 1.01.8l16.4-9.27-16.38-9.27zm17.41 11.01l-16.39 9.26a1 1 0 0 1-.09.79c-.19.32-.54.5-.89.5h-.04v18.98l16.67-9.43-.95-.53c-.49-.28-.66-.9-.38-1.38.29-.48.92-.64 1.41-.36l.66.37v-18.2zm-3.85 18.19c-.18 0-.35-.04-.51-.13l-1.84-1.04a.985.985 0 0 1-.37-1.37c.28-.49.91-.65 1.4-.37l1.83 1.03c.5.28.66.9.38 1.38-.19.32-.54.5-.89.5zm-4.51-2.55c-.17 0-.35-.04-.51-.13l-1.83-1.04a.988.988 0 0 1-.38-1.37c.28-.48.91-.65 1.4-.37l1.84 1.04c.49.27.66.89.37 1.37-.19.32-.53.5-.89.5zm-4.51-2.54c-.17 0-.35-.05-.51-.14l-1.83-1.04a.994.994 0 0 1-.38-1.37c.29-.48.91-.65 1.41-.37l1.83 1.04c.49.28.66.89.38 1.37-.19.33-.54.51-.9.51zm-5.57-7.38c-.57 0-1.03-.46-1.03-1.01v-2.07c0-.56.46-1.01 1.03-1.01.57 0 1.03.45 1.03 1.01v2.07c0 .55-.46 1.01-1.03 1.01zm0-5.1c-.57 0-1.03-.45-1.03-1v-2.08c0-.55.46-1 1.03-1 .57 0 1.03.45 1.03 1v2.08c0 .55-.46 1-1.03 1zm0-5.09c-.57 0-1.03-.46-1.03-1.01V6.17c0-.56.46-1.01 1.03-1.01.57 0 1.03.45 1.03 1.01v2.07c0 .55-.46 1.01-1.03 1.01zm-3.23 16.39l-1.83 1.04a1.031 1.031 0 0 1-1.41-.37.996.996 0 0 1 .38-1.37l1.83-1.04c.5-.28 1.12-.11 1.41.37.28.48.11 1.1-.38 1.37zm-4.51 2.55l-1.83 1.04c-.16.09-.34.13-.51.13-.36 0-.7-.18-.89-.5a.982.982 0 0 1 .37-1.37l1.84-1.04c.49-.28 1.12-.11 1.4.37.28.48.12 1.09-.38 1.37zm-4.5 2.55l-1.84 1.04c-.16.09-.33.13-.51.13-.35 0-.7-.18-.89-.5a1 1 0 0 1 .38-1.38L7.23 29c.49-.28 1.12-.12 1.4.37.29.48.12 1.09-.37 1.37z"/></svg>
