<svg xmlns="http://www.w3.org/2000/svg" viewBox="0 0 41 51">
    <path d="M29.17 38.96a1.5 1.5 0 0 1-2.13 0l-4.07-4.09c-.74.4-1.57.65-2.47.65a5.26 5.26 0 0 1-1.51-10.3V18.7a1.5 1.5 0 1 1 3.02 0v6.52a5.27 5.27 0 0 1 3.74 5.03c0 .9-.25 1.73-.65 2.48l4.07 4.08c.59.6.59 1.55 0 2.15zM20.5 28a2.24 2.24 0 0 0 0 4.49 2.2 2.2 0 0 0 1.56-.65l.01-.01.02-.02A2.24 2.24 0 0 0 20.5 28zm14.87-11.78A20.71 20.71 0 0 1 41 30.4c0 11.35-9.2 20.59-20.5 20.59S.01 41.75.01 30.4A20.57 20.57 0 0 1 18.99 9.86V3.03h-6.12a1.5 1.5 0 0 1-1.51-1.51c0-.84.67-1.52 1.51-1.52h15.62C29.33 0 30 .68 30 1.52a1.5 1.5 0 0 1-1.51 1.51h-6.48v9.81H20.5A17.53 17.53 0 0 0 3.02 30.4c0 9.68 7.84 17.56 17.48 17.56s17.48-7.88 17.48-17.56c0-4.96-2.1-9.72-5.77-13.04l-1.18-1.07 5.1-5.12a1.5 1.5 0 0 1 2.13 0c.59.59.59 1.55 0 2.14l-2.89 2.91z"/>
</svg>
