<svg xmlns="http://www.w3.org/2000/svg" viewBox="0 0 39 29"><path d="M37.8 21.6H25.7c-.1 0-.3 0-.5-.1-.5-.2-.8-.9-.5-1.5l5.4-13.1-6.8-.9c-.2.6-.7 1.2-1.3 1.6-.4.3-.8.5-1.4.7v15.2c0 .6-.5 1-1 1.1-.7 0-1.2-.4-1.3-1.1V8.3c-1.6-.5-2.8-1.8-3-3.4L9.1 4l5.3 12.8c0 .1.1.3.1.5 0 .6-.6 1.1-1.2 1.1H1.2c-.2 0-.4 0-.5-.1-.6-.3-.9-.9-.6-1.5L6.2 2.2c.2-.4.6-.7 1.1-.7h.2l8.1 1.1C16.2 1.2 17.5.2 19 0c2.3-.2 4.4 1.4 4.7 3.7l8.1 1.1h.2c.4 0 .7.3.9.7l6 14.5c.1.2.1.4.1.5 0 .7-.6 1.2-1.2 1.1zM7.2 5.7L2.9 16.1h8.6L7.2 5.7zm12.5-3.3h-.2c-1 0-1.8.7-1.9 1.6v.2c-.1 1.1.7 2 1.7 2.1 1.1 0 2-.7 2.1-1.8.1-1-.6-2-1.7-2.1zm12.1 6.5l-4.4 10.4h8.7L31.8 8.9zM15.5 26.7H24.3c.7.1 1.1.6 1.1 1.2-.1.7-.6 1.2-1.3 1.1h-8.6-.2c-.6-.1-1.1-.6-1-1.2 0-.7.6-1.2 1.2-1.1z"/></svg>
