<svg xmlns="http://www.w3.org/2000/svg" viewBox="0 0 41 40" width="41" height="40">
  <path d="M38.23 2.6c-3.44-3.45-9.04-3.45-12.5 0L2.84 25.48c-.17.18-.28.4-.3.66L.82 38.7c-.06.35.07.7.32.96.2.2.5.34.8.34h.16l7.58-1.03c.63-.1 1.07-.67 1-1.3-.1-.63-.68-1.07-1.3-.98l-6.08.8 1.2-8.76 9.2 9.22c.23.22.52.34.82.34.3 0 .6-.1.8-.34l22.9-22.88c1.68-1.67 2.6-3.88 2.6-6.24 0-2.36-.92-4.58-2.6-6.24zM26.18 5.4l3.85 3.86-20.9 20.88L5.3 26.3 26.17 5.4zM14.53 35.54l-3.76-3.76 20.9-20.9 3.76 3.77-20.9 20.9zM37.03 13l-9.2-9.2C29 2.84 30.46 2.3 32 2.3c1.74 0 3.37.7 4.6 1.92 1.25 1.23 1.92 2.87 1.92 4.62 0 1.54-.53 3-1.5 4.16z"/>
</svg>
