<svg xmlns="http://www.w3.org/2000/svg" viewBox="0 0 512 512">
    <path d="M512 384a56.9 56.9 0 0 1-56.89 56.89H56.9A56.9 56.9 0 0 1 0 384V128a56.9 56.9 0 0 1 56.89-56.89H455.1A56.9 56.9 0 0 1 512 128v256z" fill="#c60a1d"/>
    <path d="M512 341.33H0V170.67h512v170.66z" fill="#ffc400"/>
    <path d="M128 241.78v42.66a42.66 42.66 0 1 0 85.33 0v-42.66H128z" fill="#ea596e"/>
    <path d="M170.67 270.22h42.66v-42.66h-42.66v42.66z" fill="#f4a2b2"/>
    <path d="M170.67 270.22H128v-42.66h42.67v42.66z" fill="#dd2e44"/>
    <path d="M213.33 206.22c0 11.8-19.1 21.34-42.66 21.34S128 218 128 206.22s19.1-21.33 42.67-21.33 42.66 9.54 42.66 21.33" fill="#ea596e"/>
    <path d="M213.33 195.56c0-5.9-19.1-10.67-42.66-10.67S128 189.67 128 195.56c0 5.88 19.1 10.66 42.67 10.66s42.66-4.78 42.66-10.66" fill="#ffac33"/>
    <path d="M99.56 327.11h14.22v-99.55H99.56v99.55zm142.22 0h-14.23v-99.55h14.23v99.55z" fill="#99aab5"/>
    <path d="M128 327.11H85.33V312.9H128v14.22zm128 0h-42.67V312.9H256v14.22zm-142.22-99.56H99.56v-14.22h14.22v14.22zm128 0h-14.23v-14.22h14.23v14.22z" fill="#66757f"/>
</svg>