<svg xmlns="http://www.w3.org/2000/svg" viewBox="0 0 64 45">
  <g fill="none" fill-rule="evenodd">
    <path d="M3 0h58a3 3 0 013 3v12H0V3a3 3 0 013-3z" fill="#FFF"/>
    <path fill="#171796" d="M0 15h64v16H0z"/>
    <path d="M0 31h64v11a3 3 0 01-3 3H3a3 3 0 01-3-3V31z" fill="#D00"/>
    <g fill-rule="nonzero">
      <path d="M10.528 8.227c-.152.065-.303.133-.453.203l.472 7.26a8.071 8.071 0 002.445 5.262A8.453 8.453 0 0016.518 23c3.367-.983 5.749-3.9 5.97-7.31l.472-7.26c-.15-.07-.3-.138-.452-.203l-.483 7.431c-.205 3.174-2.392 5.9-5.507 6.869a7.98 7.98 0 01-3.197-1.895 7.624 7.624 0 01-2.31-4.974l-.483-7.431" fill="#D50000"/>
      <path d="M22.508 8.227A15.208 15.208 0 0016.518 7c-2.083 0-4.12.426-5.99 1.227l.483 7.431a7.624 7.624 0 002.31 4.974 7.98 7.98 0 003.197 1.895 7.98 7.98 0 003.197-1.895 7.624 7.624 0 002.31-4.974" fill="#0000BF"/>
      <path d="M16.88 10.476l.265-.352-.446.047-.181-.4-.181.4-.447-.047.265.352-.265.352.447-.047.18.4.182-.4.446.047M15.19 8.284l.265-.353-.446.047-.181-.4-.182.4-.446-.047.265.353-.265.352.446-.047.182.4.18-.4.447.047m3.117-.352l.266-.353-.447.047-.181-.4-.181.4-.447-.047.265.353-.265.352.447-.047.18.4.182-.4.447.047" fill="#FFDF00"/>
      <g fill="#FFF">
        <path d="M21.35 16.74l-2.416-3.132-.967 1.253-1.45-2.819-1.449 2.819-.966-1.253-2.416 3.132c0 .56.307 1.077.805 1.357a1.65 1.65 0 001.61 0 1.65 1.65 0 011.611 0 1.646 1.646 0 001.61 0 1.65 1.65 0 011.612 0c.002 0-.002-.001 0 0a1.645 1.645 0 001.944-.25c.302-.293.472-.691.472-1.107"/>
        <path d="M12.258 18.441c.111.214.233.423.365.626a1.652 1.652 0 001.479-.066c.002-.001-.002 0 0 0a1.644 1.644 0 011.61 0c.499.28 1.113.28 1.611 0a1.644 1.644 0 011.61 0 1.652 1.652 0 001.48.066c.132-.202.253-.411.365-.626-.08.03-.159.066-.234.108a1.65 1.65 0 01-1.61 0 1.646 1.646 0 00-1.61 0c-.003 0 .001-.001 0 0a1.65 1.65 0 01-1.612 0 1.645 1.645 0 00-1.61 0 1.65 1.65 0 01-1.61 0 1.63 1.63 0 00-.234-.108"/>
        <path d="M19.995 19.643a7.51 7.51 0 01-3.477 2.408 7.509 7.509 0 01-3.478-2.408c.366.057.741-.01 1.062-.19.001-.001-.002 0 0 0a1.645 1.645 0 011.61 0 1.65 1.65 0 001.611 0 1.645 1.645 0 011.61 0c.322.18.696.247 1.062.19"/>
      </g>
    </g>
  </g>
</svg>
