<svg xmlns="http://www.w3.org/2000/svg" viewBox="0 0 512 512">
    <path d="M0 184.89h80.04L0 128.85v56.04zm66.33 256H184.9v-83.02L66.33 440.9zm260.78-83v83h118.54l-118.54-83zM0 327.1v56.05l80.07-56.05H0zm445.73-256H327.15v83.02L445.73 71.1zm-13.81 256L512 383.17v-56.06h-80.08zm.02-142.22H512v-56.05l-80.06 56.05zM184.9 71.1H66.33l118.56 83.02V71.1z" fill="#00247d"/>
    <path d="M357.55 327.11l138.12 96.73a56.62 56.62 0 0 0 14.08-24.88l-102.61-71.85h-49.6zm-172.66 0h-30.45L16.33 423.82a56.77 56.77 0 0 0 27.56 15.43l141-98.73v-13.41zM327.1 184.9h30.45l138.11-96.71a56.79 56.79 0 0 0-27.55-15.43l-141 98.73v13.4zm-172.67 0L16.33 88.18a56.82 56.82 0 0 0-14.1 24.87l102.62 71.84h49.59z" fill="#cf1b2b"/>
    <path d="M512 298.67H298.67v142.22h28.44v-83l118.54 83h9.46a56.75 56.75 0 0 0 40.56-17.05L357.55 327.1h49.59l102.61 71.85A55.95 55.95 0 0 0 512 384v-.82l-80.09-56.07H512v-28.44zm-512 0v28.44h80.07L0 383.16v.84a56.65 56.65 0 0 0 16.33 39.82l138.11-96.7h30.45v13.4l-141 98.73a56.7 56.7 0 0 0 13 1.64h9.44l118.56-83.02v83.02h28.44V298.67H0zM512 128a56.65 56.65 0 0 0-16.33-39.82l-138.11 96.7h-30.45v-13.4l141.02-98.73a56.92 56.92 0 0 0-13.02-1.64h-9.43l-118.57 83.02V71.1h-28.45v142.22H512V184.9h-80.06L512 128.84V128zM184.89 71.11v83.02L66.33 71.1H56.9a56.68 56.68 0 0 0-40.56 17.07l138.11 96.7h-49.6L2.25 113.06A56.52 56.52 0 0 0 0 128v.84l80.04 56.05H0v28.44h213.33V71.11H184.9z" fill="#eee"/>
    <path d="M298.67 213.33V71.11h-85.34v142.22H0v85.34h213.33v142.22h85.34V298.67H512v-85.34H298.67z" fill="#cf1b2b"/>
</svg>