<svg xmlns="http://www.w3.org/2000/svg" viewBox="0 0 64 45">
  <path d="M64 38.1c0 3.8-5 6.9-8.8 6.9H6.9C3.1 45 0 41.9 0 38.1V6.9C0 3.1 3.1 0 6.9 0h50.2C60.9 0 64 3.1 64 6.9v31.2z" fill="#c60a1d"/>
  <path d="M64 32.8H0V12.1h64v20.7z" fill="#ffc400"/>
  <path d="M15.5 20.7v5.2c0 2.9 2.3 5.2 5.2 5.2s5.2-2.3 5.2-5.2v-5.2H15.5z" fill="#ea596e"/>
  <path d="M20.7 24.2h5.2V19h-5.2v5.2z" fill="#f4a2b2"/>
  <path d="M20.7 24.2h-5.2V19h5.2v5.2z" fill="#dd2e44"/>
  <path d="M25.9 16.4c0 1.4-2.3 2.6-5.2 2.6s-5.2-1.2-5.2-2.6c0-1.4 2.3-2.6 5.2-2.6s5.2 1.2 5.2 2.6" fill="#ea596e"/>
  <path d="M25.9 15.1c0-.7-2.3-1.3-5.2-1.3s-5.2.6-5.2 1.3c0 .7 2.3 1.3 5.2 1.3s5.2-.6 5.2-1.3" fill="#ffac33"/>
  <path d="M12 31.1h1.7V19H12v12.1zm17.3 0h-1.7V19h1.7v12.1z" fill="#99aab5"/>
  <path d="M15.5 31.1h-5.2v-1.7h5.2v1.7zm15.5 0h-5.2v-1.7H31v1.7zM13.8 19H12v-1.7h1.7V19zm15.5 0h-1.7v-1.7h1.7V19z" fill="#66757f"/>
</svg>
