<svg xmlns="http://www.w3.org/2000/svg" viewBox="0 0 64 45">
  <path d="M.2 39.7c0 .2.1.3.2.5.1.4.3.9.6 1.3C2.1 43.6 4.3 45 6.9 45h50.3c2.5 0 4.7-1.4 5.9-3.5.2-.4.4-.8.6-1.3.1-.2.1-.3.2-.5 0-.2.1-.3.1-.5.1-.4.1-.8.1-1.1V6.9c0-.4 0-.8-.1-1.2 0-.2-.1-.3-.1-.5s-.1-.4-.2-.5c-.1-.4-.3-.9-.6-1.3-1.2-2-3.4-3.4-6-3.4H30.9v24.2H0V38c0 .4 0 .8.1 1.2 0 .2.1.4.1.5z" fill="#eee"/>
  <path d="M63 3.5C61.9 1.4 59.7 0 57.1 0H30.9v3.5H63zM0 38.1h64v-3.5H0v3.5zm30.9-17.3H64v3.5H30.9v-3.5zm0-7H64v3.5H30.9v-3.5zM0 27.7h64v3.5H0v-3.5zM57.1 45c2.5 0 4.7-1.4 5.9-3.5H1C2.1 43.6 4.3 45 6.9 45h50.2zM30.9 6.9H64v3.5H30.9V6.9z" fill="#b22334"/>
  <path d="M1 3.7s-.1 0 0 0zM.2 5.5c0-.2.1-.3.2-.5-.1.1-.1.3-.2.5" fill="#eee"/>
  <path d="M30.9 0h-24C3.1 0 0 3.1 0 6.9v17.3h30.9V0z" fill="#3c3b6e"/>
  <path d="M3.4 4.9l1.1.8-.4 1.2 1.1-.8 1.1.8-.5-1.2 1.1-.8H5.6l-.4-1.2-.4 1.2H3.4zm3.5 3.4l1.1.8-.4 1.2 1.1-.8 1.1.8-.6-1.2 1.1-.8H9l-.4-1.2-.4 1.2H6.9zm6.9 0l1.1.8-.4 1.2 1.1-.8 1.1.8-.4-1.2 1.1-.8h-1.3l-.4-1.2-.4 1.2h-1.5zm6.8 0l1.1.8-.4 1.2 1.1-.8 1.1.8-.5-1.2 1.1-.8h-1.3l-.4-1.2-.4 1.2h-1.4zM6.9 15.2l1 .8-.4 1.2 1.1-.8 1.1.8-.5-1.2 1.1-.8H9L8.6 14l-.4 1.2H6.9zm6.8 0l1.1.8-.4 1.2 1.1-.8 1.1.8-.5-1.2 1.1-.8h-1.3l-.4-1.2-.4 1.2h-1.4zm6.9 0l1.1.8-.4 1.2 1.1-.8 1.1.8L23 16l1.1-.8h-1.3l-.5-1.2-.4 1.2h-1.3zM10.3 4.9l1.1.8-.4 1.2 1-.7 1.1.8-.4-1.2 1.1-.8h-1.3L12 3.7l-.4 1.2h-1.3zm6.9 0l1.1.8-.4 1.2 1.1-.8 1 .8-.4-1.2 1.1-.8h-1.3L19 3.7l-.4 1.2h-1.4zm6.9 0l1.1.8-.4 1.2 1.1-.8 1.1.8-.4-1.2 1.1-.8h-1.3L26 3.7l-.4 1.2h-1.5zM3.4 11.8l1.1.8-.4 1.2 1.1-.8 1.1.8-.4-1.2 1.1-.8H5.6l-.4-1.2-.4 1.2H3.4zm7.6 2l1-.8 1.1.8-.4-1.2 1.1-.8h-1.3l-.5-1.3-.4 1.2h-1.3l1.1.8-.4 1.3zm6.2-2l1.1.8-.4 1.2L19 13l1.1.8-.4-1.2 1.1-.8h-1.3l-.4-1.2-.4 1.2h-1.5zm6.9 0l1.1.8-.4 1.2 1.1-.8 1.1.8-.4-1.2 1.1-.8h-1.3l-.4-1.2-.4 1.2h-1.5zM3.4 18.7l1.1.8-.4 1.2 1.1-.8 1.1.8-.4-1.2 1.1-.8H5.6l-.4-1.2-.4 1.2H3.4zm7.6 2l1.1-.8 1.1.8-.4-1.2 1.1-.8h-1.3l-.6-1.3-.4 1.2h-1.3l1.1.8-.4 1.3zm6.2-2l1.1.8-.4 1.2 1.1-.8 1.1.8-.4-1.2 1.1-.8h-1.3l-.4-1.2-.4 1.2h-1.5zm6.9 0l1.1.8-.4 1.2 1.1-.8 1.1.8-.4-1.2 1.1-.8h-1.3l-.4-1.2-.4 1.2h-1.5z" fill="#fff"/>
</svg>
