<svg height="600" width="1200" xmlns="http://www.w3.org/2000/svg"><path d="M0 0h1200v600H0z" fill="#fff"/><path d="M0 200h1200v400H0z" fill="#0000bf"/><path d="M0 400h1200v200H0zM227.415 115.337c-1.848.815-3.683 1.66-5.503 2.537l5.735 90.743a102.135 102.135 0 0 0 29.713 65.78A102.13 102.13 0 0 0 300.215 300h.001a102.134 102.134 0 0 0 72.568-91.383l5.735-90.743a180.92 180.92 0 0 0-5.503-2.537h.001l-5.87 92.891a96.487 96.487 0 0 1-66.93 85.856h-.002a96.47 96.47 0 0 1-38.858-23.684 96.48 96.48 0 0 1-28.072-62.172l-5.87-92.891h.001" fill="#d50000"/><path d="M373.017 115.337A180.423 180.423 0 0 0 300.216 100c-25.315 0-50.08 5.319-72.803 15.337l5.872 92.891a96.48 96.48 0 0 0 28.071 62.172 96.48 96.48 0 0 0 38.858 23.684h.002a96.463 96.463 0 0 0 38.858-23.684 96.473 96.473 0 0 0 28.071-62.172" fill="#0000bf"/><g fill="#ffdf00"><path d="M304.62 143.45l3.225-4.405-5.428.59-2.201-4.994-2.203 4.995-5.427-.59 3.225 4.404-3.225 4.405 5.427-.59 2.203 4.994 2.201-4.995 5.428.59M284.065 116.044l3.225-4.405-5.427.59-2.202-4.994-2.202 4.995-5.427-.59 3.224 4.404-3.224 4.404 5.427-.59 2.202 4.995 2.202-4.995 5.427.59M325.174 116.044l3.224-4.405-5.426.59-2.203-4.994-2.202 4.995-5.426-.59 3.224 4.404-3.224 4.404 5.426-.59 2.202 4.995 2.203-4.995 5.426.59"/></g><g fill="#fff"><path d="M358.944 221.754l-29.365-39.152-11.746 15.661-17.618-35.237-17.618 35.237-11.746-15.661-29.364 39.152a19.575 19.575 0 0 0 29.365 16.952l-.005.003a19.581 19.581 0 0 1 19.579-.003 19.578 19.578 0 0 0 9.79 2.624h-.003c3.408 0 6.788-.89 9.79-2.624a19.575 19.575 0 0 1 19.579.003c.02.011-.023-.014-.004-.003a19.574 19.574 0 0 0 23.631-3.11 19.575 19.575 0 0 0 5.734-13.842"/><path d="M248.443 243.012a90.792 90.792 0 0 0 4.439 7.827v.002a19.58 19.58 0 0 0 17.972-.833c.02-.011-.023.014-.004.003a19.56 19.56 0 0 1 9.79-2.624h-.003a19.55 19.55 0 0 1 9.79 2.624 19.583 19.583 0 0 0 19.58-.003l-.005.003a19.557 19.557 0 0 1 9.79-2.624h-.003a19.548 19.548 0 0 1 9.79 2.624 19.582 19.582 0 0 0 17.97.83 91.034 91.034 0 0 0 4.44-7.828c0-.001 0 0 0 0-.978.372-1.926.822-2.835 1.347l.005-.003a19.576 19.576 0 0 1-19.58.001 19.575 19.575 0 0 0-9.79-2.621h.004c-3.468 0-6.84.92-9.79 2.623-.019.011.024-.014.004-.002a19.57 19.57 0 0 1-19.579.003 19.578 19.578 0 0 0-9.79-2.624h.002c-3.467 0-6.839.92-9.79 2.625l.005-.003a19.575 19.575 0 0 1-19.579.001 19.606 19.606 0 0 0-2.832-1.344s0-.002 0 0"/><path d="M342.479 258.035a90.945 90.945 0 0 1-7.401 8.369 90.851 90.851 0 0 1-34.863 21.73 90.837 90.837 0 0 1-34.864-21.73 91.04 91.04 0 0 1-7.4-8.37 19.595 19.595 0 0 0 12.903-2.374c.019-.011-.024.014-.004.003a19.56 19.56 0 0 1 9.789-2.624h-.002a19.563 19.563 0 0 1 9.79 2.622 19.576 19.576 0 0 0 19.58-.001l-.005.003a19.556 19.556 0 0 1 9.789-2.624h-.002a19.564 19.564 0 0 1 9.79 2.622 19.568 19.568 0 0 0 12.9 2.373c.002 0 0 0-.001.001"/></g></svg>