<svg xmlns="http://www.w3.org/2000/svg" viewBox="0 0 512 512">
    <path d="M1.81 397.6a58.3 58.3 0 0 0 1.31 4.2 59.35 59.35 0 0 0 4.74 10.57c.01.03.01.07.03.07 9.86 16.94 28 28.45 49 28.45H455.1c21 0 39.14-11.5 49-28.44.02 0 .02-.05.03-.06a60.03 60.03 0 0 0 4.72-10.54c.49-1.41.96-2.82 1.33-4.27.34-1.3.6-2.6.84-3.91.55-3.07.95-6.17.97-9.43V128c0-3.31-.4-6.53-.98-9.67a51.54 51.54 0 0 0-.82-3.9 60.02 60.02 0 0 0-1.34-4.3 58.87 58.87 0 0 0-4.72-10.52.1.1 0 0 0-.03-.05c-9.86-16.94-27.99-28.45-49-28.45H256v199.11H0V384a54 54 0 0 0 .97 9.65c.24 1.33.51 2.65.84 3.94z" fill="#eee"/>
    <path d="M504.1 99.56c-9.85-16.94-27.98-28.45-48.99-28.45H256v28.45h248.1zM0 384h512v-28.44H0V384zm256-142.22h256v28.44H256zm0-56.9h256v28.45H256zM0 298.68h512v28.44H0zm455.11 142.22c21 0 39.14-11.5 49-28.44H7.89c9.86 16.93 28 28.44 49 28.44H455.1zM256 128h256v28.44H256z" fill="#b22334"/>
    <path d="M7.89 99.56c-.01.02-.03.04-.03.07l.03-.07zM1.82 114.4c.35-1.45.85-2.83 1.3-4.22-.47 1.39-.93 2.78-1.3 4.22" fill="#eee"/>
    <path d="M256 71.11H56.89A56.9 56.9 0 0 0 0 128v142.22h256V71.12z" fill="#3c3b6e"/>
    <path d="M28.46 109.87l8.8 6.39-3.36 10.32 8.77-6.38 8.8 6.38-3.38-10.32 8.8-6.39H46.03l-3.36-10.32-3.34 10.32H28.47zm28.45 28.45l8.79 6.38-3.37 10.33 8.79-6.39 8.78 6.39-3.37-10.33 8.8-6.38H74.48l-3.35-10.33-3.35 10.33H56.92zm56.89 0l8.79 6.38-3.37 10.33 8.79-6.39 8.78 6.39-3.37-10.33 8.8-6.38h-10.86L128 127.99l-3.34 10.33H113.8zm56.89 0l8.79 6.38-3.37 10.33 8.78-6.39 8.8 6.39-3.38-10.33 8.8-6.38h-10.86l-3.36-10.33-3.34 10.33H170.7zM56.9 195.2l8.79 6.38-3.37 10.33 8.79-6.39 8.78 6.39-3.37-10.33 8.8-6.38H74.48l-3.35-10.33-3.35 10.33H56.92zm56.89 0l8.79 6.38-3.37 10.33 8.79-6.39 8.78 6.39-3.37-10.33 8.8-6.38h-10.86L128 184.88l-3.34 10.33H113.8zm56.89 0l8.79 6.38-3.37 10.33 8.78-6.39 8.8 6.39-3.38-10.33 8.8-6.38h-10.86l-3.36-10.33-3.34 10.33H170.7zm-85.34-85.34l8.8 6.39-3.38 10.32 8.79-6.38 8.79 6.38-3.37-10.32 8.8-6.39h-10.86l-3.36-10.32-3.34 10.32H85.35zm56.9 0l8.78 6.39-3.37 10.32 8.79-6.38 8.79 6.38-3.37-10.32 8.8-6.39H159.8l-3.35-10.32-3.34 10.32h-10.87zm56.88 0l8.79 6.39-3.37 10.32 8.79-6.38 8.79 6.38-3.37-10.32 8.8-6.39h-10.87l-3.35-10.32-3.34 10.32h-10.87zm-170.66 56.9l8.78 6.38-3.35 10.32 8.77-6.38 8.8 6.38-3.38-10.32 8.8-6.39H46.04l-3.36-10.32-3.34 10.32H28.47zm62.3 16.7l8.8-6.38 8.77 6.38-3.35-10.32 8.79-6.39h-10.86l-3.35-10.3-3.36 10.3H85.36l8.77 6.39-3.35 10.32zm51.47-16.7l8.8 6.38-3.38 10.32 8.79-6.38 8.79 6.38-3.37-10.32 8.8-6.39H159.8l-3.35-10.32-3.34 10.32h-10.87zm56.9 0l8.78 6.38-3.37 10.32 8.79-6.38 8.79 6.38-3.37-10.32 8.8-6.39h-10.87l-3.35-10.32-3.34 10.32h-10.87zM28.46 223.64l8.78 6.39-3.35 10.32 8.77-6.38 8.8 6.38-3.38-10.32 8.8-6.39H46.04l-3.36-10.32-3.34 10.32H28.47zm62.3 16.71l8.8-6.39 8.77 6.4-3.35-10.33 8.79-6.39h-10.86l-3.35-10.31-3.36 10.31H85.36l8.77 6.39-3.35 10.32zm51.47-16.7l8.8 6.38-3.38 10.32 8.79-6.38 8.79 6.38-3.37-10.32 8.8-6.39H159.8l-3.35-10.32-3.34 10.32h-10.87zm56.9 0l8.78 6.38-3.37 10.32 8.79-6.38 8.79 6.38-3.37-10.32 8.8-6.39h-10.87l-3.35-10.32-3.34 10.32h-10.87z" fill="#fff"/>
</svg>