<svg xmlns="http://www.w3.org/2000/svg" viewBox="0 0 64 45">
  <path d="M0 13.8h10L0 7v6.8zM8.3 45h14.8V34.9L8.3 45zm32.6-10.1V45h14.8L40.9 34.9zM0 31.2V38l10-6.8H0zM55.7 0H40.9v10.1L55.7 0zM54 31.2L64 38v-6.8H54zm0-17.4h10V7l-10 6.8zM23.1 0H8.3l14.8 10.1V0z" fill="#00247d"/>
  <path d="M44.7 31.2L62 42.9c.8-.8 1.4-1.9 1.8-3L51 31.2h-6.3zm-21.6 0h-3.8L2 42.9c.9.9 2.1 1.6 3.4 1.9l17.6-12 .1-1.6zm17.8-17.4h3.8L62 2.1c-.9-.9-2.1-1.6-3.4-1.9L41 12.2l-.1 1.6zm-21.6 0L2 2.1C1.2 2.9.6 4 .3 5.1l12.8 8.7h6.2z" fill="#cf1b2b"/>
  <path d="M64 27.7H37.3V45h3.6V34.9L55.7 45h1.2c1.9 0 3.7-.7 5.1-2.1L44.7 31.2h6.2l12.8 8.7c.2-.6.3-1.2.3-1.8V38l-10-6.8h10v-3.5zm-64 0v3.5h10L0 38v.1c0 1.8.7 3.6 2 4.8l17.3-11.8h3.8v1.6l-17.6 12c.5.2 1.1.3 1.6.3h1.2l14.8-10.1V45h3.6V27.7H0zM64 6.9c0-1.8-.7-3.6-2-4.8L44.7 13.8h-3.8v-1.6L58.5.2C58 .1 57.4 0 56.9 0h-1.2L40.9 10.1V0h-3.6v17.3H64v-3.5H54L64 7v-.1zM23.1 0v10.1L8.3 0H7.1C5.2 0 3.4.7 2 2.1l17.3 11.8h-6.2L.3 5.1C.1 5.7 0 6.3 0 6.9V7l10 6.8H0v3.5h26.7V0h-3.6z" fill="#eee"/>
  <path d="M37.3 17.3V0H26.7v17.3H0v10.4h26.7V45h10.7V27.7H64V17.3H37.3z" fill="#cf1b2b"/>
</svg>
