<svg xmlns="http://www.w3.org/2000/svg" viewBox="0 0 49.9 13.3">
  <path d="M39.1 6.9v5.8c0 .5-.1.5-.5.5H37c-.4 0-.5 0-.5-.5V7.1c0-.3 0-.6-.1-.9-.1-.4-.4-.7-.8-.8-.8-.1-1.5.1-2.1.5-.1.1-.1.2-.1.4v6.5c0 .3-.1.4-.4.4h-1.8c-.3 0-.4-.1-.4-.4V3.9c0-.3.1-.4.4-.4h1.6c.3 0 .4.1.4.4v.5c.2-.1.3-.2.4-.2 1-.7 2.2-.9 3.4-.7 1.1.2 1.7.9 1.9 2 .1.3.2.9.2 1.4zm10.6-4.2l-.1.3c0 .1-.1.2-.1.2 0-.1 0-.1-.1-.2l-.1-.3h-.1v.7h.1v-.6c0 .1 0 .2.1.3l.1.3h.1l.1-.3v-.4c0 .2 0 .3.1.4v.3h.1v-.7h-.2zM22.8 6.2c.1 2.2 0 4.4.1 6.5 0 .3-.1.4-.4.4H21c-.4 0-.5-.1-.5-.5v-.2a3 3 0 0 1-.8.4c-.9.4-1.9.5-2.8.2-.9-.3-1.4-.9-1.6-1.7-.2-.6-.2-1.3 0-1.9.2-1 .9-1.5 1.8-1.8.9-.3 1.8-.3 2.7-.3.7 0 .7 0 .7-.7v-.5c-.1-.5-.5-.9-1-.9-1 0-2 0-3 .1-.5 0-.5 0-.5-.5v-1c0-.2.1-.3.3-.4 1.5-.3 3.1-.6 4.6-.2 1 .6 1.8 1.6 1.9 3zm-2.5 4.5V9.1c0-.1-.1-.2-.2-.2-.6 0-1.2 0-1.8.1-.4 0-.6.3-.7.7-.1.3-.1.7-.1 1 0 .4.3.6.7.7.6.1 1.2 0 1.7-.2.3-.1.4-.3.4-.5zm27.9-3.9v5.9c0 .4 0 .4-.4.4h-1.5c-.4 0-.5 0-.5-.4v-.2c-.1 0-.1 0-.2.1-.7.5-1.4.7-2.2.8-1.6.1-2.8-.9-2.9-2.5V9.7c.1-.9.7-1.6 1.6-1.8.7-.2 1.4-.3 2.1-.4h1.2c.2 0 .3-.1.3-.2v-.9c-.1-.6-.5-1-1.1-.9-1 0-2 0-2.9.1-.5 0-.6 0-.6-.5v-.9c0-.2.1-.4.4-.4 1.1-.3 2.3-.4 3.5-.3.5 0 1 .1 1.4.3 1.1.4 1.7 1.2 1.9 2.3-.1.1-.1.4-.1.7zm-2.5 3.9V9.1c0-.2-.1-.3-.3-.3h-1.1c-1.2.1-1.4.5-1.4 1.5 0 .6.3.9.7 1 .6.1 1.2 0 1.8-.3.2 0 .3-.1.3-.3zM13.2 0h-1.7c-.4 0-.5 0-.5.5v12.3c0 .3.1.4.4.4H13c.5 0 .6 0 .6-.5V.6c.1-.5 0-.6-.4-.6zm35.4 2.8h.2v.6h.1v-.6h.2v-.1l-.5.1zm-19.3.5c-.7 0-1.4.3-2 .7-.1 0-.2.1-.3.2v-.3c0-.4-.1-.5-.5-.5H25c-.5 0-.5.1-.5.5v8.7c0 .4.1.5.5.5h1.6c.4 0 .5-.1.5-.5V6.3c0-.2.1-.3.3-.4.6-.3 1.3-.5 2-.5.3 0 .4-.1.4-.4V3.6c-.1-.2-.2-.4-.5-.3zM2.3 0H.8C.3 0 0 .3 0 .8v11.9c0 .3 0 .4.4.4h1.5c.5 0 .8-.3.8-.8V.4c.1-.3 0-.4-.4-.4zM8 9a6.17 6.17 0 0 0-3.9-2c-.5 0-.5 0-.5.4 0 .1 0 .3.1.4C4 9.6 4.8 11 6.3 12c.9.7 2 1 3.1 1.2.3 0 .4 0 .4-.3C9.6 11.3 9 10 8 9zm1.4-9H9C7.5.3 6.2 1 5.2 2.1c-.9 1-1.4 2.3-1.6 3.7 0 .4 0 .4.4.4.5-.1 1-.2 1.5-.4C8 4.8 9.4 3 9.7.4c.1-.4 0-.4-.3-.4z"/>
</svg>
