<svg xmlns="http://www.w3.org/2000/svg" viewBox="0 0 330 330">
  <path d="M51.2 180H225c8.3 0 15-6.7 15-15s-6.7-15-15-15H51.2l19.4-19.4c6-5.8 6-15.3 0-21.2-5.8-6-15.3-6-21.2 0l-45 45-1 1c0 .2 0 .3-.2.4l-.7 1-.7 1v.3l-.7 1.3c0 .5-.2 1-.3 1.3v.2L.2 162v.4l-.2 1v3.1l.2 1v.5l.4 1.2v.2l.5 1.2v.2l.7 1v.3l.7 1v.3l.8 1 .2.2c.3.4.6.8 1 1l45 45c3 3 6.8 4.5 10.6 4.5s7.7-1.5 10.6-4.4c6-6 6-15.3 0-21.2L51.2 180z"/>
  <path d="M207.3 42.3c-41 0-79 20.3-102 54.3-4.5 7-2.7 16.2 4.2 20.8 7 4.7 16.2 2.8 20.8-4 17.3-25.7 46-41 77-41 51 0 92.7 41.5 92.7 92.6s-41.6 92.7-92.7 92.7c-30.8 0-59.6-15.3-77-41-4.5-6.7-13.8-8.5-20.7-4-7 4.7-8.7 14-4 21 22.8 33.8 61 54 101.7 54 67.7 0 122.7-55 122.7-122.7S275 42.3 207.3 42.3z"/>
</svg>
