<svg xmlns="http://www.w3.org/2000/svg" width="300" height="180">
  <path fill="#F90" d="M298.03 90.5c.02 48.94-39.64 88.6-88.58 88.63a88.62 88.62 0 0 1-88.63-88.58v-.05a88.62 88.62 0 0 1 177.21-.03v.03z"/>
  <path fill="#C00" d="M90 1.9C41.35 2.2 1.97 41.78 1.97 90.5c0 48.9 39.7 88.6 88.6 88.6a88.27 88.27 0 0 0 68.63-32.58h-18.15a84.68 84.68 0 0 1-6.6-9.12h31.3c1.9-3.05 3.63-6.2 5.16-9.5h-41.63a89.53 89.53 0 0 1-3.7-9.3h49.05a88.54 88.54 0 0 0 4.56-28.1c0-6.5-.7-12.86-2.04-18.98h-54.17a88.1 88.1 0 0 1 2.53-9.3h49.06a90.1 90.1 0 0 0-3.82-9.5h-41.47c1.5-3.2 3.2-6.3 5.08-9.3h31.3c-2.1-3.3-4.4-6.48-6.9-9.5h-17.43a82.52 82.52 0 0 1 8.9-8.94 88.38 88.38 0 0 0-59.65-23.1c-.2.02-.38 0-.57.02z"/>
  <path fill="#FCB340" d="M289.14 136.82a2.96 2.96 0 0 1 2.48 1.42c.26.46.4.94.4 1.44 0 .48-.14.96-.4 1.4-.24.47-.6.82-1.05 1.08a2.88 2.88 0 0 1-4.29-2.47 2.88 2.88 0 0 1 2.85-2.89m0 .47c-.4 0-.78.1-1.16.3-.38.2-.68.5-.9.9-.2.38-.32.77-.32 1.2 0 .4.1.8.32 1.18.2.37.5.67.88.88.38.2.78.32 1.2.32.4 0 .8-.1 1.18-.32.38-.2.67-.5.88-.88a2.36 2.36 0 0 0 .01-2.4c-.2-.37-.5-.67-.9-.87-.37-.2-.76-.3-1.16-.3m-1.25 3.97v-3.08h1.05c.36 0 .62.02.78.08.16.05.3.15.4.3.1.13.13.28.13.44 0 .23-.08.43-.24.6a.97.97 0 0 1-.64.27c.1.04.2.1.27.16.12.12.27.32.45.6l.38.6h-.6l-.28-.47c-.22-.4-.4-.64-.52-.73a.68.68 0 0 0-.4-.1h-.3v1.3h-.5m.5-1.74h.6c.3 0 .5-.04.6-.12a.43.43 0 0 0 .08-.58.45.45 0 0 0-.2-.16c-.1-.04-.27-.06-.5-.06h-.57v.93"/>
  <path fill="#006" d="M119.97 115.92l1.18-8.02c-.64 0-1.6.28-2.43.28-3.28 0-3.7-1.76-3.43-3.04L118.5 89h5l1.02-9.1h-4.7l.96-5.5h-9.84c-.2.2-5.57 31-5.57 34.77 0 5.55 3.1 8.03 7.5 8 3.45-.04 6.13-1 7.07-1.25zm2.99-15.29c0 13.33 8.8 16.5 16.3 16.5 6.92 0 10.55-1.6 10.55-1.6l1.67-9.1s-5.85 2.37-10.6 2.37c-10.13 0-8.36-7.55-8.36-7.55l19.48.06s1.24-6.1 1.24-8.6c0-6.2-3.4-13.84-13.75-13.84-9.48 0-16.5 10.22-16.5 21.77zM139.5 87.3c5.33 0 4.35 6 4.35 6.48h-10.47c0-.62.98-6.47 6.13-6.47zm59.75 28.62l1.68-10.3s-4.63 2.33-7.8 2.33c-6.7 0-9.38-5.1-9.38-10.6 0-11.13 5.76-17.26 12.17-17.26 4.8 0 8.66 2.7 8.66 2.7l1.54-10s-4.55-3.3-9.45-3.3c-14.75-.07-23.2 10.2-23.2 27.94 0 11.76 6.26 19.77 17.52 19.77 3.17 0 8.25-1.28 8.25-1.28zM68.1 79a32.6 32.6 0 0 0-11.44 2.08L55.3 89.2s4.08-1.65 10.27-1.65c3.5 0 6.08.4 6.08 3.25 0 1.73-.3 2.37-.3 2.37s-2.78-.23-4.07-.23c-9.2 0-16.73 3.48-16.73 13.98 0 8.27 5.63 10.17 9.1 10.17 6.67 0 9.3-4.2 9.46-4.22l-.07 3.48h8.3l3.7-25.98C81.04 79.36 71.44 79 68.1 79zm1.42 21.1c.18 1.6-.4 9.1-6.1 9.1-2.92 0-3.68-2.25-3.68-3.57 0-2.6 1.4-5.7 8.32-5.7 1.6 0 1.2.13 1.46.17zm20.35 16.8c2.13 0 14.27.54 14.27-12 0-11.72-11.24-9.4-11.24-14.1 0-2.35 1.83-3.1 5.18-3.1 1.33 0 6.45.43 6.45.43l1.2-8.33s-3.32-.74-8.72-.74c-6.96 0-14.05 2.8-14.05 12.32 0 10.8 11.8 9.72 11.8 14.27 0 3.04-3.3 3.3-5.83 3.3-4.4 0-8.36-1.53-8.38-1.45l-1.26 8.24c.23.07 2.68 1.16 10.6 1.16zm187.19-45.45l-1.7 12.7s-3.56-4.9-9.1-4.9c-10.47 0-15.86 10.43-15.86 22.4 0 7.73 3.84 15.3 11.7 15.3 5.65 0 8.78-3.94 8.78-3.94l-.42 3.38h9.18l7.2-44.86-9.78-.07zM273 96.15c0 4.98-2.46 11.64-7.57 11.64-3.4 0-5-2.86-5-7.33 0-7.32 3.3-12.14 7.44-12.14 3.4 0 5.14 2.33 5.14 7.82zM17 116.42l5.75-33.87.84 33.87h6.5L42.2 82.55l-5.38 33.87h9.66l7.44-44.93-15.34-.12-9.13 27.5-.25-27.4H15.16l-7.54 44.94H17z"/>
  <path fill="#006" d="M162.36 116.48c2.74-15.6 3.72-27.95 11.73-25.4 1.14-6.04 3.88-11.3 5.13-13.85 0 0-.4-.6-2.87-.6-4.22 0-9.87 8.58-9.87 8.58l.84-5.3h-8.8l-5.87 36.58h9.7zM219 79a32.5 32.5 0 0 0-11.42 2.08l-1.37 8.13s4.1-1.65 10.3-1.65c3.5 0 6.07.4 6.07 3.25 0 1.73-.3 2.37-.3 2.37s-2.78-.23-4.07-.23c-9.2 0-16.73 3.48-16.73 13.98 0 8.27 5.63 10.17 9.1 10.17 6.67 0 9.3-4.2 9.45-4.22l-.07 3.48h8.3l3.7-25.98c0-11.02-9.6-11.37-12.94-11.37zm1.44 21.1c.18 1.6-.4 9.1-6.1 9.1-2.92 0-3.68-2.25-3.68-3.57 0-2.6 1.4-5.7 8.3-5.7 1.62 0 1.2.13 1.48.17zm21.08 16.38c1.5-11.5 4.3-27.62 11.73-25.4 1.15-6.04.04-6.02-2.43-6.02-4.23 0-5.16.15-5.16.15l.84-5.3h-8.8l-5.87 36.58h9.7z"/>
  <path fill="#FFF" d="M122.43 113.06l1.18-8.02c-.63 0-1.58.28-2.42.28-3.28 0-3.64-1.75-3.43-3.04l2.65-16.36h5l1.2-8.87h-4.7l.95-5.52h-9.44c-.2.2-5.56 31.02-5.56 34.78 0 5.56 3.12 8.03 7.52 8 3.45-.03 6.13-1 7.07-1.24zm2.99-15.29c0 13.33 8.8 16.5 16.3 16.5 6.92 0 9.96-1.55 9.96-1.55l1.67-9.1s-5.27 2.32-10.02 2.32c-10.13 0-8.36-7.55-8.36-7.55h19.18s1.23-6.12 1.23-8.6c0-6.23-3.1-13.8-13.45-13.8-9.5 0-16.5 10.22-16.5 21.77zm16.55-13.33c5.32 0 4.34 6 4.34 6.47h-10.46c0-.6.98-6.46 6.13-6.46zm59.73 28.62l1.7-10.3s-4.63 2.33-7.8 2.33c-6.7 0-9.4-5.12-9.4-10.6 0-11.15 5.77-17.27 12.18-17.27 4.8 0 8.67 2.7 8.67 2.7l1.54-10s-5.74-2.3-10.64-2.3c-10.9 0-21.5 9.44-21.5 27.18 0 11.78 5.74 19.55 17 19.55 3.18 0 8.25-1.3 8.25-1.3zM70.55 76.14c-6.47 0-11.43 2.08-11.43 2.08l-1.37 8.13s4.1-1.66 10.28-1.66c3.5 0 6.08.38 6.08 3.24 0 1.73-.3 2.37-.3 2.37s-2.77-.22-4.06-.22C61.6 90.08 53 93.56 53 104.06c0 8.27 5.64 10.17 9.12 10.17 6.66 0 9.53-4.32 9.68-4.33l-.3 3.6h8.3l3.7-25.98c0-11.02-9.6-11.38-12.95-11.38zm2.02 21.16c.18 1.58-1 9.02-6.68 9.02-2.94 0-3.7-2.23-3.7-3.56 0-2.58 1.4-5.68 8.32-5.68 1.6 0 1.78.17 2.05.22zm19.76 16.74c2.13 0 14.27.54 14.27-12 0-11.72-11.24-9.4-11.24-14.1 0-2.35 1.83-3.1 5.18-3.1 1.33 0 6.45.43 6.45.43l1.18-8.33s-3.3-.74-8.7-.74C92.5 76.2 85.4 79 85.4 88.52c0 10.8 11.82 9.72 11.82 14.27 0 3.02-3.3 3.27-5.84 3.27-4.4 0-8.36-1.5-8.38-1.44l-1.26 8.25c.23.07 2.68 1.16 10.6 1.16zm187.52-45.37l-2.03 12.63s-3.55-4.9-9.1-4.9c-8.66 0-15.86 10.4-15.86 22.4 0 7.72 3.84 15.3 11.7 15.3 5.65 0 8.78-3.95 8.78-3.95l-.4 3.37h9.16l7.2-44.87-9.45.02zm-4.38 24.62c0 4.97-2.47 11.63-7.58 11.63-3.4 0-5-2.85-5-7.33 0-7.3 3.3-12.14 7.43-12.14 3.4 0 5.14 2.34 5.14 7.83zm-256 20.27l5.74-33.87.85 33.85h6.5L44.68 79.7l-5.37 33.85h9.66l7.44-44.92H41.47l-9.3 27.57-.5-27.57H17.92l-7.53 44.93h9.1zm145.35.06c2.74-15.62 3.25-28.3 9.8-25.98 1.15-6.04 2.26-8.38 3.5-10.94 0 0-.57-.12-1.8-.12-4.23 0-7.36 5.77-7.36 5.77l.84-5.3h-8.78l-5.9 36.57h9.7zM223.48 76.14c-6.47 0-11.43 2.08-11.43 2.08l-1.37 8.13s4.1-1.66 10.28-1.66c3.5 0 6.08.38 6.08 3.24 0 1.73-.3 2.37-.3 2.37s-2.78-.22-4.07-.22c-8.16 0-16.73 3.48-16.73 13.98 0 8.27 5.63 10.17 9.1 10.17 6.67 0 9.54-4.32 9.7-4.33l-.32 3.6h8.3l3.7-25.98c0-11.02-9.6-11.38-12.94-11.38zm2.02 21.16c.18 1.58-1 9.02-6.68 9.02-2.93 0-3.7-2.23-3.7-3.56 0-2.58 1.4-5.68 8.33-5.68 1.6 0 1.78.17 2.05.22zM244.02 113.62c2.75-15.62 3.26-28.3 9.8-25.98 1.16-6.04 2.27-8.38 3.52-10.94 0 0-.6-.12-1.82-.12-4.23 0-7.36 5.77-7.36 5.77l.84-5.3h-8.78l-5.88 36.57h9.68zM289.1 107.97c.48 0 .96.13 1.4.38.47.24.83.6 1.08 1.06.26.46.4.94.4 1.44s-.14.97-.4 1.42c-.24.46-.6.82-1.05 1.07a2.93 2.93 0 0 1-2.86 0 2.87 2.87 0 0 1 1.42-5.35m0 .48c-.4 0-.8.1-1.17.3-.38.2-.68.5-.9.9-.2.38-.32.78-.32 1.2s.12.8.33 1.18c.2.37.5.67.9.88.37.22.76.33 1.18.33a2.4 2.4 0 0 0 2.08-1.19 2.54 2.54 0 0 0 0-2.38c-.22-.4-.52-.7-.9-.9-.38-.2-.77-.3-1.17-.3m-1.25 3.97v-3.08h1.06c.37 0 .64.03.8.1.16.04.3.14.38.28a.8.8 0 0 1-.09 1.04.97.97 0 0 1-.65.28c.1.05.2.1.26.17.13.13.3.33.47.62l.37.6h-.6l-.28-.48c-.2-.4-.4-.62-.52-.72a.66.66 0 0 0-.4-.1h-.3v1.3h-.5m.5-1.73h.6c.3 0 .5-.06.6-.14.1-.1.16-.2.16-.34a.4.4 0 0 0-.07-.25.6.6 0 0 0-.22-.16 2.28 2.28 0 0 0-.5-.04h-.55v.93"/>
</svg>
