<svg xmlns="http://www.w3.org/2000/svg" viewBox="0 0 68.54 60.24">
    <path d="M56 38.1l-13-6.55-9.87-2.91a5.82 5.82 0 0 0-6.05 1.62 5.83 5.83 0 0 0 2 9.27L32.17 41l-2.42 1.1H23l-2.8-6.95a4.22 4.22 0 0 0-8 2.66l1.25 3.5L6 38.17a4.22 4.22 0 0 0-3.77 7.54l9.55 4.4 18.36 5.19h24v4.94h14.4V38.1H56zm-40.89-2.27a1.38 1.38 0 0 1 1-.59 1.42 1.42 0 0 1 1.41.92l2.4 5.94h-3.19l-1.83-5.16a1.36 1.36 0 0 1 .21-1.11zm39.05 16.63H30.51l-17.88-5.05-9.15-4.23a1.36 1.36 0 0 1-.62-.92 1.38 1.38 0 0 1 2-1.5l9.91 4.18h15.58l8.59-3.8-8.7-4.14a3 3 0 0 1-1.78-2.14 3 3 0 0 1 .72-2.64 3 3 0 0 1 3.13-.83l9.78 2.88 12.07 6.13v12.1zm11.55 4.94H57V40.94h8.71V57.4zM20.82 24.67A12.33 12.33 0 1 0 8.48 12.33a12.35 12.35 0 0 0 12.34 12.34zm0-21.83a9.5 9.5 0 1 1-9.5 9.5 9.51 9.51 0 0 1 9.5-9.51z"/>
    <path d="M22.56 15.63a2.39 2.39 0 0 1-1.42.36 2.45 2.45 0 0 1-1.55-.45 1.66 1.66 0 0 1-.59-1.29h-2.3a3 3 0 0 0 .53 1.75 3.8 3.8 0 0 0 1.58 1.28 4.93 4.93 0 0 0 1.14.36v1.41h2.17v-1.37a4.48 4.48 0 0 0 2.07-.8 2.74 2.74 0 0 0 1.18-2.3 2.59 2.59 0 0 0-.37-1.44 3.09 3.09 0 0 0-1.18-1 8.75 8.75 0 0 0-2.18-.73 6.28 6.28 0 0 1-1.85-.61 1 1 0 0 1-.46-.85 1.14 1.14 0 0 1 .49-1 2.09 2.09 0 0 1 1.27-.36 1.94 1.94 0 0 1 1.34.45 1.46 1.46 0 0 1 .51 1.13h2.36a3 3 0 0 0-1.16-2.42 4.25 4.25 0 0 0-2-.84V5.44h-2.19V7H20a4.14 4.14 0 0 0-1.84.81A2.8 2.8 0 0 0 17 10a2.69 2.69 0 0 0 1.77 2.48 8.88 8.88 0 0 0 2 .64 5.53 5.53 0 0 1 1.73.58 1.07 1.07 0 0 1 .52 1 1.1 1.1 0 0 1-.46.93z"/>
</svg>
