<svg xmlns="http://www.w3.org/2000/svg" viewBox="0 0 39 39">
  <path d="M29.86 8.16C30.56 7.4 31 6.38 31 5.24 31 2.88 29.1 1 26.82 1c-1.74 0-5.74 2.6-7.34 4.92-1.65-2.33-5.64-4.85-7.3-4.85-2.3 0-4.2 1.9-4.2 4.25 0 1.1.42 2.08 1.08 2.83H1V18.3h2.2V38h32.6V18.32H38V8.16h-8.14zm-3.04-5.6c1.42 0 2.6 1.2 2.6 2.77 0 1.33-.93 2.47-2.13 2.7h-6.4c-.4-.1-.54-.26-.54-.34 0-1.35 4.72-5.13 6.46-5.13zm-14.65 0c1.65 0 6.46 3.8 6.46 5.13 0 .1-.28.25-.5.34h-6.42C10.5 7.8 9.6 6.66 9.6 5.34c0-1.52 1.18-2.77 2.6-2.77zm2.6 33.86h-10v-18.1h10v18.1zm0-19.6H2.57V9.74h12.2v7.08zm7.88 19.6h-6.3V9.72h6.3v26.7zm11.57 0h-10v-18.1h10v18.1zm2.2-19.6h-12.2V9.74h12.2v7.08z"/>
</svg>
