<svg xmlns="http://www.w3.org/2000/svg" viewBox="0 0 43.5 41.9">
    <path d="M41.3 28.1h-2.4c-.9 3.3-2.9 6.2-5.8 8.2v4.2c0 .8-.6 1.4-1.4 1.4h-6.4c-.4 0-.7-.1-1-.4-.2-.3-.4-.6-.4-1v-1.8H16v1.8c0 .8-.6 1.4-1.4 1.4H7.8c-.8 0-1.4-.6-1.4-1.4V36C2.7 33.3.6 29 .6 24.3c0-5.9 3.6-11.2 8.8-13.3-.2-.7-.2-1.3-.2-2 0-5 4-9 8.8-9 4.5 0 8.2 3.5 8.8 8l3.6-2c.4-.2.9-.2 1.4 0 .4.2.7.7.7 1.2v4.9c2.6 1.5 4.6 3.9 5.8 6.7h3.1c.8 0 1.4.6 1.4 1.4v6.7c-.2.6-.8 1.2-1.5 1.2zM18 2.7c-3.4 0-6.1 2.8-6.1 6.3A6.08 6.08 0 0 0 24 10v-.1c0-.3.1-.7.1-1 0-3.4-2.7-6.2-6.1-6.2zm21.9 18.7h-2.7c-.6 0-1.1-.4-1.3-.9-1-2.8-2.9-5.1-5.5-6.5-.4-.2-.7-.7-.7-1.2V9.4l-3.1 1.7c-.4 1.5-1.1 2.9-2.2 4h1.1c.8 0 1.4.6 1.4 1.4 0 .8-.6 1.4-1.4 1.4H10.6c-.7 0-1.4-.6-1.4-1.4s.6-1.4 1.4-1.4h1.1c-.5-.5-.9-1-1.2-1.6-4.2 1.7-7.1 6-7.1 10.8 0 4 2 7.6 5.2 9.8.4.3.6.7.6 1.2v3.9h4.1v-1.8c0-.8.6-1.4 1.4-1.4h10.6c.4 0 .7.1 1 .4.2.3.4.6.4 1v1.8h3.7v-3.6c0-.5.3-.9.7-1.2 2.8-1.7 4.8-4.6 5.4-7.8.1-.7.7-1.1 1.3-1.1H40v-4.1h-.1zm-9.7.3c-.9 0-1.6-.7-1.6-1.6s.7-1.5 1.6-1.5c.8 0 1.5.7 1.5 1.5 0 .9-.7 1.6-1.5 1.6z"/>
    <path d="M0 0h43.5M0 41.9h43.5" fill="none"/>
</svg>
