<svg xmlns="http://www.w3.org/2000/svg" width="52" height="50">
  <path d="M43.86 50h-19.7a8.16 8.16 0 0 1-8.15-8.17v-7.77h3v7.77A5.13 5.13 0 0 0 24.16 47h19.7C46.7 47 49 44.7 49 41.83V8.17C49 5.3 46.7 3 43.86 3h-19.7A5.15 5.15 0 0 0 19 8.16v8.64h-3V8.15A8.2 8.2 0 0 1 24.16 0h19.7C48.36 0 52 3.66 52 8.17v33.66c0 4.5-3.65 8.17-8.14 8.17zM31 24v3H4.73L10 33.03 7.75 35l-6.17-7.05-.17-.2c-.54-.6-.92-1.04-1.15-1.4-.33-.53-.33-.9 0-1.42.23-.36.6-.8 1.15-1.4l.17-.2L7.97 16l2.28 1.97L4.97 24H31z"/>
</svg>
