<svg xmlns="http://www.w3.org/2000/svg" viewBox="0 0 40 40"><path d="M19.69 7.76c.71 0 1.28.58 1.28 1.28v9.81c.73.32 1.31.9 1.63 1.63h4.36c.7 0 1.28.57 1.28 1.28 0 .7-.58 1.28-1.28 1.28H22.6a3.192 3.192 0 0 1-2.91 1.89c-1.75 0-3.17-1.42-3.17-3.17 0-1.3.78-2.41 1.9-2.91V9.04c0-.7.57-1.28 1.27-1.28zm0 14.62c.34 0 .62-.28.62-.62 0-.35-.28-.62-.62-.62-.34 0-.62.27-.62.62 0 .34.28.62.62.62zm12.13 13.78A19.784 19.784 0 0 1 20.07 40c-1.03 0-2.08-.08-3.13-.24-5.3-.82-9.96-3.63-13.1-7.92C.7 27.55-.58 22.27.24 16.96c.82-5.32 3.63-9.97 7.91-13.11C12.44.7 17.72-.58 23.03.24c5.17.8 9.72 3.49 12.85 7.6l.18-1.21c.1-.69.74-1.18 1.44-1.08.7.1 1.19.75 1.09 1.45l-.61 4.24c-.1.64-.64 1.1-1.27 1.1-.03 0-.06-.01-.1-.01h-.08l-4.24-.61c-.7-.11-1.19-.75-1.08-1.45.1-.7.74-1.19 1.44-1.09l1.18.17c-2.74-3.55-6.69-5.89-11.19-6.58-4.63-.72-9.24.4-12.98 3.14C1.9 11.6.21 22.56 5.9 30.33c2.74 3.74 6.8 6.19 11.43 6.9 4.64.72 9.25-.4 12.98-3.14 5.48-4.02 8.14-10.91 6.79-17.57-.12-.61.2-1.19.73-1.43.09-.04.17-.07.27-.08.69-.14 1.36.3 1.5.99 1.56 7.64-1.5 15.55-7.78 20.16z"/></svg>
