<svg xmlns="http://www.w3.org/2000/svg" viewBox="0 0 48 40">
    <path d="M48 30.24c0 .91-.76 1.63-1.65 1.63h-3.29c-.09 0-.17-.04-.26-.06.15.54.25 1.09.25 1.67 0 3.59-2.92 6.52-6.52 6.52-1.75 0-3.4-.69-4.67-1.92-1.27-1.24-1.96-2.86-1.96-4.6 0-1.74.7-3.36 1.96-4.6a6.658 6.658 0 0 1 4.67-1.91c2.08 0 3.91.99 5.11 2.51.28-.51.81-.87 1.42-.87h1.65V22.1l-9.84.01c-.91 0-1.66-.71-1.66-1.58l-.02-9.82H29.9v17.9l-.02-.02.02 3.28-8.24-.03a1.626 1.626 0 0 1 0-3.25l4.95.02V4.21h-5.84c-2.2 0-2.14-3.26 0-3.26h7.49c.88 0 1.64.72 1.64 1.63v4.88h9.87L48 15.59s-.01 2.88 0 3.26v11.39zm-11.47-.02c-1.82 0-3.35 1.49-3.35 3.27 0 1.77 1.53 3.26 3.35 3.26 1.79 0 3.25-1.46 3.25-3.26 0-1.8-1.46-3.27-3.25-3.27zm8.18-13l-6.58-6.51h-1.65v8.14h8.23v-1.63zM13.5 40c-1.75 0-3.4-.69-4.67-1.92-1.27-1.24-1.96-2.86-1.96-4.6 0-1.74.7-3.36 1.96-4.6a6.64 6.64 0 0 1 4.67-1.91c3.59 0 6.52 2.92 6.52 6.51S17.09 40 13.5 40zm0-9.78c-1.82 0-3.35 1.49-3.35 3.27 0 1.77 1.53 3.26 3.35 3.26 1.79 0 3.24-1.46 3.24-3.26 0-1.8-1.45-3.27-3.24-3.27zm.8-16.89c-.73.71-1.91.71-2.64 0L7.84 9.6l-3.82 3.73c-.73.71-1.92.71-2.65 0s-.73-1.87 0-2.58l3.82-3.73L1.38 3.3c-.73-.71-.73-1.87 0-2.58S3.3.01 4.03.72l3.81 3.72L11.65.72c.73-.71 1.91-.71 2.64 0 .73.71.73 1.87 0 2.58l-3.81 3.72 3.82 3.73c.73.71.73 1.87 0 2.58zM1.94 17.15c.9 0 1.64.82 1.64 1.82v9.64h1.65c.91 0 1.64.65 1.64 1.63 0 .97-.75 1.63-1.67 1.63H1.97c-.92 0-1.67-.8-1.67-1.78V18.97c0-1 .74-1.82 1.64-1.82z"/>
</svg>
