<svg xmlns="http://www.w3.org/2000/svg" viewBox="0 0 51 46">
    <path d="M51 36.2c0 1-.8 1.7-1.6 1.7H45.8c.2.5.3 1 .3 1.6A6.5 6.5 0 0 1 34.9 44a6.4 6.4 0 0 1 0-9.2 6.7 6.7 0 0 1 4.6-2c2.1 0 4 1 5.1 2.6.3-.5.8-.9 1.5-.9h1.6v-6.5H38c-1 0-1.7-.7-1.7-1.6v-9.8h-3.3v18-.1 3.3h-8.2a1.6 1.6 0 0 1 0-3.3h5V10.2h-6c-2.1 0-2-3.2 0-3.2h7.6c.8 0 1.6.7 1.6 1.6v4.9h9.9l8.2 8v14.7zm-11.5 0a3.3 3.3 0 0 0-3.3 3.3c0 1.8 1.5 3.3 3.3 3.3a3.3 3.3 0 0 0 0-6.6zm8.2-13l-6.6-6.5h-1.6V25h8.2v-1.7zM16.5 46c-1.8 0-3.4-.7-4.7-2a6.4 6.4 0 0 1 0-9.1 6.6 6.6 0 0 1 4.7-2 6.5 6.5 0 0 1 0 13.1zm0-9.8a3.3 3.3 0 0 0-3.4 3.3c0 1.8 1.6 3.3 3.4 3.3 1.8 0 3.2-1.5 3.2-3.3 0-1.8-1.4-3.3-3.2-3.3zM8.2 38H5c-1 0-1.7-.8-1.7-1.8V25c0-1 .7-1.9 1.6-1.9 1 0 1.7.9 1.7 1.9v9.6h1.6c1 0 1.7.7 1.7 1.6 0 1-.8 1.7-1.7 1.7zM22.7 3l-13 16.5a2 2 0 0 1-2.8 0l-5.4-5.3a1.8 1.8 0 0 1 0-2.6 2 2 0 0 1 2.7 0l4 3.8L20 .5a2 2 0 0 1 2.7 0c.8.7.8 2 0 2.6z"/>
</svg>
