<svg xmlns="http://www.w3.org/2000/svg" viewBox="0 0 1200 1200">
    <defs>
        <linearGradient x1="-825" y1="373" gradientTransform="translate(-357 38) scale(1.0932)" x2="52" gradientUnits="userSpaceOnUse" y2="86" id="a">
            <stop offset="0" stop-color="#fd5"/>
            <stop offset="1" stop-opacity="0" stop-color="#fd5"/>
        </linearGradient>
    </defs>
    <ellipse fill="#fff" cx="-774" cy="257" transform="matrix(-.4321 -.90183 .92644 -.37644 0 0)" ry="520" rx="496"/>
    <ellipse rx="496" ry="520" transform="matrix(-.4321 -.90183 .92644 -.37644 0 0)" cy="257" cx="-774" fill="url(#a)"/>
    <path d="M599 6a614 614 0 0 0-17 1 589 589 0 1 0 601 667A589 589 0 0 0 599 6zm-1 221a368 368 0 1 1 2 737 368 368 0 0 1-2-737zm460 480c4 0 8 1 12 4a20 20 0 1 1-33 16c0-12 10-21 21-20zm-918 0l9 2c13 8 14 26 2 34-17 12-38-7-29-26 3-6 11-10 18-10z"/>
    <path fill="#fff" d="M582 1109c6-20 4-19 26-19 21 0 19-2 25 17 7 17 6 17 13 17s7 0 0-19a6029 6029 0 0 1-7-22l-23-60-2-6h-8l-8 1-2 7-25 77c-8 25-8 23 0 23h6l5-16z"/>
    <path d="M591 1080l5-19 7-24c2-9 4-9 6-1l8 23c8 23 9 21-5 21h-21z"/>
    <path fill="#fff" d="M526 1118l-1-17c-1-19-2-25-7-30-3-4-3-7 0-7 10 0 22-15 22-28 0-19-14-29-53-33-7-1-5-6-15 41l-10 48c-3 13-3 14 3 16 6 1 6 3 11-20 5-26 5-25 9-24 24 4 27 8 28 35 0 18 1 20 5 20 7 1 9 1 8-1z"/>
    <path d="M493 1056c-11-3-11 0-5-27 4-17 3-17 15-15 17 4 24 11 24 23 0 16-14 24-34 19z"/>
    <path fill="#fff" d="M707 1115l3-2-19-73c-5-17-5-17 8-3 12 13 65 62 67 62l11-3c1-1-26-102-27-103s-9 1-10 2c-1 2 15 63 21 80 3 7 0 7-8-3-7-7-37-36-62-58l-5-5-7 2c-7 2-7 3-4 15l11 40c14 52 13 50 16 50l5-1zm-291-33a1834 1834 0 0 0 7-65c4-41 5-36-3-40l-7-3-68 70c-12 13-12 12-3 15l4 2 12-13c7-8 13-13 14-13l33 17 1 10c-4 26-4 25 3 29 6 3 6 3 7-10z"/>
    <path d="M392 1035c-16-8-16-7-3-21l17-18c10-11 9-12 7 9l-3 23c-1 15 0 15-18 7z"/>
    <path fill="#fff" d="M863 1054a936 936 0 0 0-45-84c0-1 6-5 13-8l14-8c1-1 0-5-2-8l-2-2-26 14-33 19c-10 5-10 5-8 9 3 5 3 5 17-3l15-7 23 41 24 42c1 1 10-3 10-5zm-561-39c11-3 16-9 42-41 23-28 22-26 17-30-6-4-6-4-14 6a5326 5326 0 0 1-12 15 51480 51480 0 0 0-15 18c-21 26-38 31-52 13-12-14-9-23 23-62 24-30 23-27 18-32-6-4-4-5-27 22-27 34-29 38-32 51-4 26 26 49 52 40zm642-17a3754 3754 0 0 1 21-19c14-12 14-12 10-16s-3-4-19 10l-17 15-3 2-5-5c-19-20-22-24-20-26l15-14c15-13 15-13 11-17s-4-4-11 3l-25 21-23-26 16-15 16-15c0-2-5-7-6-7-3 1-42 37-41 38 0 2 70 79 71 79l10-8z"/>
    <path fill="#006cb4" d="M670 350c-138 0-261 126-283 287-15 115 35 193 127 198 88 5 162-35 220-119 10-15 10-13-1-26-14-14-14-14-29 4-50 63-90 89-139 88-58 0-81-36-82-124 0-14 0-13 12-15 152-29 256-83 284-147 32-76-20-146-109-146zm-26 39c9 0 18 2 27 6 30 14 30 72 1 114-29 40-77 68-161 92-24 7-24 7-24 4 0-7 10-44 16-63 31-90 89-152 141-153z"/>
    <path fill="#fff" d="M219 921l20-15c1-1-14-23-19-27-1-1-8 3-7 5l5 8c7 10 7 8-7 19-15 11-15 11-22 3-24-26-18-57 13-73 25-12 50 0 63 29 3 8 3 8 8 6 4-2 4-4 0-13-18-37-54-49-85-29-35 24-34 64 2 95 9 8 6 8 29-8zm812-19l17-23-3-3c-4-4-4-4-18 15-10 13-14 18-15 17-2 0-32-21-32-22l12-17c13-18 13-17 9-20-5-3-5-3-17 14l-13 16c-2 0-27-19-27-21l11-18c14-19 14-17 9-21-4-3-2-5-22 22l-16 22 3 2a3945 3945 0 0 0 84 61l18-24zM94 609c1-17 0-16 10-16l42 1c38 2 34 3 34-14 0-14 6-13-42-14l-39-2c-3 0-3 0-2-14v-13l-7-1-12-1-4 1-1 17c-3 76-4 67 10 67h11v-11zm966 2c10-4 15-11 22-28 5-14 6-16 9-18 9-5 15 10 11 27-2 11-3 10 12 13 7 2 8 1 10-7 13-60-45-89-64-32-5 15-8 19-13 19-11 0-14-21-6-39v-4l-21-4c-4 2-7 28-5 42 4 26 25 40 45 31zM190 505c5-17 7-15-20-23-15-5-15-5-13-11 3-10 6-10 29-10h17l4-13c5-16 7-15-19-15l-21 1-5 2-6 3-2-6c-4-13-16-21-30-20-17 2-27 16-37 53-4 17-3 19 7 22a4385 4385 0 0 1 91 27l5-10z"/>
    <path d="M122 467c-13-4-14-8-6-20 6-10 22-6 23 7 2 15-2 18-17 13z"/>
    <path fill="#fff" d="M1087 493c22-10 24-31 8-73-6-15-1-14-37-3a89219 89219 0 0 1-50 15c-22 6-21 5-16 19 4 15 2 14 21 8s18-6 21 5c10 27 31 39 53 29z"/>
    <path d="M1064 468c-6-2-14-16-12-20 1-1 25-9 27-8 4 1 6 18 3 23-4 5-12 7-18 5z"/>
    <path fill="#fff" d="M227 392c22-11 35-42 26-62-6-12-12-17-54-43-21-14-20-13-24-7l-12 18 31 20c36 22 41 27 36 39-5 14-17 14-40 0a2144 2144 0 0 0-45-28c-1 0-15 21-15 23l47 30c21 13 37 16 50 10zm772 1c48-9 67-60 35-93-39-39-112 5-93 56 9 27 33 42 58 37z"/>
    <path d="M974 364c-16-7-15-25 0-39 23-21 51-17 51 7 0 20-34 41-51 32z"/>
    <path fill="#fff" d="M294 305c32-15 49-47 34-68-9-14-24-16-48-7-28 11-31-7-3-22 9-4 9-3 3-14-5-11-6-11-14-7-31 16-44 47-27 66 10 11 25 13 46 4 30-13 31 11 0 25l-8 5c-1 3 10 20 11 20l6-2zm627-29c42-52 45-56 45-58l-10-9-10-8-2 3a1051 1051 0 0 0-24 27l-27-22 11-16 12-16-10-9-10-8-3 3-65 81c0 1 19 16 21 16 1 0 9-9 21-25l7-6 27 22-13 17c-11 14-13 16-11 18l19 15 22-25zm-521-48c6-3 11-7 11-8l-18-36-19-37 11-7 12-7c1-2-9-19-11-19l-74 38c0 2 11 20 12 20s6-2 11-6c14-7 12-8 27 20a28006 28006 0 0 0 18 33l6 12c2 4 0 4 14-3zm401-14c22-11 22-34 1-56-11-11-13-15-12-19 2-9 16-6 31 5l5 5 7-8c8-10 8-10 0-15-27-22-59-21-69 1-7 14-3 27 15 45 13 13 13 22 0 22-7 0-30-13-30-17 0-3-4 0-9 8l-7 8 4 4c17 18 47 26 64 17zm-303-24l33-9c1-1-3-20-5-21l-20 5c-23 5-22 5-24-6-3-11-4-10 17-15 12-3 17-5 17-6l-5-19-18 3c-21 6-19 6-22-4-2-9-1-9 6-11l30-8 2-1-2-10-3-10c-1-1-13 2-29 6l-32 8c-8 1-8-1 1 35l10 38c8 34 8 33 10 33l34-8zm128-15c43-14 51-80 12-99-14-7-68-11-71-6l-2 29a5482 5482 0 0 1-2 76c4 4 51 4 63 0z"/>
    <path d="M592 156c-1-1 1-60 2-64s17-3 24 2c23 12 19 54-6 62-6 1-19 2-20 0z"/>
</svg>
