<svg xmlns="http://www.w3.org/2000/svg" viewBox="0 0 75 17">
  <path fill="#00569F" d="M8.5 0a8.5 8.5 0 1 0 0 17 8.5 8.5 0 0 0 0-17zm0 15a6.5 6.5 0 1 1 0-13 6.5 6.5 0 1 1 0 13zm.3-9.1c.5 0 .9.1 1.4.3l.8-1.8c-.7-.3-1.4-.4-2.2-.4-1 0-1.9.3-2.6.8a4 4 0 0 0-1.3 2.3H4v1.2h.8v.5H4V10h1c.2.9.6 1.7 1.3 2.2s1.5.8 2.5.8c.8 0 1.4-.1 1.8-.3v-1.9c-.5.2-1 .3-1.6.3-.9 0-1.5-.3-1.6-1H9V8.9H7.2v-.6h2.2V7.1H7.3c0-.4.2-.6.4-.9s.7-.3 1.1-.3z"/>
  <path fill="#363636" d="M25.3 9.5l-.4 1.8-.2-.8-.3-1-1.6-5H21l2.9 8.4h2l2.9-8.4H27l-1.7 5zm8.9-2.7a3 3 0 0 0-1.7-.4c-1 0-1.8.3-2.4.9s-.8 1.4-.8 2.4a3.4 3.4 0 0 0 1.5 3c.5.3 1 .4 1.7.4 1 0 1.8-.3 2.4-.9.6-.6.8-1.4.8-2.4 0-.7-.1-1.3-.4-1.8-.2-.6-.6-1-1.1-1.2zm-.6 4.3c-.2.3-.6.5-1 .5-.5 0-.8-.2-1-.5-.2-.3-.3-.8-.3-1.4 0-.6.1-1.1.3-1.4.2-.3.6-.5 1-.5.5 0 .8.2 1 .5.2.3.3.8.3 1.4 0 .6-.1 1.1-.3 1.4zm6.1-4.4c-.3.2-.6.5-.8.9h-.1l-.3-1.1h-1.4v6.4H39V9.6c0-.5.2-.9.5-1.2.3-.3.7-.4 1.3-.4l.5.1.1-1.6-.6-.1-1.1.3zm9.3-.2h-2l-1.8 1.9-.8 1 .1-1.4V4h-1.8v8.9h1.8v-2l.8-.6 1.9 2.6h2.1l-2.8-3.6L49 6.5zm3.8-.1c-.9 0-1.8.2-2.5.6l.6 1.2c.7-.3 1.3-.5 1.9-.5.7 0 1 .3 1 1V9h-1.1c-1 0-1.7.2-2.2.5-.5.3-.7.8-.7 1.5 0 .6.2 1.1.5 1.5.4.4.9.5 1.5.5l1.2-.2c.3-.1.6-.4.9-.8l.3.9h1.3V8.6c0-.8-.2-1.3-.7-1.7-.4-.4-1.1-.5-2-.5zm1 4c0 .4-.1.7-.4.9-.2.2-.6.3-1 .3-.6 0-.9-.2-.9-.7 0-.3.1-.6.4-.8.3-.2.6-.3 1.2-.3h.7v.6zm7.5-.8L60.2 9l-1.1-.5c-.2-.1-.3-.2-.3-.4 0-.3.3-.4.8-.4l.9.1.9.3.5-1.3a6 6 0 0 0-2.3-.5c-.8 0-1.5.2-1.9.5-.5.3-.7.8-.7 1.4l.2.8.5.6 1.1.6.8.4.4.3.1.3c0 .4-.3.5-1 .5l-1.1-.2-1.1-.4v1.4l.9.3 1.2.1c.9 0 1.6-.2 2.1-.5s.7-.8.7-1.5l-.2-.8c.1-.2-.1-.4-.3-.5zm6 0L66.1 9 65 8.5c-.2-.1-.3-.2-.3-.4 0-.3.3-.4.8-.4l.9.1 1 .3.5-1.3a6 6 0 0 0-2.3-.5c-.8 0-1.5.2-1.9.5s-.7.8-.7 1.4l.1.8.5.6 1.1.6.8.4.4.3.1.3c0 .4-.3.5-1 .5l-1.1-.2-1.1-.4v1.4l.9.3 1.2.1c.9 0 1.6-.2 2.1-.5s.7-.8.7-1.5l-.2-.8c.2-.2 0-.4-.2-.5zm7.7-.3c0-.9-.3-1.6-.8-2.1S73 6.4 72 6.4a3 3 0 0 0-2.3.9c-.5.5-.7 1.4-.7 2.4s.3 1.8.9 2.4c.6.6 1.4.9 2.5.9l1.3-.1 1-.3v-1.4l-1.1.4-1.1.1c-.5 0-.9-.1-1.2-.4-.3-.3-.4-.7-.5-1.2H75v-.8zM70.8 9c0-.4.2-.8.4-1 .2-.2.5-.4.9-.4s.7.1.9.4c.2.2.3.6.3 1h-2.5z"/>
</svg>
