<svg xmlns="http://www.w3.org/2000/svg" viewBox="0 0 36 42">
    <path d="M35.4 38.14a4.3 4.3 0 0 1-3.67 3.38C27.5 42 22.25 42 18 42s-9.52 0-13.73-.48A4.3 4.3 0 0 1 .6 38.14C0 35.54 0 32.7 0 30c0-2.67 0-5.5.6-8.12a4.32 4.32 0 0 1 3.67-3.37C8.5 18.04 13.75 18 18 18s9.52.03 13.73.5a4.33 4.33 0 0 1 3.68 3.38c.6 2.6.6 5.45.6 8.13 0 2.7 0 5.54-.6 8.14zM9.97 22h-8v2.24h2.7V38h2.55V24.24h2.75V22zm5.9 4.02h-2.14v9c-.48.68-.93 1-1.35 1-.3 0-.45-.15-.5-.5-.02-.06-.02-.32-.02-.82v-8.68H9.72v9.32c0 .84.08 1.4.2 1.76.2.6.68.88 1.37.88.77 0 1.58-.48 2.43-1.45v1.28h2.13V26.03zm8.1 3.56a8.7 8.7 0 0 0-.22-2.37c-.28-.88-.85-1.32-1.7-1.32-.8 0-1.52.42-2.2 1.27V22H17.7v15.8h2.14v-1.13c.72.88 1.45 1.3 2.2 1.3.86 0 1.43-.44 1.7-1.32.16-.5.23-1.3.23-2.38v-4.7zm8.06.28c0-1.26-.22-2.18-.66-2.77a2.95 2.95 0 0 0-2.52-1.22c-1.1 0-1.94.4-2.56 1.2-.46.6-.67 1.52-.67 2.78V34c0 1.25.23 2.18.7 2.77.6.8 1.45 1.2 2.57 1.2a2.94 2.94 0 0 0 3.08-2.55c.02-.22.05-.7.05-1.38v-.3h-2.18c0 .85-.03 1.32-.05 1.44-.12.57-.43.85-.95.85-.74 0-1.1-.54-1.1-1.63v-2.1h4.28v-2.44zm-4.27-.42c0-1.1.36-1.64 1.07-1.64.7 0 1.06.55 1.06 1.64v1.1h-2.14v-1.1zm-6.85 6.6c-.34 0-.7-.17-1.06-.53v-7.18c.36-.35.72-.52 1.07-.52.62 0 .94.55.94 1.6v5.04c0 1.07-.32 1.6-.93 1.6zm5-21.5c-.85.98-1.64 1.45-2.4 1.45-.68 0-1.14-.3-1.35-.9-.12-.34-.2-.9-.2-1.74V4.03h2.1v8.7c0 .5 0 .75.02.82.05.33.2.5.5.5.4 0 .85-.33 1.32-1V4.03h2.08v11.8h-2.1v-1.3zM17.13 16a2.8 2.8 0 0 1-2.43-1.22c-.44-.6-.65-1.52-.65-2.77V7.9c0-1.26.2-2.18.66-2.78.6-.8 1.4-1.2 2.44-1.2 1.05 0 1.87.4 2.45 1.2.43.6.64 1.52.64 2.78V12c0 1.26-.2 2.2-.65 2.78-.6.8-1.4 1.2-2.46 1.2zm1-8.55c0-1.1-.32-1.64-1-1.64-.67 0-1 .56-1 1.65v4.96c0 1.1.33 1.65 1 1.65.68 0 1-.55 1-1.64V7.46zm-6.9 8.38H8.92v-6.4c-.2-1.15-.68-2.8-1.42-5.02L6 0h2.45l1.65 6.22L11.68 0h2.35l-2.8 9.42v6.4z"/>
</svg>
