<svg xmlns="http://www.w3.org/2000/svg" viewBox="0 0 42 46"><path d="M14 34h14V20H14v14zm2-12h10v10H16V22zM25 19v-1c0-2.2-1.8-4-4-4s-4 1.8-4 4v1h2v-1c0-1.1.9-2 2-2s2 .9 2 2v1h2zM28.5 15L26 17.5V19h1.5l2.5-2.5z" fill="#ffffff"/><path d="M39.7 25.8c-.1 4.7-2 9.2-5.5 12.6-3.5 3.5-8.2 5.4-13.2 5.4s-9.7-1.9-13.2-5.4c-3.5-3.5-5.5-8.1-5.5-13s1.9-9.5 5.5-13C11.3 8.9 16 7 21 7c1.5 0 2.9.2 4.4.5l.8.2-4.1 4 1.6 1.6 6.8-6.6L23.7 0l-1.6 1.6 3.6 3.5-1.4-.2c-1.1-.2-2.2-.3-3.3-.3-4.4 0-8.7 1.4-12.3 4-4.5 3.2-7.5 8-8.4 13.5C-.6 27.6.7 33 4 37.5c3.3 4.5 8.2 7.4 13.7 8.3 5.5.9 11.1-.4 15.6-3.7 4.5-3.2 7.5-8 8.4-13.5.1-.9.2-1.8.3-2.8h-2.3z" fill="#ffffff"/></svg>