<svg xmlns="http://www.w3.org/2000/svg" width="45" height="50" viewBox="0 0 45 50">
    <path fill="#324dcf" d="M36.86 50h-19.7A8.16 8.16 0 0 1 9 41.83v-7.77h3v7.77C12 44.7 14.3 47 17.16 47h19.7C39.7 47 42 44.7 42 41.83V8.17C42 5.3 39.7 3 36.86 3h-19.7A5.15 5.15 0 0 0 12 8.16v8.64H9V8.15A8.2 8.2 0 0 1 17.16 0h19.7C41.36 0 45 3.66 45 8.17v33.66c0 4.5-3.65 8.17-8.14 8.17zm-16.1-32.03L23 16l6.4 7.33.18.2c.54.6.92 1.04 1.15 1.4.33.53.33.9 0 1.42-.23.36-.6.8-1.15 1.4l-.17.2L23.26 35 21 33.04 26.26 27H0v-3h26.03l-5.28-6.03z"/>
</svg>
