<svg xmlns="http://www.w3.org/2000/svg" version="1.1" id="Layer_1" x="0" y="0" viewBox="0 0 29.2 26.2" xml:space="preserve"><style>.st0{fill:#324dcf}</style><path class="st0" d="M27.9 23.9H1.2c-.7 0-1.2.6-1.2 1.2s.5 1.1 1.2 1.1h26.7c.7 0 1.2-.6 1.2-1.2.1-.6-.6-1.1-1.2-1.1zM18.2 13.9c1.1.5 2.2.8 3.3.8.4 0 .7 0 1.2-.1v.2l2 5.9c.1.3.3.6.6.7.1.1.3.1.4.1.1 0 .2 0 .4-.1.3-.1.6-.3.7-.6.1-.3.1-.6 0-.8l-2-5.9c0-.1 0-.1-.1-.2 1.4-.7 2.5-1.8 3.2-3.2.9-1.7 1-3.7.4-5.6-.6-1.8-1.9-3.3-3.7-4.3C23 0 21-.1 19.1.5c-1.7.5-3.2 1.7-4.2 3.6-1.8 3.6-.3 8 3.3 9.8zm-1.3-8.8c.6-1.2 1.7-2.2 2.9-2.5.5-.2 1-.3 1.6-.3.8 0 1.6.2 2.2.6 2.5 1.3 3.5 4.4 2.2 6.8-.6 1.2-1.7 2.2-2.9 2.5-1.3.4-2.6.3-3.8-.3-2.5-1.3-3.4-4.3-2.2-6.8zM1.2 18.2h15.1c.7 0 1.2-.6 1.2-1.2s-.6-1.2-1.2-1.2H1.2c-.7.1-1.2.7-1.2 1.3 0 .7.5 1.1 1.2 1.1zM1.2 2.4H12c.7 0 1.2-.6 1.2-1.2C13.2.5 12.7 0 12 0H1.2C.6 0 0 .6 0 1.2c0 .7.5 1.2 1.2 1.2zM1.2 10.4h9.3c.7 0 1.2-.6 1.2-1.2-.1-.8-.5-1.2-1.2-1.2H1.2C.5 8 0 8.5 0 9.1c0 .7.6 1.3 1.2 1.3z"/></svg>