<svg xmlns="http://www.w3.org/2000/svg" viewBox="0 0 207.63 26.9">
    <path d="M181.19 2.65c-.08-.72-.59-.5-1-.5h-7.16c-.43 0-1.09-.31-1.18.54s.58.63 1 .72c1.2.23 2.39.48 2.57 2 .5 4.4.26 8.82.33 13.53-.5-.55-.81-.88-1.1-1.22L162 2.91a1.63 1.63 0 0 0-1.36-.78h-5c-.37 0-.78-.09-.83.51s.21.66.72.76c2.34.47 3.13 1.39 3.11 3.76 0 4.81.2 9.63-.2 14.44-.15 1.79-.24 3.49-2.65 3.57-.44 0-.47.4-.46.77s.29.45.6.45H164c.31 0 .6 0 .6-.44s0-.7-.46-.77c-.25 0-.51-.05-.76-.09-1.78-.23-2.25-.68-2.43-2.5a44.52 44.52 0 0 1-.25-3.82V8.48l2.6 3.18c3.9 4.79 7.83 9.57 11.69 14.39.77 1 1.73.64 2.57.53s.3-.93.31-1.42c.15-6.43-.27-12.87.28-19.3.14-1.61.63-2.18 2.23-2.46.45-.07.89-.04.81-.75zM73 25.17c-1.65 0-1.72-1.18-1.71-2.4v-7.8c-.08-4.33-3.59-6.58-7.61-4.94a17.53 17.53 0 0 0-2.78 1.73v-1.52V.9c0-.52.09-1-.76-.87-1.83.38-3.68.7-5.52 1a.7.7 0 0 0-.74.7c0 .59.34.58.74.59a1.54 1.54 0 0 1 1.7 1.85q-.05 9.4 0 18.8c0 1.36-.48 2.11-1.9 2.12a.65.65 0 0 0-.76.77c0 .64.46.5.81.5h7.42c.29 0 .74.17.76-.39 0-.38.07-.8-.48-.88-1.13-.15-1.27-1-1.27-1.89v-9a1.3 1.3 0 0 1 .71-1.2 3.56 3.56 0 0 1 3.63-.38 3 3 0 0 1 1.51 2.9v7.42c0 1.08-.1 2.09-1.54 2.18-.45 0-.47.39-.48.75 0 .54.34.5.68.5h7.42c.35 0 .71 0 .68-.5 0-.31.02-.69-.51-.7zM41.4 24.34c-1.43.18-1.75-.59-1.74-1.83V10.62c0-.73-.18-1-.93-.87-1.73.23-3.47.38-5.2.56-.37 0-.77-.07-.8.54s.24.71.74.74c1.22.07 1.63.74 1.6 2-.07 2.68 0 5.37 0 8.05a1.62 1.62 0 0 1-.17 1.11 4.33 4.33 0 0 1-3.73 1.19c-1.17-.4-1.73-1.31-1.73-2.94V10.64c0-.74-.2-1-.94-.86-1.69.22-3.38.38-5.08.55-.44 0-.84 0-.86.67s.37.59.75.63c1.2.11 1.51.81 1.49 1.93-.05 2.9-.06 5.8 0 8.69a4.59 4.59 0 0 0 5.84 4.52c1.63-.34 2.84-1.45 4.41-2.35v1.35c-.12 1 .23 1.23 1.23 1 1.68-.45 3.4-.75 5.11-1.06a.7.7 0 0 0 .77-.76c.01-.67-.39-.65-.76-.61zM132 21.54c-.79-.33-1 .1-1.34.65a4.33 4.33 0 0 1-3.66 2.59c-1.26.06-2.53 0-4 0 .25-.47.43-.84.64-1.19l7.4-12.37c.6-1 .47-1.23-.7-1.24h-8.69a2.67 2.67 0 0 1-1.92-.5c-.66-.57-1.05-.29-1.23.48-.29 1.24-.56 2.49-.91 3.71-.17.6-.29 1 .48 1.27s.82-.32 1-.71c.49-.94.88-2 2-2.37a11.93 11.93 0 0 1 4.59-.21l-.73 1.24Q121.25 19 117.49 25c-.2.33-.63.65-.3 1.13a1 1 0 0 0 1.06.23h8.95c1.23 0 2.76.5 3.61-.2s1-2.17 1.41-3.33c.13-.37.72-.91-.22-1.29zM52.4 23.91c-2.36.65-3.45-.15-3.5-2.59-.05-2.85 0-5.71 0-8.56 0-.78.3-.94 1-.9s1.36 0 2 0a.9.9 0 0 0 1-1.06.75.75 0 0 0-1-.86c-.72.05-1.45 0-2.17 0a.69.69 0 0 1-.88-.85c.05-1.11 0-2.21 0-3.32a.8.8 0 0 0-.31-.9.81.81 0 0 0-.92.23c-.88.66-1.75 1.36-2.67 2a1.45 1.45 0 0 0-.71 1.5c.08.79.16 1.49-1.1 1.41a1.46 1.46 0 0 0-1.38 1.41c0 .8.88.44 1.33.4 1-.09 1.22.32 1.17 1.24-.07 1.57 0 3.15 0 4.73v5a3.71 3.71 0 0 0 3.08 3.94c2.29.6 3.86-1 5.7-1.71.38-.15.23-.49.1-.77a.54.54 0 0 0-.74-.34zM102.28 10a11.55 11.55 0 0 0-2.79 3.11v-2.77c0-.64-.12-.77-.78-.63-1.78.4-3.59.71-5.38 1.06-.43.08-1-.08-1 .68s.56.55.95.55a1.49 1.49 0 0 1 1.58 1.74v9.58a1.56 1.56 0 0 1-1.6 1.75c-.46 0-1 0-.94.72 0 .9.71.56 1.12.57h7.79c.41 0 1.09.39 1.21-.46s-.58-.75-1.09-.82c-1.61-.23-1.85-.49-1.86-2.13v-6.9a2.43 2.43 0 0 1 1.15-2.27 2 2 0 0 1 2.37.35 1.6 1.6 0 0 0 2.37-.25 2.6 2.6 0 0 0 .38-3.47 2.61 2.61 0 0 0-3.48-.41zM204.24 23.94c-2.22.64-3.17 0-3.41-2.28-.3-3-.06-6-.13-9.06a.63.63 0 0 1 .78-.73h2.3a.89.89 0 0 0 1-1.06c0-.7-.36-.87-1-.84s-1.2 0-1.79 0c-1 .1-1.41-.17-1.31-1.24a22.51 22.51 0 0 0 0-2.81.94.94 0 0 0-.27-1 .92.92 0 0 0-1 .33c-.72.53-1.39 1.13-2.16 1.58a1.86 1.86 0 0 0-1.06 2.08c.13.81-.18 1.11-1 1.1a1.5 1.5 0 0 0-1.46 1.48c0 .72.91.38 1.39.36.92 0 1.17.31 1.14 1.18-.06 1.62 0 3.24 0 4.85 0 1.75-.05 3.49 0 5.24a3.55 3.55 0 0 0 3.11 3.63c2.28.54 3.85-1 5.69-1.77.39-.16.12-.5 0-.77-.17-.46-.43-.38-.82-.27zM115.38 25.11a1.51 1.51 0 0 1-1.6-1.72v-6.64h-.08v-6.26c0-.79-.24-.91-.95-.76-1.79.38-3.59.7-5.38 1-.35.06-.67.06-.7.55a.59.59 0 0 0 .69.7c1.4 0 1.83.8 1.82 2v8.95c0 1.2-.35 2.11-1.78 2.11a.65.65 0 0 0-.78.75c0 .72.53.53.91.53h7.8c.37 0 .89.22.93-.51s-.37-.67-.88-.7zM150.85 21a2.8 2.8 0 0 0-2.87 2.9 2.84 2.84 0 0 0 2.79 3 2.89 2.89 0 0 0 3-3 2.85 2.85 0 0 0-2.92-2.9zM111.14 6.36a2.69 2.69 0 0 0 2.74-2.73 2.73 2.73 0 0 0-5.45 0 2.67 2.67 0 0 0 2.71 2.73zM23.52 25.09a2.57 2.57 0 0 1-2-1.57 23.78 23.78 0 0 1-1-2.34C18.26 15.07 16.06 9 13.83 2.85c-.14-.38-.06-1.1-.71-1s-1.5.06-1.79 1c-.09.28-.22.55-.32.83L3.68 22.24C3.1 23.72 2.4 25.06.53 25.15c-.45 0-.52.32-.53.71s.22.56.62.56h7.29c.35 0 .57-.09.54-.5s0-.63-.37-.7-.59-.08-.89-.12c-1-.13-1.45-.6-1.12-1.66s.58-2 .89-3.06c.6-2 .61-2 2.65-2 1.53 0 3.37-.47 4.51.22s1.28 2.75 1.87 4.2c.7 1.73.6 1.91-1.18 2.31a.68.68 0 0 0-.68.74c0 .6.38.56.76.56h8.44c.39 0 1 .31 1.05-.51s-.38-.75-.86-.81zM8.27 16.33l2.65-7.64 2.69 7.64H8.27zM83.2 9.5a8.81 8.81 0 0 0-9 8.57c-.14 5.14 3.29 8.71 8.49 8.82 5 .11 8.63-3.53 8.75-8.82A8.19 8.19 0 0 0 83.2 9.5zm2.47 13.77a2.59 2.59 0 0 1-2.24 2 2.72 2.72 0 0 1-2.53-1.44A10.13 10.13 0 0 1 79.44 19a11.41 11.41 0 0 1 .61-5.77c.48-1.12 1.15-2.09 2.46-2.1A2.92 2.92 0 0 1 85.16 13a13.34 13.34 0 0 1 1.08 6.17 11.26 11.26 0 0 1-.57 4.09z"/>
    <path d="M184.5 17.39c2.51-.07 5-.32 7.51-.46a1.32 1.32 0 0 0 1.51-1.55 5.89 5.89 0 0 0-5.61-5.82c-4.8-.15-8.69 3.85-8.85 9.12a7.53 7.53 0 0 0 2.58 6.27c3.54 3 8.36 2.59 11.46-1.65a.69.69 0 0 0 0-.92c-.33-.44-.58-.06-.85.07-.46.22-.9.48-1.37.67a5.3 5.3 0 0 1-7.37-4.51c-.1-.81-.01-1.19.99-1.22zm-.5-3.55l.2-.47c.67-1.43 1.68-2.23 2.61-2.06 1.1.19 2.23 1.83 2.29 3.23 0 .74-.18 1.13-1 1.08h-2.8c-1.85.1-1.94-.02-1.3-1.78zM137.61 17.41c2.59-.12 5.18-.34 7.77-.48a1.33 1.33 0 0 0 1.46-1.6 5.89 5.89 0 0 0-5.67-5.77c-4.85-.15-8.82 4.11-8.8 9.44a7.58 7.58 0 0 0 13.75 4.64c.25-.33.79-.64.32-1.19s-.85 0-1.2.19c-4.06 2.17-7.88.25-8.47-4.26-.09-.75.1-.94.84-.97zm-.19-3.78c0-.08.06-.16.09-.24.68-1.48 1.74-2.28 2.73-2.07s2.31 2.08 2.27 3.4a.78.78 0 0 1-.94.9h-2.76c-2.15.1-2.21.02-1.39-2zM205.74 4.71a1.89 1.89 0 1 0 1.89 1.89 1.89 1.89 0 0 0-1.89-1.89zm0 3.52a1.63 1.63 0 1 1 1.63-1.63 1.63 1.63 0 0 1-1.63 1.63z"/>
    <path d="M206.13 6.61a.46.46 0 0 0 .31-.43.44.44 0 0 0-.15-.35.8.8 0 0 0-.53-.14 3 3 0 0 0-.48 0v1.7h.31v-.67h.16a.3.3 0 0 1 .31.3 2.45 2.45 0 0 0 .12.41h.33a3.45 3.45 0 0 1-.14-.48.44.44 0 0 0-.24-.34zm-.35-.13h-.18v-.54h.19a.28.28 0 0 1 .34.28.3.3 0 0 1-.35.26z"/>
</svg>
