<svg xmlns="http://www.w3.org/2000/svg" viewBox="0 0 57.95 37.2">
    <path d="M50.68 0H7.27A7.28 7.28 0 0 0 0 7.27v22.66a7.28 7.28 0 0 0 7.27 7.27h43.41a7.28 7.28 0 0 0 7.27-7.27V7.27A7.28 7.28 0 0 0 50.68 0zM7.27 2.83h43.41a4.44 4.44 0 0 1 4.43 4.43v15H2.83v-15a4.44 4.44 0 0 1 4.44-4.43zm43.41 31.53H7.27a4.44 4.44 0 0 1-4.43-4.43v-2h52.27v2a4.44 4.44 0 0 1-4.43 4.43z"/>
    <path d="M11.65 11.08h4.92a1.42 1.42 0 1 0 0-2.83h-4.92a1.42 1.42 0 1 0 0 2.83zM11.65 16h4.92a1.42 1.42 0 1 0 0-2.83h-4.92a1.42 1.42 0 1 0 0 2.83z"/>
</svg>
