<svg xmlns="http://www.w3.org/2000/svg" viewBox="0 0 124.6 39.56">
    <path d="M44.74 3.78A33.1 33.1 0 0 0 31.41.12a1.92 1.92 0 0 0-.72.28 2.39 2.39 0 0 0 .61.48c1.05.37 2.14.64 3.18 1a16.24 16.24 0 0 1 9.39 8.32 20.36 20.36 0 0 1 1.68 11.2 17 17 0 0 1-9.93 14.11 19.73 19.73 0 0 1-10.5 1.66 28.28 28.28 0 0 1-16.41-6.31 11.28 11.28 0 0 1-3.65-5.1 4.29 4.29 0 0 1 .66-4.33A13.36 13.36 0 0 1 9 18.52c5.76-3.36 12.07-4.45 18.66-4.26h1.8V0h-.71a44.3 44.3 0 0 0-15.08 2.52C8.88 4.29 4.81 7 2.08 11.54a16 16 0 0 0 .62 16.79c3.84 5.33 9.22 8.27 15.39 9.92a38.73 38.73 0 0 0 19.72.06 27.21 27.21 0 0 0 13.68-7.6 15.31 15.31 0 0 0 2-19.16 22 22 0 0 0-8.75-7.77z"/>
    <path d="M18.22 29.68c2.56 4 6.54 5.49 11.08 6.11V15a14.3 14.3 0 0 0-8.84 3.49c-3.34 2.96-4.36 7.86-2.24 11.19zM68.42 8.94c-3.21-1.81-6.7-.94-10.15-1.17v10.8c2.79-.17 5.5-.28 8.21-.52a5.62 5.62 0 0 0 2-.78 4.51 4.51 0 0 0 2.6-4.1 4.69 4.69 0 0 0-2.66-4.23zm-.73 4.38a3.09 3.09 0 0 1-2 2.76 9.38 9.38 0 0 1-4.19.45c0-.33-.05-.58-.05-.84V9.44c1.63.12 3.19-.16 4.61.7a3.22 3.22 0 0 1 1.63 3.19zM68.81 22.34a8.49 8.49 0 0 0-4.5-1.34c-1.82-.06-3.64 0-5.46 0a2.91 2.91 0 0 0-.58.12v10.35c2.37 0 4.68.09 7 0a8.7 8.7 0 0 0 3-.88 4.51 4.51 0 0 0 2.86-4.11 4.58 4.58 0 0 0-2.32-4.14zm-1.15 4.36a3 3 0 0 1-2.37 2.66 35.23 35.23 0 0 1-3.81.52v-7.32c1.53.18 3-.09 4.42.68a3.23 3.23 0 0 1 1.76 3.45zM86.85 13.27l.41-.14A2.55 2.55 0 0 0 89 10.74a2.33 2.33 0 0 0-1.57-2.41 6.13 6.13 0 0 0-2-.51c-2.08-.08-4.17-.06-6.26-.07a4 4 0 0 0-.57.09v10.08a.6.6 0 0 0 .42.41h2.81v-4.1c1.86-.24 2.31 0 3.08 1.48.38.73.76 1.46 1.17 2.17a.84.84 0 0 0 .48.43h3a1.61 1.61 0 0 0-.06-.4zm-2-1.29a10.49 10.49 0 0 1-2.57.3.62.62 0 0 1-.41-.42 4.6 4.6 0 0 1 0-1c0-1.47-.17-1.32 1.28-1.32a3.6 3.6 0 0 1 1.47.1 2 2 0 0 1 1.12 1.12 1.52 1.52 0 0 1-.9 1.24zM97.86 23.62a6.4 6.4 0 0 0-4.58 1.09v-4.42h-3v11.27c2.19.31 2.88.16 3.19-.67a6.08 6.08 0 0 0 5 .84 3.88 3.88 0 0 0 2.64-1.9 4.05 4.05 0 0 0-3.25-6.21zm-1.92 6.48a2.59 2.59 0 0 1-2.66-2.3 2.6 2.6 0 0 1 2.65-2.41 2.57 2.57 0 0 1 2.64 2.31 2.52 2.52 0 0 1-2.63 2.4zM99.74 18.34c.75 0 .46-.61.5-1s.09-.85-.57-.83h-3.53c-1.75 0-1.43.19-1.52-1.5 0-.85.26-1 1-1 1.4.06 2.81 0 4.21 0v-1.9h-5.2v-1.84a.58.58 0 0 1 .71-.71h3.7c1.23 0 1.25 0 1.2-1.27a2.68 2.68 0 0 0-.1-.47h-8.39v10.52h7.99zM83.44 24a7.09 7.09 0 0 0-7.37.47 3.63 3.63 0 0 0 .07 6.09c2.64 1.7 5.48 1.39 8.32.64a.59.59 0 0 0 .34-.42V29.3a9.37 9.37 0 0 1-5.29.64 1.88 1.88 0 0 1-1.75-1.77h7c.4 0 .78 0 .74-.57a3.89 3.89 0 0 0-2.06-3.6zm-5.51 2.58c-.08-1 .55-1.55 1.86-1.69 1.48-.17 2.48.44 2.65 1.69h-4.51zM106.64 9.9a7 7 0 0 1 2.15-.37c1.1 0 2.21.15 3.33.24.58-1.36.45-1.67-.94-1.93a11.74 11.74 0 0 0-6.84.57 4.82 4.82 0 0 0-3.3 4 4.68 4.68 0 0 0 2.25 4.75c2.64 1.68 5.54 1.75 8.5 1.08a.81.81 0 0 0 .44-.61 3.69 3.69 0 0 0-.13-.95c-1.84-.17-3.57-.21-5.25-.51a2.9 2.9 0 0 1-2.44-2.85 3.28 3.28 0 0 1 2.23-3.42zM123.58 7.81h-9.17c-1.43 0-1.35-.31-1.32 1.37a1.85 1.85 0 0 0 .1.38h3.35a.65.65 0 0 1 .81.81v7.05c0 .34 0 .68.06 1.08h2.29c.73 0 .74-.22.74-.77v-7.14c0-.31 0-.62.05-1h4.12V7.81h-1zM123.11 30.29a3.49 3.49 0 0 1-1.27 0 2 2 0 0 1-1.19-.95 30.88 30.88 0 0 1-.06-3.76h2.5V24l-2.44-.18c-.23-2-.23-2-2-2-1.43 0-1.27 0-1.22 1.23 0 .62-.18.85-.8.8s-1.08 0-1.59 0v1.8h2.29a1.36 1.36 0 0 1 .07.26v3.52a2.35 2.35 0 0 0 2 2.61 8.23 8.23 0 0 0 2.44.2c1.59-.11 1.58-.16 1.41-1.75a.59.59 0 0 0-.14-.2zM75.9 7.82h-3.11v10.44h3.11V7.82zM107.85 23.82a.65.65 0 0 0-.81.79v6.42a4.86 4.86 0 0 0 .09.65h3v-7.85c-.82 0-1.55.03-2.28-.01zM107.12 22.24h3V20.3h-3v1.94z"/>
</svg>
