<svg xmlns="http://www.w3.org/2000/svg" viewBox="0 0 579.51 699.07">
  <path fill="#FFF" stroke="#007FC3" stroke-width="17.14" d="M.16 41.2A41.04 41.04 0 0 1 41.2.15h497.1a41.03 41.03 0 0 1 41.03 41.03v616.63a41.05 41.05 0 0 1-41.03 41.08H41.2A41.01 41.01 0 0 1 .15 657.84V41.2z"/>
  <path fill="#007FC3" d="M174.94 171.4v65.73h36.7v-85.6H194.8a19.95 19.95 0 0 0-19.86 19.88zm0 227.07c0 11.67 9.1 20.9 20.14 20.9h16.55V352.4h114.52v158.02h-214.2C83.6 510.42 63 487.38 63 459.1V111.84c0-28.44 20.6-51.37 48.95-51.37h214.2V325.9h-151.2v72.57M73.1 600.57h10.67v-5.9c-.16-6.53-1.4-8.78-5.62-8.78-5.14 0-5.04 5.88-5.04 12v2.67zM62.68 616.3v-17.4c-.6-15.74 5.03-24.7 15.32-24.7 14.67 0 16.22 10.94 16.22 29.26v8.94h-21.1v9.7c.2 8.78 2.46 10.44 5.62 10.44 3.8 0 5.03-4.07 4.87-12.58h10.46c.43 14.9-3.8 24.26-14.52 24.26-12.16 0-17.14-8.35-16.87-27.9"/>
  <path fill="red" d="M517.65 510.42H307.5l-2.4-.27-2.25-.32-2.46-.43-2.26-.6-2.14-.8-2.25-.74-2.14-.75c-6.9-3.1-11.35-6.26-16.8-11.5a53.96 53.96 0 0 1-11.05-17.3l-.75-2.1-.64-2.46-.6-2.25-.58-2.26-.32-2.47-.32-2.25-.1-2.57-.17-2.25V111.4c.32-13.48 4.87-25.54 14.25-35.3a48.73 48.73 0 0 1 16.5-11.5l2.08-.97 2.15-.75 2.3-.6 2.1-.57 2.4-.48 2.3-.26 2.25-.33 2.4-.16h208.65v176.5H408v-85.7c-16.93-2.68-35.24 1.17-36.26 21.05v-7.77l-.1 8.03.1-.26V398.2l-.1-.32.1 1.98v-1.66c1.07 19.93 19.28 23.84 36.53 21v-91.76l.48-1.66h108.9v184.64m-107.13 88.65h-10.45v-7.4c-.16-3.64-1.5-5.78-3.64-5.78-4.02 0-4.02 6.8-4.02 14.83v15.8c-.36 13.02.87 15.43 4.03 16 3.22-.15 3.38-4.54 3.64-9.84v-6.17h10.45v6.16c0 13.92-3.9 21.52-14.36 21.52-9.26 0-14.5-7.12-14.08-24.85V597.9c-.16-18.8 6.05-23.7 14.08-23.7 10.6 0 14.57 9.7 14.36 19.56v5.3"/>
  <path fill="#292526" d="M308.6 510.42c-12.7-.54-24.92-6.43-33.8-15.43a53.96 53.96 0 0 1-11.05-17.3l-.75-2.1-.64-2.46-.6-2.25-.58-2.26-.32-2.47-.32-2.25-.1-2.57-.17-2.25V352.4h65.88v158.02H308.6zm-48.33-399c1.3-36.27 30.96-55.55 65.88-50.95V325.9h-65.88V111.4"/>
  <path fill="none" stroke="#292526" stroke-width="10.71" d="M107.56 642.56V553.9"/>
  <path fill="#292526" d="M130.86 600.57h10.44v-5.9c0-6.53-1.18-8.78-5.4-8.78-5.36 0-5.04 5.88-5.04 12v2.67zM120.4 616.3v-17.4c-.47-15.74 5-24.7 15.28-24.7 14.73 0 16.28 10.94 16.28 29.26v8.94h-21.1v9.7c.16 8.78 2.46 10.44 5.46 10.44 3.96 0 4.98-4.07 4.88-12.58h10.55c.48 14.9-3.75 24.26-14.52 24.26-12.1 0-16.98-8.35-16.82-27.9m66.05-17.25H176v-7.4c-.15-3.64-1.33-5.78-3.58-5.78-4 0-4 6.8-4 14.83v15.8c-.12 13.02.95 15.43 4 16 3.16-.15 3.27-4.54 3.6-9.84v-6.17h10.44v6.16c0 13.92-3.75 21.52-14.25 21.52-9.36 0-14.67-7.12-14.24-24.85V597.9c-.1-18.8 6.2-23.7 14.25-23.7 10.67 0 14.42 9.7 14.26 19.56v5.3m21.35 31.66v12.1c-6.37.92-15 1.88-15-10.54v-45.2h-4.23v-11.15h4.07v-18.38h10.6v18.38h4.56v11.14h-4.55v41.56c.32 2.74 3.2 2.25 4.55 2.1m14.41-54.8v11.78h.16c1.34-4.86 2.57-7.54 4.07-9.36 2.9-3.64 4.98-3.48 6.64-3.64V593c-5.88-.9-10.27 1.25-10.43 11.1v38.46h-10.6v-66.63h10.17m29.65 68.29c-13.75.48-16.22-9.53-16.06-32.57 0-22.87.16-37.44 16.07-37.44 15.6 0 15.82 14.58 15.82 37.45.1 23.04-2.15 33.05-15.8 32.57zm-5.6-45.58v22.12c0 8.14.63 11.78 5.6 11.78 4.9 0 5.32-3.64 5.32-11.78v-22.12c0-6.22 0-12.75-5.3-12.75-5.63 0-5.63 6.52-5.63 12.74m38.51-22.7v6.8h.16c2.4-7.77 7.13-8.52 9.54-8.52 5.9 0 10.76 5 10.44 16.83v51.53H294.5v-44.4c0-6.48-.6-10.72-4.56-11.1-3.9-.1-5.3 5.37-5.14 12.33v43.16h-10.44v-66.63h10.44m38.94-8.09h-10.6V553.9h10.6v13.94zm0 74.72h-10.6v-66.7h10.6v66.7zm35.89-43.49h-10.55v-7.4c-.2-3.64-1.4-5.78-3.54-5.78-4.07 0-4.07 6.8-3.96 14.83v15.8c-.27 13.02.8 15.43 3.96 16 3.22-.15 3.22-4.54 3.54-9.84v-6.17h10.55v6.16c0 13.92-3.96 21.52-14.4 21.52-9.22 0-14.68-7.12-14.25-24.85V597.9c0-18.8 6.26-23.7 14.24-23.7 10.6 0 14.4 9.7 14.4 19.56v5.3m75.91 15.49v-7.13c-2.57 2.57-5.73 5.25-8.62 8.47-1.38 1.97-1.65 5.3-1.65 8.02 0 5.14 1.23 8.62 4.98 8.62 6.1 0 5.14-11.5 5.3-18zm11.36 28h-9.97c-.6-2.13-.6-4.38-.6-6.8-2.56 5.42-5.78 8.47-9.42 8.47-8.45 0-12.1-6.05-12.1-19.98 0-15 7.3-18.8 15.6-23.78 4.38-2.57 5.94-5.8 5.13-11.1-.42-3-2.08-3.47-4.82-3.47-4.8 0-5.6 3.63-5.6 9.7h-10.03c0-12.6 2.73-21.4 15.9-21.4 14.42 0 15.17 10.78 15.17 19.67v39.42c0 3.05.16 6.05.75 9.26m4.54-21.94h10.45c-.76 12.27 2.56 11.95 4.86 11.95 3.16 0 5.14-3.33 4.4-7.56-.17-3.8-3.17-5.95-5.15-7.88l-5.6-5.8c-5.32-5.3-8.8-11.5-8.8-21.04 0-10.28 5.63-16.07 15.6-16.07 10.33 0 15.04 7.73 14.72 21.97h-10.5c.22-7.4-1.18-10.28-4.93-10.28-2.47 0-4.45 1.65-4.45 5.45 0 3.9 1.98 5.74 3.96 7.72l8.8 8.46c2.57 2.3 6.64 8.68 6.96 13.07 1.07 11.68-.9 23.62-15.64 23.62-5.4 0-15.86-3.32-14.68-23.62M498 642.56h-10.62V553.9h10.6v28.83h.12c2.9-7.87 7.28-8.52 9.43-8.52 6.05 0 10.92 5 10.6 16.83v51.53h-10.6v-45.64c0-6.48-.43-10.7-4.4-11.03-3.96-.17-5.3 5.13-5.14 12.42v44.24"/>
</svg>
