<svg xmlns="http://www.w3.org/2000/svg" viewBox="0 0 46.83 40.14">
    <path d="M11.41 0v28.6H0v4.47a7.14 7.14 0 0 0 7.12 7.07h32.59A7.13 7.13 0 0 0 46.83 33V0H11.41zM2.83 33.06v-1.63h29.76V33A7.07 7.07 0 0 0 34 37.3H7.12a4.3 4.3 0 0 1-4.29-4.24zm36.88 4.24a4.29 4.29 0 0 1-4.29-4.3v-4.4H14.25V2.83H44V33a4.29 4.29 0 0 1-4.29 4.3z"/>
    <path d="M36.91 12.25H21.33a1.42 1.42 0 1 0 0 2.83h15.58a1.42 1.42 0 1 0 0-2.83zM36.91 18.89h-5.58a1.42 1.42 0 1 0 0 2.83h5.59a1.42 1.42 0 1 0-.01-2.83z"/>
</svg>
