<svg xmlns="http://www.w3.org/2000/svg" viewBox="0 0 75.9 17">
  <path fill="#0B7FC3" d="M5.6 11.1v2.4H5c-.4 0-.7-.3-.7-.7V10h5.6V0H1.5C.7 0 0 .7 0 1.5v13.9c0 .9.7 1.6 1.5 1.6h8.3v-5.9H5.6zM4.2 4.2c0-.4.3-.7.7-.7h.6v3.2H4.2V4.2z"/>
  <path fill="#E32726" d="M12.8 10.1v3.5h-.6c-.4 0-.7-.3-.7-.7V4.2c0-.4.3-.7.7-.7h.6v3.3h4.8V0H8.7c-.8 0-1.5.7-1.5 1.5v13.9c0 .8.7 1.5 1.5 1.5h8.9V10h-4.8z"/>
  <path fill="#292526" d="M9.8 10V0h-1c-.9 0-1.6.7-1.6 1.5V10h2.6zm-2.6 1.1v4.4c0 .8.7 1.5 1.5 1.5h1v-5.9H7.2z"/>
  <path d="M26.9 11.9H22V5.2h1.7v5.4h3.1v1.3zm4-.5c-.1.1-.2.1-.3.2-.1.1-.3.2-.4.2-.2.1-.3.2-.5.2s-.4.1-.6.1c-.5 0-.9-.1-1.2-.4-.3-.3-.5-.7-.5-1.1 0-.4.1-.7.2-.9.2-.2.4-.4.7-.6.3-.1.7-.2 1.1-.3.4-.1.9-.1 1.4-.1 0-.3-.1-.5-.3-.6-.2-.1-.6-.2-1-.2-.3 0-.6 0-.9.1-.3.1-.5.2-.7.2h-.1V7c.2 0 .4-.1.8-.2s.8-.1 1.2-.1c.9 0 1.6.1 2 .4.4.3.6.7.6 1.3v3.4h-1.6v-.4zm0-.8v-1c-.2 0-.5 0-.7.1-.3 0-.4.1-.6.1-.2.1-.3.1-.4.2-.1.1-.1.2-.1.4v.3c0 .1.1.1.1.2.1.1.2.1.2.1h.4c.2 0 .3 0 .5-.1.3-.1.4-.2.6-.3zm7.5-.3c0 .5-.2.9-.7 1.3-.5.3-1.1.5-1.9.5-.4 0-.9 0-1.2-.1s-.7-.2-.9-.3v-1.3h.1c.1.1.2.1.3.2.1.1.3.1.5.2s.4.1.6.2c.2 0 .4.1.7.1.3 0 .6 0 .7-.1.2-.1.2-.2.2-.3 0-.1 0-.2-.1-.3-.1-.1-.3-.1-.5-.2-.1 0-.3-.1-.5-.1-.3-.1-.5-.1-.7-.1-.5-.1-.8-.3-1-.6-.2-.3-.3-.6-.3-.9 0-.5.2-.9.7-1.2s1.1-.5 1.9-.5c.4 0 .7 0 1.1.1.3.1.6.2.8.2v1.3H38c-.2-.2-.5-.3-.8-.4-.3-.1-.6-.2-.9-.2-.3 0-.5 0-.7.1-.2.1-.3.2-.3.3 0 .1 0 .2.1.3.1.1.3.1.6.2.2 0 .3.1.5.1s.4.1.6.1c.4.1.7.3.9.5.3.3.4.6.4.9zm4.3 1.6c-.2 0-.4.1-.6.1h-.7c-.6 0-1.1-.1-1.4-.4-.3-.3-.5-.7-.5-1.3V8h-.7V6.9h.7V5.4h1.6v1.4h1.5V8h-1.5v2.3c0 .1 0 .3.1.4 0 .1.1.2.2.3.1.1.3.1.5.1.1 0 .2 0 .3-.1.1 0 .2-.1.3-.1h.1v1zm5.3-1.6c0 .5-.2.9-.7 1.3-.5.3-1.1.5-1.9.5-.4 0-.9 0-1.2-.1-.4-.1-.7-.2-.9-.3v-1.3h.1c.1.1.2.1.3.2.1.1.3.1.5.2s.4.1.6.2c.2 0 .4.1.7.1.3 0 .6 0 .7-.1.2-.1.2-.2.2-.3 0-.1 0-.2-.1-.3-.1-.1-.3-.1-.5-.2-.1 0-.3-.1-.5-.1-.3-.1-.5-.1-.6-.1-.5-.1-.8-.3-1-.6-.2-.3-.3-.6-.3-.9 0-.5.2-.9.7-1.2.5-.3 1.1-.5 1.9-.5.4 0 .7 0 1.1.1.3.1.6.2.8.2v1.3h-.1c-.2-.2-.5-.3-.8-.4-.3-.1-.6-.2-.9-.2-.3 0-.5 0-.7.1-.3.1-.4.2-.4.3 0 .1 0 .2.1.3.1.1.3.1.6.2.2 0 .3.1.5.1s.4.1.6.1c.4.1.7.3.9.5.2.3.3.6.3.9zm3.7 1.8c-.4 0-.8-.1-1.2-.2s-.7-.3-1-.5c-.3-.2-.5-.5-.6-.8a3.73 3.73 0 0 1 0-2.4c.2-.3.4-.6.7-.9.3-.2.6-.4.9-.5s.7-.1 1.1-.1c.3 0 .7 0 1 .1.3.1.6.2.8.3v1.4h-.2l-.2-.2c-.1-.1-.2-.1-.3-.2-.2 0-.3-.1-.4-.1-.1 0-.3-.1-.5-.1-.4 0-.8.1-1 .4-.2.3-.3.6-.3 1.1 0 .5.1.9.4 1.1.2.3.6.4 1 .4.2 0 .4 0 .5-.1.2 0 .3-.1.4-.2.1-.1.2-.1.3-.2l.2-.2h.2v1.4c-.3.1-.5.2-.8.3-.3.1-.6.2-1 .2zm7.9-.2H58V8.8c0-.2-.1-.4-.1-.4-.1-.1-.1-.2-.3-.2-.1-.1-.3-.1-.5-.1-.1 0-.3 0-.4.1-.2 0-.3.1-.5.2V12h-1.6V5h1.6v2.5c.2-.3.5-.5.8-.6.3-.1.6-.2.9-.2.5 0 1 .2 1.3.5.3.3.5.8.5 1.4v3.3zm5.1-3.5h-.1c-.1 0-.2 0-.3-.1h-1c-.2 0-.4.1-.6.2v3.4h-1.6v-5h1.6v.7c.4-.3.7-.5.9-.6.3-.1.5-.2.7-.2h.4v1.6zm2.6-2.2h-1.7V4.9h1.7v1.3zm0 5.7h-1.6v-5h1.6v5zm4.8-5.8H72c-.1 0-.2 0-.3-.1h-.4c-.3 0-.5.1-.6.2s-.2.3-.2.7h1.2V8h-1.2v4h-1.6V8h-.7V6.9h.7v-.2c0-.6.2-1.1.5-1.4.3-.3.8-.5 1.5-.5h.7c.2 0 .4 0 .5.1v1.2zm3.8 5.8c-.2 0-.4.1-.6.1h-.7c-.6 0-1.1-.1-1.4-.4-.3-.3-.5-.7-.5-1.3V8H72V6.9h.7V5.4h1.6v1.4h1.5V8h-1.5v2.3c0 .1 0 .3.1.4 0 .1.1.2.2.3.1.1.3.1.5.1.1 0 .2 0 .3-.1.1 0 .2-.1.3-.1h.1v1z"/>
</svg>
