<svg xmlns="http://www.w3.org/2000/svg" viewBox="0 0 80.2 40.8">
	<path d="M10.6 16H18c.8 0 1.4-.6 1.4-1.4s-.6-1.4-1.4-1.4h-7.4c-.8 0-1.4.6-1.4 1.4s.6 1.4 1.4 1.4zM47.5 13.2h-4.4c-.8 0-1.4.6-1.4 1.4s.6 1.4 1.4 1.4h4.4c.8 0 1.4-.6 1.4-1.4s-.6-1.4-1.4-1.4zM48.9 21.3c0-.8-.6-1.4-1.4-1.4H10.6c-.8 0-1.4.6-1.4 1.4s.6 1.4 1.4 1.4h36.9c.8 0 1.4-.6 1.4-1.4zM26.1 30.1c-.8 0-1.4.6-1.4 1.4s.6 1.4 1.4 1.4h17.4c.8 0 1.4-.6 1.4-1.4s-.6-1.4-1.4-1.4H26.1z"/>
	<path d="M78.8 1.5c-1-1-2.2-1.5-3.6-1.5s-2.6.5-3.5 1.5L69.2 4 50.7 22.5v.1l-.2.4v.1l-3 8c-.2.5-.1 1.1.3 1.5.3.3.6.4 1 .4l.5-.1 8-3h.1l.4-.3 1.9-1.9V38H2.8V6.6h58.3c.8 0 1.4-.6 1.4-1.4s-.6-1.4-1.4-1.4H0v37h62.5V25.2l-.1-.4L76.2 11l2.5-2.5a5 5 0 0 0 .1-7zM51.1 29.1l1.1-3.1 1.9 1.9-3 1.2zm5.7-2.6l-3.1-3.1L70.2 7l3.1 3.1-16.5 16.4zm20-20L75.2 8l-3-3 1.5-1.5c.8-.8 2.2-.8 3.1 0 .8.8.8 2.2 0 3z"/>
</svg>
