<svg xmlns="http://www.w3.org/2000/svg" viewBox="0 0 61.8 40.1">
	<path d="M26.4 0v5.9c0 .8.6 1.4 1.4 1.4s1.4-.6 1.4-1.4v-3H59V33c0 2.4-1.9 4.3-4.3 4.3a4.3 4.3 0 0 1-4.3-4.3v-4.4H29.2v-3.3c0-.8-.6-1.4-1.4-1.4s-1.4.6-1.4 1.4v3.3H15v4.5c0 3.9 3.2 7.1 7.1 7.1h32.6c3.9 0 7.1-3.2 7.1-7.1V0H26.4zm-8.6 33.1v-1.6h29.8V33c0 1.6.5 3.1 1.5 4.3h-27a4.4 4.4 0 0 1-4.3-4.2z"/>
	<path d="M36.3 10.1h15.6c.8 0 1.4-.6 1.4-1.4s-.6-1.4-1.4-1.4H36.3c-.8 0-1.4.6-1.4 1.4s.6 1.4 1.4 1.4zM36.3 16.9h15.6c.8 0 1.4-.6 1.4-1.4s-.6-1.4-1.4-1.4H36.3c-.8 0-1.4.6-1.4 1.4s.6 1.4 1.4 1.4zM36.3 23.7h15.6c.8 0 1.4-.6 1.4-1.4s-.6-1.4-1.4-1.4H36.3c-.8 0-1.4.6-1.4 1.4s.6 1.4 1.4 1.4zM23.4 16.9l-3.9 3.9c-.6.6-.6 1.5 0 2 .3.3.6.4 1 .4s.7-.1 1-.4l6.3-6.3c.6-.6.6-1.5 0-2l-6.3-6.3c-.6-.6-1.5-.6-2 0-.6.6-.6 1.5 0 2l3.9 3.9h-1.3c-9.2 0-17.6 5.1-21.9 13.3-.4.7-.1 1.6.6 1.9l.7.2c.5 0 1-.3 1.3-.8a21.8 21.8 0 0 1 19.4-11.8h1.2z"/>
</svg>
