<svg xmlns="http://www.w3.org/2000/svg" viewBox="0 0 77.5 25.2">
  <path fill="#0057A0" d="M11 4.2H2a2 2 0 0 0-2 2v13c0 1.1.9 2 2 2h10a2 2 0 0 0 2-2v-12l-3-3zm1 15H2v-13h8v2h2v11z"/>
  <path fill="#0057A0" d="M3 10.2h8v1H3zm0 2h8v1H3zm0 2h8v1H3zm0 2h4v1H3z"/>
  <path fill="#363636" d="M26.3 2.8h-2L22 5.7l-.7 1V2.8h-1.8v8.5h1.8v-3l.8-.5 2.2 3.6h2.1l-3-4.8 2.9-3.8zm2.6 8.6l1.2-.2c.3-.1.6-.4.9-.8l.3.9h1.2V7c0-.8-.2-1.4-.7-1.7a3 3 0 0 0-2-.6c-.9 0-1.7.2-2.5.6l.6 1.2c.9-.4 1.5-.5 2-.5.7 0 1 .3 1 1v.3h-1.1c-1 0-1.7.2-2.2.5-.5.3-.7.8-.7 1.5s.2 1.2.5 1.5c.4.5.8.6 1.5.6zm.2-2.8c.3-.2.6-.3 1.2-.3h.7v.5c0 .4-.1.7-.4.9-.2.2-.6.4-1 .4-.6 0-.9-.3-.9-.8 0-.3.1-.5.4-.7zm7.7 2.8a5 5 0 0 0 1.2-.2l.8-.7h.1l.2.8h1.4V4.8h-1.8v3.1c0 .8-.1 1.3-.3 1.7-.2.3-.6.5-1.1.5-.4 0-.6-.1-.8-.4-.2-.2-.3-.6-.3-1.1V4.8h-1.8v4.3c0 .8.2 1.4.6 1.8.4.3 1 .5 1.8.5zm6.4-8.7c-.4.3-.5.9-.5 1.6v.5l-1 .5v.9h1v5.2h1.8V6.1H46V4.8h-1.5v-.4l.2-.6.5-.2 1 .2.5-1.3c-.5-.2-1-.3-1.6-.3-1 0-1.5.2-1.9.5zm9.5 2c-.9 0-1.7.2-2.5.6l.6 1.2c.7-.4 1.4-.5 1.9-.5.7 0 1 .3 1 1v.3h-1.1c-1 0-1.7.2-2.2.5-.5.3-.7.8-.7 1.5s.2 1.2.5 1.5c.4.4.9.5 1.5.5l1.2-.2c.3-.1.6-.4.9-.8l.3.9h1.2V7c0-.8-.2-1.4-.7-1.7-.3-.4-1-.6-1.9-.6zm1 4.1c0 .4-.1.7-.4.9-.2.2-.6.4-1 .4-.6 0-.9-.3-.9-.8 0-.4.1-.6.4-.8.3-.2.6-.3 1.2-.3h.7v.6zm7.8-.9c0 .8-.1 1.3-.3 1.7-.2.3-.6.5-1.1.5-.4 0-.6-.1-.8-.4-.2-.3-.3-.6-.3-1.1V4.8h-1.8v4.3c0 .8.2 1.4.6 1.8.4.4 1 .6 1.7.6l1.2-.2c.4-.1.6-.4.8-.7h.1l.2.8h1.4V4.8h-1.8v3.1zm3.9 3.4h1.8V6.1h1.5V4.8h-1.5v-.4l.2-.6.5-.2 1 .2.5-1.3c-.5-.2-1-.3-1.6-.3a3 3 0 0 0-1.8.5c-.4.3-.5.9-.5 1.6v.5l-1 .5v.9h1v5.1zM25 17.6c.3-.4.4-.8.4-1.3 0-.9-.3-1.5-.8-1.9-.6-.4-1.5-.7-2.6-.7h-2.5v8.5h1.8V19h1l2 3.3h2l-2.5-3.7a4 4 0 0 0 1.2-1zm-1.8-.3c-.3.2-.7.3-1.3.3h-.6v-2.3h.5c.6 0 1 .1 1.3.3.3.2.4.5.4.9.1.3-.1.6-.3.8zm6.7-1.7a3 3 0 0 0-2.3.9c-.5.6-.8 1.4-.8 2.5s.3 1.9.9 2.5c.6.6 1.4.9 2.5.9l1.3-.1 1-.3v-1.4l-1.1.4-1.1.1c-.5 0-.9-.1-1.2-.4-.3-.3-.4-.7-.4-1.2h4.2v-.9c0-.9-.3-1.7-.8-2.2a3 3 0 0 0-2.2-.8zm-1.2 2.7c0-.4.2-.8.4-1 .2-.2.5-.4.9-.4s.7.1.9.4c.2.2.3.6.3 1h-2.5zm8.4-1.2l.7.1.8.3.5-1.4c-.6-.3-1.3-.4-2-.4-1 0-1.8.3-2.4.9-.6.6-.8 1.4-.8 2.5 0 2.2 1 3.3 3 3.3l1.1-.1.9-.4v-1.5l-.9.4-1 .1c-.9 0-1.4-.6-1.4-1.9.1-1.3.6-1.9 1.5-1.9zm7-1.5c-.9 0-1.5.3-1.9 1h-.1v-3.3h-1.8v9.1h1.8v-3.1c0-.8.1-1.3.3-1.6.2-.3.6-.5 1.1-.5.7 0 1 .5 1 1.4v3.8h1.8V18c0-.8-.2-1.4-.6-1.8-.2-.4-.8-.6-1.6-.6zm7.9 0a5 5 0 0 0-1.2.2l-.8.7h-.1l-.2-.8h-1.4v6.5h1.8v-3.1c0-.8.1-1.3.3-1.7.2-.3.6-.5 1.1-.5.4 0 .6.1.8.4.2.2.3.6.3 1.1v3.8h1.8V18c0-.8-.2-1.4-.6-1.8-.5-.4-1.1-.6-1.8-.6zm8.3 3.2c0 .8-.1 1.3-.3 1.7-.2.3-.6.5-1.1.5-.4 0-.6-.1-.8-.4-.2-.2-.3-.6-.3-1.1v-3.8H56V20c0 .8.2 1.4.6 1.8.4.4 1 .6 1.7.6a5 5 0 0 0 1.2-.2l.8-.7h.1l.2.8H62v-6.5h-1.8v3zm7.4-3.2a5 5 0 0 0-1.2.2l-.8.7h-.1l-.2-.8H64v6.5h1.8v-3.1c0-.8.1-1.3.3-1.7.2-.3.6-.5 1.1-.5.4 0 .6.1.8.4.2.2.3.6.3 1.1v3.8H70V18c0-.8-.2-1.4-.6-1.8-.4-.4-1-.6-1.7-.6zm9.8.2h-2.3l-.5-.1H74a3 3 0 0 0-2 .6c-.5.4-.7.9-.7 1.7l.3 1.2c.2.3.5.6.8.7l-.6.5-.2.6.2.6.5.4a2 2 0 0 0-1.1.6c-.2.3-.4.6-.4 1 0 .6.2 1 .7 1.3a4 4 0 0 0 2.1.5 5 5 0 0 0 2.7-.6c.6-.4 1-1 1-1.8 0-.6-.2-1-.6-1.4-.4-.3-.9-.5-1.6-.5H74c-.7 0-1-.1-1-.4 0-.2.1-.3.3-.5h.6a3 3 0 0 0 2-.6c.5-.4.7-.9.7-1.6 0-.4-.1-.7-.3-1l1-.3v-.9zm-3.9 6.6h.9l1 .1c.2.1.3.3.3.5 0 .3-.2.5-.5.7-.3.2-.8.3-1.5.3l-1-.2c-.2-.1-.4-.3-.4-.6s.1-.5.3-.6c.3-.2.6-.2.9-.2zm1.2-3.7a1 1 0 0 1-.7.3c-.3 0-.6-.1-.7-.3-.2-.2-.2-.5-.2-.8 0-.8.3-1.2 1-1.2.6 0 1 .4 1 1.2l-.4.8z"/>
</svg>
