<svg xmlns="http://www.w3.org/2000/svg" viewBox="0 0 807.3 250.3">
  <path fill="#EE7F00" d="M267 0c-11 0-21.7 2.5-31.8 7.3a97.7 97.7 0 0 0-38 33.2c-7 9.8-12.8 21-17.5 33.8-8.7 24-8.6 43.3.3 56 5 7.3 15.6 16 37 16 39 0 68.2-25.5 86.6-76 5-13.2 11.3-38-.4-55C296 5.4 284 0 267 0zm235 0c-11 0-21.6 2.5-31.7 7.3a97.7 97.7 0 0 0-38 33.2c-7 9.8-12.8 21-17.5 33.8-8.7 24-8.6 43.3.3 56 5.2 7.3 15.7 16 37 16h.2c39 0 68-25.5 86.5-76 5-13.2 11.3-38-.4-55C531 5.4 519 0 502 0zM142 2c-13 0-25.4 0-36.5 5.8-11.2 5.7-21 17-28.6 39.7-1.7 5-2.6 9-2.7 12.7 0 3.7.5 6.8 2 9.5 1.6 3.3 4.4 6.4 7.8 9 3.6 2.6 7.7 4.7 12.2 6l5.4 1.6 8.2 2.4 3.8 1.6c1.2.7 2.3 1.7 3 3 .5 1 .7 2 .7 3s0 2.2-.6 3.4c-1 3-2.6 5-5.6 6.3-3 1.2-7.3 1.6-14 1.7H13.3L0 144h89.6c8.4 0 23.8 0 38.7-6.3 14.8-6.3 29-19 35-44 2.3-9.5 1.6-17.2-2-23.2-3.8-6-10.5-10.4-20.3-13.2l-4.8-1.4c-2.6-.8-5.5-1.7-7-2-2.5-.8-4.4-2.3-5.6-4-1-2-1.5-4.2-.8-6.5a9.4 9.4 0 0 1 4.6-5.6c2.4-1.4 5.5-2 9-2h52.2l1-1.7c9.6-13.5 21-24.3 33.7-32H142zm234 0c-23.4 0-40.6 12-48.8 34L288 144h43l20.2-55.6h38l11-29.8h-38l6-17.2c1.3-3 4.3-5.5 8.8-5.5h45l1-1.7c9.5-13.5 23-24.3 35.6-32L376 2zm200 0l-51.6 142h44L587 94c1 2 12 50 12 50h46.2s-8.4-35.3-14.6-49.5c-1.6-3.7-3.2-7.7-5.5-11.2C638 78.5 657 68 665 47c4.8-13 4.5-23.4-.8-31-6.5-9.4-19.6-14-40.3-14H576zm90 0c2.8 2.3 5.2 4.8 7.2 7.7 5 7.4 7 16 6 26h26L665.8 144H705l39.5-108.2H795L807.3 2H666zm-61 29.4h7c13.3 0 18.3 4 13.8 16-4.2 11.3-11.8 18.3-26.2 18.3H592l13-34.3zm-348.3.7c13.5 0 16.6 8 4.7 40.3-12.2 33.3-21 41.6-34.3 41.6-12.8 0-17.4-8.3-5.3-41.4 9-24.7 20.8-40.5 35-40.5zm235 0c13.6 0 16.7 8 4.8 40.3-12 33.3-21 41.6-34.2 41.6-13 0-17.5-8.3-5.4-41.4C466 48 477.5 32 491.7 32z"/>
  <path fill="#383A41" d="M42.7 159c-2.8 0-4.8.4-6.2 1.4-1.4 1-2.5 2.8-3.5 5.4-1 2.5-1 4.2-.4 5.2s2.3 1.5 5 1.5c3 0 5-.5 6.3-1.5 1.3-1 2.4-2.8 3.3-5.3 1-2.5 1-4.2.4-5.2-.5-1-2.2-1.6-5-1.6zm23.7 0c-2.8 0-5 .4-6.2 1.4-1.4 1-2.5 2.8-3.4 5.4-1 2.5-1 4.2-.4 5.2s2.3 1.5 5 1.5c3 0 5-.5 6.4-1.5 1.4-1 2.5-2.8 3.5-5.3s1-4.2.4-5.2c-.8-1-2.5-1.6-5.3-1.6zm444 18.4c-3.2 0-6.4.4-9.6 1.2a29.7 29.7 0 0 0-16.3 10.2 24 24 0 0 0-5 9 15.9 15.9 0 0 0-1.5 7.5c0 2 .6 4 1.4 5.5.8 1.5 2 3 3.3 4l4.4 3 4.7 2.5a12 12 0 0 1 6.1 5.5c.5 1 .4 2.5-.2 4-.5 1.5-1.2 2.7-2 4-1 1-2 2-3.3 2.7a17.5 17.5 0 0 1-9 2.4 20.6 20.6 0 0 1-11.2-3c-1.2-.7-2-1.4-2.8-2-.7-.6-1.3-1-1.8-1-.4 0-.7.2-1 .4-.4.2-.8.5-1 1s-.8 1-1 2L463 239c-.6 1.8-1 3-1 4-.2.8 0 1.5.2 2 .3.4 1 1 1.7 1.5 1 .6 2 1.2 3.5 1.8s3 1 5 1.4a42.4 42.4 0 0 0 17.3-.8 39 39 0 0 0 18-11.3 30 30 0 0 0 5.6-9.7 20 20 0 0 0 1.4-7.4c0-2-.6-4-1.4-5.4-1-1.5-2-3-3.4-4l-4.6-3c-1.6-1-3-1.7-4.6-2.5s-2.8-1.6-4-2.5c-1-1-2-2-2.3-3-.4-1-.4-2.5.2-4 .4-1 1-2 1.7-3s1.6-1.8 2.6-2.5 2.2-1.2 3.5-1.6 2.7-.5 4.3-.5c2 0 3.7.2 5.2.7 1.5.5 2.8 1 3.8 1.6 1 .6 2 1 2.6 1.7.7.5 1.2.8 1.6.8.4 0 .8 0 1-.3l1-1 1-1.8 1-2.7.8-2.4.4-1.5v-1c0-.3-.2-.6-.4-1s-.8-.7-1.7-1.3c-.8-.5-2-1-3.2-1.5-1.3-.4-2.7-.8-4.3-1l-5-.3zm226 0a53 53 0 0 0-30.3 10c-4.3 3.2-8.2 7-11.6 11.7-3.4 4.7-6.2 10-8.3 15.6-2 5.6-3 10.6-3 15s1 8.2 3 11.2 5 5.4 8.8 7a37 37 0 0 0 14.2 2.4c2 0 4 0 5.8-.3l6-1 6-1.2 4.8-1.5c1.4-.5 2.4-1 3-2 .8-.7 1.3-1.7 1.7-2.8l10.2-28a5 5 0 0 0 .4-2c0-.5-.2-1-.4-1.3-.2-.4-.5-.7-1-1l-1.3-.2h-23.8c-.3 0-.7 0-1 .3-.3.2-.7.5-1 1l-1 1.6c-.3.6-.7 1.4-1 2.4-.8 2-1 3.4-1 4.2 0 .8.3 1.2 1 1.2h13.3l-6 16.3a21.2 21.2 0 0 1-9.8 2.2c-3.2 0-6-.5-8.3-1.6-2.3-1-4-2.6-5.2-4.7a15.8 15.8 0 0 1-1.7-7.8c0-3 .8-6.6 2.3-10.6 1.4-3.7 3.2-7 5.3-10 2-3 4.6-5.6 7.3-7.8a31.8 31.8 0 0 1 18.8-6.8c3.2 0 6 .3 8 1 2.3.7 4 1.4 5.6 2l3.4 2.2c.8.7 1.5 1 2 1 .2 0 .5 0 .8-.3l1-1 1-2c.4-.7.7-1.6 1-2.6.8-1.8 1.2-3.2 1.3-4 0-1 0-1.7-.3-2.2-.3-.5-1-1-2-1.8-1-.7-2.2-1.3-4-2a41.9 41.9 0 0 0-13.8-2zm-445 1h-4.3c-1 0-1.8.3-2.4.7-.6.5-1 1-1.2 1.8l-.6 3-6.4 61.5v2c0 .6.5 1 1 1.3.7.3 1.6.5 3 .5 1 .2 2.8.2 5 .2h4.8c1.2-.2 2.3-.4 3-.7 1-.3 1.6-.7 2-1.2.6-.5 1-1.2 1.6-2l27-44.5-5 44.6v2c.2.6.6 1 1.2 1.3.6.3 1.5.5 2.8.5h9.5a11 11 0 0 0 3-.5 5 5 0 0 0 2.2-1.2c.6-.5 1-1.2 1.7-2l38.5-61.4c.8-1.2 1.4-2.3 1.7-3 .3-1 .4-1.5 0-2-.2-.3-.7-.5-1.6-.6H370c-1 0-1.7.3-2.3.5-.6 0-1 .5-1.4 1-.3.3-.7.8-1 1.4l-32 53.8 6.2-53.6V180c0-.5-.4-1-1-1a4 4 0 0 0-2-.6h-8.2c-1 0-1.8.3-2.5.5-.7 0-1.2.5-1.6 1-.4.3-.8 1-1.2 1.6l-32.3 53.6 7.2-54v-1.5c0-.4-.3-.7-.7-1l-2-.3h-3.8zm170 0H458l-2.5.5c-.6 0-1 .3-1.5.6-.3.3-.6.6-.7 1L429 247v1c.2.4.5.6 1 .8l2 .4 3.5.2c1.4 0 2.6 0 3.5-.2 1 0 1.7-.3 2.3-.4l1.4-.7c.3-.2.6-.5.7-1l24.2-66.4v-1c0-.3-.4-.5-1-.7-.4-.3-1-.4-2-.5-.7-.2-1.8-.2-3.2-.2zm-435.4 0h-3.5l-2.4.5a2 2 0 0 0-1.3.6c-.3.3-.6.6-.7 1L2.4 223.4A36.3 36.3 0 0 0 0 235.2c0 3.4 1 6.2 2.5 8.4 1.6 2.3 4 4 7 5a45.4 45.4 0 0 0 24.4-.1c4.2-1.2 8-3 11.2-5.4a41.1 41.1 0 0 0 14.8-20.2l15.5-42.2v-1c0-.3-.4-.5-1-.7-.4-.3-1-.4-2-.5l-3.2-.2c-1.4 0-2.5 0-3.5.2-1 0-1.7.3-2.4.4-.6 0-1 .3-1.4.6l-.7 1L46 223a27.9 27.9 0 0 1-8.1 11.6 31 31 0 0 1-5.7 3c-2 .6-4.2 1-6.4 1-2.3 0-4.2-.4-5.8-1a9.5 9.5 0 0 1-3.5-3c-.8-1.4-1.2-3-1-5.2 0-2 .5-4.5 1.5-7.3l15-41.5c.2-.4.2-.7 0-1 0-.3-.3-.5-.8-.7l-2-.4H26zm528 0h-3.5l-2.4.5a2 2 0 0 0-1.3.6l-.7 1-15.6 42.8a35.8 35.8 0 0 0-2.4 11.8c0 3.4 1 6.2 2.5 8.4 1.6 2.3 4 4 7 5a45.4 45.4 0 0 0 24.4-.1c4.2-1.2 8-3 11.2-5.4 3.3-2.3 6.2-5 8.8-8.6 2.5-3.4 4.5-7.3 6-11.6l15.5-42.2v-1c0-.3-.4-.5-1-.7-.4-.3-1-.4-2-.5l-3.2-.2-3.5.2c-1 0-1.7.3-2.4.4-.6 0-1 .3-1.4.6l-.7 1L574 223a27.9 27.9 0 0 1-8.1 11.6 31 31 0 0 1-5.7 3c-2 .6-4.2 1-6.4 1-2.3 0-4.2-.4-5.7-1a9.5 9.5 0 0 1-3.5-3c-.8-1.4-1.2-3-1-5.2 0-2 .5-4.5 1.5-7.3l15-41.5c.2-.4.2-.7 0-1 0-.3-.3-.5-.8-.7l-2-.4H554zm122.3 0H673c-1 .2-1.6.3-2.2.6-.6.2-1 .5-1.4.8-.3.3-.6.6-.7 1l-12 33c-1 2.5-1.8 5-2.8 8-1 2.7-2 5.3-2.7 7.8l-.5-4.4-.5-4.4-.6-4.5-.7-4.6-4.3-25.7c-.2-1.4-.4-2.6-.7-3.6-.3-1-.7-1.7-1.3-2.3-.6-.4-1.3-.8-2-1-1-.3-2-.4-3.5-.4h-7.7c-1.4 0-2.8.4-4 1.3-1.4.8-2.4 2-3 3.7l-23 63.3c0 .4-.2.7 0 1 0 .3.2.5.6.7.5.2 1 .4 2 .5l3 .2c1.3 0 2.4 0 3.3-.2 1 0 1.6-.3 2-.5.7-.2 1-.4 1.4-.7.3-.3.5-.6.6-1l13.4-36.8c1-2.8 2-5.4 2.8-8 1-2.6 1.7-5.2 2.5-7.8 0 2 .3 4.3.5 6.6l.8 6.3 5.5 33 .8 4.3c.3 1 .7 2 1.3 2.7.4.7 1 1 2 1.4.8.3 2 .4 3.2.4h6c.8 0 1.5 0 2.3-.2.7-.2 1.4-.5 2-1 .7-.4 1.3-1 2-1.6.4-.7.8-1.4 1-2.2l23-63.3c.2-.4.3-.7.2-1 0-.3-.3-.5-.7-.8s-1-.5-1.8-.6h-3zm-508 .2c-1.3 0-2.4.4-3.5 1-1 .8-2 2-2.5 3.6L140 244.6c-.6 1.6-.6 2.8 0 3.5.6.8 1.4 1.2 2.6 1.2H178c.3 0 .7 0 1-.3l1-1 1-1.7 1-2.6c.5-1 .8-2 1-2.6v-1.6c0-.4 0-.7-.2-1-.2-.2-.5-.3-.8-.3h-25.3l7.2-19.8H185c.3 0 .7 0 1-.3l1-1 1-1.7 1-2.6c.5-1 .7-2 1-2.6v-1.6c0-.4 0-.7-.2-1l-.8-.2h-21l6-17.2h25.2c.3 0 .7 0 1-.3.3-.2.7-.5 1-1l1-1.7 1-2.6c.5-1 .8-2 1-2.7V180c0-.4 0-.8-.2-1l-.8-.2-35-.2zm59 0a7 7 0 0 0-3.4 1 7 7 0 0 0-2.6 3.6l-23.3 64v1l1 .6 2 .4 3.4.2c1.4 0 2.6 0 3.5-.2 1 0 1.6-.3 2.2-.4l1.4-.7c.3-.2.6-.5.7-1l9.8-26.7h4.6c1.5 0 2.8.2 3.8.7 1 .5 1.8 1.2 2.3 2s1 2.2 1.2 3.6c0 1.4.3 3 .4 4.7l.6 15.7v1c.2.4.5.7 1 1l2 .3h7.8c1 0 2-.2 2.5-.4l1.3-.8.6-1 .3-1.5v-3l-1-14c0-1.6 0-3-.4-4.4a8 8 0 0 0-1-3.5c-.3-1-1-2-1.6-2.6-.7-.7-1.4-1.3-2.3-1.8a39 39 0 0 0 7-2.7c2-1 4-2.4 5.6-4 1.7-1.5 3.2-3.2 4.5-5.2 1.4-2 2.5-4 3.3-6.4 1-2.7 1.5-5.2 1.5-7.3 0-2.2-.6-4-1.6-5.6-1-1.5-2.5-2.8-4.4-3.7-2-1-4.2-1.7-7-2l-3-.4c-1.3-.2-2.8-.2-4.6-.2l-18-.2zm172 0c-1.3 0-2.4.4-3.5 1-1 .8-2 2-2.5 3.6L371 244.6c-.6 1.6-.6 2.8 0 3.5.6.8 1.4 1.2 2.6 1.2H409c.3 0 .7 0 1-.3l1-1c.4-.4.7-1 1-1.7l1-2.6c.5-1 .8-2 1-2.6v-1.6c0-.4 0-.7-.2-1-.2-.2-.5-.3-.8-.3h-25.4l7.2-19.8H416c.4 0 .8 0 1-.3.4-.3.8-.6 1-1l1-1.7 1.2-2.6.8-2.6c.2-.6.2-1.2.2-1.6 0-.4 0-.7-.3-1l-1-.2H399l6-17.4h25.2c.3 0 .7 0 1-.3.3-.2.7-.5 1-1l1-1.7c.4-.7.7-1.6 1-2.6.5-1 .8-2 1-2.7V180c0-.4 0-.8-.2-1l-.8-.2-35-.2zm-298.6 0a7 7 0 0 0-3.4 1c-1 .8-2 2-2.5 3.6l-22.3 61.4c-.6 1.6-.6 2.7 0 3.5s1.4 1.2 2.6 1.2H94c2.8 0 5.5-.2 8-.5 2.3-.3 4.7-1 7-1.6a31.6 31.6 0 0 0 17.2-12.1 28.6 28.6 0 0 0 4.8-13.4c0-2-.4-3.6-1-5a12 12 0 0 0-3.2-3.5 17 17 0 0 0-4.8-1.8 22.7 22.7 0 0 0 9.3-5.7 19.3 19.3 0 0 0 5.9-9c1-3 1.4-5.6 1.2-7.8-.3-2.3-1.2-4-2.7-5.6a13.4 13.4 0 0 0-6.4-3.3c-2.6-.8-6-1.2-10.5-1.2 0-.2-17.8-.2-17.8-.2zm6 10.7h7c2.3 0 4 .2 5.2.6 1 .3 2 1 2.6 1.6.6.7 1 1.7 1 2.8 0 1-.3 2.4-.8 3.8-.5 1.3-1 2.5-2 3.6-.7 1-1.7 2-2.8 3-1 1-2.4 1.5-3.8 2s-3 .7-5.2.7h-8l6.6-18.2zm126.7.3h6.4c1.6 0 3 0 3.8.2 1 0 1.7.3 2.3.4 2 .7 3.4 1.8 3.8 3.4.5 1.6.3 3.6-.6 6a16 16 0 0 1-5.8 7.2c-1.3 1-3 1.6-4.6 2-1.8.6-3.7.8-5.7.8h-7l7.4-20zM96 218h8.6c2.6 0 4.6.3 6 .8 1.6.5 2.7 1 3.4 2 .7 1 1 2 1.2 3.2a14.4 14.4 0 0 1-6.7 11.6c-1.3.8-2.7 1.4-4.2 2a27 27 0 0 1-5.2.5H89l7-20z"/>
</svg>
