<svg id="Layer_1" xmlns="http://www.w3.org/2000/svg" viewBox="0 0 184 95.6"><style>.st0{fill:url(#Shape_3_);} .st1{fill:url(#SVGID_1_);}</style><title>twint-logo</title><path id="Shape" d="M184 38.7h-15.1v3.6h5.4v15.4h4.3V42.3h5.4v-3.6zm-68.5 0v3.6h-5.4v15.4h-4.3V42.3h-5.4v-3.6h15.1zm43.7-.6c4.7 0 7.5 3 7.5 7.4v12.2h-4.2V45.5c0-1.7-1.1-3.4-3.2-3.4s-3.2 1.5-3.2 3.4v12.3h-4.2V45.6c-.1-4.5 2.5-7.5 7.3-7.5zm-16 .6h4.2v19h-4.2v-19zm-14.3 7.6l-.1.8-3.9 10.6h-1.7l-5.4-19h4.2l2.5 10 .1 1.1.2-1.1 3.4-10h1.4l3.4 10 .2 1.1.1-1.1 2.6-10h4.2l-5.4 19H133l-4-10.6-.1-.8"/><path id="Shape_1_" d="M83.7 69.9c0 1.3-.9 2.8-1.9 3.4l-38 21.9c-1.1.6-2.8.6-3.9 0L2 73.2C.9 72.6.1 71 .1 69.8V26c0-1.2.9-2.8 1.9-3.4L39.9.7c1.1-.6 2.8-.6 3.9 0l37.9 21.9c1.1.6 1.9 2.2 1.9 3.4l.1 43.9z"/><radialGradient id="Shape_3_" cx="-2633.055" cy="40.758" r="1.131" gradientTransform="matrix(40.4665 0 0 45.568 106589.625 -1825.99)" gradientUnits="userSpaceOnUse"><stop offset="0" stop-color="#FC0"/><stop offset=".092" stop-color="#FFC800"/><stop offset=".174" stop-color="#FFBD00"/><stop offset=".253" stop-color="#FFAB00"/><stop offset=".33" stop-color="#FF9100"/><stop offset=".405" stop-color="#FF7000"/><stop offset=".479" stop-color="#FF4700"/><stop offset=".55" stop-color="#FF1800"/><stop offset=".582" stop-color="#F00"/><stop offset="1" stop-color="#F00"/></radialGradient><path id="Shape_2_" class="st0" d="M61.9 48L52 62.5l-5.1-7.8 5.9-8.8c1.1-1.6 3.4-5.8.7-11.7-2.2-4.7-6.9-7-11-7s-8.7 2.1-11.1 7c-2.7 5.6-.4 10.1.7 11.5 0 0 3.2 4.8 6 8.8l4.4 6.4L49.1 71c0 .1 1.1 1.7 3 1.7 1.8 0 2.9-1.6 3-1.8l15.5-23-8.7.1zm-19.5.4s-2.6-3.9-4.3-6.7c-1.8-2.9.2-7.4 4.3-7.4s6.1 4.4 4.3 7.4c-1.6 2.8-4.3 6.7-4.3 6.7z"/><radialGradient id="SVGID_1_" cx="-2610.25" cy="40.769" r="1.394" gradientTransform="matrix(30.0915 0 0 45.604 78557.89 -1825.323)" gradientUnits="userSpaceOnUse"><stop offset="0" stop-color="#00B4E6"/><stop offset=".201" stop-color="#00B0E3"/><stop offset=".39" stop-color="#01A5DB"/><stop offset=".574" stop-color="#0292CD"/><stop offset=".755" stop-color="#0377BA"/><stop offset=".932" stop-color="#0455A1"/><stop offset="1" stop-color="#054696"/></radialGradient><path class="st1" d="M32.9 62.1l-9.7-13.7s-2.6-4-4.3-6.7c-1.8-2.9.2-7.4 4.3-7.4.5 0 1 .1 1.4.2l3.4-6.3c-1.6-.7-3.2-1-4.8-1-4.1 0-8.7 2.1-11.1 7-2.7 5.6-.4 10.1.7 11.5l17 25.2c.1.2 1.2 1.8 3 1.8s2.9-1.5 3-1.8l5.1-7.8-4.4-6.5-3.6 5.5z"/></svg>