<svg xmlns="http://www.w3.org/2000/svg" viewBox="0 0 52.02 61.46"><defs><style>.cls-1{fill:#324dcf;}</style></defs><title>service</title><path class="cls-1" d="M27.34,21a1.18,1.18,0,0,0,0,1.67,1.17,1.17,0,0,0,1.66,0l1-1a1.17,1.17,0,0,0,.23-1.33,10.13,10.13,0,0,1-1-4.29,10.24,10.24,0,0,1,3.46-7.66v7.71a1.17,1.17,0,0,0,.51,1L38.78,21a1.17,1.17,0,0,0,1.34,0l5.59-3.87a1.19,1.19,0,0,0,.5-1V8.44a10.22,10.22,0,0,1-6.75,17.88h0A17.91,17.91,0,0,1,36,25.69a1.17,1.17,0,0,0-1.15.3l-3.58,3.58A1.18,1.18,0,1,0,33,31.23l3.1-3.1a16.72,16.72,0,0,0,3.37.54h0A12.57,12.57,0,0,0,45.61,5.14a1.17,1.17,0,0,0-1.75,1v9.37l-4.41,3.06L35,15.53V6.16a1.18,1.18,0,0,0-1.76-1,12.6,12.6,0,0,0-6.4,11,12.21,12.21,0,0,0,.87,4.51ZM24.22,36.66,7.9,53a3.21,3.21,0,0,1-2.3,1h0a3.24,3.24,0,0,1-2.29-5.54l14-14.06a1.17,1.17,0,0,0,0-1.66,1.18,1.18,0,0,0-1.67,0l-14,14.05a5.61,5.61,0,0,0,4,9.57h0a5.55,5.55,0,0,0,4-1.64L25.89,38.33a1.18,1.18,0,0,0-1.67-1.67ZM5.58,49.27a1.45,1.45,0,0,0-1,2.47h0a1.45,1.45,0,0,0,2.05-2,1.42,1.42,0,0,0-1-.43Zm38.48-6a1.21,1.21,0,0,0-.43-.27L40.25,41.8,28.06,29.6l2-2a1.18,1.18,0,0,0-1.29-1.92L10.3,7.26A5.85,5.85,0,0,0,6.12,5.52h0A5.93,5.93,0,0,0,1.93,15.64L20.37,34.09a1.18,1.18,0,0,0,1.92,1.29l2-2,12.19,12.2L37.67,49a1.11,1.11,0,0,0,.28.43l6.84,6.85a1.18,1.18,0,0,0,1.66,0l4.45-4.46a1.16,1.16,0,0,0,0-1.66ZM25.57,28.77h0L22,32.37,3.59,14A3.57,3.57,0,0,1,6.11,7.88h0a3.55,3.55,0,0,1,2.52,1L27,27.32l-1.45,1.44Zm20,25-5.83-5.83-1.22-3.38a1.21,1.21,0,0,0-.27-.43L25.92,31.75l.48-.48L38.78,43.65a1.15,1.15,0,0,0,.43.28l3.37,1.22L48.4,51ZM6.94,10.61a1.17,1.17,0,0,0-1.66,1.66L21.51,28.52a1.18,1.18,0,0,0,1.67-1.66Z"/></svg>
