<svg xmlns="http://www.w3.org/2000/svg" viewBox="0 0 55.2 61.63"><defs><style>.cls-1{fill:#324dcf;}</style></defs><title>support</title><path class="cls-1" d="M39.28,21.88H16a1.32,1.32,0,1,0,0,2.64H39.28a1.32,1.32,0,1,0,0-2.64Z"/><path class="cls-1" d="M16,39.75H39.28a1.33,1.33,0,1,0,0-2.65H16a1.33,1.33,0,1,0,0,2.65Z"/><path class="cls-1" d="M39.28,29.49H16a1.33,1.33,0,1,0,0,2.65H39.28a1.33,1.33,0,1,0,0-2.65Z"/><path class="cls-1" d="M27.63,58.4a27.59,27.59,0,0,0,19.5-47.09A27.58,27.58,0,0,0,6.3,48.3l.1.12-.07.15c-1.27,2.6-2.79,4.35-4.5,5.18a2.35,2.35,0,0,0,.68,4.43,12.74,12.74,0,0,0,1.93.15,17.68,17.68,0,0,0,9.86-3.2l.12-.09.14.08A27.75,27.75,0,0,0,27.63,58.4Zm-14.11-6a15.17,15.17,0,0,1-8.88,3.26H3.86l.63-.46a15.74,15.74,0,0,0,4.69-6.49A1.35,1.35,0,0,0,9,47.31a24.83,24.83,0,1,1,6.05,5A1.35,1.35,0,0,0,13.52,52.4Z"/></svg>
