<svg xmlns="http://www.w3.org/2000/svg" viewBox="0 0 54.29 61.42"><defs><style>.cls-1{fill:#324dcf;}</style></defs><title>time</title><path class="cls-1" d="M26.72,14.31a1.38,1.38,0,0,0-1.38,1.38V29.42l-.22.1a4,4,0,1,0,5.26,5.26l.09-.22h6.25a1.39,1.39,0,0,0,0-2.77H30.47l-.09-.22a4.06,4.06,0,0,0-2.05-2.05l-.22-.1V15.69A1.38,1.38,0,0,0,26.72,14.31Zm0,20.09A1.23,1.23,0,1,1,28,33.17,1.23,1.23,0,0,1,26.72,34.4Z"/><path class="cls-1" d="M.33,26.63A27,27,0,0,0,23,57.56a27.66,27.66,0,0,0,4.25.33,26.82,26.82,0,0,0,15.94-5.22A27.25,27.25,0,0,0,53.75,25.34a1.38,1.38,0,0,0-1.63-1.08,1.61,1.61,0,0,0-.29.09A1.39,1.39,0,0,0,51,25.89,24.34,24.34,0,0,1,23.42,54.83a24.35,24.35,0,1,1,23-38.94l.57.73-2.53-.36a1.37,1.37,0,0,0-1,.26,1.41,1.41,0,0,0-.54.91,1.37,1.37,0,0,0,.26,1,1.43,1.43,0,0,0,.91.55l5.84.83.06.38,0-.37h.11a1.4,1.4,0,0,0,1.37-1.19l.83-5.83a1.36,1.36,0,0,0-.26-1,1.37,1.37,0,0,0-.91-.54,1.39,1.39,0,0,0-1.56,1.17L49.24,15l-.54-.71A27,27,0,0,0,31.26,4,27.75,27.75,0,0,0,27,3.63a27,27,0,0,0-26.68,23Z"/></svg>
