<svg xmlns="http://www.w3.org/2000/svg" viewBox="0 0 53.27 61.58"><defs><style>.cls-1{fill:#324dcf;}</style></defs><title>measure</title><path class="cls-1" d="M26.52,21.27,10,4.79.6,14.22,17.08,30.7,0,47.78l9.44,9.44L26.52,40.14,39.26,52.88l14,3.68L48.66,43.41,36,30.7,52.5,14.15,43.07,4.72Zm5.85,9.43-5.85,5.86-1.8,1.79L9.44,53.64,3.58,47.78,9.4,42l3.36,3.37a1.27,1.27,0,0,0,1.8-1.79l-3.37-3.37,4.59-4.59L19.15,39a1.27,1.27,0,0,0,1.79-1.79L17.57,33.8l1.3-1.31,1.79-1.79,1.41-1.4,3.37,3.36a1.26,1.26,0,0,0,1.79,0,1.27,1.27,0,0,0,0-1.79L23.86,27.5l2.66-2.65,1.79-1.79.52-.52,3.37,3.37A1.27,1.27,0,0,0,34,24.11l-3.37-3.36L35,16.33l3.54,3.54a1.27,1.27,0,0,0,1.79-1.79l-3.54-3.54L43.07,8.3l5.85,5.85L34.16,28.91ZM4.19,14.22,10,8.37l5,5L9.16,19.19ZM11,21l5.85-5.85,7.93,7.93-5.86,5.85ZM49.3,52.9l-6.73-1.77,4.52-4.53Zm-3.41-8.68L40,50.08,28.31,38.35l5.85-5.86Z"/></svg>
