<svg xmlns="http://www.w3.org/2000/svg" viewBox="0 0 78.73 61.17"><defs><style>.cls-1{fill:#324dcf;}</style></defs><title>packaging</title><path class="cls-1" d="M75.7,24a10,10,0,0,0-7.48-3.13H60.4l0-4.57a.5.5,0,0,1,0-.16.13.13,0,0,1,0-.06.08.08,0,0,1,0-.05h0a.67.67,0,0,1-.06-.12L60,15.55,52.56,8a1.36,1.36,0,0,0-1-.39H31.19a1.4,1.4,0,0,0-1,.41L22.67,15.6a.26.26,0,0,1-.07.1l0,.06-.17.57a.35.35,0,0,0,0,.06V47.62A1.36,1.36,0,0,0,23.74,49h5.69l.12.47a5.52,5.52,0,0,0,10.69,0l.12-.47H62.18l.12.47a5.52,5.52,0,0,0,10.69,0l.12-.47h4.27a1.35,1.35,0,0,0,1.35-1.35V32.93A12.72,12.72,0,0,0,75.7,24ZM42.51,10.36H51l0,0,4.73,4.7H42.51Zm-10.76,0h8v4.74H27Zm3.16,40.6a2.82,2.82,0,1,1,2.82-2.81A2.82,2.82,0,0,1,34.91,50.94Zm22.78-4.62H40.13L40,45.94a5.52,5.52,0,0,0-10.14,0l-.19.47-.5-.1H25.09V17.8h32.6Zm10,4.62a2.82,2.82,0,1,1,2.82-2.81A2.81,2.81,0,0,1,67.66,50.94Zm8.4-4.62H72.9l-.16-.38a5.51,5.51,0,0,0-10.12,0l-.17.38h-2V23.56h7.83c4.9,0,7.82,3.53,7.82,9.44Z"/><polygon class="cls-1" points="60.47 16.09 60.47 16.09 60.47 16.09 60.47 16.09 60.47 16.09"/><path class="cls-1" d="M18.19,30.71H1.35a1.35,1.35,0,1,0,0,2.7H18.19a1.35,1.35,0,0,0,0-2.7Z"/><path class="cls-1" d="M18.19,38.4H7.37a1.35,1.35,0,1,0,0,2.7H18.19a1.35,1.35,0,0,0,0-2.7Z"/><path class="cls-1" d="M18.19,23H7.37a1.35,1.35,0,1,0,0,2.7H18.19a1.35,1.35,0,0,0,0-2.7Z"/></svg>
