<svg xmlns="http://www.w3.org/2000/svg" viewBox="0 0 53.6 61.44"><defs><style>.cls-1{fill:#324dcf;}</style></defs><title>shipping</title><path class="cls-1" d="M9.46,38.64,7.07,40a1.44,1.44,0,0,0-.52,2,1.42,1.42,0,0,0,1.25.72,1.38,1.38,0,0,0,.71-.19l2.39-1.38a1.43,1.43,0,0,0,.67-.87,1.43,1.43,0,0,0-2.11-1.62Z"/><path class="cls-1" d="M26.8,12.54a1.44,1.44,0,0,0,1.44-1.43V8.35a1.44,1.44,0,1,0-2.88,0v2.76A1.44,1.44,0,0,0,26.8,12.54Z"/><path class="cls-1" d="M26.8,19.32a1.44,1.44,0,0,0,1.44-1.43V15.13a1.44,1.44,0,1,0-2.88,0v2.76A1.44,1.44,0,0,0,26.8,19.32Z"/><path class="cls-1" d="M28.24,24.66V21.91a1.44,1.44,0,1,0-2.88,0v2.75a1.44,1.44,0,0,0,2.88,0Z"/><path class="cls-1" d="M52.88,14.83,27.52.19a1.48,1.48,0,0,0-1.44,0L.72,14.83A1.47,1.47,0,0,0,0,16.08V45.36a1.47,1.47,0,0,0,.72,1.25L26.08,61.25a1.46,1.46,0,0,0,1.44,0L52.88,46.61a1.47,1.47,0,0,0,.72-1.25V16.08A1.47,1.47,0,0,0,52.88,14.83ZM4.32,16.08l21-12.15v.4a1.44,1.44,0,1,0,2.88,0v-.4l21,12.15L28.18,28.26a1.45,1.45,0,0,0-2.76,0ZM5,44.52a1.43,1.43,0,0,0,.67-.87A1.43,1.43,0,0,0,3.59,42l-.71.41V18.57L24,30.77a1.39,1.39,0,0,0,.15,1,1.44,1.44,0,0,0,1.2.72v25L4,45.15Zm43-2a1.46,1.46,0,0,0-.14,1.1,1.4,1.4,0,0,0,.67.87l1.08.63L28.24,57.51v-25a1.43,1.43,0,0,0,1.35-1.76l21.13-12.2V42.44L50,42A1.45,1.45,0,0,0,48,42.55Z"/><path class="cls-1" d="M40.65,36.63l-2.39-1.38a1.44,1.44,0,1,0-1.43,2.49l2.38,1.38a1.41,1.41,0,0,0,.72.19,1.43,1.43,0,0,0,1.39-1.81A1.4,1.4,0,0,0,40.65,36.63Z"/><path class="cls-1" d="M46.52,40l-2.38-1.38a1.25,1.25,0,0,0-.25-.09h0a1.61,1.61,0,0,0-.49-.07h-.06a2.18,2.18,0,0,0-.25,0,1.55,1.55,0,0,0-.22.12l0,0a1.08,1.08,0,0,0-.4.3l0,0c-.05.06-.12.12-.17.19a1.44,1.44,0,0,0,.53,2l2.38,1.38a1.41,1.41,0,0,0,.72.19A1.44,1.44,0,0,0,46.52,40Z"/><path class="cls-1" d="M34.78,33.24l-2.39-1.38A1.44,1.44,0,1,0,31,34.35l2.39,1.38a1.41,1.41,0,0,0,.72.19,1.44,1.44,0,0,0,.72-2.68Z"/><path class="cls-1" d="M15.33,35.25,13,36.63a1.4,1.4,0,0,0-.67.87,1.43,1.43,0,0,0,1.39,1.81,1.41,1.41,0,0,0,.72-.19l2.38-1.38a1.4,1.4,0,0,0,.67-.87,1.43,1.43,0,0,0-2.11-1.62Z"/><path class="cls-1" d="M21.23,31.85h0l-2.39,1.38a1.4,1.4,0,0,0-.67.87,1.43,1.43,0,0,0,1.39,1.81,1.41,1.41,0,0,0,.72-.19l2.39-1.38a1.38,1.38,0,0,0,.66-.87,1.43,1.43,0,0,0-2.08-1.63Z"/></svg>
