<svg width="39" height="38" xmlns="http://www.w3.org/2000/svg" xmlns:xlink="http://www.w3.org/1999/xlink">
  <defs>
    <path d="M16.393 0A19.277 19.277 0 00.212 8.724v14.594h8.61l7.571-12.954h17.138C30.347 4.212 23.868 0 16.393 0z" id="a"/>
    <path d="M1.093 0l7.574 12.955L.18 27.615c.302.014.606.021.912.021 10.623 0 19.235-8.506 19.235-19 0-3.11-.757-6.045-2.098-8.636H1.093z" id="c"/>
    <path d="M19.235 0C8.612 0 0 8.507 0 19s8.612 19 19.235 19S38.47 29.493 38.47 19" id="e"/>
    <path d="M19.235 0C8.612 0 0 8.507 0 19s8.612 19 19.235 19S38.47 29.493 38.47 19" id="g"/>
  </defs>
  <g fill="none" fill-rule="evenodd">
    <path d="M3.51 8.724v14.594h8.61l7.571-12.954H36.83C33.645 4.212 27.166 0 19.691 0a19.277 19.277 0 00-16.18 8.724" fill="#DB4437"/>
    <g transform="translate(3.298)">
      <mask id="b" fill="#fff">
        <use xlink:href="#a"/>
      </mask>
      <path d="M16.393 0A19.277 19.277 0 00.212 8.724v14.594h8.61l7.571-12.954h17.138C30.347 4.212 23.868 0 16.393 0z" mask="url(#b)"/>
    </g>
    <path d="M18.788 37.978l8.477-8.372v-6.288H12.12L3.508 8.728A18.743 18.743 0 00.456 19c0 10.194 8.129 18.513 18.332 18.978" fill="#0F9D58"/>
    <path d="M18.788 37.978l8.477-8.372v-6.288H12.12L3.508 8.728A18.743 18.743 0 00.456 19c0 10.194 8.129 18.513 18.332 18.978" fill="#0F9D58"/>
    <path d="M19.691 10.364l7.574 12.954-8.485 14.66c.302.014.606.022.911.022 10.624 0 19.235-8.506 19.235-19 0-3.11-.756-6.045-2.097-8.636H19.69z" fill="#FFCD40"/>
    <g transform="translate(18.599 10.364)">
      <mask id="d" fill="#fff">
        <use xlink:href="#c"/>
      </mask>
      <path d="M1.093 0l7.574 12.955L.18 27.615c.302.014.606.021.912.021 10.623 0 19.235-8.506 19.235-19 0-3.11-.757-6.045-2.098-8.636H1.093z" mask="url(#d)"/>
    </g>
    <g>
      <g transform="translate(.456)">
        <mask id="f" fill="#fff">
          <use xlink:href="#e"/>
        </mask>
        <path d="M19.235 10.364c4.829 0 8.743 3.866 8.743 8.636s-3.914 8.636-8.743 8.636c-4.829 0-8.743-3.866-8.743-8.636s3.914-8.636 8.743-8.636" fill="#F1F1F1" mask="url(#f)"/>
      </g>
      <g transform="translate(.456)">
        <mask id="h" fill="#fff">
          <use xlink:href="#g"/>
        </mask>
        <path d="M19.235 12.09c3.863 0 6.995 3.094 6.995 6.91 0 3.816-3.132 6.91-6.995 6.91S12.24 22.815 12.24 19c0-3.816 3.132-6.91 6.995-6.91" fill="#4285F4" mask="url(#h)"/>
      </g>
    </g>
  </g>
</svg>
