<svg width="37" height="39" xmlns="http://www.w3.org/2000/svg">
  <path d="M11.467 23.156c0 .939.139 1.792.423 2.56a7.257 7.257 0 001.197 2.023 7.444 7.444 0 001.777 1.523c.665.427 1.39.78 2.164 1.054.768.28 1.572.488 2.387.622.829.134 1.633.201 2.45.201 1.026 0 1.982-.08 2.889-.244.906-.17 1.788-.396 2.66-.682.87-.287 1.71-.628 2.55-1.018.847-.39 1.705-.816 2.588-1.292v8.263c-.986.488-1.953.896-2.92 1.25-.967.34-1.934.64-2.92.877-.985.244-1.983.427-3.004.536-1.022.11-2.068.171-3.156.171-1.45 0-2.853-.17-4.201-.506a16.389 16.389 0 01-3.796-1.45 15.909 15.909 0 01-3.253-2.304 14.528 14.528 0 01-2.539-3.046A14.83 14.83 0 015.12 28a15.323 15.323 0 01-.574-4.241 15.9 15.9 0 01.653-4.583 14.68 14.68 0 011.886-4.01 14.45 14.45 0 012.992-3.248 15.801 15.801 0 013.978-2.315 8.467 8.467 0 00-1.874 2.882 12.546 12.546 0 00-.865 3.34h13.771c0-1.402-.139-2.62-.423-3.669-.284-1.048-.738-1.92-1.372-2.608-.629-.695-1.439-1.219-2.436-1.56-.998-.347-2.2-.524-3.61-.524-1.662 0-3.324.244-4.987.75a20.902 20.902 0 00-4.739 2.071c-1.5.896-2.877 1.95-4.135 3.157a19.657 19.657 0 00-3.173 3.949c.181-1.646.544-3.23 1.045-4.735a20.229 20.229 0 011.965-4.205 18.832 18.832 0 012.805-3.498 16.725 16.725 0 013.567-2.681A17.967 17.967 0 0113.806.555 21.437 21.437 0 0118.618 0c.991 0 1.977.091 2.962.268.985.183 1.946.427 2.883.744a17.133 17.133 0 014.988 2.693 17.095 17.095 0 013.687 3.98 17.901 17.901 0 012.273 4.978c.52 1.81.786 3.693.786 5.649v4.844h-24.73z" fill="#0078D7" fill-rule="evenodd"/>
</svg>
