<svg xmlns="http://www.w3.org/2000/svg" viewBox="0 0 256 256">
    <linearGradient id="a" x1="58.7" x2="237.04" y1="177.05" y2="177.05" gradientUnits="userSpaceOnUse">
        <stop offset="0" stop-color="#0c59a4"/>
        <stop offset="1" stop-color="#114a8b"/>
    </linearGradient>
    <path fill="url(#a)" d="M231.05 190.53a93.45 93.45 0 01-10.53 4.72 102.02 102.02 0 01-35.9 6.46c-47.32 0-88.55-32.55-88.55-74.32 0-11.75 6.8-21.93 16.43-27.29-42.8 1.8-53.8 46.4-53.8 72.53 0 73.87 68.1 81.37 82.76 81.37 7.91 0 19.84-2.3 27.03-4.56l1.32-.44a128.34 128.34 0 0066.58-52.82c2.21-3.5-1.67-7.57-5.34-5.65z"/>
    <radialGradient id="b" cx="157.2" cy="178.38" r="95.38" gradientTransform="matrix(1 0 0 .95107 0 8.73)" gradientUnits="userSpaceOnUse">
        <stop offset=".72" stop-opacity="0"/>
        <stop offset=".95" stop-opacity=".53"/>
        <stop offset="1"/>
    </radialGradient>
    <path fill="url(#b)" d="M231.05 190.53a93.45 93.45 0 01-10.53 4.72 102.02 102.02 0 01-35.9 6.46c-47.32 0-88.55-32.55-88.55-74.32 0-11.75 6.8-21.93 16.43-27.29-42.8 1.8-53.8 46.4-53.8 72.53 0 73.87 68.1 81.37 82.76 81.37 7.91 0 19.84-2.3 27.03-4.56l1.32-.44a128.34 128.34 0 0066.58-52.82c2.21-3.5-1.67-7.57-5.34-5.65z" opacity=".35"/>
    <linearGradient id="c" x1="152.72" x2="41.33" y1="99.68" y2="221.02" gradientUnits="userSpaceOnUse">
        <stop offset="0" stop-color="#1b9de2"/>
        <stop offset=".16" stop-color="#1595df"/>
        <stop offset=".67" stop-color="#0680d7"/>
        <stop offset="1" stop-color="#0078d4"/>
    </linearGradient>
    <path fill="url(#c)" d="M105.71 241.41a79.12 79.12 0 01-22.73-21.37 81.45 81.45 0 01-15.14-47.4 80.93 80.93 0 0130.93-63.95 80.82 80.82 0 0113.73-8.59c3.12-1.48 8.46-4.14 15.55-4.04a32.36 32.36 0 0125.68 12.97 31.85 31.85 0 016.36 18.66c0-.21 24.46-79.6-80.05-79.6C36.14 48.08 0 89.74 0 126.28c0 23.19 5.38 41.7 12.11 56.04a128.33 128.33 0 0076.85 67.57 127.95 127.95 0 0079.53-.46 75.75 75.75 0 01-22.72 3.5 75.74 75.74 0 01-40.06-11.53z"/>
    <radialGradient id="d" cx="71.3" cy="198.66" r="143.24" gradientTransform="matrix(.14843 -.98892 .79688 .1196 -97.59 245.42)" gradientUnits="userSpaceOnUse">
        <stop offset=".76" stop-opacity="0"/>
        <stop offset=".95" stop-opacity=".5"/>
        <stop offset="1"/>
    </radialGradient>
    <path fill="url(#d)" d="M105.71 241.41a79.12 79.12 0 01-22.73-21.37 81.45 81.45 0 01-15.14-47.4 80.93 80.93 0 0130.93-63.95 80.82 80.82 0 0113.73-8.59c3.12-1.48 8.46-4.14 15.55-4.04a32.36 32.36 0 0125.68 12.97 31.85 31.85 0 016.36 18.66c0-.21 24.46-79.6-80.05-79.6C36.14 48.08 0 89.74 0 126.28c0 23.19 5.38 41.7 12.11 56.04a128.33 128.33 0 0076.85 67.57 127.95 127.95 0 0079.53-.46 75.75 75.75 0 01-22.72 3.5 75.74 75.74 0 01-40.06-11.53z" opacity=".41"/>
    <radialGradient id="e" cx="25.23" cy="46.81" r="202.43" gradientTransform="matrix(-.03715 .99931 -2.12836 -.07913 125.79 25.3)" gradientUnits="userSpaceOnUse">
        <stop offset="0" stop-color="#35c1f1"/>
        <stop offset=".11" stop-color="#34c1ed"/>
        <stop offset=".23" stop-color="#2fc2df"/>
        <stop offset=".31" stop-color="#2bc3d2"/>
        <stop offset=".67" stop-color="#36c752"/>
    </radialGradient>
    <path fill="url(#e)" d="M152.31 148.86c-.8 1.05-3.3 2.5-3.3 5.66 0 2.6 1.7 5.12 4.72 7.23 14.38 10.03 41.49 8.68 41.56 8.68a59.54 59.54 0 0030.27-8.39c4.1-2.4 7.9-5.24 11.33-8.5a61.8 61.8 0 0019.1-44.37c.26-22.42-7.96-37.32-11.33-43.92C223.46 23.84 177.72 0 127.98 0 57.86 0 .95 56.35 0 126.2.48 89.66 36.8 60.15 79.97 60.15c3.5 0 23.46.34 42 10.07 16.34 8.57 24.9 18.93 30.86 29.21 6.18 10.67 7.28 24.15 7.28 29.52s-2.71 13.33-7.8 19.9z"/>
    <radialGradient id="f" cx="242.47" cy="77.58" r="97.34" gradientTransform="matrix(.28109 .95968 -.78353 .22949 235.1 -172.92)" gradientUnits="userSpaceOnUse">
        <stop offset="0" stop-color="#66eb6e"/>
        <stop offset="1" stop-color="#66eb6e" stop-opacity="0"/>
    </radialGradient>
    <path fill="url(#f)" d="M152.31 148.86c-.8 1.05-3.3 2.5-3.3 5.66 0 2.6 1.7 5.12 4.72 7.23 14.38 10.03 41.49 8.68 41.56 8.68a59.54 59.54 0 0030.27-8.39c4.1-2.4 7.9-5.24 11.33-8.5a61.8 61.8 0 0019.1-44.37c.26-22.42-7.96-37.32-11.33-43.92C223.46 23.84 177.72 0 127.98 0 57.86 0 .95 56.35 0 126.2.48 89.66 36.8 60.15 79.97 60.15c3.5 0 23.46.34 42 10.07 16.34 8.57 24.9 18.93 30.86 29.21 6.18 10.67 7.28 24.15 7.28 29.52s-2.71 13.33-7.8 19.9z"/>
</svg>
