<svg width="39" height="40" xmlns="http://www.w3.org/2000/svg" xmlns:xlink="http://www.w3.org/1999/xlink">
  <defs>
    <path d="M25.075.016L25.06.02l-.009.005-.014.008.008-.013c-4.802 2.815-6.43 8.025-6.58 10.632a9.553 9.553 0 00-5.26 2.03 5.782 5.782 0 00-.494-.374 8.883 8.883 0 01-.054-4.678 14.159 14.159 0 00-4.601 3.56h-.009c-.757-.961-.704-4.132-.66-4.794-.225.09-.439.204-.639.34A13.931 13.931 0 004.88 8.336a16.706 16.706 0 00-1.787 2.146 16.172 16.172 0 00-2.565 5.799l-.025.126a30.452 30.452 0 00-.188 1.195c0 .015-.003.028-.005.042A18.25 18.25 0 000 20.284v.099c.01 10.563 8.565 19.12 19.113 19.123h.02c9.297-.008 17.24-6.713 18.821-15.887.032-.247.058-.491.087-.74a19.707 19.707 0 00-1.24-9.615c-.83-2-2.515-4.161-3.835-4.844a19.89 19.89 0 011.936 5.809l.004.032c-2.162-5.395-5.827-7.57-8.82-12.307-.151-.24-.303-.48-.45-.733a6.047 6.047 0 01-.21-.395 3.532 3.532 0 01-.286-.758.048.048 0 00-.043-.05l-.015-.002h-.007zm-10.306 28.23c.09.043.174.089.265.13l.014.009c-.093-.045-.186-.09-.279-.14z" id="a"/>
    <path d="M34.902 5.834v.018l.004.02a17.353 17.353 0 01-.595 12.918c-2.191 4.707-7.494 9.531-15.795 9.296C9.547 27.832 1.65 21.168.172 12.44c-.269-1.375 0-2.074.135-3.192A14.239 14.239 0 000 11.888v.1C.01 22.55 8.565 31.108 19.113 31.11h.02c9.297-.008 17.24-6.713 18.821-15.887.032-.247.058-.491.087-.74a19.707 19.707 0 00-1.24-9.615c-.83-2-2.515-4.161-3.835-4.844a19.89 19.89 0 011.936 5.809" id="c"/>
    <path id="e" d="M0 .025h38.183V31.11H0z"/>
    <path d="M8.107.28a9.553 9.553 0 00-5.26 2.03c.291.248.62.577 1.313 1.261 1.297 1.28 4.624 2.605 4.631 2.76C8.76 6.809 7.08 8.45 6.493 8.45c-5.436 0-6.318 3.293-6.318 3.293.24 2.772 2.17 5.055 4.502 6.262.107.056.215.106.323.155.187.083.373.16.56.23.801.284 1.64.446 2.488.48 9.527.448 11.373-11.407 4.497-14.847a6.596 6.596 0 014.61 1.12A9.645 9.645 0 008.779.247c-.227 0-.449.02-.672.034" id="g"/>
  </defs>
  <g fill="none" fill-rule="evenodd">
    <g transform="translate(.74 .478)">
      <mask id="b" fill="#fff">
        <use xlink:href="#a"/>
      </mask>
      <path d="M25.075.016L25.06.02l-.009.005-.014.008.008-.013c-4.802 2.815-6.43 8.025-6.58 10.632a9.553 9.553 0 00-5.26 2.03 5.782 5.782 0 00-.494-.374 8.883 8.883 0 01-.054-4.678 14.159 14.159 0 00-4.601 3.56h-.009c-.757-.961-.704-4.132-.66-4.794-.225.09-.439.204-.639.34A13.931 13.931 0 004.88 8.336a16.706 16.706 0 00-1.787 2.146 16.172 16.172 0 00-2.565 5.799l-.025.126a30.452 30.452 0 00-.188 1.195c0 .015-.003.028-.005.042A18.25 18.25 0 000 20.284v.099c.01 10.563 8.565 19.12 19.113 19.123h.02c9.297-.008 17.24-6.713 18.821-15.887.032-.247.058-.491.087-.74a19.707 19.707 0 00-1.24-9.615c-.83-2-2.515-4.161-3.835-4.844a19.89 19.89 0 011.936 5.809l.004.032c-2.162-5.395-5.827-7.57-8.82-12.307-.151-.24-.303-.48-.45-.733a6.047 6.047 0 01-.21-.395 3.532 3.532 0 01-.286-.758.048.048 0 00-.043-.05l-.015-.002h-.007zm-10.306 28.23c.09.043.174.089.265.13l.014.009c-.093-.045-.186-.09-.279-.14z" mask="url(#b)"/>
    </g>
    <g transform="translate(.74 8.873)">
      <mask id="d" fill="#fff">
        <use xlink:href="#c"/>
      </mask>
      <path d="M34.902 5.834v.018l.004.02a17.353 17.353 0 01-.595 12.918c-2.191 4.707-7.494 9.531-15.795 9.296C9.547 27.832 1.65 21.168.172 12.44c-.269-1.375 0-2.074.135-3.192A14.239 14.239 0 000 11.888v.1C.01 22.55 8.565 31.108 19.113 31.11h.02c9.297-.008 17.24-6.713 18.821-15.887.032-.247.058-.491.087-.74a19.707 19.707 0 00-1.24-9.615c-.83-2-2.515-4.161-3.835-4.844a19.89 19.89 0 011.936 5.809" mask="url(#d)"/>
    </g>
    <g transform="translate(.74 8.873)">
      <mask id="f" fill="#fff">
        <use xlink:href="#e"/>
      </mask>
      <path d="M36.801 4.87C35.97 2.867 34.285.707 32.966.024a19.888 19.888 0 011.936 5.81v.017l.004.02a17.35 17.35 0 01-.595 12.918c-2.191 4.707-7.494 9.531-15.795 9.296C9.548 27.832 1.65 21.168.172 12.441c-.269-1.377 0-2.075.135-3.193A14.239 14.239 0 000 11.888v.1C.01 22.558 8.575 31.12 19.133 31.11c9.297-.008 17.24-6.713 18.821-15.887.032-.247.058-.491.087-.74a19.7 19.7 0 00-1.24-9.615" fill="#F33D5E" mask="url(#f)"/>
    </g>
    <path d="M28.253 15.992l.118.087a10.405 10.405 0 00-1.775-2.319C20.655 7.81 25.038.86 25.778.507l.008-.01c-4.802 2.814-6.43 8.025-6.58 10.631.222-.015.443-.034.671-.034a9.645 9.645 0 018.376 4.898" fill="#FFCD46"/>
    <g transform="translate(11.098 10.848)">
      <mask id="h" fill="#fff">
        <use xlink:href="#g"/>
      </mask>
      <path d="M8.107.28a9.553 9.553 0 00-5.26 2.03c.291.248.62.577 1.313 1.261 1.297 1.28 4.624 2.605 4.631 2.76C8.76 6.809 7.08 8.45 6.493 8.45c-5.436 0-6.318 3.293-6.318 3.293.24 2.772 2.17 5.055 4.502 6.262.107.056.215.106.323.155.187.083.373.16.56.23.801.284 1.64.446 2.488.48 9.527.448 11.373-11.407 4.497-14.847a6.596 6.596 0 014.61 1.12A9.645 9.645 0 008.779.247c-.227 0-.449.02-.672.034" mask="url(#h)"/>
    </g>
    <g>
      <path d="M19.89 17.18c-.032.476-1.712 2.118-2.3 2.118-5.435 0-6.317 3.292-6.317 3.292.24 2.773 2.17 5.056 4.502 6.264.107.055.215.105.323.154.187.083.373.16.56.23a8.5 8.5 0 002.488.48c9.527.448 11.373-11.407 4.497-14.847a6.595 6.595 0 014.61 1.12 9.645 9.645 0 00-8.376-4.897c-.227 0-.449.02-.672.034a9.553 9.553 0 00-5.26 2.03c.291.247.62.577 1.313 1.261 1.297 1.28 4.624 2.605 4.631 2.76" fill="#9F4EF5"/>
      <path d="M13.053 12.522c.155.099.283.185.395.262a8.883 8.883 0 01-.054-4.678 14.159 14.159 0 00-4.6 3.56c.092-.002 2.865-.052 4.26.856" fill="#FF9D3B"/>
      <path d="M.915 21.313C2.39 30.041 10.291 36.705 19.26 36.96c8.301.235 13.604-4.59 15.795-9.297a17.35 17.35 0 00.595-12.917v-.018c0-.014-.003-.023 0-.018l.003.032c.678 4.433-1.574 8.727-5.094 11.632l-.011.025c-6.86 5.593-13.424 3.374-14.753 2.469-.093-.045-.185-.091-.278-.139-4-1.914-5.652-5.562-5.297-8.691a4.91 4.91 0 01-4.529-2.852 7.2 7.2 0 017.028-.283 9.512 9.512 0 007.177.283c-.007-.156-3.334-1.482-4.631-2.76-.693-.685-1.022-1.014-1.313-1.261a5.584 5.584 0 00-.494-.375 26.751 26.751 0 00-.394-.262c-1.394-.908-4.167-.858-4.259-.855h-.009c-.757-.962-.704-4.132-.66-4.794-.225.09-.439.204-.639.339a13.86 13.86 0 00-1.868 1.602 16.683 16.683 0 00-1.795 2.142v.003-.003A16.172 16.172 0 001.27 16.76c-.01.039-.689 3.011-.354 4.553" fill="#FF6933"/>
      <path d="M26.597 13.76a10.436 10.436 0 011.776 2.321c.104.08.202.159.286.235 4.334 4 2.063 9.655 1.894 10.058 3.52-2.905 5.77-7.2 5.095-11.633-2.163-5.397-5.828-7.573-8.821-12.31-.152-.239-.303-.479-.45-.732a6.047 6.047 0 01-.211-.395 3.495 3.495 0 01-.285-.758.049.049 0 00-.044-.05.074.074 0 00-.036 0c-.002 0-.006.005-.01.006l-.013.007c-.74.351-5.123 7.302.819 13.251" fill="#FFCD46"/>
      <path d="M28.656 16.314a3.882 3.882 0 00-.405-.322 6.592 6.592 0 00-4.61-1.12c6.876 3.441 5.031 15.294-4.497 14.847a8.504 8.504 0 01-2.487-.48c-.187-.072-.374-.148-.562-.231-.108-.05-.216-.099-.322-.154l.013.008c1.33.908 7.891 3.127 14.753-2.469l.011-.025c.17-.4 2.442-6.055-1.894-10.054" fill="#FFA42C"/>
      <path d="M11.272 22.59s.883-3.292 6.318-3.292c.588 0 2.27-1.642 2.3-2.118a9.507 9.507 0 01-7.178-.283 7.201 7.201 0 00-7.028.283 4.908 4.908 0 004.529 2.852c-.355 3.129 1.298 6.777 5.297 8.691.09.043.173.09.265.13-2.334-1.207-4.262-3.49-4.503-6.263" fill="#FFBB26"/>
    </g>
  </g>
</svg>
