<svg width="69" height="69" xmlns="http://www.w3.org/2000/svg">
  <path d="M49.2 6.793c2.887-1.387 6.544-2.965 9.778-2.965 4.234 0 7.314 2.926 7.314 7.24 0 2.695-1.001 6.604-1.964 9.146-3.541-5.7-8.892-10.995-15.129-13.421zM24.33 32.075c.27-7.433 6.776-12.786 14.013-12.786 7.199 0 13.744 5.353 14.013 12.786H24.33zM8.7 46.747c2.387 6.894 7.238 12.92 13.513 16.617C10.253 69.96-1.137 67.286 8.7 46.747zm56.398-25.224c1.463-3.312 2.888-8.145 2.888-11.842 0-9.8-10.733-13.257-28.257-5.199C25.224 3.514 11.264 14.41 7.776 29.61c4.158-4.698 10.549-11.09 16.439-13.633-7.315 6.509-13.551 14.75-18.286 23.338C3.133 44.425 0 52.685 0 58.859c0 13.284 12.514 11.657 24.292 5.66 4.234 2.08 8.97 2.1 13.705 2.1 13.089 0 24.83-7.318 29.219-19.68H50.93c-7.076 11.94-26.524 7.142-26.524-6.392h44.31c.863-5.874-.223-12.9-3.619-19.024z" fill="#9B9B9B" fill-rule="evenodd"/>
</svg>
