<svg width="39" height="38" xmlns="http://www.w3.org/2000/svg" xmlns:xlink="http://www.w3.org/1999/xlink">
  <defs>
    <path id="a" d="M0 0h38.47v38H0z"/>
  </defs>
  <g fill="none" fill-rule="evenodd">
    <g transform="translate(.052)">
      <mask id="b" fill="#fff">
        <use xlink:href="#a"/>
      </mask>
      <path d="M19.445 32.91c-5.593 0-10.127-6.25-10.127-13.962 0-7.71 4.534-13.962 10.127-13.962 5.593 0 10.127 6.252 10.127 13.962 0 7.712-4.534 13.963-10.127 13.963M19.235 0C8.612 0 0 8.507 0 19c0 10.494 8.612 19 19.235 19S38.47 29.494 38.47 19c0-10.493-8.612-19-19.235-19" fill="#FF2C2C" mask="url(#b)"/>
    </g>
    <path d="M31.956 4.71c-2.216-1.401-4.787-2.207-7.531-2.207-4.571 0-8.663 2.227-11.425 5.738.089-.103.18-.203.272-.301l.083-.09c.085-.09.172-.177.259-.262.036-.036.072-.073.11-.108a10.78 10.78 0 01.636-.563c.045-.037.09-.072.135-.107.086-.068.172-.134.26-.198.047-.035.095-.068.143-.102.087-.061.175-.123.264-.182l.137-.085c.185-.116.373-.226.564-.327.04-.021.08-.045.12-.065.076-.039.152-.073.228-.11.073-.033.146-.069.219-.101.073-.032.147-.06.22-.09a8.37 8.37 0 01.236-.093c.072-.026.145-.05.217-.075a6.921 6.921 0 01.727-.205l.208-.045c.094-.018.19-.034.283-.049.066-.01.13-.022.197-.03.107-.015.215-.025.323-.035.054-.004.108-.011.163-.014.163-.011.328-.018.493-.018 5.593 0 10.127 6.252 10.127 13.963 0 7.71-4.534 13.962-10.127 13.962-.167 0-.334-.007-.499-.017l-.172-.017c-.106-.01-.213-.019-.318-.034-.07-.009-.14-.021-.21-.033-.092-.015-.183-.03-.273-.047-.077-.016-.153-.035-.229-.052a7.01 7.01 0 01-.961-.291l-.194-.076a8.355 8.355 0 01-.27-.114c-.055-.025-.11-.05-.163-.076a8.255 8.255 0 01-.291-.144c-.04-.02-.078-.042-.117-.063a8.437 8.437 0 01-.325-.183l-.038-.024c-.949-.573-1.82-1.341-2.59-2.267 2.762 3.624 6.923 5.931 11.578 5.931 2.908 0 5.623-.902 7.925-2.462 3.794-3.47 6.172-8.431 6.172-13.942 0-5.7-2.543-10.808-6.566-14.29" fill="#C61212"/>
  </g>
</svg>
