<svg width="40" height="40" xmlns="http://www.w3.org/2000/svg">
  <defs>
    <linearGradient x1="50%" y1="100%" x2="50%" y2="0%" id="a">
      <stop stop-color="#BCBCBC" offset="0%"/>
      <stop stop-color="#FFF" offset="100%"/>
    </linearGradient>
  </defs>
  <g fill="none" fill-rule="evenodd">
    <path d="M.029 19.407c0 10.684 8.69 19.347 19.409 19.347s19.409-8.662 19.409-19.347S30.157.06 19.437.06C8.719.06.03 8.722.03 19.407" fill="url(#a)" transform="translate(.926 .186)"/>
    <path d="M39.773 19.593c0 10.685-8.69 19.347-19.409 19.347C9.644 38.94.955 30.278.955 19.593S9.645.247 20.365.247c10.718 0 19.408 8.661 19.408 19.346z" stroke="#CDCDCD" stroke-width=".264" stroke-linecap="round" stroke-linejoin="round"/>
    <path d="M38.252 19.593c0 9.848-8.009 17.83-17.888 17.83-9.88 0-17.888-7.982-17.888-17.83 0-9.847 8.009-17.83 17.888-17.83 9.88 0 17.888 7.983 17.888 17.83" fill="#1B92F7"/>
    <path d="M21.99 34.615a.26.26 0 00-.285.286l.132 1.254a.26.26 0 00.286.231.26.26 0 00.233-.285l-.132-1.255a.26.26 0 00-.233-.231zm-3.263-.002a.26.26 0 00-.234.232l-.132 1.254a.26.26 0 00.232.286.26.26 0 00.287-.231l.132-1.255a.26.26 0 00-.285-.286zm6.422-.668a.26.26 0 00-.27.34l.391 1.2a.26.26 0 00.496-.161l-.391-1.2a.26.26 0 00-.226-.179zm-9.572 0a.26.26 0 00-.226.178l-.391 1.2a.26.26 0 00.496.16l.391-1.199a.26.26 0 00-.27-.34zm4.787-.97a.26.26 0 00-.26.26v3a.26.26 0 10.522 0l-.001-3a.26.26 0 00-.26-.26zm2.833-.295a.26.26 0 00-.254.314l.624 2.933a.26.26 0 00.309.2.259.259 0 00.2-.308l-.622-2.933a.26.26 0 00-.257-.206zm-5.675-.002a.26.26 0 00-.257.206l-.625 2.933a.26.26 0 00.51.108l.625-2.933a.26.26 0 00-.253-.314zm10.567-.04a.258.258 0 00-.149.035.259.259 0 00-.095.355l.632 1.093a.26.26 0 00.452-.26l-.633-1.093a.26.26 0 00-.207-.13zm-15.45 0a.26.26 0 00-.207.13l-.633 1.093a.26.26 0 00.452.26l.633-1.093a.259.259 0 00-.096-.355.26.26 0 00-.148-.034zm13.28-.838a.26.26 0 00-.234.366l1.222 2.74a.26.26 0 00.476-.212l-1.222-2.74a.26.26 0 00-.242-.154zm-11.126-.008a.259.259 0 00-.243.154l-1.225 2.738a.26.26 0 00.476.212l1.226-2.738a.26.26 0 00-.234-.366zm15.896-1.04a.258.258 0 00-.188.067.259.259 0 00-.02.367l.847.937a.26.26 0 10.388-.347l-.847-.938a.262.262 0 00-.18-.086zm-20.652 0a.26.26 0 00-.18.085l-.846.937a.26.26 0 00.388.348l.846-.937a.26.26 0 00-.208-.434zm18.355-.375a.259.259 0 00-.202.412l1.766 2.427a.26.26 0 00.422-.305l-1.766-2.427a.26.26 0 00-.22-.107zm-16.07-.011a.26.26 0 00-.22.107l-1.77 2.424a.26.26 0 00.422.306l1.77-2.424a.259.259 0 00-.202-.413zm18.2-1.905a.26.26 0 00-.16.453l2.235 2.006a.261.261 0 00.369-.019.259.259 0 00-.02-.367l-2.235-2.006a.262.262 0 00-.189-.067zM10.2 28.454a.26.26 0 00-.189.066l-2.237 2.005a.26.26 0 00-.02.367c.097.107.261.116.369.02l2.237-2.005a.26.26 0 00-.16-.453zm22.642-.09a.26.26 0 00-.162.47l1.023.742a.26.26 0 00.307-.42l-1.024-.742a.262.262 0 00-.144-.05zM7.88 28.355a.263.263 0 00-.144.05l-1.024.74a.26.26 0 10.306.42l1.024-.739a.259.259 0 00.058-.363.261.261 0 00-.22-.108zm24.319-2.2a.259.259 0 00-.208.13.259.259 0 00.095.355l2.605 1.5a.26.26 0 00.261-.45l-2.605-1.5a.263.263 0 00-.148-.035zm-23.67 0a.256.256 0 00-.148.035l-2.605 1.5a.26.26 0 00.261.45l2.605-1.5a.259.259 0 00.095-.355.26.26 0 00-.207-.13zm25.916-.563a.26.26 0 00-.111.497l1.156.514a.26.26 0 10.212-.474l-1.156-.515a.26.26 0 00-.1-.022zm-28.166-.01a.266.266 0 00-.101.022l-1.156.514a.26.26 0 10.212.475l1.156-.513a.26.26 0 00-.111-.498zm27.076-2.021a.26.26 0 00-.059.506l2.86.93a.26.26 0 10.162-.495l-2.86-.93a.258.258 0 00-.103-.01v-.001zM7.37 23.55a.257.257 0 00-.103.013l-2.861.927a.26.26 0 10.161.495l2.861-.928a.26.26 0 00-.058-.506zm28.07-1.023a.26.26 0 00-.055.514l1.237.262a.26.26 0 10.109-.508l-1.238-.262a.24.24 0 00-.052-.006zm-30.155-.003a.27.27 0 00-.052.006l-1.238.262a.26.26 0 10.108.509l1.238-.262a.26.26 0 00-.056-.515zM33.95 20.77a.26.26 0 00-.002.518l2.992.315a.26.26 0 10.055-.517l-2.992-.316a.286.286 0 00-.053 0zm-27.171-.018a.226.226 0 00-.053 0l-2.992.311a.26.26 0 10.054.517l2.992-.311a.26.26 0 00-.001-.517zm28.999-1.418a.26.26 0 100 .52h1.265a.26.26 0 100-.52h-1.265zm-32.09 0a.26.26 0 100 .52h1.265a.26.26 0 100-.52H3.686zm33.307-1.726a.257.257 0 00-.053 0l-2.992.312a.26.26 0 10.055.517l2.991-.311a.26.26 0 000-.518zm-33.257-.022a.26.26 0 00-.002.517l2.991.316a.26.26 0 10.055-.517l-2.991-.316a.253.253 0 00-.053 0zm32.94-1.706a.309.309 0 00-.053.006l-1.238.262a.26.26 0 10.109.509l1.237-.262a.26.26 0 00-.055-.515zm-32.625-.002a.26.26 0 00-.056.514l1.238.263a.26.26 0 10.109-.509l-1.238-.262a.27.27 0 00-.053-.006zm32.211-1.687a.254.254 0 00-.103.012l-2.86.927a.26.26 0 10.161.495l2.86-.928a.26.26 0 00-.058-.506zM4.47 14.18a.26.26 0 00-.059.506l2.86.93a.26.26 0 10.162-.495l-2.86-.93a.264.264 0 00-.103-.011zm31.127-1.607a.26.26 0 00-.102.023l-1.156.513a.26.26 0 00.212.475l1.157-.513a.26.26 0 00-.111-.498zm-30.458-.01a.26.26 0 00-.112.497l1.156.514a.26.26 0 00.345-.132.26.26 0 00-.133-.343l-1.155-.514a.257.257 0 00-.101-.023zm29.702-1.548a.256.256 0 00-.149.034l-2.605 1.5a.26.26 0 00.261.45l2.605-1.5a.26.26 0 00-.112-.485zm-28.952 0a.26.26 0 00-.112.484l2.605 1.5a.26.26 0 00.261-.45l-2.605-1.5a.26.26 0 00-.149-.034zM33.855 9.57a.26.26 0 00-.145.05l-1.024.74a.26.26 0 00.306.42l1.025-.74a.26.26 0 00-.162-.47zM6.88 9.56a.26.26 0 00-.163.47l1.024.742a.26.26 0 00.307-.42L7.025 9.61a.26.26 0 00-.144-.05zM32.794 8.21a.261.261 0 00-.189.066l-2.237 2.005a.259.259 0 00-.02.367.261.261 0 00.369.02l2.237-2.005a.26.26 0 00-.16-.453zM7.943 8.2a.26.26 0 00-.161.453l2.236 2.006a.26.26 0 00.349-.386L8.13 8.267a.261.261 0 00-.188-.067zM31.51 6.98a.262.262 0 00-.18.086l-.847.937a.261.261 0 00.388.348l.847-.937a.261.261 0 00-.207-.434zM9.22 6.977a.26.26 0 00-.188.067.259.259 0 00-.02.367l.847.937a.26.26 0 00.388-.347L9.4 7.063a.262.262 0 00-.18-.086zm20.974-1.1a.26.26 0 00-.22.106l-1.77 2.425a.26.26 0 00.422.306l1.77-2.425a.259.259 0 00-.202-.412zm-19.642-.014a.262.262 0 00-.144.05.259.259 0 00-.058.363l1.767 2.427a.261.261 0 00.422-.305L10.773 5.97a.26.26 0 00-.22-.108zm18.133-.927a.259.259 0 00-.208.13l-.633 1.092a.26.26 0 00.452.26l.633-1.092a.259.259 0 00-.244-.39zm-16.642 0a.258.258 0 00-.148.035.259.259 0 00-.096.355l.633 1.092a.26.26 0 00.452-.26l-.633-1.092a.26.26 0 00-.208-.13zm15.128-.8a.262.262 0 00-.244.154l-1.225 2.739a.26.26 0 00.476.212l1.226-2.74a.259.259 0 00-.233-.365zm-13.592-.01a.259.259 0 00-.234.366l1.222 2.74a.26.26 0 00.477-.21l-1.222-2.74a.261.261 0 00-.243-.155zm11.919-.602a.26.26 0 00-.226.179l-.39 1.2a.26.26 0 00.496.16l.39-1.2a.26.26 0 00-.27-.34zm-10.265 0a.26.26 0 00-.27.34l.39 1.198a.26.26 0 00.496-.16l-.39-1.2a.26.26 0 00-.226-.179zm8.602-.468a.26.26 0 00-.257.206l-.625 2.933a.26.26 0 00.2.308.26.26 0 00.31-.2l.625-2.933a.26.26 0 00-.253-.314zm-6.93-.003a.26.26 0 00-.254.314l.624 2.934c.03.14.167.23.309.2a.26.26 0 00.201-.308l-.623-2.934a.26.26 0 00-.257-.206zm5.177-.252a.26.26 0 00-.233.232l-.133 1.254a.26.26 0 00.233.286.26.26 0 00.286-.231l.133-1.255a.26.26 0 00-.286-.286zM18.658 2.8a.26.26 0 00-.285.286l.131 1.254a.26.26 0 00.286.232.26.26 0 00.233-.286l-.132-1.254a.26.26 0 00-.233-.232zm1.706-.108a.26.26 0 00-.26.26v2.999a.26.26 0 10.522 0l-.001-2.999a.26.26 0 00-.26-.26z" fill="#F4F2F3"/>
    <path fill="#FF5150" d="M22.41 21.728l-4.091-4.27L32.828 7.73z"/>
    <path fill="#F1F1F1" d="M22.41 21.728l-4.09-4.27L7.9 31.456z"/>
    <path fill-opacity=".333" fill="#000" d="M7.9 31.456l14.51-9.728L32.827 7.73z"/>
  </g>
</svg>
