<svg id="Layer_1" data-name="Layer 1" xmlns="http://www.w3.org/2000/svg" viewBox="0 0 62.39 24.67"><defs><style>.cls-1{fill:#1d1d1b;}</style></defs><title>advance_payment</title><path class="cls-1" d="M12.33,0A12.33,12.33,0,1,0,24.67,12.33,12.35,12.35,0,0,0,12.33,0Zm0,21.83a9.5,9.5,0,1,1,9.5-9.5A9.51,9.51,0,0,1,12.33,21.83Z"/><path class="cls-1" d="M14.93,12.12a8.75,8.75,0,0,0-2.18-.73,6.28,6.28,0,0,1-1.85-.61,1,1,0,0,1-.46-0.85,1.14,1.14,0,0,1,.49-1,2.09,2.09,0,0,1,1.27-.36,1.94,1.94,0,0,1,1.34.45A1.46,1.46,0,0,1,14,10.2h2.36a3,3,0,0,0-1.16-2.42,4.25,4.25,0,0,0-2-.84V5.44H11.06V7h0.06a4.14,4.14,0,0,0-1.84.81A2.8,2.8,0,0,0,8.13,10,2.69,2.69,0,0,0,9.9,12.52a8.88,8.88,0,0,0,2,.64,5.53,5.53,0,0,1,1.73.58,1.07,1.07,0,0,1,.52,1,1.1,1.1,0,0,1-.49.93,2.39,2.39,0,0,1-1.42.36,2.46,2.46,0,0,1-1.55-.45,1.66,1.66,0,0,1-.63-1.29H7.78A3,3,0,0,0,8.35,16a3.8,3.8,0,0,0,1.58,1.28,4.92,4.92,0,0,0,1.14.36v1.41h2.17V17.68a4.48,4.48,0,0,0,2.07-.8,2.74,2.74,0,0,0,1.18-2.3,2.59,2.59,0,0,0-.38-1.44A3.09,3.09,0,0,0,14.93,12.12Z"/><path class="cls-1" d="M52.08,12.33a1.42,1.42,0,0,0-.42-1L43,2.69a1.42,1.42,0,0,0-2,2l6.22,6.22h-14a1.42,1.42,0,0,0,0,2.83h14L41,20a1.42,1.42,0,1,0,2,2l8.64-8.64A1.42,1.42,0,0,0,52.08,12.33Z"/><path class="cls-1" d="M62,11.33L53.34,2.69a1.42,1.42,0,0,0-2,2L59,12.33,51.34,20a1.42,1.42,0,1,0,2,2L62,13.34A1.42,1.42,0,0,0,62,11.33Z"/></svg>