<svg xmlns="http://www.w3.org/2000/svg" viewBox="0 0 48 44"><path d="M38.92 19.68v-2.8h8.27v2.8h-8.27zm-1.7-8.56l7.63-3.17 1.08 2.59-7.64 3.17-1.07-2.59zm-3.78-4.68L39.29.59l1.98 1.99-5.85 5.85-1.98-1.99zm2.96 16.54c0 4.55 1.36 8.93 3.93 12.68 0 0 1.61 2.2-3.03 2.2H31c-.66 3.49-3.73 6.14-7.41 6.14-3.67 0-6.74-2.65-7.4-6.14H9.75c-3.8 0-2.89-2.2-2.89-2.2 2.57-3.75 3.93-8.13 3.93-12.68V18.5c0-5.72 3.69-10.59 8.8-12.29v-.28c0-2.21 1.79-4.01 4-4.01s4.01 1.8 4.01 4.01v.26c1.88.62 3.59 1.67 5.03 3.1 2.43 2.43 3.77 5.65 3.77 9.08v4.61zM23.59 41.19c2.13 0 3.93-1.4 4.53-3.33h-9.05c.6 1.93 2.4 3.33 4.52 3.33zm0-36.47c-.55 0-1.02.38-1.16.89.03 0 .05 0 .08-.01.04 0 .08 0 .12-.01.06 0 .12-.01.19-.01.04 0 .08 0 .12-.01h.2c.03-.01.07-.01.1-.01h.62c.09 0 .18 0 .27.01h.03c.09 0 .18.01.28.01 0 0 .01.01.02.01.1 0 .2.01.29.02-.14-.51-.6-.89-1.16-.89zM33.6 18.37c0-2.68-1.05-5.2-2.94-7.09a9.94 9.94 0 0 0-4.6-2.61l-.18-.05c-.28-.06-.56-.11-.84-.16-.04 0-.08-.01-.12-.01-.04-.01-.08-.01-.12-.02-.07 0-.14-.01-.21-.02h-.01c-.3-.03-.61-.05-.91-.05h-.11c-.09 0-.18 0-.27.01h-.09c-.06 0-.12 0-.18.01-.04 0-.07 0-.11.01-.05 0-.11 0-.16.01-.04 0-.08.01-.12.01-.05 0-.1.01-.15.01-.04.01-.08.01-.13.02-.04 0-.08.01-.12.02-.05 0-.1.01-.15.02-.03 0-.07.01-.1.01-.06.01-.12.02-.17.03-.02.01-.03.01-.05.01-4.64.88-8.17 5.02-8.17 9.97v4.48c0 4.25-1.06 8.38-3.07 12.07h26.15a25.064 25.064 0 0 1-3.07-12.07v-4.61zm-10.01-5.8V9.76c4.75 0 8.61 3.87 8.61 8.61h-2.81c0-3.2-2.6-5.8-5.8-5.8zM5.92 2.58L7.9.59l5.85 5.85-1.98 1.99-5.85-5.85zM8.9 13.71l-7.64-3.17 1.07-2.59 7.64 3.17-1.07 2.59zm-.63 5.97H0v-2.8h8.27v2.8z"/></svg>
