<svg xmlns="http://www.w3.org/2000/svg" viewBox="0 0 53 60"><path d="M45.77 60H7.23C3.24 60 0 56.75 0 52.74V5.44C0 2.43 2.43 0 5.42 0h34.93c3 0 5.42 2.43 5.42 5.44v3.63h1.81c2.99 0 5.42 2.44 5.42 5.45v38.22c0 4.01-3.24 7.26-7.23 7.26zm3.62-45.48c0-1.01-.81-1.82-1.81-1.82h-1.81v38.23c0 1-.8 1.81-1.8 1.81s-1.81-.81-1.81-1.81V5.44c0-1-.81-1.81-1.81-1.81H5.42c-.99 0-1.81.81-1.81 1.81v47.3c0 2 1.63 3.63 3.62 3.63h38.54c2 0 3.62-1.63 3.62-3.63V14.52zM37.16 51.9H7.65c-.5 0-.9-.4-.9-.91 0-.49.4-.9.9-.9h29.51c.5 0 .9.41.9.9 0 .51-.4.91-.9.91zm0-5.8H7.65c-.5 0-.9-.41-.9-.91s.4-.91.9-.91h29.51c.5 0 .9.41.9.91s-.4.91-.9.91zm0-5.81H7.65c-.5 0-.9-.4-.9-.91 0-.5.4-.91.9-.91h29.51c.5 0 .9.41.9.91 0 .51-.4.91-.9.91zm0-5.81H7.65c-.5 0-.9-.4-.9-.9s.4-.91.9-.91h29.51c.5 0 .9.41.9.91s-.4.9-.9.9zm0-5.8H7.65c-.5 0-.9-.41-.9-.91s.4-.91.9-.91h29.51c.5 0 .9.41.9.91s-.4.91-.9.91zm0-6.05h-9.64c-.5 0-.9-.41-.9-.91s.4-.9.9-.9h9.64c.5 0 .9.4.9.9s-.4.91-.9.91zm0-5.44h-9.64c-.5 0-.9-.41-.9-.91s.4-.91.9-.91h9.64c.5 0 .9.41.9.91s-.4.91-.9.91zm0-5.45h-9.64c-.5 0-.9-.4-.9-.9 0-.51.4-.91.9-.91h9.64c.5 0 .9.4.9.91 0 .5-.4.9-.9.9zM21.2 23.59H8.55c-1 0-1.8-.81-1.8-1.82V9.08c0-1 .8-1.81 1.8-1.81H21.2c1 0 1.81.81 1.81 1.81v12.69c0 1.01-.81 1.82-1.81 1.82zm-1.81-12.7h-9.03v9.07h9.03v-9.07z"/></svg>
