<svg id="Layer_1" data-name="Layer 1" xmlns="http://www.w3.org/2000/svg" viewBox="0 0 207.63 26.9"><defs><style>.cls-1{fill:#07537d;}</style></defs><title>authorize_net</title><path class="cls-1" d="M181.19,2.65c-0.08-.72-0.59-0.5-1-0.5-2.39,0-4.78,0-7.16,0-0.43,0-1.09-.31-1.18.54s0.58,0.63,1,.72c1.2,0.23,2.39.48,2.57,2,0.5,4.4.26,8.82,0.33,13.53-0.5-.55-0.81-0.88-1.1-1.22L162,2.91a1.63,1.63,0,0,0-1.36-.78c-1.66,0-3.33,0-5,0-0.37,0-.78-0.09-0.83.51s0.21,0.66.72,0.76c2.34,0.47,3.13,1.39,3.11,3.76,0,4.81.2,9.63-.2,14.44-0.15,1.79-.24,3.49-2.65,3.57-0.44,0-.47.4-0.46,0.77s0.29,0.45.6,0.45H164c0.31,0,.6,0,0.6-0.44s0-.7-0.46-0.77c-0.25,0-.51-0.05-0.76-0.09-1.78-.23-2.25-0.68-2.43-2.5-0.12-1.27-.24-2.55-0.25-3.82,0-3.31,0-6.61,0-10.29l2.6,3.18c3.9,4.79,7.83,9.57,11.69,14.39,0.77,1,1.73.64,2.57,0.53s0.3-.93.31-1.42c0.15-6.43-.27-12.87.28-19.3,0.14-1.61.63-2.18,2.23-2.46C180.83,3.33,181.27,3.36,181.19,2.65Z"/><path class="cls-1" d="M73,25.17c-1.65,0-1.72-1.18-1.71-2.4,0-2.6,0-5.2,0-7.8-0.08-4.33-3.59-6.58-7.61-4.94a17.53,17.53,0,0,0-2.78,1.73V10.24q0-4.67,0-9.34c0-.52.09-1-0.76-0.87-1.83.38-3.68,0.7-5.52,1a0.7,0.7,0,0,0-.74.7c0,0.59.34,0.58,0.74,0.59a1.54,1.54,0,0,1,1.7,1.85q-0.05,9.4,0,18.8c0,1.36-.48,2.11-1.9,2.12a0.65,0.65,0,0,0-.76.77c0,0.64.46,0.5,0.81,0.5q3.71,0,7.42,0c0.29,0,.74.17,0.76-0.39,0-.38.07-0.8-0.48-0.88-1.13-.15-1.27-1-1.27-1.89,0-3,0-6,0-9A1.3,1.3,0,0,1,61.61,13a3.56,3.56,0,0,1,3.63-.38,3,3,0,0,1,1.51,2.9c0,2.47,0,4.95,0,7.42,0,1.08-.1,2.09-1.54,2.18-0.45,0-.47.39-0.48,0.75,0,0.54.34,0.5,0.68,0.5h7.42c0.35,0,.71,0,0.68-0.5C73.51,25.56,73.53,25.18,73,25.17Z"/><path class="cls-1" d="M41.4,24.34c-1.43.18-1.75-.59-1.74-1.83,0-4,0-7.93,0-11.89,0-.73-0.18-1-0.93-0.87-1.73.23-3.47,0.38-5.2,0.56-0.37,0-.77-0.07-0.8.54s0.24,0.71.74,0.74c1.22,0.07,1.63.74,1.6,2-0.07,2.68,0,5.37,0,8.05a1.62,1.62,0,0,1-.17,1.11,4.33,4.33,0,0,1-3.73,1.19C30,23.54,29.44,22.63,29.44,21c0-3.45,0-6.9,0-10.36,0-.74-0.2-1-0.94-0.86-1.69.22-3.38,0.38-5.08,0.55-0.44,0-.84,0-0.86.67s0.37,0.59.75,0.63c1.2,0.11,1.51.81,1.49,1.93-0.05,2.9-.06,5.8,0,8.69a4.59,4.59,0,0,0,5.84,4.52c1.63-.34,2.84-1.45,4.41-2.35,0,0.59,0,1,0,1.35-0.12,1,.23,1.23,1.23,1,1.68-.45,3.4-0.75,5.11-1.06a0.7,0.7,0,0,0,.77-0.76C42.17,24.28,41.77,24.3,41.4,24.34Z"/><path class="cls-1" d="M132,21.54c-0.79-.33-1,0.1-1.34.65A4.33,4.33,0,0,1,127,24.78c-1.26.06-2.53,0-4,0,0.25-.47.43-0.84,0.64-1.19q3.7-6.19,7.4-12.37c0.6-1,.47-1.23-0.7-1.24-2.9,0-5.79,0-8.69,0a2.67,2.67,0,0,1-1.92-.5c-0.66-.57-1.05-0.29-1.23.48-0.29,1.24-.56,2.49-0.91,3.71-0.17.6-.29,1,0.48,1.27s0.82-.32,1-0.71c0.49-.94.88-2,2-2.37a11.93,11.93,0,0,1,4.59-.21c-0.3.51-.51,0.88-0.73,1.24Q121.25,19,117.49,25c-0.2.33-.63,0.65-0.3,1.13a1,1,0,0,0,1.06.23c3,0,6,0,8.95,0,1.23,0,2.76.5,3.61-.2s1-2.17,1.41-3.33C132.35,22.46,132.94,21.92,132,21.54Z"/><path class="cls-1" d="M52.4,23.91c-2.36.65-3.45-.15-3.5-2.59-0.05-2.85,0-5.71,0-8.56,0-.78.3-0.94,1-0.9s1.36,0,2,0a0.9,0.9,0,0,0,1-1.06,0.75,0.75,0,0,0-1-.86c-0.72.05-1.45,0-2.17,0a0.69,0.69,0,0,1-.88-0.85c0.05-1.11,0-2.21,0-3.32a0.8,0.8,0,0,0-.31-0.9,0.81,0.81,0,0,0-.92.23c-0.88.66-1.75,1.36-2.67,2a1.45,1.45,0,0,0-.71,1.5c0.08,0.79.16,1.49-1.1,1.41a1.46,1.46,0,0,0-1.38,1.41c0,0.8.88,0.44,1.33,0.4,1-.09,1.22.32,1.17,1.24-0.07,1.57,0,3.15,0,4.73s0,3.32,0,5a3.71,3.71,0,0,0,3.08,3.94c2.29,0.6,3.86-1,5.7-1.71,0.38-.15.23-0.49,0.1-0.77A0.54,0.54,0,0,0,52.4,23.91Z"/><path class="cls-1" d="M102.28,10a11.55,11.55,0,0,0-2.79,3.11c0-1.17,0-2,0-2.77,0-.64-0.12-0.77-0.78-0.63-1.78.4-3.59,0.71-5.38,1.06-0.43.08-1-.08-1,0.68S92.89,12,93.28,12a1.49,1.49,0,0,1,1.58,1.74q0,4.79,0,9.58a1.56,1.56,0,0,1-1.6,1.75c-0.46,0-1,0-.94.72,0,0.9.71,0.56,1.12,0.57,2.6,0,5.2,0,7.79,0,0.41,0,1.09.39,1.21-.46s-0.58-.75-1.09-0.82c-1.61-.23-1.85-0.49-1.86-2.13,0-2.3,0-4.6,0-6.9a2.43,2.43,0,0,1,1.15-2.27,2,2,0,0,1,2.37.35,1.6,1.6,0,0,0,2.37-.25,2.6,2.6,0,0,0,.38-3.47A2.61,2.61,0,0,0,102.28,10Z"/><path class="cls-1" d="M204.24,23.94c-2.22.64-3.17,0-3.41-2.28-0.3-3-.06-6-0.13-9.06a0.63,0.63,0,0,1,.78-0.73c0.77,0,1.53,0,2.3,0a0.89,0.89,0,0,0,1-1.06c0-.7-0.36-0.87-1-0.84s-1.2,0-1.79,0c-1,.1-1.41-0.17-1.31-1.24a22.51,22.51,0,0,0,0-2.81,0.94,0.94,0,0,0-.27-1,0.92,0.92,0,0,0-1,.33c-0.72.53-1.39,1.13-2.16,1.58a1.86,1.86,0,0,0-1.06,2.08c0.13,0.81-.18,1.11-1,1.1a1.5,1.5,0,0,0-1.46,1.48c0,0.72.91,0.38,1.39,0.36,0.92,0,1.17.31,1.14,1.18-0.06,1.62,0,3.24,0,4.85h0c0,1.75-.05,3.49,0,5.24a3.55,3.55,0,0,0,3.11,3.63c2.28,0.54,3.85-1,5.69-1.77,0.39-.16.12-0.5,0-0.77C204.89,23.75,204.63,23.83,204.24,23.94Z"/><path class="cls-1" d="M115.38,25.11a1.51,1.51,0,0,1-1.6-1.72c0-2.21,0-4.43,0-6.64h-0.08c0-2.09,0-4.18,0-6.26,0-.79-0.24-0.91-0.95-0.76-1.79.38-3.59,0.7-5.38,1-0.35.06-.67,0.06-0.7,0.55a0.59,0.59,0,0,0,.69.7c1.4,0,1.83.8,1.82,2,0,3,0,6,0,8.95,0,1.2-.35,2.11-1.78,2.11a0.65,0.65,0,0,0-.78.75c0,0.72.53,0.53,0.91,0.53q3.9,0,7.8,0c0.37,0,.89.22,0.93-0.51S115.89,25.14,115.38,25.11Z"/><path class="cls-1" d="M150.85,21a2.8,2.8,0,0,0-2.87,2.9,2.84,2.84,0,0,0,2.79,3,2.89,2.89,0,0,0,3-3A2.85,2.85,0,0,0,150.85,21Z"/><path class="cls-1" d="M111.14,6.36a2.69,2.69,0,0,0,2.74-2.73,2.73,2.73,0,0,0-5.45,0A2.67,2.67,0,0,0,111.14,6.36Z"/><path class="cls-1" d="M23.52,25.09a2.57,2.57,0,0,1-2-1.57,23.78,23.78,0,0,1-1-2.34C18.26,15.07,16.06,9,13.83,2.85c-0.14-.38-0.06-1.1-0.71-1s-1.5.06-1.79,1c-0.09.28-.22,0.55-0.32,0.83L3.68,22.24C3.1,23.72,2.4,25.06.53,25.15c-0.45,0-.52.32-0.53,0.71s0.22,0.56.62,0.56H7.91c0.35,0,.57-0.09.54-0.5s0-.63-0.37-0.7-0.59-.08-0.89-0.12c-1-.13-1.45-0.6-1.12-1.66s0.58-2,.89-3.06c0.6-2,.61-2,2.65-2,1.53,0,3.37-.47,4.51.22s1.28,2.75,1.87,4.2c0.7,1.73.6,1.91-1.18,2.31a0.68,0.68,0,0,0-.68.74c0,0.6.38,0.56,0.76,0.56h4.35c1.36,0,2.73,0,4.09,0,0.39,0,1,.31,1.05-0.51S24,25.15,23.52,25.09ZM8.27,16.33l2.65-7.64,2.69,7.64H8.27Z"/><path class="cls-1" d="M83.2,9.5a8.81,8.81,0,0,0-9,8.57c-0.14,5.14,3.29,8.71,8.49,8.82,5,0.11,8.63-3.53,8.75-8.82A8.19,8.19,0,0,0,83.2,9.5Zm2.47,13.77a2.59,2.59,0,0,1-2.24,2,2.72,2.72,0,0,1-2.53-1.44A10.13,10.13,0,0,1,79.44,19a11.41,11.41,0,0,1,.61-5.77c0.48-1.12,1.15-2.09,2.46-2.1A2.92,2.92,0,0,1,85.16,13a13.34,13.34,0,0,1,1.08,6.17A11.26,11.26,0,0,1,85.67,23.26Z"/><path class="cls-1" d="M184.5,17.39c2.51-.07,5-0.32,7.51-0.46a1.32,1.32,0,0,0,1.51-1.55,5.89,5.89,0,0,0-5.61-5.82c-4.8-.15-8.69,3.85-8.85,9.12a7.53,7.53,0,0,0,2.58,6.27c3.54,3,8.36,2.59,11.46-1.65a0.69,0.69,0,0,0,0-.92c-0.33-.44-0.58-0.06-0.85.07-0.46.22-.9,0.48-1.37,0.67a5.3,5.3,0,0,1-7.37-4.51C183.41,17.8,183.5,17.42,184.5,17.39ZM184,13.84c0.06-.16.13-0.31,0.2-0.47,0.67-1.43,1.68-2.23,2.61-2.06,1.1,0.19,2.23,1.83,2.29,3.23,0,0.74-.18,1.13-1,1.08-0.64,0-1.27,0-1.91,0v0c-0.3,0-.6,0-0.89,0C183.45,15.72,183.36,15.6,184,13.84Z"/><path class="cls-1" d="M137.61,17.41c2.59-.12,5.18-0.34,7.77-0.48a1.33,1.33,0,0,0,1.46-1.6,5.89,5.89,0,0,0-5.67-5.77c-4.85-.15-8.82,4.11-8.8,9.44a7.58,7.58,0,0,0,13.75,4.64c0.25-.33.79-0.64,0.32-1.19s-0.85,0-1.2.19c-4.06,2.17-7.88.25-8.47-4.26C136.68,17.63,136.87,17.44,137.61,17.41Zm-0.19-3.78c0-.08.06-0.16,0.09-0.24,0.68-1.48,1.74-2.28,2.73-2.07s2.31,2.08,2.27,3.4a0.78,0.78,0,0,1-.94.9c-0.68,0-1.36,0-2,0v0h-0.76C136.66,15.72,136.6,15.64,137.42,13.62Z"/><path class="cls-1" d="M205.74,4.71a1.89,1.89,0,1,0,1.89,1.89A1.89,1.89,0,0,0,205.74,4.71Zm0,3.52a1.63,1.63,0,1,1,1.63-1.63A1.63,1.63,0,0,1,205.74,8.23Z"/><path class="cls-1" d="M206.13,6.61h0a0.46,0.46,0,0,0,.31-0.43,0.44,0.44,0,0,0-.15-0.35,0.8,0.8,0,0,0-.53-0.14,3,3,0,0,0-.48,0v1.7h0.31V6.72h0.16a0.3,0.3,0,0,1,.31.3,2.45,2.45,0,0,0,.12.41h0.33a3.45,3.45,0,0,1-.14-0.48A0.44,0.44,0,0,0,206.13,6.61Zm-0.35-.13H205.6V5.94l0.19,0a0.28,0.28,0,0,1,.34.28A0.3,0.3,0,0,1,205.78,6.48Z"/></svg>