<?xml version="1.0" encoding="utf-8"?>
<svg xmlns="http://www.w3.org/2000/svg"
	xmlns:xlink="http://www.w3.org/1999/xlink"
	width="102px" height="90px" viewBox="0 0 51 45">
<path fillRule="evenodd" d="M 50.04 30.84C 50.04 30.84 27.46 38.37 27.46 38.37 27.47 38.45 27.48 38.55 27.48 38.63 27.61 42.01 25 44.87 21.65 45.01 21.56 45.01 21.48 45.01 21.4 45.01 18.12 45.01 15.45 42.43 15.31 39.13 15.25 37.5 15.82 35.93 16.92 34.73 17.29 34.33 17.7 33.99 18.14 33.7 18.14 33.7 9.37 7.05 9.37 7.05 9.37 7.05 0.77 2.7 0.77 2.7 0.07 2.35-0.2 1.5 0.14 0.79 0.49 0.08 1.34-0.2 2.04 0.15 2.04 0.15 11.15 4.76 11.15 4.76 11.49 4.93 11.75 5.23 11.87 5.59 11.87 5.59 20.83 32.76 20.83 32.76 20.93 32.75 21.05 32.74 21.15 32.74 21.24 32.74 21.32 32.74 21.41 32.74 23.59 32.74 25.5 33.89 26.57 35.64 26.57 35.64 49.15 28.11 49.15 28.11 49.9 27.86 50.71 28.27 50.95 29.02 51.19 29.77 50.79 30.58 50.04 30.84ZM 21.41 35.62C 21.36 35.62 21.31 35.62 21.27 35.62 20.4 35.65 19.6 36.02 19.01 36.66 18.42 37.3 18.12 38.13 18.15 39.01 18.22 40.81 19.73 42.22 21.53 42.14 23.32 42.07 24.72 40.54 24.65 38.76 24.58 36.99 23.15 35.62 21.41 35.62ZM 47.59 25.01C 47.59 25.01 25.78 32.28 25.78 32.28 25.63 32.34 25.48 32.36 25.34 32.36 24.75 32.36 24.19 31.98 23.99 31.37 23.99 31.37 16.83 9.62 16.83 9.62 16.58 8.87 16.98 8.05 17.73 7.81 17.73 7.81 28.63 4.17 28.63 4.17 28.63 4.17 39.54 0.52 39.54 0.52 39.9 0.41 40.28 0.44 40.62 0.61 40.96 0.78 41.22 1.07 41.34 1.43 41.34 1.43 48.49 23.2 48.49 23.2 48.6 23.56 48.57 23.95 48.41 24.29 48.24 24.63 47.94 24.89 47.59 25.01ZM 39.09 3.69C 39.09 3.69 30.87 6.43 30.87 6.43 30.87 6.43 32.61 11.7 32.61 11.7 32.85 12.45 32.45 13.27 31.7 13.51 31.55 13.56 31.41 13.59 31.26 13.59 30.67 13.59 30.11 13.21 29.92 12.6 29.92 12.6 28.18 7.32 28.18 7.32 28.18 7.32 19.97 10.08 19.97 10.08 19.97 10.08 26.24 29.12 26.24 29.12 26.24 29.12 45.36 22.74 45.36 22.74 45.36 22.74 39.09 3.69 39.09 3.69Z" /></svg>