<svg id="Layer_1" data-name="Layer 1" xmlns="http://www.w3.org/2000/svg" viewBox="0 0 61.09 44.96"><defs><style>.cls-1{fill:#1d1d1b;}</style></defs><title>bank_transfer</title><path class="cls-1" d="M30.56,10.17A12.33,12.33,0,1,0,42.89,22.5,12.35,12.35,0,0,0,30.56,10.17Zm0,21.83a9.5,9.5,0,1,1,9.5-9.5A9.51,9.51,0,0,1,30.56,32Z"/><path class="cls-1" d="M33.15,22.29A8.75,8.75,0,0,0,31,21.56,6.28,6.28,0,0,1,29.12,21a1,1,0,0,1-.46-0.85,1.14,1.14,0,0,1,.49-1,2.09,2.09,0,0,1,1.27-.36,1.94,1.94,0,0,1,1.34.45,1.46,1.46,0,0,1,.51,1.13h2.36A3,3,0,0,0,33.47,18a4.25,4.25,0,0,0-2-.84v-1.5H29.29v1.52h0.06a4.14,4.14,0,0,0-1.84.81,2.8,2.8,0,0,0-1.15,2.28,2.69,2.69,0,0,0,1.77,2.48,8.88,8.88,0,0,0,2,.64,5.53,5.53,0,0,1,1.73.58,1.07,1.07,0,0,1,.52,1,1.1,1.1,0,0,1-.49.93,2.39,2.39,0,0,1-1.42.36,2.45,2.45,0,0,1-1.55-.45,1.66,1.66,0,0,1-.63-1.29H26a3,3,0,0,0,.56,1.76,3.8,3.8,0,0,0,1.58,1.28,4.93,4.93,0,0,0,1.14.36v1.41h2.17V27.85a4.48,4.48,0,0,0,2.07-.8,2.74,2.74,0,0,0,1.18-2.3,2.59,2.59,0,0,0-.38-1.44A3.08,3.08,0,0,0,33.15,22.29Z"/><path class="cls-1" d="M35.36,42.13H27.81A18.66,18.66,0,0,1,9.17,23.49V21.84l3.92,3.92a1.42,1.42,0,1,0,2-2L8.76,17.42a1.42,1.42,0,0,0-.46-0.31h0a1.41,1.41,0,0,0-.5-0.1h0a1.41,1.41,0,0,0-.5.1h0a1.42,1.42,0,0,0-.46.31L0.42,23.75a1.42,1.42,0,0,0,2,2l3.92-3.92v1.65A21.5,21.5,0,0,0,27.81,45h7.54A1.42,1.42,0,1,0,35.36,42.13Z"/><path class="cls-1" d="M60.68,19.21a1.41,1.41,0,0,0-2,0l-3.9,3.9V21.48A21.5,21.5,0,0,0,33.3,0H25.76a1.42,1.42,0,0,0,0,2.83H33.3A18.66,18.66,0,0,1,51.94,21.48v1.67L48,19.21a1.42,1.42,0,0,0-2,2l6.34,6.34,0.09,0.06a1.41,1.41,0,0,0,.31.21l0.13,0.05a1.41,1.41,0,0,0,.45.09h0a1.41,1.41,0,0,0,1.09-.52l6.23-6.23A1.42,1.42,0,0,0,60.68,19.21Z"/></svg>