<?xml version="1.0" encoding="utf-8"?>
<svg xmlns="http://www.w3.org/2000/svg"
	xmlns:xlink="http://www.w3.org/1999/xlink"
	width="55px" height="59px" viewBox="0 0 55 59">
<path fillRule="evenodd" d="M 16.25 38.77C 16.25 38.77 48.38 38.77 48.38 38.77 52.03 38.77 55 35.78 55 32.12 55 32.12 55 18.53 55 18.53 55 18.51 55 18.49 55 18.48 55 18.44 55 18.42 55 18.38 55 18.36 55 18.33 54.99 18.31 54.99 18.29 54.98 18.25 54.98 18.23 54.98 18.2 54.96 18.18 54.96 18.15 54.95 18.13 54.95 18.11 54.94 18.07 54.93 18.05 54.93 18.02 54.92 18 54.9 17.97 54.9 17.95 54.89 17.92 54.88 17.9 54.87 17.88 54.86 17.84 54.84 17.82 54.83 17.79 54.82 17.78 54.81 17.76 54.8 17.73 54.78 17.71 54.77 17.68 54.76 17.67 54.75 17.65 54.74 17.62 54.71 17.6 54.7 17.58 54.69 17.55 54.68 17.54 54.65 17.51 54.64 17.49 54.62 17.48 54.6 17.45 54.59 17.43 54.57 17.42 54.56 17.39 54.54 17.37 54.52 17.36 54.51 17.35 54.48 17.32 54.47 17.31 54.45 17.29 54.42 17.27 54.41 17.25 54.39 17.24 54.36 17.23 54.34 17.2 54.32 17.19 54.29 17.18 54.28 17.17 54.26 17.15 54.23 17.14 54.21 17.13 54.18 17.11 54.16 17.09 54.14 17.08 54.11 17.07 54.09 17.06 54.07 17.05 54.04 17.03 54.02 17.02 53.99 17.01 53.97 17 53.95 16.98 53.92 16.98 53.9 16.97 53.87 16.96 53.84 16.95 53.81 16.95 53.79 16.95 53.77 16.94 53.75 16.94 53.72 16.92 53.69 16.92 53.66 16.92 53.65 16.92 53.63 16.91 53.61 16.91 53.61 16.91 12.88 11.26 12.88 11.26 12.88 11.26 12.88 5.55 12.88 5.55 12.88 5.49 12.88 5.43 12.87 5.38 12.87 5.37 12.87 5.36 12.85 5.33 12.85 5.3 12.84 5.26 12.84 5.22 12.83 5.19 12.83 5.16 12.82 5.13 12.82 5.1 12.81 5.09 12.81 5.07 12.79 5.03 12.78 5 12.77 4.96 12.77 4.95 12.76 4.92 12.76 4.91 12.75 4.88 12.73 4.85 12.71 4.82 12.7 4.8 12.7 4.78 12.69 4.77 12.67 4.74 12.66 4.72 12.64 4.69 12.63 4.67 12.61 4.66 12.6 4.63 12.59 4.61 12.58 4.6 12.57 4.57 12.55 4.55 12.53 4.53 12.52 4.5 12.51 4.49 12.49 4.48 12.48 4.47 12.46 4.44 12.43 4.42 12.41 4.39 12.4 4.38 12.39 4.37 12.37 4.36 12.35 4.33 12.33 4.31 12.29 4.29 12.28 4.27 12.25 4.26 12.24 4.25 12.22 4.22 12.19 4.21 12.17 4.19 12.13 4.16 12.1 4.14 12.07 4.13 12.06 4.12 12.05 4.12 12.04 4.1 11.99 4.08 11.93 4.06 11.88 4.03 11.88 4.03 3.05 0.3 3.05 0.3 2.22-0.05 1.27 0.33 0.93 1.16 0.58 1.99 0.96 2.95 1.79 3.3 1.79 3.3 9.63 6.62 9.63 6.62 9.63 6.62 9.63 14 9.63 14 9.63 14 9.63 15.17 9.63 15.17 9.63 15.17 9.63 24.13 9.63 24.13 9.63 24.13 9.63 32.14 9.63 32.14 9.63 32.14 9.63 42.26 9.63 42.26 9.63 45.64 12.15 48.43 15.39 48.86 14.81 49.84 14.46 51 14.46 52.23 14.46 55.86 17.4 58.8 20.99 58.8 24.59 58.8 27.53 55.84 27.53 52.23 27.53 51.02 27.2 49.88 26.63 48.92 26.63 48.92 41.18 48.92 41.18 48.92 40.6 49.89 40.28 51.02 40.28 52.23 40.28 55.86 43.22 58.8 46.81 58.8 50.41 58.8 53.35 55.84 53.35 52.23 53.35 48.61 50.41 45.66 46.81 45.66 46.81 45.66 16.25 45.66 16.25 45.66 14.38 45.66 12.87 44.13 12.87 42.26 12.87 42.26 12.87 37.85 12.87 37.85 13.85 38.43 15.01 38.77 16.25 38.77ZM 24.3 52.22C 24.3 54.05 22.81 55.53 21 55.53 19.19 55.53 17.71 54.04 17.71 52.22 17.71 50.4 19.19 48.9 21 48.9 22.81 48.9 24.3 50.39 24.3 52.22ZM 50.12 52.22C 50.12 54.05 48.63 55.53 46.82 55.53 45.01 55.53 43.53 54.04 43.53 52.22 43.53 50.4 45.01 48.9 46.82 48.9 48.63 48.9 50.12 50.39 50.12 52.22ZM 48.38 35.52C 48.38 35.52 16.25 35.52 16.25 35.52 14.38 35.52 12.87 33.99 12.87 32.12 12.87 32.12 12.87 24.11 12.87 24.11 12.87 24.11 12.87 15.14 12.87 15.14 12.87 15.14 12.87 14.54 12.87 14.54 12.87 14.54 51.76 19.92 51.76 19.92 51.76 19.92 51.76 32.11 51.76 32.11 51.76 34 50.24 35.52 48.38 35.52Z"/></svg>
