<svg xmlns="http://www.w3.org/2000/svg" viewBox="0 0 31.72 33.32"><path d="M30.31,0H27.68a1.42,1.42,0,0,0-1.4,1.18l-0.39,2.3H1.42A1.42,1.42,0,0,0,0,5l0.9,10.65A1.42,1.42,0,0,0,2,16.92l20.94,5.25,0,2.59a4.38,4.38,0,0,0-1.55-.29,4.43,4.43,0,1,0,4.43,4.43c0-.09,0-0.17,0-0.26a1.41,1.41,0,0,0,0-.17l-0.07-7.42a1.42,1.42,0,0,0-1.07-1.36l-21-5.27L3,6.32H25.4L24,14.3a1.42,1.42,0,0,0,1.16,1.64l0.24,0a1.42,1.42,0,0,0,1.4-1.18l2-11.94h1.43A1.42,1.42,0,0,0,30.31,0ZM21.39,30.49A1.59,1.59,0,1,1,23,28.9,1.59,1.59,0,0,1,21.39,30.49Z"/><path d="M6.44,24.47a4.43,4.43,0,1,0,4.42,4.43A4.43,4.43,0,0,0,6.44,24.47Zm0,6A1.59,1.59,0,1,1,8,28.9,1.59,1.59,0,0,1,6.44,30.49Z"/></svg>