<?xml version="1.0" encoding="utf-8"?>
<svg xmlns="http://www.w3.org/2000/svg"
	xmlns:xlink="http://www.w3.org/1999/xlink"
	width="39px" height="42px" viewBox="0 0 39 42">
<path fillRule="evenodd" d="M 11.74 27.98C 11.74 27.98 34.24 27.98 34.24 27.98 36.79 27.98 38.87 25.89 38.87 23.32 38.87 23.32 38.87 13.81 38.87 13.81 38.87 13.8 38.87 13.78 38.87 13.78 38.87 13.75 38.87 13.73 38.87 13.71 38.87 13.69 38.87 13.67 38.86 13.66 38.86 13.64 38.86 13.62 38.86 13.6 38.86 13.58 38.85 13.56 38.85 13.55 38.84 13.53 38.84 13.51 38.83 13.49 38.82 13.47 38.82 13.46 38.81 13.44 38.8 13.42 38.8 13.4 38.8 13.39 38.79 13.37 38.78 13.35 38.77 13.33 38.76 13.31 38.75 13.29 38.75 13.29 38.74 13.27 38.73 13.25 38.72 13.24 38.71 13.22 38.7 13.21 38.7 13.19 38.69 13.18 38.67 13.16 38.66 13.14 38.65 13.13 38.65 13.12 38.63 13.1 38.62 13.08 38.6 13.08 38.6 13.06 38.59 13.04 38.57 13.03 38.56 13.02 38.55 13 38.54 12.99 38.53 12.98 38.51 12.97 38.5 12.96 38.49 12.94 38.47 12.93 38.46 12.92 38.44 12.91 38.43 12.9 38.41 12.88 38.39 12.87 38.38 12.86 38.37 12.86 38.35 12.85 38.33 12.84 38.32 12.83 38.3 12.81 38.28 12.81 38.27 12.8 38.25 12.79 38.23 12.78 38.22 12.77 38.2 12.76 38.18 12.76 38.17 12.75 38.15 12.74 38.13 12.73 38.12 12.73 38.1 12.72 38.08 12.71 38.06 12.71 38.04 12.71 38.02 12.71 38.01 12.7 38 12.7 37.97 12.69 37.96 12.69 37.93 12.69 37.92 12.69 37.92 12.68 37.9 12.68 37.9 12.68 9.39 8.72 9.39 8.72 9.39 8.72 9.39 4.73 9.39 4.73 9.39 4.68 9.39 4.64 9.38 4.61 9.38 4.6 9.38 4.59 9.37 4.57 9.37 4.55 9.36 4.52 9.36 4.5 9.35 4.47 9.35 4.46 9.34 4.43 9.34 4.41 9.34 4.41 9.34 4.39 9.33 4.36 9.32 4.34 9.31 4.31 9.31 4.3 9.3 4.29 9.3 4.28 9.29 4.25 9.29 4.24 9.27 4.21 9.26 4.2 9.26 4.19 9.25 4.18 9.24 4.16 9.23 4.14 9.22 4.13 9.21 4.11 9.2 4.1 9.19 4.08 9.18 4.07 9.18 4.06 9.17 4.04 9.16 4.03 9.14 4.01 9.13 3.99 9.13 3.98 9.12 3.97 9.11 3.97 9.09 3.95 9.08 3.93 9.06 3.92 9.05 3.91 9.04 3.9 9.03 3.89 9.02 3.87 9 3.86 8.98 3.84 8.97 3.83 8.95 3.82 8.94 3.81 8.92 3.8 8.91 3.79 8.89 3.77 8.87 3.76 8.84 3.74 8.82 3.73 8.82 3.72 8.81 3.72 8.8 3.71 8.77 3.7 8.72 3.68 8.69 3.66 8.69 3.66 2.51 1.05 2.51 1.05 1.93 0.8 1.26 1.07 1.02 1.66 0.78 2.24 1.05 2.9 1.62 3.15 1.62 3.15 7.11 5.48 7.11 5.48 7.11 5.48 7.11 10.64 7.11 10.64 7.11 10.64 7.11 11.46 7.11 11.46 7.11 11.46 7.11 17.73 7.11 17.73 7.11 17.73 7.11 23.34 7.11 23.34 7.11 23.34 7.11 30.43 7.11 30.43 7.11 32.79 8.87 34.74 11.15 35.04 10.74 35.73 10.49 36.54 10.49 37.4 10.49 39.94 12.55 42 15.07 42 17.58 42 19.64 39.93 19.64 37.4 19.64 36.56 19.41 35.76 19.01 35.08 19.01 35.08 29.2 35.08 29.2 35.08 28.79 35.76 28.57 36.56 28.57 37.4 28.57 39.94 30.62 42 33.14 42 35.66 42 37.71 39.93 37.71 37.4 37.71 34.87 35.66 32.8 33.14 32.8 33.14 32.8 11.74 32.8 11.74 32.8 10.44 32.8 9.38 31.73 9.38 30.43 9.38 30.43 9.38 27.34 9.38 27.34 10.07 27.74 10.88 27.98 11.74 27.98ZM 17.38 37.39C 17.38 38.67 16.34 39.71 15.08 39.71 13.81 39.71 12.77 38.67 12.77 37.39 12.77 36.12 13.81 35.07 15.08 35.07 16.34 35.07 17.38 36.11 17.38 37.39ZM 35.46 37.39C 35.46 38.67 34.42 39.71 33.15 39.71 31.88 39.71 30.84 38.67 30.84 37.39 30.84 36.12 31.88 35.07 33.15 35.07 34.42 35.07 35.46 36.11 35.46 37.39ZM 34.24 25.7C 34.24 25.7 11.74 25.7 11.74 25.7 10.44 25.7 9.38 24.63 9.38 23.32 9.38 23.32 9.38 17.71 9.38 17.71 9.38 17.71 9.38 11.44 9.38 11.44 9.38 11.44 9.38 11.02 9.38 11.02 9.38 11.02 36.61 14.79 36.61 14.79 36.61 14.79 36.61 23.32 36.61 23.32 36.61 24.64 35.54 25.7 34.24 25.7Z" /></svg>