<?xml version="1.0" encoding="utf-8"?>
<svg xmlns="http://www.w3.org/2000/svg"
	xmlns:xlink="http://www.w3.org/1999/xlink"
	width="22px" height="17px" viewBox="0 0 22 17">
<path fillRule="evenodd" d="M 21.17 5.38C 21.17 5.38 11.2 15.64 11.2 15.64 10.12 16.75 8.37 16.75 7.29 15.64 7.16 15.5 7.04 15.36 6.94 15.2 6.27 15.21 5.6 14.95 5.09 14.42 5.09 14.42 0.73 9.93 0.73 9.93-0.28 8.89-0.28 7.21 0.73 6.17 1.73 5.14 3.37 5.14 4.38 6.17 4.38 6.17 8.48 10.39 8.48 10.39 8.48 10.39 17.25 1.36 17.25 1.36 18.34 0.24 20.09 0.24 21.17 1.36 22.25 2.47 22.25 4.27 21.17 5.38Z"/></svg>