<svg xmlns="http://www.w3.org/2000/svg" viewBox="0 0 41 51"><path d="M29.17 38.96a1.508 1.508 0 0 1-2.13 0l-4.07-4.09c-.74.4-1.57.65-2.47.65-2.89 0-5.24-2.37-5.24-5.27 0-2.38 1.58-4.37 3.73-5.03V18.7c0-.83.68-1.51 1.51-1.51.84 0 1.51.68 1.51 1.51v6.52c2.15.66 3.74 2.65 3.74 5.03 0 .9-.25 1.73-.65 2.48l4.07 4.08c.59.6.59 1.55 0 2.15zM20.5 28c-1.23 0-2.23 1.01-2.23 2.25 0 1.23 1 2.24 2.23 2.24a2.2 2.2 0 0 0 1.56-.65c.01 0 .01-.01.01-.01.01-.01.02-.01.02-.02.4-.4.64-.95.64-1.56 0-1.24-1-2.25-2.23-2.25zm14.87-11.78C38.96 20.03 41 25.11 41 30.4c0 11.35-9.2 20.59-20.5 20.59S.01 41.75.01 30.4c0-10.85 8.38-19.76 18.98-20.54V3.03h-6.12c-.84 0-1.51-.68-1.51-1.51 0-.84.67-1.52 1.51-1.52H28.49C29.33 0 30 .68 30 1.52c0 .83-.67 1.51-1.51 1.51h-6.48v9.81H20.5c-9.64 0-17.48 7.87-17.48 17.56 0 9.68 7.84 17.56 17.48 17.56s17.48-7.88 17.48-17.56c0-4.96-2.1-9.72-5.77-13.04l-1.18-1.07 5.1-5.12c.59-.59 1.54-.59 2.13 0 .59.59.59 1.55 0 2.14l-2.89 2.91z"/></svg>
