<svg xmlns="http://www.w3.org/2000/svg" viewBox="0 0 51.15 33.75"><path d="M18.31,6.44a5.86,5.86,0,0,1,5.85,5.85v9.34L20.53,18a1.42,1.42,0,0,0-2,2l6,6a1.42,1.42,0,0,0,2,0l6-6a1.42,1.42,0,0,0-2-2L27,21.63V12.29A8.69,8.69,0,0,0,18.31,3.6H9.81a5,5,0,1,0,0,2.83h8.49ZM5,7.21A2.19,2.19,0,1,1,7.21,5,2.19,2.19,0,0,1,5,7.21Z"/><path d="M37.89,30.91H14a1.42,1.42,0,0,0,0,2.83H37.89A1.42,1.42,0,0,0,37.89,30.91Z"/><path d="M46.13,0a5,5,0,0,0-4.79,3.6h-5a8.66,8.66,0,0,0-6.4,2.81A1.42,1.42,0,0,0,32,8.33a5.82,5.82,0,0,1,4.31-1.89h5A5,5,0,1,0,46.13,0Zm0,7.21A2.19,2.19,0,1,1,48.31,5,2.19,2.19,0,0,1,46.13,7.21Z"/></svg>