<?xml version="1.0" encoding="utf-8"?>
<svg xmlns="http://www.w3.org/2000/svg"
	xmlns:xlink="http://www.w3.org/1999/xlink"
	width="31px" height="29px" viewBox="0 0 31 29">
<path fillRule="evenodd" d="M 30.8 6.39C 30.8 6.39 22.65 12.37 22.65 12.37 22.65 12.37 22.65 6.99 22.65 6.99 22.65 6.99 8.35 6.99 8.35 6.99 4.74 6.99 1.8 9.95 1.8 13.6 1.8 13.93 1.54 14.2 1.21 14.2 0.88 14.2 0.61 13.93 0.61 13.6 0.61 9.29 4.08 5.79 8.35 5.79 8.35 5.79 22.65 5.79 22.65 5.79 22.65 5.79 22.65 0.4 22.65 0.4 22.65 0.4 30.8 6.39 30.8 6.39ZM 23.84 10.01C 23.84 10.01 28.78 6.39 28.78 6.39 28.78 6.39 23.84 2.76 23.84 2.76 23.84 2.76 23.84 10.01 23.84 10.01ZM 8.35 22.01C 8.35 22.01 22.65 22.01 22.65 22.01 26.26 22.01 29.2 19.04 29.2 15.4 29.2 15.07 29.46 14.8 29.79 14.8 30.12 14.8 30.39 15.07 30.39 15.4 30.39 19.71 26.91 23.21 22.65 23.21 22.65 23.21 8.35 23.21 8.35 23.21 8.35 23.21 8.35 28.6 8.35 28.6 8.35 28.6 0.19 22.61 0.19 22.61 0.19 22.61 8.35 16.62 8.35 16.62 8.35 16.62 8.35 22.01 8.35 22.01ZM 7.16 18.98C 7.16 18.98 2.22 22.61 2.22 22.61 2.22 22.61 7.16 26.24 7.16 26.24 7.16 26.24 7.16 18.98 7.16 18.98Z"/></svg>