<svg xmlns="http://www.w3.org/2000/svg" viewBox="0 0 51.15 33.75">
  <path d="M18.3 6.44a5.86 5.86 0 0 1 5.86 5.85v9.33L20.53 18a1.42 1.42 0 0 0-2 2l6 6a1.42 1.42 0 0 0 2 0l6-6a1.42 1.42 0 0 0-2-2L27 21.63V12.3a8.7 8.7 0 0 0-8.7-8.7H9.8a5 5 0 1 0 0 2.83h8.5zM5 7.2A2.2 2.2 0 1 1 7.2 5 2.2 2.2 0 0 1 5 7.2zM37.9 30.9H14a1.42 1.42 0 0 0 0 2.84h23.9a1.42 1.42 0 0 0 0-2.83zM46.13 0a5 5 0 0 0-4.8 3.6h-5a8.66 8.66 0 0 0-6.4 2.8A1.42 1.42 0 0 0 32 8.34a5.82 5.82 0 0 1 4.3-1.9h5A5 5 0 1 0 46.14 0zm0 7.2A2.2 2.2 0 1 1 48.3 5a2.2 2.2 0 0 1-2.17 2.2z"/>
</svg>
