<svg xmlns="http://www.w3.org/2000/svg" viewBox="0 0 39 29"><path fillRule="evenodd" d="M37.8 21.6C37.8 21.6 25.7 21.6 25.7 21.6 25.6 21.6 25.4 21.6 25.2 21.5 24.7 21.3 24.4 20.6 24.7 20 24.7 20 30.1 6.9 30.1 6.9 30.1 6.9 23.3 6 23.3 6 23.1 6.6 22.6 7.2 22 7.6 21.6 7.9 21.2 8.1 20.6 8.3 20.6 8.3 20.6 23.5 20.6 23.5 20.6 24.1 20.1 24.5 19.6 24.6 18.9 24.6 18.4 24.2 18.3 23.5 18.3 23.5 18.3 8.3 18.3 8.3 16.7 7.8 15.5 6.5 15.3 4.9 15.3 4.9 9.1 4 9.1 4 9.1 4 14.4 16.8 14.4 16.8 14.4 16.9 14.5 17.1 14.5 17.3 14.5 17.9 13.9 18.4 13.3 18.4 13.3 18.4 1.2 18.4 1.2 18.4 1 18.4 0.8 18.4 0.7 18.3 0.1 18-0.2 17.4 0.1 16.8 0.1 16.8 6.2 2.2 6.2 2.2 6.4 1.8 6.8 1.5 7.3 1.5 7.3 1.5 7.4 1.5 7.4 1.5 7.4 1.5 7.5 1.5 7.5 1.5 7.5 1.5 15.6 2.6 15.6 2.6 16.2 1.2 17.5 0.2 19 0 21.3-0.2 23.4 1.4 23.7 3.7 23.7 3.7 31.8 4.8 31.8 4.8 31.8 4.8 32 4.8 32 4.8 32.4 4.8 32.7 5.1 32.9 5.5 32.9 5.5 38.9 20 38.9 20 39 20.2 39 20.4 39 20.5 39 21.2 38.4 21.7 37.8 21.6ZM7.2 5.7C7.2 5.7 2.9 16.1 2.9 16.1 2.9 16.1 11.5 16.1 11.5 16.1 11.5 16.1 7.2 5.7 7.2 5.7ZM19.7 2.4C19.7 2.4 19.5 2.4 19.5 2.4 18.5 2.4 17.7 3.1 17.6 4 17.6 4.1 17.6 4.2 17.6 4.2 17.5 5.3 18.3 6.2 19.3 6.3 20.4 6.3 21.3 5.6 21.4 4.5 21.4 4.5 21.4 4.5 21.4 4.5 21.5 3.5 20.8 2.5 19.7 2.4ZM31.8 8.9C31.8 8.9 27.4 19.3 27.4 19.3 27.4 19.3 27.5 19.3 27.5 19.3 27.5 19.3 36.1 19.3 36.1 19.3 36.1 19.3 31.8 8.9 31.8 8.9ZM15.5 26.7C15.5 26.7 24.1 26.7 24.1 26.7 24.2 26.7 24.3 26.7 24.3 26.7 25 26.8 25.4 27.3 25.4 27.9 25.3 28.6 24.8 29.1 24.1 29 24.1 29 15.5 29 15.5 29 15.5 29 15.4 29 15.3 29 14.7 28.9 14.2 28.4 14.3 27.8 14.3 27.1 14.9 26.6 15.5 26.7Z"/></svg>