<svg id="Layer_1" data-name="Layer 1" xmlns="http://www.w3.org/2000/svg" viewBox="0 0 57.95 37.2"><defs><style>.cls-1{fill:#1d1d1b;}</style></defs><title>creditcard</title><path class="cls-1" d="M50.68,0H7.27A7.28,7.28,0,0,0,0,7.27V29.93A7.28,7.28,0,0,0,7.27,37.2H50.68a7.28,7.28,0,0,0,7.27-7.27V7.27A7.28,7.28,0,0,0,50.68,0ZM7.27,2.83H50.68a4.44,4.44,0,0,1,4.43,4.43v15H2.83v-15A4.44,4.44,0,0,1,7.27,2.83ZM50.68,34.36H7.27a4.44,4.44,0,0,1-4.43-4.43v-2H55.11v2A4.44,4.44,0,0,1,50.68,34.36Z"/><path class="cls-1" d="M11.65,11.08h4.92a1.42,1.42,0,1,0,0-2.83H11.65A1.42,1.42,0,1,0,11.65,11.08Z"/><path class="cls-1" d="M11.65,16h4.92a1.42,1.42,0,1,0,0-2.83H11.65A1.42,1.42,0,1,0,11.65,16Z"/></svg>