<?xml version="1.0" encoding="utf-8"?>
<svg xmlns="http://www.w3.org/2000/svg"
	xmlns:xlink="http://www.w3.org/1999/xlink"
	viewBox="0 0 41 40">
<path fillRule="evenodd" d="M 38.23 2.6C 34.79-0.85 29.19-0.85 25.74 2.6 25.74 2.6 2.84 25.48 2.84 25.48 2.66 25.66 2.55 25.89 2.52 26.14 2.52 26.14 0.82 38.7 0.82 38.7 0.77 39.05 0.9 39.41 1.15 39.66 1.36 39.87 1.66 40 1.96 40 2.01 40 2.06 40 2.11 39.99 2.11 39.99 9.68 38.97 9.68 38.97 10.31 38.88 10.75 38.3 10.67 37.67 10.58 37.04 10 36.6 9.37 36.69 9.37 36.69 3.3 37.5 3.3 37.5 3.3 37.5 4.49 28.74 4.49 28.74 4.49 28.74 13.71 37.96 13.71 37.96 13.93 38.18 14.22 38.3 14.52 38.3 14.82 38.3 15.12 38.19 15.33 37.96 15.33 37.96 38.23 15.08 38.23 15.08 39.9 13.41 40.82 11.2 40.82 8.84 40.82 6.48 39.9 4.26 38.23 2.6ZM 26.18 5.41C 26.18 5.41 30.03 9.26 30.03 9.26 30.03 9.26 9.13 30.14 9.13 30.14 9.13 30.14 5.29 26.3 5.29 26.3 5.29 26.3 26.18 5.41 26.18 5.41ZM 14.53 35.53C 14.53 35.53 10.77 31.77 10.77 31.77 10.77 31.77 31.67 10.88 31.67 10.88 31.67 10.88 35.43 14.64 35.43 14.64 35.43 14.64 14.53 35.53 14.53 35.53ZM 37.03 13C 37.03 13 27.83 3.8 27.83 3.8 29 2.84 30.46 2.31 31.99 2.31 33.74 2.31 35.37 2.99 36.61 4.22 37.85 5.45 38.52 7.09 38.52 8.84 38.52 10.38 37.99 11.83 37.03 13Z"/></svg>