<?xml version="1.0" encoding="utf-8"?>
<svg xmlns="http://www.w3.org/2000/svg"
	xmlns:xlink="http://www.w3.org/1999/xlink"
	width="18px" height="36px" viewBox="0 0 18 36">
<path fillRule="evenodd" d="M 11.55 36.01C 11.55 36.01 11.55 17.43 11.55 17.43 11.55 17.43 17.01 17.43 17.01 17.43 17.01 17.43 17.8 11.81 17.8 11.81 17.8 11.81 11.55 11.81 11.55 11.81 11.55 11.81 11.55 9.09 11.55 9.09 11.55 7.23 12.5 5.6 15.06 5.6 15.06 5.6 18.02 5.6 18.02 5.6 18.02 5.6 18.02 0.24 18.02 0.24 17.45 0.16 15.57-0.01 13.31-0.01 8.6-0.01 5.11 2.97 5.11 8.45 5.11 8.45 5.11 11.81 5.11 11.81 5.11 11.81-0.01 11.81-0.01 11.81-0.01 11.81-0.01 17.43-0.01 17.43-0.01 17.43 5.11 17.43 5.11 17.43 5.11 17.43 5.11 36.01 5.11 36.01 5.11 36.01 11.55 36.01 11.55 36.01Z" fill="rgb(255,255,255)"/></svg>