<svg xmlns="http://www.w3.org/2000/svg" width="44" height="42">
  <path d="M42.49 21.15h-1.26V40.5c0 .83-.67 1.5-1.5 1.5H4.32a1.5 1.5 0 0 1-1.5-1.5V21.15H1.51A1.5 1.5 0 0 1 0 19.65V9.88c0-.83.68-1.5 1.51-1.5H8.6a5.7 5.7 0 0 1-.71-2.69A5.72 5.72 0 0 1 13.63 0c4.33 0 6.96 3.23 8.4 5.93C23.47 3.23 26.09 0 30.42 0a5.72 5.72 0 0 1 5.74 5.69 5.7 5.7 0 0 1-.71 2.69h7.04c.83 0 1.51.67 1.51 1.5v9.77c0 .83-.68 1.5-1.51 1.5zm-4.27 17.86V21.15H23.53v17.86h14.69zm-32.39 0h14.69V21.15H5.83v17.86zm7.8-36.02a2.75 2.75 0 0 0-2.72 2.7c0 1.5 1.17 2.69 2.66 2.69h6.3c-.95-2.15-2.93-5.39-6.24-5.39zm-.05 8.38H3.02v6.79h17.5v-6.79h-6.94zm16.84-8.38c-3.33 0-5.3 3.24-6.25 5.39h6.31a2.65 2.65 0 0 0 2.66-2.69c0-1.46-1.24-2.7-2.72-2.7zm10.56 8.38H30.47h-6.94v6.79h17.45v-6.79z"/>
</svg>
