<svg xmlns="http://www.w3.org/2000/svg" viewBox="0 0 885.8 380.9">
  <title>giropay</title>
  <path fill="#000268" d="M0 68.3C0 30.6 30.8 0 68.7 0h748.5c38 0 68.7 30.6 68.7 68.3v244.2c0 37.7-30.8 68.3-68.8 68.3H68.7c-38 0-68.7-30.5-68.7-68.2V68.3z"/>
  <path fill="#FFF" d="M28.2 70.7v239.6c0 23.6 19.2 42.7 43 42.7h392V28h-392c-23.8 0-43 19-43 42.7zm536.4 118.6c0 15.3-7.5 25.7-20 25.7-11 0-20.2-10.5-20.2-24.5 0-14.3 8-25 20.2-25 12.8 0 20 11 20 23.8zm-73.4 87.5h33v-52h.5c6.3 11.4 18.8 15.6 30.3 15.6 28.5 0 43.7-23.5 43.7-51.8 0-23.2-14.5-48.3-41-48.3-15 0-29 6-35.7 19.5h-.4v-17.3H491v134.3zm152.7-69c0-9.2 8.7-12.7 20-12.7 5 0 9.6.4 14 .6 0 11.2-8 22.6-20.5 22.6-7.7 0-13.6-3.7-13.6-10.4zm66.7 30.4c-1.5-7.5-1.8-15-1.8-22.6V180c0-29.3-21.2-39.8-45.7-39.8-14 0-26.5 2-38.2 6.8l.7 22.4c9.2-5.2 19.8-7.2 30.5-7.2 12 0 21.7 3.5 22 16.6-4.3-.7-10.2-1.3-15.5-1.3-17.6 0-49.4 3.5-49.4 32.7 0 20.8 17 30 35.8 30 13.7 0 23-5.2 30.4-17.2h.4c0 5 .5 10 .7 15h30.2zm14.8 38.6c6.8 1.5 13.6 2.2 20.6 2.2 30.4 0 37.6-23.4 47-47.4l35-89h-33L775.3 205h-.3l-20.6-62.5h-35.6l38.8 98c-2.4 8.5-8.6 13.2-16.7 13.2-4.7 0-8.7-.6-13.2-2l-2.3 25z"/>
  <path fill="#FF0007" d="M109 189.5c0-13 6.4-24 18.8-24 15 0 21 12 21 22.7 0 14.7-9.3 24.6-21 24.6-10 0-18.8-8.4-18.8-23.3zm72-47h-30v17.2h-.4c-7-11.8-18.4-19.5-32.5-19.5-29.7 0-43 21.3-43 49.8 0 28.3 16.3 48.2 42.5 48.2 13.3 0 24.3-5.2 32.2-16.4h.4v5.2c0 18.7-10.2 27.7-29.3 27.7-13.8 0-22.3-3-32.4-8L86.6 273c7.7 2.7 20.8 6 36.6 6 38.6 0 57.7-12.7 57.7-52v-84.6zm55.8-40h-33v24.3h33v-24.3zm-33 135.7h33v-95.8h-33v95.8zm125-97c-3.2-.4-7.3-1-11-1-14.4 0-22.7 7.7-28.4 20h-.4v-17.7h-30v95.8h33V198c0-19 8.7-30 24-30 4 0 7.6 0 11.3 1l1.6-27.7zm57 76c-15.2 0-21.4-12.7-21.4-26.8 0-14.3 6.2-27 21.5-27 15.2 0 21.4 12.7 21.4 27 0 14-6.3 26.8-21.5 26.8zm0 23.2c31.7 0 55.8-18.4 55.8-50 0-31.8-24-50.2-55.7-50.2-31.7 0-55.8 18.4-55.8 50.2 0 31.6 24 50 55.7 50z"/>
</svg>
