<svg xmlns="http://www.w3.org/2000/svg" width="512" height="202" viewBox="0 0 512 202">
  <path fill="#0D006A" d="M512 162c0 22-18 40-40 40H40c-22 0-40-18-40-40V40C0 18 18 0 40 0h432c22 0 40 18 40 40v122z"/>
  <path fill="#FFF" d="M378.2 128.6l13.6-70H368L350 152h43.4l4.3-23.4h-19.5zM448 79.2c4 0 9.5 1 13 2l4-21.4c-5-.8-10.4-1.3-16.3-1.3-25.8 0-38 15.4-38 32.6 0 22.8 23 22.5 23 32 0 5-3.4 7.6-10.7 7.6-5 0-12-1.2-16.3-2.8l-4.4 23c4.8 1 11.6 1.7 18.4 1.7 23 0 39.2-15.4 39.2-34 0-21.8-23.3-22.2-23.3-31.8 0-4.3 3-7.4 11.2-7.4M331 58.7c-35.4 0-58.2 26.5-58.2 59 0 20.5 10.8 34.5 38 34.5 10.6 0 22-2 31-5.8l8.6-45h-23.8l-5 27.4c-2.2.5-4.7.7-6.6.7-12 0-16.2-6.6-16.2-15.3 0-16.2 10-33 30.2-33 5.7 0 12 1 17.5 2.8l1.8.5 5 2 4.8-24.3c-8-2-18-3.4-27-3.4"/>
  <path fill="#FDBD10" d="M153.3 59L147 90h44c-36.7 54-109 44.8-128 22.4C46.2 93 60.5 60 109.3 39.7 61.2 54.3 34 93 50 119c18 29.5 74.5 41.8 124.6 27.5 33.5-11.8 47.8-28.3 53-37l-8.2 42.8h33L270 59H153h.3z"/>
</svg>
