<svg xmlns="http://www.w3.org/2000/svg" viewBox="0 0 654.4509 218.5907">
  <title>GLS</title>
  <path fill="#1C146B" d="M0 0h654.5v218.6H0z"/>
  <path fill="#FFF" d="M255.4 157.2c-2-.8-4-1.4-6-1.4-6 0-10.2 5.3-10.2 11.8 0 3 1.8 5.8 6.3 5.8 1.4 0 2.7-.3 3.8-.5l1.6-8.6h3.6l-2 11c-2.5 1-5.5 1.5-8 1.5-6.2 0-9.4-4-9.4-9.2 0-8.8 6.3-15.2 15-15.2 2 0 4.4.3 6.3.8l-1 3.8zM261.2 169.2v1.8c0 2 .8 3 3.5 3 1.6 0 3.2-.6 4.8-1v2.8c-2 .8-3.7 1-6 1-4 0-6-1.8-6-5.8 0-7 4-12.2 9.6-12.2 3.8 0 5.2 2 5.2 4.2 0 3.8-3.8 6-11 6.2zm5.4-7.5c-2.4 0-4 2-4.8 4.8 4.5 0 7-1 7-3.2 0-1-1-1.6-2.2-1.6M288 176.6h-3.6l2-11.2c.4-2.4 0-3.5-1.2-3.5-3 0-6 6.4-7 10.3l-.7 4.3h-3.7l1.8-9c.6-3 1-6.2 1.4-8.6h3.7c-.3 1.3-.8 3.2-2 6.4 2-3.5 4.4-6.6 7.8-6.6 3.2 0 4.3 2.3 3.5 5.8l-2 12zM297 169.2v1.8c0 2 .7 3 3.4 3 1.6 0 3.2-.6 4.8-1v2.8c-2 .8-3.7 1-6 1-4.2 0-6-1.8-6-5.8 0-7 4-12.2 9.6-12.2 3.7 0 5 2 5 4.2 0 3.8-3.7 6-11 6.2zm5.3-7.5c-2.4 0-4 2-5 4.8 5 0 7-1 7-3.2 0-1-.7-1.6-2-1.6M321.7 162.5c-3-.8-6 4.8-7.2 10l-.5 4h-3.8l1.6-9c.6-2.6 1-5.8 1.6-8.5h3.5c-.4 1.6-.6 3.2-1.7 6.2 2-4 4-7 7-6.4l-.6 3.7zM336.3 176.6h-3.7l1.8-6.4c-1.3 2.7-3.7 6.7-7.7 6.7-2.4 0-3.7-1.7-3.7-5.5 0-6.3 3.2-12.7 10.6-12.7 2.2 0 4 .2 6 .5-2 9-2.5 13-3.3 17.3zm-3.2-15c-4.4 0-6.3 5.2-6.3 9.4 0 2 .6 2.7 1.6 2.7 2.7 0 6-6.4 6.7-10.4l.3-1c-.6-.4-1.4-.6-2.2-.6M345 176.6h-3.6l4.5-24h3.4l-4.3 24zM370.6 176.6h-11.4l4.5-24h3.5l-3.7 20.5h7.7l-.6 3.6zM380.2 177c-4.5 0-6.3-2.3-6.3-6.3 0-7.2 4.4-12 10-12 4.5 0 6.4 2.7 6.4 6.5 0 7-4.8 11.7-10.2 11.7zm3.2-15c-3.7 0-5.8 4.2-5.8 8.2 0 2 .8 3.5 3.2 3.5 3.2 0 5.8-3.5 5.8-8 0-2.4-1-3.8-3.2-3.8M406 178c-.7 4.4-3.6 7.4-10 7.4-2 0-3.5-.3-4.8-.8l.8-3.5c1.3 1 3 1.2 4.5 1.2 3.4 0 5.6-1.3 6-4.8l2-7.2c-1.4 2.7-3.8 6.7-7.5 6.7-2.7 0-4-1.7-4-5.5 0-6.3 3.5-12.7 11-12.7 1.8 0 3.7.2 5.5.5L406 178zm-3-16.3c-4.4 0-6.3 5-6.3 9.3 0 2 .6 2.7 1.6 2.7 3 0 6.2-6.4 7-10.4l.2-1c-.8-.4-1.3-.6-2.4-.6M415 176.6h-3.6L415 159h3.3l-3.2 17.6zm2.3-20c-1.4 0-2.2-1-2.2-2.4 0-1.3 1.2-2.4 2.5-2.4s2.4 1 2 2.2c0 1.6-1 2.6-2.2 2.6M431.4 162c-.6-.3-1.6-.3-2.4-.3-2 0-3 .8-3 2 0 2.8 4.8 3.6 4.8 7.3 0 3-2.4 6-7.4 6-1.4 0-2.2 0-3-.4l.6-3.2c.8.3 1.8.5 2.6.5 2.2 0 3.5-1 3.5-2.5 0-2.6-4.7-3-4.7-7 0-3.4 2.4-5.7 7-5.7l2.8.2-.6 3zM446 162h-4.3l-1.5 8.5c-.6 2.6-.3 3.2 1.3 3.2 1 0 1.6 0 2.4-.3l-.4 3.2c-1 .3-2.4.3-3.4.3-3.5 0-4.6-1.7-3.8-6l1.6-9h-3.2l.5-3h3.3l1-5.3 3.7-.8-1 6h4.2l-.5 3zM451.6 176.6H448l3-17.6h3.8l-3.2 17.6zm2-20c-1.2 0-2-1-2-2.4 0-1.3 1-2.4 2.4-2.4s2 1 2 2.2c0 1.6-1 2.6-2.3 2.6M470 162.5c-1-.3-1.6-.6-3-.6-4 0-5.6 4.5-5.6 8.2 0 1.6.6 3.5 3.2 3.5 1.4 0 2.7-.3 3.5-.8l-.2 3c-1 .6-2.6 1-4.2 1-4.6 0-6.2-2.5-6.2-6 0-6.6 3.8-12.2 10-12.2 1.2 0 2.3.2 3.6.5l-1 3.2zM482.5 162c-.6-.3-1.6-.3-2.4-.3-1.8 0-2.8.8-2.8 2 0 2.8 4.7 3.6 4.7 7.3 0 3-2.7 6-7.5 6-1.4 0-2.2 0-3-.4l.6-3.2c1 .3 2 .5 2.8.5 2 0 3.4-1 3.4-2.5 0-2.6-4.8-3-4.8-7 0-3.4 2.4-5.7 7-5.7l3 .2-1 3zM507.7 156.4c-1-.6-2.3-.6-3-.6-3.3 0-5 1.6-5 3.5 0 4 7 4 7 9.6 0 4.4-3.7 8-9.3 8-1.4 0-2.7 0-4-.7l.8-3.4c1 0 2.4.7 3.4.7 3.5 0 5-1.6 5-4 0-4-6.6-4-6.6-9.6 0-4 3-7.4 8.8-7.4 1 0 2.4 0 3.5.3l-.6 3.4zM513.6 182.2c-2 2-4.3 3.2-6.4 3.2-.8 0-1.8 0-2.6-.3l.8-3 2 .2c1 0 2.5-.5 3.6-2 1-1 1.6-2.5 1.6-5 0-4.7-.8-10.3-2.4-16.2h4c1 4.3 1.8 9.6 1.8 13.3l-.2 2c2.6-5 4.7-9.7 7-15.8l3.6 1c-4.5 11-8.8 18.4-12.8 22.7M537 162c-.8-.3-1.6-.3-2.4-.3-2 0-3 .8-3 2 0 2.8 5 3.6 5 7.3 0 3-2.8 6-7.8 6-1 0-2 0-3-.4l1-3.2c.7.3 1.5.5 2.5.5 2.2 0 3.5-1 3.5-2.5 0-2.6-4.8-3-4.8-7 0-3.4 2-5.7 7-5.7l2.8.2-.8 3zM551.7 162h-4.3l-1.6 8.5c-.5 2.6-.3 3.2 1.4 3.2.8 0 1.6 0 2-.3l-.2 3.2c-1 .3-2 .3-3.2.3-3.4 0-4.5-1.7-3.7-6l1.7-9h-3.2l.6-3h3.2l1-5.3 3.8-.8-1 6h4.2l-.5 3zM557.5 169.2c-.2.5-.2 1.3-.2 1.8 0 2 .8 3 3.4 3 1.6 0 3.5-.6 4.8-1v2.8c-1.6.8-3.7 1-6 1-4 0-6-1.8-6-5.8 0-7 4-12.2 9.6-12.2 4 0 5.5 2 5.5 4.2 0 3.8-4 6-11 6.2zm5-7.5c-2.3 0-4 2-4.7 4.8 4.8 0 7-1 7-3.2 0-1-1-1.6-2.2-1.6M594 176.6h-3.4l2-11.2c.4-2.4 0-3.5-1.2-3.5-2.2 0-6 5.3-6.7 10.3l-.8 4.3H580l2-11.2c.6-2.4 0-3.5-1-3.5-2.6 0-6 6-7 10.3l-.7 4.3H570l1.6-9c.6-3 1-6.2 1.6-8.6h3.5c-.3 1.3-.5 3.2-1.6 6.4 1.7-3.5 4-6.6 7.6-6.6 2 0 3.4 1.3 3.4 3.4 0 .8-.2 2-.8 3.2 1.6-3.5 4.3-6.6 7.5-6.6s4.2 2.3 3.7 5.8l-2.4 12zM610.5 162c-.8-.3-1.6-.3-2.4-.3-2 0-3 .8-3 2 0 2.8 4.7 3.6 4.7 7.3 0 3-2.4 6-7.4 6-1 0-2.2 0-3-.4l.6-3.2c1 .3 1.7.5 2.8.5 2 0 3.2-1 3.2-2.5 0-2.6-4.8-3-4.8-7 0-3.4 2.4-5.7 7-5.7l2.8.2-.5 3z"/>
  <path fill="#FFF" d="M255.4 157.2c-2-.8-4-1.4-6-1.4-6 0-10.2 5.3-10.2 11.8 0 3 1.8 5.8 6.3 5.8 1.4 0 2.7-.3 3.8-.5l1.6-8.6h3.6l-2 11c-2.5 1-5.5 1.5-8 1.5-6.2 0-9.4-4-9.4-9.2 0-8.8 6.3-15.2 15-15.2 2 0 4.4.3 6.3.8l-1 3.8zM261.2 169.2v1.8c0 2 .8 3 3.5 3 1.6 0 3.2-.6 4.8-1v2.8c-2 .8-3.7 1-6 1-4 0-6-1.8-6-5.8 0-7 4-12.2 9.6-12.2 3.8 0 5.2 2 5.2 4.2 0 3.8-3.8 6-11 6.2zm5.4-7.5c-2.4 0-4 2-4.8 4.8 4.5 0 7-1 7-3.2 0-1-1-1.6-2.2-1.6M288 176.6h-3.6l2-11.2c.4-2.4 0-3.5-1.2-3.5-3 0-6 6.4-7 10.3l-.7 4.3h-3.7l1.8-9c.6-3 1-6.2 1.4-8.6h3.7c-.3 1.3-.8 3.2-2 6.4 2-3.5 4.4-6.6 7.8-6.6 3.2 0 4.3 2.3 3.5 5.8l-2 12zM297 169.2v1.8c0 2 .7 3 3.4 3 1.6 0 3.2-.6 4.8-1v2.8c-2 .8-3.7 1-6 1-4.2 0-6-1.8-6-5.8 0-7 4-12.2 9.6-12.2 3.7 0 5 2 5 4.2 0 3.8-3.7 6-11 6.2zm5.3-7.5c-2.4 0-4 2-5 4.8 5 0 7-1 7-3.2 0-1-.7-1.6-2-1.6M321.7 162.5c-3-.8-6 4.8-7.2 10l-.5 4h-3.8l1.6-9c.6-2.6 1-5.8 1.6-8.5h3.5c-.4 1.6-.6 3.2-1.7 6.2 2-4 4-7 7-6.4l-.6 3.7zM336.3 176.6h-3.7l1.8-6.4c-1.3 2.7-3.7 6.7-7.7 6.7-2.4 0-3.7-1.7-3.7-5.5 0-6.3 3.2-12.7 10.6-12.7 2.2 0 4 .2 6 .5-2 9-2.5 13-3.3 17.3zm-3.2-15c-4.4 0-6.3 5.2-6.3 9.4 0 2 .6 2.7 1.6 2.7 2.7 0 6-6.4 6.7-10.4l.3-1c-.6-.4-1.4-.6-2.2-.6M345 176.6h-3.6l4.5-24h3.4l-4.3 24zM370.6 176.6h-11.4l4.5-24h3.5l-3.7 20.5h7.7l-.6 3.6zM380.2 177c-4.5 0-6.3-2.3-6.3-6.3 0-7.2 4.4-12 10-12 4.5 0 6.4 2.7 6.4 6.5 0 7-4.8 11.7-10.2 11.7zm3.2-15c-3.7 0-5.8 4.2-5.8 8.2 0 2 .8 3.5 3.2 3.5 3.2 0 5.8-3.5 5.8-8 0-2.4-1-3.8-3.2-3.8M406 178c-.7 4.4-3.6 7.4-10 7.4-2 0-3.5-.3-4.8-.8l.8-3.5c1.3 1 3 1.2 4.5 1.2 3.4 0 5.6-1.3 6-4.8l2-7.2c-1.4 2.7-3.8 6.7-7.5 6.7-2.7 0-4-1.7-4-5.5 0-6.3 3.5-12.7 11-12.7 1.8 0 3.7.2 5.5.5L406 178zm-3-16.3c-4.4 0-6.3 5-6.3 9.3 0 2 .6 2.7 1.6 2.7 3 0 6.2-6.4 7-10.4l.2-1c-.8-.4-1.3-.6-2.4-.6M415 176.6h-3.6L415 159h3.3l-3.2 17.6zm2.3-20c-1.4 0-2.2-1-2.2-2.4 0-1.3 1.2-2.4 2.5-2.4s2.4 1 2 2.2c0 1.6-1 2.6-2.2 2.6M431.4 162c-.6-.3-1.6-.3-2.4-.3-2 0-3 .8-3 2 0 2.8 4.8 3.6 4.8 7.3 0 3-2.4 6-7.4 6-1.4 0-2.2 0-3-.4l.6-3.2c.8.3 1.8.5 2.6.5 2.2 0 3.5-1 3.5-2.5 0-2.6-4.7-3-4.7-7 0-3.4 2.4-5.7 7-5.7l2.8.2-.6 3zM446 162h-4.3l-1.5 8.5c-.6 2.6-.3 3.2 1.3 3.2 1 0 1.6 0 2.4-.3l-.4 3.2c-1 .3-2.4.3-3.4.3-3.5 0-4.6-1.7-3.8-6l1.6-9h-3.2l.5-3h3.3l1-5.3 3.7-.8-1 6h4.2l-.5 3zM451.6 176.6H448l3-17.6h3.8l-3.2 17.6zm2-20c-1.2 0-2-1-2-2.4 0-1.3 1-2.4 2.4-2.4s2 1 2 2.2c0 1.6-1 2.6-2.3 2.6M470 162.5c-1-.3-1.6-.6-3-.6-4 0-5.6 4.5-5.6 8.2 0 1.6.6 3.5 3.2 3.5 1.4 0 2.7-.3 3.5-.8l-.2 3c-1 .6-2.6 1-4.2 1-4.6 0-6.2-2.5-6.2-6 0-6.6 3.8-12.2 10-12.2 1.2 0 2.3.2 3.6.5l-1 3.2zM482.5 162c-.6-.3-1.6-.3-2.4-.3-1.8 0-2.8.8-2.8 2 0 2.8 4.7 3.6 4.7 7.3 0 3-2.7 6-7.5 6-1.4 0-2.2 0-3-.4l.6-3.2c1 .3 2 .5 2.8.5 2 0 3.4-1 3.4-2.5 0-2.6-4.8-3-4.8-7 0-3.4 2.4-5.7 7-5.7l3 .2-1 3zM507.7 156.4c-1-.6-2.3-.6-3-.6-3.3 0-5 1.6-5 3.5 0 4 7 4 7 9.6 0 4.4-3.7 8-9.3 8-1.4 0-2.7 0-4-.7l.8-3.4c1 0 2.4.7 3.4.7 3.5 0 5-1.6 5-4 0-4-6.6-4-6.6-9.6 0-4 3-7.4 8.8-7.4 1 0 2.4 0 3.5.3l-.6 3.4zM513.6 182.2c-2 2-4.3 3.2-6.4 3.2-.8 0-1.8 0-2.6-.3l.8-3 2 .2c1 0 2.5-.5 3.6-2 1-1 1.6-2.5 1.6-5 0-4.7-.8-10.3-2.4-16.2h4c1 4.3 1.8 9.6 1.8 13.3l-.2 2c2.6-5 4.7-9.7 7-15.8l3.6 1c-4.5 11-8.8 18.4-12.8 22.7M537 162c-.8-.3-1.6-.3-2.4-.3-2 0-3 .8-3 2 0 2.8 5 3.6 5 7.3 0 3-2.8 6-7.8 6-1 0-2 0-3-.4l1-3.2c.7.3 1.5.5 2.5.5 2.2 0 3.5-1 3.5-2.5 0-2.6-4.8-3-4.8-7 0-3.4 2-5.7 7-5.7l2.8.2-.8 3zM551.7 162h-4.3l-1.6 8.5c-.5 2.6-.3 3.2 1.4 3.2.8 0 1.6 0 2-.3l-.2 3.2c-1 .3-2 .3-3.2.3-3.4 0-4.5-1.7-3.7-6l1.7-9h-3.2l.6-3h3.2l1-5.3 3.8-.8-1 6h4.2l-.5 3zM557.5 169.2c-.2.5-.2 1.3-.2 1.8 0 2 .8 3 3.4 3 1.6 0 3.5-.6 4.8-1v2.8c-1.6.8-3.7 1-6 1-4 0-6-1.8-6-5.8 0-7 4-12.2 9.6-12.2 4 0 5.5 2 5.5 4.2 0 3.8-4 6-11 6.2zm5-7.5c-2.3 0-4 2-4.7 4.8 4.8 0 7-1 7-3.2 0-1-1-1.6-2.2-1.6M594 176.6h-3.4l2-11.2c.4-2.4 0-3.5-1.2-3.5-2.2 0-6 5.3-6.7 10.3l-.8 4.3H580l2-11.2c.6-2.4 0-3.5-1-3.5-2.6 0-6 6-7 10.3l-.7 4.3H570l1.6-9c.6-3 1-6.2 1.6-8.6h3.5c-.3 1.3-.5 3.2-1.6 6.4 1.7-3.5 4-6.6 7.6-6.6 2 0 3.4 1.3 3.4 3.4 0 .8-.2 2-.8 3.2 1.6-3.5 4.3-6.6 7.5-6.6s4.2 2.3 3.7 5.8l-2.4 12zM610.5 162c-.8-.3-1.6-.3-2.4-.3-2 0-3 .8-3 2 0 2.8 4.7 3.6 4.7 7.3 0 3-2.4 6-7.4 6-1 0-2.2 0-3-.4l.6-3.2c1 .3 1.7.5 2.8.5 2 0 3.2-1 3.2-2.5 0-2.6-4.8-3-4.8-7 0-3.4 2.4-5.7 7-5.7l2.8.2-.5 3zM343.2 113.2l12.3-62.8h-21.3l-16.2 84h38.8l4-21.2h-17.6zM406 69c3.5 0 8.6.8 11.5 2l3.7-19.5c-4.5-.6-9.3-1-14.6-1-23.2 0-34 13.8-34 29.2 0 20.2 20.7 20 20.7 28.7 0 4.3-3.2 6.7-9.6 6.7-4.8 0-11-1-14.6-2.6l-4 20.8c4.3 1 10.5 1.6 16.6 1.6 20.8 0 35-14 35-30.6 0-19.7-20.7-20-20.7-28.8 0-3.7 2.6-6.3 10-6.3M301.2 50.4c-32 0-52.5 24-52.5 53.3 0 18 9.6 30.8 34 30.8 9.7 0 19.8-1.8 28-5.3l7.8-40.5h-21.3l-4.8 24.8c-2 .5-4 .5-6 .5-10.5 0-14.2-5.8-14.2-13.8 0-14.4 8.7-29.6 27-29.6 5.2 0 10.8 1 15.8 2.4.6.3 1 .6 1.6.6 1.6.8 3.2 1.3 4.3 1.8l4.4-21.8c-7.4-2-16.2-3.2-24.2-3.2"/>
  <path fill="#EAAF0F" d="M140.5 50.6l-5.8 27.8h39.6c-32.8 48.6-98 40.4-115 20.2-15-17.3-2.2-47 41.8-65.4-43.4 13.2-67.8 48-53.5 71.4 16.3 26.5 67 37.6 112 24.7 30.2-10.5 43-25.4 47.7-33.4l-7.4 38.5h29.6l16-84h-105z"/>
</svg>
