<svg xmlns="http://www.w3.org/2000/svg" viewBox="0 0 34 36">
  <path d="M34 16.25h-3.75V20h-2.48v-3.75h-3.75v-2.5h3.75V10h2.48v3.76H34v2.5zM17.2 1.7c.3.2.64.46 1 .8.37.38.72.83 1.06 1.37.33.5.62 1.1.87 1.8.2.7.32 1.5.32 2.42-.03 1.68-.4 3.04-1.13 4.05-.35.5-.73.95-1.12 1.36-.44.43-.9.85-1.4 1.28-.28.3-.55.62-.8 1-.27.38-.4.82-.4 1.33 0 .5.13.9.42 1.23.25.3.5.58.72.8l1.6 1.33c1 .8 1.9 1.7 2.65 2.7.7 1 1.07 2.3 1.1 3.92 0 2.28-1.02 4.3-3.05 6.08C16.95 35 13.9 35.94 9.93 36c-3.33-.03-5.8-.74-7.45-2.12C.83 32.58 0 31.05 0 29.26c0-.88.27-1.85.8-2.93.53-1.07 1.48-2.02 2.84-2.83 1.54-.88 3.16-1.46 4.85-1.75 1.67-.25 3.06-.38 4.17-.4-.35-.46-.65-.94-.92-1.45-.3-.5-.47-1.1-.47-1.8 0-.4.06-.75.18-1.03.1-.3.2-.57.3-.8-.55.05-1.06.08-1.54.08-2.52-.03-4.45-.82-5.77-2.38-1.4-1.44-2.08-3.12-2.08-5.04 0-2.33.98-4.43 2.94-6.32C6.67 1.5 8.08.8 9.53.45c1.44-.3 2.8-.44 4.05-.44h9.5l-2.94 1.7H17.2zm-6.16 21.02c-1 .14-2 .36-3.02.67-.24.08-.58.22-1.02.4-.44.2-.9.5-1.34.85-.44.4-.8.87-1.1 1.44-.36.6-.53 1.3-.53 2.15 0 1.66.75 3.03 2.27 4.1 1.43 1.1 3.4 1.64 5.9 1.67 2.23-.03 3.94-.52 5.12-1.48 1.14-.93 1.72-2.14 1.72-3.62 0-1.2-.4-2.24-1.18-3.13-.83-.86-2.13-1.9-3.9-3.13-.3-.03-.66-.05-1.07-.05-.25-.02-.87 0-1.86.1zM15 4.64c-.46-.9-1.05-1.65-1.8-2.22-.74-.54-1.6-.82-2.57-.85-1.28.03-2.35.54-3.2 1.54-.73 1.06-1.07 2.23-1.04 3.53 0 1.7.5 3.5 1.5 5.34.48.86 1.1 1.6 1.88 2.2.77.6 1.65.9 2.64.9 1.25-.05 2.3-.5 3.12-1.35.4-.6.66-1.2.78-1.85.07-.63.1-1.16.1-1.6 0-1.86-.48-3.74-1.43-5.63z"/>
</svg>
