<svg xmlns="http://www.w3.org/2000/svg" viewBox="0 0 36.86 33.41"><path d="M18.43,33.41a1.41,1.41,0,0,1-.77-0.23A64,64,0,0,1,5.15,22.9C3.72,21.38,0,16.35,0,11.32A11.33,11.33,0,0,1,11.32,0a11.2,11.2,0,0,1,7.11,2.52A11.2,11.2,0,0,1,25.54,0,11.33,11.33,0,0,1,36.86,11.32c0,5-3.72,10.06-5.15,11.58A64,64,0,0,1,19.2,33.18,1.41,1.41,0,0,1,18.43,33.41ZM11.32,2.83a8.5,8.5,0,0,0-8.49,8.49c0,3.78,2.95,8.12,4.38,9.63A60.58,60.58,0,0,0,18.43,30.3,60.59,60.59,0,0,0,29.65,21C31.08,19.44,34,15.1,34,11.32a8.48,8.48,0,0,0-14.58-5.9,1.42,1.42,0,0,1-1,.43h0a1.42,1.42,0,0,1-1-.43A8.41,8.41,0,0,0,11.32,2.83Z"/></svg>