<?xml version="1.0" encoding="utf-8"?>
<svg xmlns="http://www.w3.org/2000/svg"
	xmlns:xlink="http://www.w3.org/1999/xlink"
	width="56px" height="49px" viewBox="0 0 56 49">
<path fillRule="evenodd" d="M 51.13 4.95C 48.26 2.07 44.45 0.5 40.39 0.5 36.33 0.5 32.52 2.08 29.64 4.96 29.64 4.96 28.14 6.46 28.14 6.46 28.14 6.46 26.62 4.93 26.62 4.93 23.74 2.06 19.92 0.47 15.86 0.47 11.81 0.47 7.99 2.05 5.13 4.91 2.26 7.78 0.67 11.6 0.68 15.66 0.68 19.72 2.28 23.52 5.15 26.4 5.15 26.4 27 48.25 27 48.25 27.3 48.55 27.71 48.71 28.11 48.71 28.5 48.71 28.91 48.56 29.21 48.26 29.21 48.26 51.11 26.44 51.11 26.44 53.98 23.57 55.56 19.76 55.56 15.69 55.57 11.63 54 7.82 51.13 4.95ZM 48.9 24.22C 48.9 24.22 28.11 44.93 28.11 44.93 28.11 44.93 7.36 24.19 7.36 24.19 5.08 21.91 3.83 18.88 3.83 15.66 3.83 12.44 5.07 9.41 7.35 7.14 9.62 4.88 12.64 3.62 15.86 3.62 19.08 3.62 22.11 4.88 24.39 7.16 24.39 7.16 27.02 9.78 27.02 9.78 27.64 10.4 28.63 10.4 29.25 9.78 29.25 9.78 31.85 7.18 31.85 7.18 34.13 4.9 37.17 3.64 40.38 3.64 43.59 3.64 46.62 4.9 48.9 7.17 51.18 9.45 52.42 12.47 52.42 15.69 52.43 18.92 51.18 21.94 48.9 24.22Z"/></svg>