<svg xmlns="http://www.w3.org/2000/svg" width="172" height="20" viewBox="0 0 1180.800049 180.800003">
  <title>Hermes</title>
  <linearGradient id="a" x1="28.14" x2="258.12" y1="655.28" y2="629.38" gradientUnits="userSpaceOnUse" gradientTransform="translate(0 -618.385)">
    <stop offset="0" stop-color="#EEF7FE"/>
    <stop offset="1" stop-color="#1E97D0"/>
  </linearGradient>
  <path fill="url(#a)" d="M243.5 52.7L257 0H0l44.4 52.7h199.1z"/>
  <linearGradient id="b" x1="91.89" x2="137.32" y1="560.61" y2="605.08" gradientUnits="userSpaceOnUse" gradientTransform="translate(-91.178 -553.11)">
    <stop offset="0" stop-color="#D6E9F7"/>
    <stop offset="1" stop-color="#48A2D7"/>
  </linearGradient>
  <path fill="url(#b)" d="M0 13.6l40.9 39.1h3.5L0 0v13.6z"/>
  <linearGradient id="c" x1="-106.69" x2="40.92" y1="744.14" y2="712.53" gradientUnits="userSpaceOnUse" gradientTransform="translate(200.488 -644.288)">
    <stop offset="0" stop-color="#D4EAF7"/>
    <stop offset="1" stop-color="#1493C5"/>
  </linearGradient>
  <path fill="url(#c)" d="M108.3 114.5L64.8 62.9h175.6l-13 51.5H108.3v.1z"/>
  <linearGradient id="d" x1="-81.6" x2="-37.09" y1="735.33" y2="787.38" gradientUnits="userSpaceOnUse" gradientTransform="translate(142.984 -669.932)">
    <stop offset="0" stop-color="#D9EBF7"/>
    <stop offset="1" stop-color="#318ABB"/>
  </linearGradient>
  <path fill="url(#d)" d="M105.2 114.5L64.8 75.9v-13l43.5 51.5h-3.1v.1z"/>
  <linearGradient id="e" x1="94.21" x2="156.12" y1="819.42" y2="789.49" gradientUnits="userSpaceOnUse" gradientTransform="translate(68.502 -660.878)">
    <stop offset="0" stop-color="#9DC4DF"/>
    <stop offset="1" stop-color="#137EAB"/>
  </linearGradient>
  <path fill="url(#e)" d="M180.5 179.2l-44-51.8h87.6l-13.5 51.8h-30.1z"/>
  <linearGradient id="f" x1="83.01" x2="128.05" y1="786.89" y2="839.69" gradientUnits="userSpaceOnUse" gradientTransform="translate(49.82 -657.24)">
    <stop offset="0" stop-color="#DEEEF8"/>
    <stop offset="1" stop-color="#3586B3"/>
  </linearGradient>
  <path fill="url(#f)" d="M136.5 140.4l41.4 38.9h2.6l-44-51.8v12.9z"/>
  <path fill="#646368" d="M219.5 179.2h24.9l13.2-51.7h-24.9l-13.2 51.7zM236.3 114h24.5L274 63.2h-24.9L236.3 114z"/>
  <linearGradient id="g" x1="339.4" x2="339.4" y1="763.87" y2="711.67" gradientUnits="userSpaceOnUse" gradientTransform="translate(-67.953 -711.37)">
    <stop offset="0" stop-color="#6B6A6F"/>
    <stop offset="1" stop-color="#EAEBED"/>
  </linearGradient>
  <path fill="url(#g)" d="M252.5 52.5h25.1L290.4.3h-25.1l-12.8 52.2z"/>
  <path fill="#484649" d="M488.4 179.4c-11.9-2.7-18.2-7.6-23.1-18.1-2.7-5.7-2.8-6.7-2.7-19.5.1-9.9.7-16.3 2.3-24 5.2-24.3 16.3-51.2 25.6-61.7 10.4-11.7 24.1-17.7 45-19.4 20.1-1.6 37 .9 45.3 6.9C589.1 49.9 592 57 592 72.1c0 11-2.9 27.2-6.2 34.9-3.4 7.9-3 7.9-45.7 7.9H503l-1 3.8c-4.7 17.6-3.9 25.1 3.1 29.6 5.1 3.3 23 4.5 37.4 2.5 10.8-1.5 18-4.4 23.5-9.6 7.7-7.2 8.2-6.3 4.4 8.3-6.3 23.8-7.4 25.7-17.7 29-7.2 2.4-55 3-64.3.9zm71.4-91.3c2.8-11.2 2.1-17-2.6-21.5-7.1-6.7-25.6-6.4-34.8.7-4.1 3.1-8 9.5-11.1 18.2l-2.3 6.4h49.8l1-3.8zm383.3 90.7c-10.4-2.7-15.8-6.8-20.1-15.4l-3.5-6.8v-15.1c0-12.2.5-17.1 2.3-25.6 6-26.7 16-49.6 26.8-61 12.4-13.1 27.2-18.1 53.8-18.2 26.4-.1 38.4 5.1 44.2 19.4 2.7 6.5 2.4 26.4-.5 38.3-2.8 11.3-5.4 17.1-8.3 18.8-1.8 1-11.2 1.5-40.3 1.8l-38 .5-1.8 7c-2.4 9.3-2.5 17.1-.4 21.1 1 1.9 3.5 4 6.4 5.5 4.4 2.2 6 2.4 20.3 2.3 21.2 0 30.8-2.6 39.3-10.4 3.9-3.6 6.7-5.1 6.7-3.5 0 1.9-8.3 31-9.5 33.4-4 7.8-14.8 10.1-46.9 10-19.5-.1-24.3-.4-30.5-2.1zm73.7-92.6c3.6-17.9-2.6-24.9-21.4-24-14.7.7-21.8 6.8-27.6 23.5-1 3-1.9 5.6-1.9 5.8 0 .2 11.2.3 24.9.3h24.9l1.1-5.6zm-724.6 92.5c-1.9-1.9-1.4-7.1 1.7-19.1 14.9-56.5 37.3-144.8 37.4-147.5.1-2.4-.6-3.9-2.1-5.2-1.2-1-2.2-2.5-2.2-3.4 0-1.4 2.5-1.6 21.4-1.6 18.7 0 21.6.2 23.1 1.7 2.3 2.3 1.8 5-6.4 36.5-3.8 14.7-6.7 26.9-6.4 27.2.3.3 12.2.6 26.4.6H411l1-2.2c1.3-2.9 12.8-47.5 13.6-52.4.5-3.2.2-4.2-2-6.2-5.2-4.9-4.4-5.1 19.2-5.1 23.5-.1 24.2 0 24.2 5.2 0 2.4-12.3 51.8-24.5 98.1-14.2 54.2-16.6 64.7-15.5 67.5.6 1.5 1.8 3.1 2.6 3.4.8.3 1.4 1.2 1.4 2.1 0 1.3-2.9 1.5-21.8 1.5-23.5 0-24.2-.1-24.2-5.3 0-1.6 4.3-19.3 9.5-39.5s9.5-37 9.5-37.8c0-1.1-5-1.3-26.8-1.3h-26.8l-9.3 36.7c-5.1 20.2-9.3 37.6-9.2 38.5s1.1 2.8 2.3 4.1 2.1 2.8 1.9 3.5c-.5 1.7-42.3 1.7-43.9 0zm304.3-.4c-.9-.9-1.6-2.2-1.6-2.9s7.4-30.2 16.5-65.6c15.3-59.9 16.4-64.5 15-66.6-.8-1.3-2-2.3-2.5-2.3s-1-.7-1-1.5c0-1.3 2.8-1.5 19.3-1.5 25.3 0 24.4-.8 20 17-.4 1.6 1.3 0 4.7-4.5 2.9-3.8 6.4-8.2 7.8-9.8l2.5-2.8H695c9.8 0 17.8.3 17.8.7 0 2.2-5.5 21.2-6.7 23-2.2 3.5-5.9 4.2-21.8 4.6-12.9.3-15.6.6-19 2.4-7.2 3.7-8.4 7-20.9 54.9-6.3 24.2-11.7 45.2-12 46.7-.5 2 0 3.4 1.9 5.6 1.4 1.6 2.5 3.2 2.5 3.6s-8.7.6-19.4.6c-16.2 0-19.5-.3-20.9-1.6zm102 0c-.9-.9-1.6-2.1-1.6-2.8 0-.6 7.2-29.5 16.1-64.2 8.9-34.7 16.1-64.1 16.1-65.4 0-1.3-.9-3.2-2.1-4.2-4.4-3.5-2.8-3.9 17.3-3.9 24.3 0 24.8.3 21 12.9-.9 2.9-1.4 5.5-1.2 5.7s1.9-1.7 3.8-4.3c10.4-14.5 12.1-15.2 34.5-15.3 16.7 0 17.2 0 22.5 2.7 5.6 2.8 8.7 7.1 10.6 15l.8 3.3 5.5-8.2c8.3-12.4 9.2-12.7 32-12.8 17.3 0 18.8.1 23.5 2.3 2.8 1.3 5.8 3.2 6.7 4.3 2.8 3.2 4.8 9 4.8 14.3 0 3.1-5.2 25.7-13.5 59.3-7.7 30.8-13.3 55.2-13 56.5.3 1.2 1.5 2.7 2.5 3.3 4.6 2.5 1.5 3-17.8 3-21 0-22.2-.3-22.2-4.8 0-1.3 5.4-23.7 12-49.6 6.6-26 12-48.8 12-50.7 0-7.3-6.3-10.7-17.4-9.4-10.7 1.2-15.3 4.6-19 14-1.6 4.2-22.9 84.2-24.1 90.7-.6 3.2-.3 4 1.9 6.1 1.4 1.3 2.3 2.7 1.9 3-.4.4-9.3.7-19.8.7-20.4 0-21.5-.3-21.5-4.9 0-1.4 5.4-23.5 12-49.3 6.6-25.7 12-48.6 12-50.9 0-7.9-7.4-11.3-19.5-9.1-8 1.5-11.6 3.8-14.7 9.6-2.8 5.3-25.9 91.3-25.9 96.5 0 1.8.7 3.4 2 4.2 1.1.7 2 1.8 2 2.5 0 1-4.5 1.3-19.4 1.3-16.1.2-19.4-.1-20.8-1.4zm356-.8c-1.5-2.3-1.4-3.4 2.7-19.3 3.3-13 4.7-16.9 6-17.2 1.1-.2 2.2.6 2.9 2.2 1.8 3.9 5.1 5.5 14.1 6.7 11.3 1.5 39.2.6 43.9-1.4 4.4-1.9 7.5-6 8.8-11.8 1.1-5 .2-8.3-3.1-10.4-1.3-.8-11.3-4-22.2-7-22-6.1-27.7-8.8-31.4-15.1-2.1-3.6-2.3-4.9-1.9-14 .9-21.1 11-41.5 23.7-48 7.9-4 13.3-4.5 48.9-4.5h33.9l-2.5 9.2c-3 11-4.5 14.3-7.5 16-1.6.9-9.3 1.4-25.8 1.8-20.3.4-23.9.7-26.2 2.3-3.5 2.3-5.4 5.3-6.2 9.8-1.2 6.5 1.3 8.1 23 14.5 26.9 8 32 11 34.5 20.4 2.5 9.3-1.6 33-7.9 46.2-4.3 9.1-9.1 14.2-16.9 18l-6.7 3.3-41.2.3-41.2.3-1.7-2.3z"/>
</svg>
