<svg id="Layer_1" data-name="Layer 1" xmlns="http://www.w3.org/2000/svg" viewBox="0 0 46.83 40.14"><defs><style>.cls-1{fill:#1d1d1b;}</style></defs><title>invoice</title><path class="cls-1" d="M11.41,0V28.6H0v4.47a7.14,7.14,0,0,0,7.12,7.07H39.71A7.13,7.13,0,0,0,46.83,33V0H11.41ZM2.83,33.06V31.43H32.59V33A7.07,7.07,0,0,0,34,37.3H7.12A4.3,4.3,0,0,1,2.83,33.06ZM39.71,37.3A4.29,4.29,0,0,1,35.42,33V28.6H14.25V2.83H44V33A4.29,4.29,0,0,1,39.71,37.3Z"/><path class="cls-1" d="M36.91,12.25H21.33a1.42,1.42,0,1,0,0,2.83H36.91A1.42,1.42,0,1,0,36.91,12.25Z"/><path class="cls-1" d="M36.91,18.89H31.33a1.42,1.42,0,1,0,0,2.83h5.59A1.42,1.42,0,1,0,36.91,18.89Z"/></svg>