<?xml version="1.0" encoding="utf-8"?>
<svg xmlns="http://www.w3.org/2000/svg"
	xmlns:xlink="http://www.w3.org/1999/xlink"
	width="28px" height="22px" viewBox="0 0 28 22">
<path fillRule="evenodd" d="M 23.81 21.09C 23.81 21.09 3.73 21.09 3.73 21.09 1.93 21.09 0.48 19.63 0.48 17.84 0.48 17.84 0.48 4.1 0.48 4.1 0.48 2.31 1.93 0.85 3.73 0.85 3.73 0.85 23.81 0.85 23.81 0.85 25.61 0.85 27.06 2.31 27.06 4.11 27.06 4.11 27.06 17.84 27.06 17.84 27.06 19.63 25.6 21.09 23.81 21.09ZM 25.57 17.84C 25.57 17.84 25.57 4.11 25.57 4.11 25.57 3.13 24.78 2.34 23.81 2.34 23.81 2.34 3.73 2.34 3.73 2.34 2.75 2.34 1.96 3.13 1.96 4.11 1.96 4.11 1.96 17.84 1.96 17.84 1.96 18.81 2.75 19.6 3.73 19.6 3.73 19.6 23.81 19.6 23.81 19.6 24.79 19.6 25.58 18.81 25.58 17.84 25.58 17.84 25.57 17.84 25.57 17.84ZM 23.8 18.05C 23.65 18.21 23.45 18.28 23.26 18.28 23.08 18.28 22.89 18.22 22.75 18.08 22.75 18.08 16.13 11.8 16.13 11.8 16.13 11.8 14.28 13.46 14.28 13.46 14.14 13.58 13.96 13.65 13.79 13.65 13.61 13.65 13.43 13.59 13.29 13.46 13.29 13.46 11.49 11.85 11.49 11.85 11.49 11.85 4.84 18.07 4.84 18.07 4.69 18.21 4.51 18.27 4.33 18.27 4.13 18.27 3.94 18.19 3.79 18.04 3.51 17.73 3.52 17.26 3.82 16.98 3.82 16.98 10.37 10.85 10.37 10.85 10.37 10.85 3.79 4.97 3.79 4.97 3.48 4.69 3.46 4.22 3.73 3.92 4.01 3.61 4.47 3.58 4.78 3.86 4.78 3.86 11.9 10.23 11.9 10.23 11.94 10.26 11.98 10.29 12.02 10.33 12.02 10.34 12.03 10.34 12.03 10.35 12.03 10.35 13.78 11.91 13.78 11.91 13.78 11.91 22.75 3.86 22.75 3.86 23.05 3.58 23.52 3.61 23.8 3.92 24.07 4.22 24.04 4.69 23.74 4.97 23.74 4.97 17.24 10.8 17.24 10.8 17.24 10.8 23.77 17 23.77 17 24.07 17.28 24.08 17.76 23.8 18.05Z" /></svg>