<svg xmlns="http://www.w3.org/2000/svg" width="47" height="42" viewBox="0 0 47 42"><path fillRule="evenodd" d="M46.5 40C45.8 41.2 44.4 42 43 42 43 42 4 42 4 42 2.6 42 1.2 41.2 0.5 40-0.2 38.8-0.2 37.2 0.5 36 0.5 36 20 2 20 2 20.7 0.8 22.1 0 23.5 0 24.9 0 26.3 0.8 27 2 27 2 46.5 36 46.5 36 47.2 37.2 47.2 38.8 46.5 40ZM23.5 4C23.5 4 4 38 4 38 4 38 43 38 43 38 43 38 23.5 4 23.5 4ZM23.5 13C24.9 13 26 14.2 26 15.7 26 15.7 26 25.3 26 25.3 26 26.8 24.9 28 23.5 28 22.1 28 21 26.8 21 25.3 21 25.3 21 15.7 21 15.7 21 14.2 22.1 13 23.5 13ZM23.5 29C24.9 29 26 30.1 26 31.5 26 32.9 24.9 34 23.5 34 22.1 34 21 32.9 21 31.5 21 30.1 22.1 29 23.5 29Z"/></svg>