<svg xmlns="http://www.w3.org/2000/svg" width="45" height="45" viewBox="0 0 45 45"><path fillRule="evenodd" d="M22.5 45C10.1 45 0 34.9 0 22.5 0 10.1 10.1 0 22.5 0 34.9 0 45 10.1 45 22.5 45 34.9 34.9 45 22.5 45ZM22.5 4C12.3 4 4 12.3 4 22.5 4 32.7 12.3 41 22.5 41 32.7 41 41 32.7 41 22.5 41 12.3 32.7 4 22.5 4ZM22.7 30.3C22.3 30.7 21.6 31 20.9 31 20.9 31 20.8 31 20.8 31 20.1 30.9 19.4 30.6 19 30 19 30 13.4 22.8 13.4 22.8 12.6 21.7 13 20.2 14.1 19.4 15.2 18.8 16.7 19 17.5 20 17.5 20 21.3 24.8 21.3 24.8 21.3 24.8 28.8 14.6 28.8 14.6 29.4 14 31 13.6 32.2 14.8 33.9 16.3 32.4 17.9 32.4 17.9 32.4 17.9 22.7 30.3 22.7 30.3Z"/></svg>