<svg xmlns="http://www.w3.org/2000/svg" width="45" height="45" viewBox="0 0 45 45"><path fillRule="evenodd" d="M22.5 45C10.1 45 0 34.9 0 22.5 0 10.1 10.1 0 22.5 0 34.9 0 45 10.1 45 22.5 45 34.9 34.9 45 22.5 45ZM22.5 4C12.3 4 4 12.3 4 22.5 4 32.7 12.3 41 22.5 41 32.7 41 41 32.7 41 22.5 41 12.3 32.7 4 22.5 4ZM22.5 33C21.1 33 20 31.8 20 30.3 20 30.3 20 20.7 20 20.7 20 19.2 21.1 18 22.5 18 23.9 18 25 19.2 25 20.7 25 20.7 25 30.3 25 30.3 25 31.8 23.9 33 22.5 33ZM22.5 17C21.1 17 20 15.9 20 14.5 20 13.1 21.1 12 22.5 12 23.9 12 25 13.1 25 14.5 25 15.9 23.9 17 22.5 17Z"/></svg>