<?xml version="1.0" encoding="utf-8"?>
<!-- Generator: Adobe Illustrator 19.2.0, SVG Export Plug-In . SVG Version: 6.00 Build 0)  -->
<svg version="1.1" id="Layer_1" xmlns="http://www.w3.org/2000/svg" xmlns:xlink="http://www.w3.org/1999/xlink" x="0px" y="0px"
	 viewBox="0 0 80.2 40.8" style="enable-background:new 0 0 80.2 40.8;" xml:space="preserve">
<g>
	<path d="M10.6,16h7.4c0.8,0,1.4-0.6,1.4-1.4s-0.6-1.4-1.4-1.4h-7.4c-0.8,0-1.4,0.6-1.4,1.4S9.8,16,10.6,16z"/>
	<path d="M47.5,13.2h-4.4c-0.8,0-1.4,0.6-1.4,1.4s0.6,1.4,1.4,1.4h4.4c0.8,0,1.4-0.6,1.4-1.4S48.3,13.2,47.5,13.2z"/>
	<path d="M48.9,21.3c0-0.8-0.6-1.4-1.4-1.4H10.6c-0.8,0-1.4,0.6-1.4,1.4s0.6,1.4,1.4,1.4h36.9C48.3,22.7,48.9,22.1,48.9,21.3z"/>
	<path d="M26.1,30.1c-0.8,0-1.4,0.6-1.4,1.4s0.6,1.4,1.4,1.4h17.4c0.8,0,1.4-0.6,1.4-1.4s-0.6-1.4-1.4-1.4H26.1z"/>
	<path d="M78.8,1.5C78.8,1.5,78.8,1.5,78.8,1.5C77.8,0.5,76.6,0,75.2,0s-2.6,0.5-3.5,1.5L69.2,4c0,0,0,0,0,0L50.7,22.5
		c0,0,0,0,0,0.1c-0.1,0.1-0.2,0.2-0.2,0.4c0,0,0,0,0,0.1c0,0,0,0,0,0l-3,8c-0.2,0.5-0.1,1.1,0.3,1.5c0.3,0.3,0.6,0.4,1,0.4
		c0.2,0,0.3,0,0.5-0.1l8-3c0,0,0,0,0,0c0,0,0,0,0.1,0c0.1-0.1,0.3-0.1,0.4-0.3c0,0,0,0,0,0l1.9-1.9v10.3H2.8V6.6h58.3
		c0.8,0,1.4-0.6,1.4-1.4s-0.6-1.4-1.4-1.4H0v37h62.5V25.2c0-0.1,0-0.3-0.1-0.4l13.8-13.8l2.5-2.5C80.7,6.6,80.7,3.4,78.8,1.5z
		 M51.1,29.1l1.1-3.1l1.9,1.9L51.1,29.1z M56.8,26.5l-3.1-3.1L70.2,7l3.1,3.1L56.8,26.5z M76.8,6.5L75.2,8L72.2,5l1.5-1.5
		c0.8-0.8,2.2-0.8,3.1,0C77.6,4.3,77.6,5.7,76.8,6.5z"/>
</g>
</svg>
