<svg id="Layer_1" data-name="Layer 1" xmlns="http://www.w3.org/2000/svg" viewBox="0 0 68.54 60.24"><defs><style>.cls-1{fill:#1d1d1b;}</style></defs><title>on_delivery</title><path class="cls-1" d="M56,38.1L43,31.55l-9.87-2.91a5.82,5.82,0,0,0-6.05,1.62,5.83,5.83,0,0,0,2,9.27L32.17,41,29.75,42.1H23L20.2,35.15a4.22,4.22,0,0,0-8,2.66l1.25,3.5L6,38.17a4.22,4.22,0,0,0-3.77,7.54l9.55,4.4,18.36,5.19h24v4.94H68.54V38.1H56ZM15.11,35.83a1.38,1.38,0,0,1,1-.59,1.42,1.42,0,0,1,1.41.92l2.4,5.94H16.73L14.9,36.94A1.36,1.36,0,0,1,15.11,35.83ZM54.16,52.46H30.51L12.63,47.41,3.48,43.18a1.36,1.36,0,0,1-.62-0.92,1.38,1.38,0,0,1,2-1.5l9.91,4.18H30.35l8.59-3.8L30.24,37a3,3,0,0,1-1.78-2.14,3,3,0,0,1,.72-2.64,3,3,0,0,1,3.13-.83l9.78,2.88,12.07,6.13v12.1ZM65.71,57.4H57V40.94h8.71V57.4Z"/><path class="cls-1" d="M20.82,24.67A12.33,12.33,0,1,0,8.48,12.33,12.35,12.35,0,0,0,20.82,24.67Zm0-21.83a9.5,9.5,0,1,1-9.5,9.5A9.51,9.51,0,0,1,20.82,2.83Z"/><path class="cls-1" d="M22.56,15.63a2.39,2.39,0,0,1-1.42.36,2.45,2.45,0,0,1-1.55-.45A1.66,1.66,0,0,1,19,14.25h-2.3A3,3,0,0,0,17.23,16a3.8,3.8,0,0,0,1.58,1.28,4.93,4.93,0,0,0,1.14.36v1.41h2.17V17.68a4.48,4.48,0,0,0,2.07-.8,2.74,2.74,0,0,0,1.18-2.3A2.59,2.59,0,0,0,25,13.14a3.09,3.09,0,0,0-1.18-1,8.75,8.75,0,0,0-2.18-.73,6.28,6.28,0,0,1-1.85-.61,1,1,0,0,1-.46-0.85,1.14,1.14,0,0,1,.49-1,2.09,2.09,0,0,1,1.27-.36,1.94,1.94,0,0,1,1.34.45,1.46,1.46,0,0,1,.51,1.13h2.36a3,3,0,0,0-1.16-2.42,4.25,4.25,0,0,0-2-.84V5.44H19.95V7H20a4.14,4.14,0,0,0-1.84.81A2.8,2.8,0,0,0,17,10a2.69,2.69,0,0,0,1.77,2.48,8.88,8.88,0,0,0,2,.64,5.53,5.53,0,0,1,1.73.58,1.07,1.07,0,0,1,.52,1A1.1,1.1,0,0,1,22.56,15.63Z"/></svg>