<svg xmlns="http://www.w3.org/2000/svg" viewBox="0 0 1003.4 343.2">
  <title>pay direkt</title>
  <path fill="#0D933A" d="M78 48c-11.2 0-20.7 2.4-28.7 7.2-4.7 2.8-9.3 7.3-13.8 13.2v-16H0v180.2h35.5v-65.3c10.7 12.3 25 18.6 43.2 18.6 15 0 28-4 38.8-12 10.2-7.5 17.3-17.2 21.5-29 2.5 7 6 13.3 10.6 19 12 14.6 27.8 22 47.5 22 18.3 0 33.2-7.5 45-22.3v17.6h35.4v-121l42.4 118-12.5 35.8c12.7-2.6 25.6 2 34 11.3l65-172.8h-37.7l-30 76.6-26.2-76.5H242v16.3c-5.3-6-10.3-10.6-15-13.5-8-4.8-17.2-7.2-27.4-7.2-12.3 0-23.2 3-33 9C157 63 149.4 71 144 80.8c-1.8 3.6-3.4 7.3-4.8 11-4.5-13.6-13-24.6-25.5-33C103.2 51.6 91.2 48 78 48zm-7 29.8c9.8 0 18 3.7 24.5 11 6.5 7.4 9.8 17.2 9.8 29.4 0 9.4-2.4 17.6-7 24.5-6.7 9.7-16.2 14.6-28.5 14.6-10 0-18.2-3.4-24.6-10.3-6.4-7-9.7-16.3-9.7-28.4 0-10.2 2.3-18.7 7-25.6C49 82.8 58.6 77.8 70.8 77.8zm136 .2c11.5 0 20.6 4.3 27.2 13 5.4 7 8.2 15.6 8.2 25.8s-3 19.3-9.2 27c-7 9-16 13.4-26.6 13.4-9 0-16.5-3.2-23-9.6-7.4-7.5-11-17.5-11-29.7 0-10.4 2.6-19.3 8-27 6.5-8.7 15.2-13 26.4-13zm104.3 149c-2.7 0-5.5.3-8.2 1-14.3 4.7-22.2 20-17.6 34.5 4.6 14.4 20 22.3 34.3 17.7 14.4-4.6 22.4-20 17.8-34.3-3.7-11.8-14.6-19.2-26.2-19zm-232 30.3c-2.2 0-4.4.3-6.6 1-11.5 3.7-17.8 16-14.2 27.4 3.7 11.5 16 17.8 27.3 14.2 11.5-3.7 17.8-16 14.2-27.5-3-9.3-11.5-15.2-20.8-15.2zm158.4 10.3c-3.7 0-7.5.6-11.2 1.8-20 6.3-30.8 27.6-24.5 47.5 6.3 19.8 27.5 30.7 47.4 24.4 20-6.3 31-27.5 24.6-47.4-5-16.2-20.2-26.5-36.3-26.4zm-91 15.7c-2.6 0-5.3.5-8 1.3-14.3 4.5-22.2 19.8-17.6 34 4.6 14.4 20 22.3 34.2 17.7 14.3-4.6 22.2-19.8 17.6-34-3.7-11.6-14.4-19-26-19z"/>
  <path fill="#004D86" d="M610.4 48.6H575v-27h35.4v27zM524 0v66.8c-6.2-6.7-12.5-11.4-18.7-14-7.6-3.2-15.6-4.8-23.8-4.8-16.5 0-31 6-43.8 17.7C424 78.5 417 96 417 118c0 19.5 5.3 35.3 16 47.3 12 13.7 27.8 20.5 47.8 20.5 10.5 0 19.8-2.2 28-6.7 5-2.7 10.2-7.6 15.3-14.6v17h35.6V0H524zm-8.3 144.2c-6.6 8.7-15.3 13-26 13-9.5 0-17.6-3.3-24.3-10.2-7-7.2-10.6-16.7-10.6-28.7 0-9.4 2.3-17.7 7-25 6.6-10.2 16-15.4 28-15.4 10 0 18.3 3.7 24.7 11.3 6.4 7.5 9.7 17 9.7 28.7 0 10-3 19-8.5 26.2m94.7 37.2H575v-129h35.4v129zm359-99.8v61.8c0 3.3 1 5.4 2.4 6.5 1.7 1 4.3 1.7 7.8 1.7h23.8v29.7h-46c-8.3 0-14.4-2-18.4-6-3.4-3.6-5-9.8-5-18.6V6.2h35.5v45.6h34v29.8h-34zm-38.8-29h-41l-36 49.3V6.5H818V95c-2.6-8.4-6.6-16-12.2-22.8-13.3-16-31.4-24.2-54.3-24.2-13.4 0-25.4 3-36 9-5 2.8-9.3 6.3-13.2 10.2v-15h-40.5c-7.5.6-14.3 2.4-20.2 5.5-5 2.5-9.6 6.3-14 11.3-4.2 5-6.3 12-6.3 20.7V181H657V94c.5-2 1.5-3.8 3-5.5 1.4-1.4 3.3-2.6 5.7-3.8 2.4-1.2 5.5-1.8 9.4-1.8h16.2c-5.2 10.3-7.8 21.6-7.8 33.7 0 19.2 5.8 35 17.4 47.2 13.8 14.5 31.4 21.8 52.8 21.8 16 0 30.4-5 43-15 8-6.2 14.5-14.3 19.6-24.4l-32.4-9c-2.3 4.3-5.4 7.7-9.3 10.3-6.3 4.3-13 6.4-20.5 6.4-10.7 0-19.4-3.8-26-11.6-4-4.4-6.5-10.2-7.7-17.3H818v56.2h35.5v-53.5l36 53.5h41l-44-67 44-61.7zM720.2 105c1.4-6.8 3.8-12.2 7.2-16.3C733.6 81.5 741.7 78 752 78c10.5 0 19 3.5 25.5 10.7 3.7 4 6.2 9.5 7.4 16.3H720z"/>
</svg>
