<svg xmlns="http://www.w3.org/2000/svg" width="124" height="33" viewBox="0 0 124 33">
  <title>PayPal</title>
  <path fill="#253B80" d="M46.2 6.75h-6.83c-.47 0-.86.34-.94.8L35.67 25.1c-.06.33.2.65.56.65h3.27c.46 0 .86-.34.94-.8l.74-4.74c.07-.45.47-.8.94-.8h2.16c4.5 0 7.1-2.17 7.8-6.5.3-1.88 0-3.37-.88-4.4-.98-1.15-2.7-1.75-5-1.75zm.8 6.4c-.37 2.46-2.25 2.46-4.06 2.46H41.9l.73-4.57c.04-.28.28-.5.56-.5h.47c1.23 0 2.4 0 3 .72.36.42.47 1.04.33 1.9zM66.65 13.07h-3.27c-.28 0-.52.2-.56.5l-.15.9-.23-.33c-.7-1.03-2.3-1.37-3.87-1.37-3.62 0-6.7 2.74-7.3 6.58-.32 1.92.12 3.75 1.2 5.03 1 1.18 2.44 1.67 4.14 1.67 2.92 0 4.54-1.88 4.54-1.88l-.15.9c-.06.36.2.68.56.68h2.95c.47 0 .87-.34.94-.8l1.77-11.22c.07-.34-.2-.66-.55-.66zm-4.56 6.38c-.33 1.87-1.8 3.13-3.7 3.13-.96 0-1.72-.3-2.2-.9-.5-.56-.67-1.38-.52-2.3.3-1.84 1.8-3.14 3.67-3.14.93 0 1.7.3 2.18.9.5.58.7 1.4.56 2.3zM84.1 13.07h-3.3c-.3 0-.6.16-.78.42l-4.54 6.68-1.93-6.43c-.12-.4-.5-.68-.9-.68H69.4c-.38 0-.66.4-.53.76l3.62 10.64-3.42 4.8c-.26.4 0 .9.47.9h3.3c.3 0 .6-.14.77-.4l10.94-15.8c.27-.38 0-.9-.46-.9z"/>
  <path fill="#179BD7" d="M95 6.75h-6.85c-.47 0-.86.34-.94.8L84.46 25.1c-.06.33.2.65.56.65h3.52c.33 0 .6-.24.66-.57l.78-4.97c.07-.45.47-.8.94-.8h2.16c4.5 0 7.1-2.17 7.8-6.5.3-1.88 0-3.37-.9-4.4-.96-1.15-2.68-1.75-4.97-1.75zm.78 6.4c-.37 2.46-2.25 2.46-4.06 2.46H90.7l.7-4.57c.06-.28.3-.5.57-.5h.48c1.23 0 2.4 0 3 .72.36.42.47 1.04.33 1.9zM115.43 13.07h-3.27c-.28 0-.52.2-.56.5l-.15.9-.23-.33c-.7-1.03-2.28-1.37-3.86-1.37-3.62 0-6.7 2.74-7.3 6.58-.33 1.92.12 3.75 1.2 5.03 1 1.18 2.43 1.67 4.13 1.67 2.9 0 4.52-1.88 4.52-1.88l-.14.9c-.06.36.2.68.56.68h2.95c.46 0 .85-.34.93-.8L116 13.72c.05-.34-.22-.66-.57-.66zm-4.56 6.38c-.32 1.87-1.8 3.13-3.7 3.13-.94 0-1.7-.3-2.2-.9-.48-.56-.66-1.38-.5-2.3.3-1.84 1.8-3.14 3.66-3.14.93 0 1.7.3 2.2.9.5.58.68 1.4.54 2.3zM119.3 7.23l-2.8 17.86c-.07.33.2.65.55.65h2.82c.47 0 .87-.34.94-.8L123.6 7.4c.05-.34-.2-.65-.56-.65h-3.16c-.28 0-.52.2-.56.48z"/>
  <path fill="#253B80" d="M7.27 29.15l.52-3.32-1.18-.02H1.06L4.93 1.3c0-.08.05-.15.1-.2.06-.05.13-.08.2-.08h9.4c3.1 0 5.25.65 6.38 1.93.53.6.87 1.23 1.03 1.92.17.72.17 1.6 0 2.64v.77l.52.3c.44.23.8.5 1.06.8.47.52.76 1.17.88 1.94.13.8.08 1.75-.12 2.82-.24 1.24-.63 2.3-1.16 3.2-.48.8-1.1 1.47-1.82 2-.7.48-1.52.86-2.46 1.1-.9.23-1.94.35-3.07.35h-.73c-.52 0-1.03.2-1.43.53-.4.34-.67.8-.75 1.32l-.06.3-.93 5.86-.04.2c0 .08-.03.12-.06.14-.03.02-.06.03-.1.03h-4.5z"/>
  <path fill="#179BD7" d="M23.05 7.67l-.1.55c-1.24 6.35-5.47 8.54-10.87 8.54H9.33c-.66 0-1.22.48-1.32 1.13l-1.4 8.93-.4 2.53c-.07.43.26.82.7.82h4.87c.58 0 1.07-.42 1.16-1l.05-.24.92-5.83.06-.3c.1-.6.58-1 1.16-1h.73c4.73 0 8.43-1.93 9.5-7.48.46-2.32.23-4.26-.97-5.62-.36-.4-.8-.75-1.33-1.03z"/>
  <path fill="#222D65" d="M21.75 7.15L21.17 7l-.62-.12c-.74-.12-1.55-.17-2.42-.17h-7.36c-.18 0-.35.05-.5.12-.34.17-.6.5-.66.88l-1.55 9.9-.04.3c.1-.66.67-1.14 1.33-1.14h2.75c5.4 0 9.63-2.2 10.87-8.54l.1-.55c-.32-.17-.65-.3-1.02-.43l-.28-.1z"/>
  <path fill="#253B80" d="M9.6 7.7c.08-.4.33-.72.67-.88.15-.07.32-.1.5-.1h7.36c.87 0 1.68.04 2.42.16l.62.12.58.15c.1.03.2.06.28.1.37.1.7.25 1.02.42.37-2.35 0-3.95-1.27-5.4C20.38.67 17.85 0 14.62 0H5.24c-.66 0-1.22.48-1.32 1.13L.02 25.9c-.1.5.3.93.78.93h5.8l1.45-9.22L9.6 7.7z"/>
</svg>
