<?xml version="1.0" encoding="utf-8"?>
<svg xmlns="http://www.w3.org/2000/svg"
	xmlns:xlink="http://www.w3.org/1999/xlink"
	width="19px" height="24px" viewBox="0 0 19 24">
<path fillRule="evenodd" d="M 18.83 11.43C 18.83 11.46 18.81 11.57 18.77 11.75 18.62 12.4 18.41 13.04 18.13 13.65 17.11 16.09 14.85 19.83 9.92 23.85 9.8 23.95 9.65 24 9.5 24 9.35 24 9.2 23.95 9.08 23.85 4.14 19.83 1.89 16.09 0.87 13.65 0.59 13.04 0.38 12.4 0.23 11.75 0.19 11.57 0.17 11.46 0.17 11.43 0.05 10.83 0 10.22 0 9.62 0 4.32 4.26 0 9.5 0 14.73 0 18.99 4.32 19 9.62 19 10.22 18.94 10.83 18.83 11.43ZM 9.5 1.35C 5 1.35 1.34 5.06 1.34 9.62 1.34 10.14 1.39 10.67 1.49 11.19 1.49 11.2 1.49 11.21 1.49 11.22 1.5 11.25 1.51 11.32 1.54 11.44 1.54 11.44 1.54 11.44 1.54 11.45 1.67 12.01 1.85 12.56 2.09 13.09 2.1 13.09 2.1 13.1 2.1 13.11 3.03 15.34 5.07 18.74 9.5 22.45 13.92 18.74 15.96 15.34 16.89 13.11 16.89 13.1 16.89 13.09 16.9 13.09 17.14 12.56 17.33 12.01 17.45 11.45 17.45 11.44 17.45 11.44 17.45 11.44 17.48 11.32 17.49 11.25 17.5 11.22 17.5 11.21 17.5 11.2 17.5 11.19 17.6 10.68 17.65 10.15 17.65 9.62 17.65 5.06 13.99 1.35 9.5 1.35ZM 9.5 15.83C 6.17 15.83 3.47 13.09 3.47 9.73 3.47 6.36 6.17 3.62 9.5 3.62 12.82 3.62 15.52 6.36 15.52 9.73 15.52 13.09 12.82 15.83 9.5 15.83ZM 9.5 4.98C 6.91 4.98 4.81 7.11 4.81 9.73 4.81 12.34 6.91 14.48 9.5 14.48 12.08 14.48 14.18 12.34 14.18 9.73 14.18 7.11 12.08 4.98 9.5 4.98Z" /></svg>