<svg xmlns="http://www.w3.org/2000/svg" viewBox="0 0 18.7 17.8"><path d="M18.7 6.8l-6-1.6-1.2-1.8c2.5-.8 4.6-.7 5.3.4.2.3.3.7.2 1.2 0 .3.1.5.4.6h.1c.2 0 .5-.2.5-.4.1-.7 0-1.4-.3-1.9-.9-1.5-3.5-1.8-6.7-.7L9.3 0 6 5.2 0 6.8 1.8 9C.6 10.7.4 12.3 1 13.4c.5.8 1.4 1.2 2.7 1.3l-.1 3 5.8-2.2 5.8 2.2-.3-6.2 3.8-4.7zm-9.4 7.7l-4.7 1.8.1-1.5h.7c2-.3 4.2-1.1 6.4-2.5.2-.1.3-.5.2-.7-.1-.2-.5-.3-.7-.2-2 1.3-4.2 2.1-6 2.3-1.7.3-2.9 0-3.4-.7-.4-.7-.2-1.8.6-3.1l1.4 1.7-.1 1.5h1l.1-1.8-3.2-3.9L6.6 6l2.8-4.2L12.1 6 17 7.4l-3.1 3.9.2 5-4.8-1.8z"/></svg>
