<?xml version="1.0" encoding="utf-8"?>
<!-- Generator: Adobe Illustrator 19.2.0, SVG Export Plug-In . SVG Version: 6.00 Build 0)  -->
<svg version="1.1" id="Layer_1" xmlns="http://www.w3.org/2000/svg" xmlns:xlink="http://www.w3.org/1999/xlink" x="0px" y="0px"
	 viewBox="0 0 61.8 40.1" style="enable-background:new 0 0 61.8 40.1;" xml:space="preserve">
<g>
	<path d="M26.4,0v5.9c0,0.8,0.6,1.4,1.4,1.4s1.4-0.6,1.4-1.4v-3H59V33c0,2.4-1.9,4.3-4.3,4.3c-2.4,0-4.3-1.9-4.3-4.3v-4.4H29.2v-3.3
		c0-0.8-0.6-1.4-1.4-1.4s-1.4,0.6-1.4,1.4v3.3H15l0,4.5c0,3.9,3.2,7.1,7.1,7.1h32.6c3.9,0,7.1-3.2,7.1-7.1V0H26.4z M17.8,33.1l0-1.6
		h29.8V33c0,1.6,0.5,3.1,1.5,4.3H22.1C19.8,37.3,17.9,35.4,17.8,33.1z"/>
	<path d="M36.3,10.1h15.6c0.8,0,1.4-0.6,1.4-1.4s-0.6-1.4-1.4-1.4H36.3c-0.8,0-1.4,0.6-1.4,1.4S35.5,10.1,36.3,10.1z"/>
	<path d="M36.3,16.9h15.6c0.8,0,1.4-0.6,1.4-1.4s-0.6-1.4-1.4-1.4H36.3c-0.8,0-1.4,0.6-1.4,1.4S35.5,16.9,36.3,16.9z"/>
	<path d="M36.3,23.7h15.6c0.8,0,1.4-0.6,1.4-1.4s-0.6-1.4-1.4-1.4H36.3c-0.8,0-1.4,0.6-1.4,1.4S35.5,23.7,36.3,23.7z"/>
	<path d="M23.4,16.9l-3.9,3.9c-0.6,0.6-0.6,1.5,0,2c0.3,0.3,0.6,0.4,1,0.4s0.7-0.1,1-0.4l6.3-6.3c0.6-0.6,0.6-1.5,0-2l-6.3-6.3
		c-0.6-0.6-1.5-0.6-2,0c-0.6,0.6-0.6,1.5,0,2l3.9,3.9h-1.3c-9.2,0-17.6,5.1-21.9,13.3c-0.4,0.7-0.1,1.6,0.6,1.9
		c0.2,0.1,0.4,0.2,0.7,0.2c0.5,0,1-0.3,1.3-0.8c3.8-7.3,11.2-11.8,19.4-11.8H23.4z"/>
</g>
</svg>
