<svg xmlns="http://www.w3.org/2000/svg" viewBox="0 0 35 41"><path d="M34.57 8.87c0 .6-.5 1.1-1.1 1.1L32 10v25c0 3.27-1.72 6-5 6H8c-3.28 0-5-2.73-5-6V10l-1.92-.02c-.6 0-1.1-.5-1.1-1.1C-.03 8.24.37 7 1 7h8V5c0-2.43 2.57-5 5-5h6c2.43 0 5 2.57 5 5v2h9c.62 0 .57 1.25.57 1.87zM22 5c0-1.2-.8-2-2-2h-6c-1.2 0-2 .8-2 2v2h10V5zm7 5H6v25c0 2.05.95 3 3 3h17c2.05 0 3-.95 3-3V10zm-4.5 23c-.8 0-1.5-.47-1.5-1.08V16.08c0-.6.67-1.1 1.5-1.1.84 0 1.5.5 1.5 1.1v15.84c0 .6-.66 1.1-1.5 1.1zm-7 0c-.8 0-1.5-.47-1.5-1.08V16.08c0-.6.67-1.1 1.5-1.1.84 0 1.5.5 1.5 1.1v15.84c0 .6-.66 1.1-1.5 1.1zm-7 0c-.8 0-1.5-.47-1.5-1.08V16.08c0-.6.67-1.1 1.5-1.1.84 0 1.5.5 1.5 1.1v15.84c0 .6-.66 1.1-1.5 1.1z"/></svg>
