<?xml version="1.0" encoding="utf-8"?>
<svg xmlns="http://www.w3.org/2000/svg"
	xmlns:xlink="http://www.w3.org/1999/xlink"
	viewBox="0 0 35 41">
<path fillRule="evenodd" d="M 34.57 8.87C 34.57 9.48 34.08 9.98 33.46 9.98 33.46 9.98 32 10 32 10 32 10 32 35 32 35 32 38.27 30.28 41 27 41 27 41 8 41 8 41 4.72 41 3 38.27 3 35 3 35 3 10 3 10 3 10 1.08 9.98 1.08 9.98 0.47 9.98-0.03 9.48-0.03 8.87-0.03 8.25 0.38 7 1 7 1 7 9 7 9 7 9 7 9 5 9 5 9 2.57 11.57-0 14-0 14-0 20-0 20-0 22.43-0 25 2.57 25 5 25 5 25 7 25 7 25 7 34 7 34 7 34.62 7 34.57 8.25 34.57 8.87ZM 22 5C 22 3.8 21.2 3 20 3 20 3 14 3 14 3 12.8 3 12 3.8 12 5 12 5 12 7 12 7 12 7 22 7 22 7 22 7 22 5 22 5ZM 29 10C 29 10 6 10 6 10 6 10 6 35 6 35 6 37.05 6.95 38 9 38 9 38 26 38 26 38 28.05 38 29 37.05 29 35 29 35 29 10 29 10ZM 24.51 33.01C 23.69 33.01 23.01 32.53 23.01 31.92 23.01 31.92 23.01 16.08 23.01 16.08 23.01 15.47 23.67 14.99 24.51 14.99 25.34 14.99 26.01 15.47 26.01 16.08 26.01 16.08 26.01 31.92 26.01 31.92 26.01 32.53 25.34 33.01 24.51 33.01ZM 17.51 33.01C 16.69 33.01 16.01 32.53 16.01 31.92 16.01 31.92 16.01 16.08 16.01 16.08 16.01 15.47 16.67 14.99 17.51 14.99 18.34 14.99 19.01 15.47 19.01 16.08 19.01 16.08 19.01 31.92 19.01 31.92 19.01 32.53 18.34 33.01 17.51 33.01ZM 10.51 33.01C 9.69 33.01 9.01 32.53 9.01 31.92 9.01 31.92 9.01 16.08 9.01 16.08 9.01 15.47 9.67 14.99 10.51 14.99 11.34 14.99 12.01 15.47 12.01 16.08 12.01 16.08 12.01 31.92 12.01 31.92 12.01 32.53 11.34 33.01 10.51 33.01Z" /></svg>