<?xml version="1.0" encoding="utf-8"?>
<svg xmlns="http://www.w3.org/2000/svg"
	xmlns:xlink="http://www.w3.org/1999/xlink"
	width="32px" height="32px" viewBox="0 0 32 32">
<path fillRule="evenodd" d="M 31.6 29.57C 31.6 29.57 29.57 31.6 29.57 31.6 29.57 31.6 20.8 22.83 20.8 22.83 15.86 26.77 8.64 26.45 4.06 21.88-0.86 16.96-0.86 8.98 4.06 4.06 8.98-0.86 16.96-0.86 21.88 4.06 26.45 8.64 26.77 15.86 22.83 20.8 22.83 20.8 31.6 29.57 31.6 29.57ZM 20.17 5.76C 16.19 1.78 9.74 1.78 5.76 5.76 1.78 9.74 1.78 16.19 5.76 20.17 9.74 24.15 16.19 24.15 20.17 20.17 24.15 16.19 24.15 9.74 20.17 5.76Z"/></svg>