<svg xmlns="http://www.w3.org/2000/svg" viewBox="0 0 59 35"><path d="M57.54 31.57h-2.8c-.5 1.97-2.27 3.43-4.38 3.43-2.1 0-3.9-1.46-4.4-3.43H44 30.58C30.08 33.54 28.3 35 26.2 35s-3.9-1.46-4.4-3.43h-3.83c-.8 0-1.46-.65-1.46-1.46V6.97l.02-.14.02-.06V6.7c0-.04 0-.06.02-.1v-.05l.04-.07s0-.04.02-.06c0-.03 0-.04.02-.06l.04-.06c0-.03.03-.04.04-.07l.03-.06c.02-.02.04-.03.05-.06l.04-.04.08-.1h.02l5.5-5.52c.27-.27.63-.43 1.02-.43h15.06c.4 0 .75.16 1.03.44L45.05 6l.1.1c0 .03.02.05.03.06l.05.06.04.06c0 .03.02.04.03.06l.04.07c0 .03 0 .04.02.07.02 0 .02.03.03.06v.07l.02.06.02.07v.08l.02.07V9.8h5.32c2.3 0 4.4.9 5.86 2.48 1.56 1.68 2.37 4.1 2.36 6.94v10.9c0 .8-.66 1.45-1.46 1.45zm-31.33.54c.9 0 1.63-.72 1.63-1.6 0-.9-.73-1.64-1.62-1.64-.88 0-1.6.74-1.6 1.63 0 .88.72 1.6 1.6 1.6zm3.16-29.16h-5.3l-2.57 2.6h7.86v-2.6zm8.55 0h-5.63v2.6h8.23l-2.6-2.6zm4.66 8.34v-2.8H19.43v20.2h2.62c.68-1.6 2.3-2.74 4.16-2.74 1.87 0 3.47 1.13 4.17 2.74H42.56v-17.4zm7.8 20.83c.9 0 1.63-.72 1.63-1.6 0-.9-.74-1.64-1.63-1.64-.9 0-1.62.74-1.62 1.63 0 .88.73 1.6 1.62 1.6zm5.75-12.83c0-4.1-1.97-6.53-5.3-6.53h-5.3v15.94h.73c.7-1.6 2.3-2.74 4.15-2.74 1.86 0 3.47 1.13 4.16 2.74h1.56v-9.4zm-42.23 6.47H5.9c-.8 0-1.47-.66-1.47-1.46 0-.8.66-1.47 1.46-1.47h7.97c.8 0 1.46.67 1.46 1.48 0 .8-.65 1.46-1.46 1.46zm0-5.7H1.45c-.8 0-1.46-.66-1.46-1.47 0-.8.65-1.46 1.45-1.46h12.42c.8 0 1.46.67 1.46 1.47 0 .8-.65 1.47-1.46 1.47zm0-5.7H5.9c-.8 0-1.47-.66-1.47-1.47 0-.8.66-1.46 1.46-1.46h7.97c.8 0 1.46.67 1.46 1.47 0 .8-.65 1.47-1.46 1.47z"/></svg>
