<svg xmlns="http://www.w3.org/2000/svg" viewBox="0 0 65 65"><path d="M62.36 44.77s3.36 5.44-2.53 9.8c0 0 2.73 7.49-8.2 9.78-3.21.68-7.26.65-11.07.35-9.54.2-19.04-1.01-19.04-1.01l-6.15-26.28c1.88-1.11 2.76-2.38 3.17-3.21.09-.25.2-.54.32-.84.52-1.23 1.34-2.74 2.66-4.1C27.66 24.62 34.08 7.2 34.08 7.2s-1.01-6.32 2-6.32c3 0 10.14 1.98 5.85 14.75-4.28 12.78 0 10.82 0 10.82.98-.23 1.9-.42 2.76-.56 0 0 12.38-2.74 16.94 1.37 3.66 3.28.83 7.63.83 7.63s5.14 4.51-.1 9.88zM15.23 64.04H.72l.01-26.27h8.89c1.29 0 2.56 1.03 2.83 2.27l4.65 21.75c.27 1.24-.57 2.26-1.87 2.25z"/></svg>
