<svg xmlns="http://www.w3.org/2000/svg" viewBox="0 0 65 66"><path d="M64.06 28.09h-8.84c-1.28 0-2.55-1.03-2.82-2.29L47.77 3.79c-.26-1.26.57-2.29 1.87-2.27h14.43l-.01 26.57zM46.34 31.7c-.09.26-.2.55-.32.86-.51 1.24-1.33 2.76-2.64 4.14-6.12 4.7-12.51 22.32-12.51 22.32s1.01 6.39-1.98 6.39-10.1-2-5.82-14.92c4.26-12.93 0-10.94 0-10.94-.98.23-1.9.42-2.76.56 0 0-12.32 2.77-16.85-1.39-3.64-3.32-.82-7.71-.82-7.71s-5.13-4.57.09-10c0 0-3.34-5.51 2.52-9.91 0 0-2.72-7.59 8.16-9.9 3.2-.69 7.22-.66 11.02-.36 9.49-.2 18.95 1.03 18.95 1.03l6.11 26.59c-1.87 1.12-2.74 2.41-3.15 3.24z"/></svg>
