<svg xmlns="http://www.w3.org/2000/svg" viewBox="0 0 58 33"><path d="M56.57 29.77h-2.75c-.49 1.85-2.23 3.23-4.31 3.23-2.07 0-3.82-1.38-4.31-3.23h-1.94-13.19c-.49 1.85-2.24 3.23-4.31 3.23-2.06 0-3.82-1.38-4.31-3.23h-3.78c-.78 0-1.43-.62-1.43-1.38V6.55c0-.04.01-.08.01-.13 0-.01.01-.03.01-.06 0-.02.02-.04.02-.07 0-.02 0-.04.01-.07 0-.01 0-.03.01-.05.01-.03.01-.05.02-.07.02-.01.02-.04.03-.06 0-.02.01-.03.02-.06.01-.01.03-.03.04-.06.01-.02.02-.03.03-.05.02-.01.03-.04.04-.06.01-.02.04-.03.05-.06.01-.01.02-.03.03-.04.03-.04.05-.06.09-.1l.01-.01 5.4-5.2c.27-.25.63-.4 1.01-.4h14.81c.38 0 .74.13 1.01.4l5.4 5.25.01.01c.03.02.06.06.09.09.01.01.02.04.03.05.03.02.04.03.05.06.01.01.02.03.04.05.01.03.02.04.03.06.01.01.03.04.04.06 0 .02.01.03.02.06.01.01.01.03.03.05.01.03.01.05.02.07 0 .01.01.04.01.06 0 .02.01.05.01.07 0 .02.01.05.01.07 0 .01.02.03.02.06.01.03.01.08.01.12v2.65h5.22c2.27 0 4.31.83 5.76 2.33 1.53 1.59 2.33 3.86 2.31 6.55v10.27c0 .76-.64 1.38-1.43 1.38zm-30.8.51c.88 0 1.59-.7 1.59-1.54 0-.84-.71-1.53-1.59-1.53-.87 0-1.59.69-1.59 1.53 0 .84.72 1.54 1.59 1.54zm3.1-27.52h-5.2L21.14 5.2h7.73V2.76zm8.41.01h-5.55v2.44h8.09l-2.54-2.44zm4.56 7.85V7.97H19.11v19.07h2.37c.08 0 .14 0 .2.01.68-1.53 2.25-2.6 4.09-2.6 1.83 0 3.41 1.07 4.09 2.59h11.98V10.62zm7.68 19.66c.89 0 1.59-.7 1.59-1.54 0-.84-.71-1.53-1.59-1.53-.87 0-1.59.69-1.59 1.53 0 .84.72 1.54 1.59 1.54zm5.64-12.12c0-3.85-1.95-6.16-5.22-6.16h-5.22v15.04h.73c.68-1.52 2.26-2.59 4.08-2.59 1.83 0 3.41 1.07 4.09 2.59h1.54v-8.88zm-41.51 6.11H5.8c-.79 0-1.43-.63-1.43-1.39 0-.76.64-1.38 1.43-1.38h7.85c.79 0 1.43.62 1.43 1.38 0 .76-.64 1.39-1.43 1.39zm0-5.38H1.44c-.79 0-1.43-.62-1.43-1.38 0-.76.64-1.38 1.43-1.38h12.21c.79 0 1.43.62 1.43 1.38 0 .76-.64 1.38-1.43 1.38zm0-5.38H5.8c-.79 0-1.43-.62-1.43-1.38 0-.76.64-1.38 1.43-1.38h7.85c.79 0 1.43.62 1.43 1.38 0 .76-.64 1.38-1.43 1.38z"/></svg>
