<svg xmlns="http://www.w3.org/2000/svg" viewBox="0 0 51 46"><path d="M51 36.24c0 .91-.76 1.62-1.65 1.62h-3.29c-.09 0-.17-.03-.26-.05.15.54.25 1.09.25 1.67 0 3.59-2.92 6.52-6.52 6.52-1.75 0-3.4-.69-4.67-1.92-1.27-1.24-1.96-2.86-1.96-4.6 0-1.74.7-3.36 1.96-4.6a6.658 6.658 0 0 1 4.67-1.91c2.08 0 3.91.99 5.11 2.51.28-.51.81-.87 1.42-.87h1.65V28.1l-9.84.01c-.91 0-1.66-.71-1.66-1.58l-.02-9.82H32.9v17.9l-.02-.02.02 3.27-8.24-.02a1.626 1.626 0 0 1 0-3.25l4.95.02v-24.4h-5.84c-2.2 0-2.14-3.26 0-3.26h7.49c.88 0 1.64.72 1.64 1.63v4.88h9.87L51 21.59s-.01 2.88 0 3.26v11.39zm-11.47-.02c-1.82 0-3.35 1.49-3.35 3.27 0 1.77 1.53 3.26 3.35 3.26 1.79 0 3.25-1.46 3.25-3.26 0-1.8-1.46-3.27-3.25-3.27zm8.18-13l-6.58-6.51h-1.65v8.14h8.23v-1.63zM16.5 46c-1.75 0-3.4-.69-4.67-1.92-1.27-1.24-1.96-2.86-1.96-4.6 0-1.74.7-3.36 1.96-4.6a6.64 6.64 0 0 1 4.67-1.91c3.59 0 6.52 2.92 6.52 6.51S20.09 46 16.5 46zm0-9.78c-1.82 0-3.35 1.49-3.35 3.27 0 1.77 1.53 3.26 3.35 3.26 1.79 0 3.24-1.46 3.24-3.26 0-1.8-1.45-3.27-3.24-3.27zm-8.3 1.65H4.97c-.92 0-1.67-.8-1.67-1.78V24.97c0-1 .74-1.82 1.64-1.82.9 0 1.64.82 1.64 1.82v9.64h1.65c.91 0 1.64.65 1.64 1.63 0 .97-.75 1.63-1.67 1.63zM22.7 3.15L9.64 19.63c-.75.73-1.96.73-2.7 0l-5.41-5.28a1.83 1.83 0 0 1 0-2.64c.74-.73 1.95-.73 2.7 0l3.88 3.79L19.99.51a1.95 1.95 0 0 1 2.71 0c.75.73.75 1.91 0 2.64z"/></svg>
