<svg xmlns="http://www.w3.org/2000/svg" viewBox="0 0 51 43"><path d="M51 33.24c0 .91-.76 1.62-1.65 1.62h-3.29c-.09 0-.17-.03-.26-.05.15.54.25 1.09.25 1.67 0 3.59-2.92 6.52-6.52 6.52-1.75 0-3.4-.69-4.67-1.92-1.27-1.24-1.96-2.86-1.96-4.6 0-1.74.7-3.36 1.96-4.6a6.658 6.658 0 0 1 4.67-1.91c2.08 0 3.91.99 5.11 2.51.28-.51.81-.87 1.42-.87h1.65V25.1l-9.84.01c-.91 0-1.66-.71-1.66-1.58l-.02-9.82H32.9v17.9l-.02-.02.02 3.27-8.24-.02a1.626 1.626 0 0 1 0-3.25l4.95.02V7.21h-3.29c-2.2 0-2.14-3.26 0-3.26h4.94c.88 0 1.64.72 1.64 1.63v4.88h9.87L51 18.59s-.01 2.88 0 3.26v11.39zm-11.47-.02c-1.82 0-3.35 1.49-3.35 3.27 0 1.77 1.53 3.26 3.35 3.26 1.79 0 3.25-1.46 3.25-3.26 0-1.8-1.46-3.27-3.25-3.27zm8.18-13l-6.58-6.51h-1.65v8.14h8.23v-1.63zm-36.09 3.25c-3.07 0-5.97-1.19-8.19-3.34C1.2 17.95 0 15.12 0 12.08c0-3.04 1.23-5.87 3.43-8.05C5.63 1.88 8.55.69 11.62.69c6.29 0 11.41 5.12 11.41 11.39 0 6.28-5.12 11.39-11.41 11.39zm.03-19.53c-4.55 0-8.38 3.72-8.38 8.15 0 4.44 3.83 8.15 8.38 8.15 4.48 0 8.11-3.65 8.11-8.15 0-4.49-3.63-8.15-8.11-8.15zm1.73 12.49l-2.77-2.74c-.43-.11-.76-.48-.76-.95v-.51-.07-5.6c0-.55.44-1 1-1h1.33c.55 0 .99.45.99 1v4.67l2.73 2.7c.7.69.7 1.81 0 2.5-.69.69-1.82.69-2.52 0zm-8.44 8.7c.9 0 1.64.82 1.64 1.82v4.66h1.65c.91 0 1.64.65 1.64 1.63 0 .97-.75 1.63-1.67 1.63H4.97c-.92 0-1.67-.8-1.67-1.78v-6.14c0-1 .74-1.82 1.64-1.82zm11.56 4.84c3.59 0 6.52 2.92 6.52 6.51S20.09 43 16.5 43c-1.75 0-3.4-.69-4.67-1.92-1.27-1.24-1.96-2.86-1.96-4.6 0-1.74.7-3.36 1.96-4.6a6.64 6.64 0 0 1 4.67-1.91zm0 9.78c1.79 0 3.24-1.46 3.24-3.26 0-1.8-1.45-3.27-3.24-3.27-1.82 0-3.35 1.49-3.35 3.27 0 1.77 1.53 3.26 3.35 3.26z"/></svg>
