<svg xmlns="http://www.w3.org/2000/svg" viewBox="0 0 43.5 41.9"><style>.st1{fill:none}</style><path d="M43.5 31.9c0 .8-.6 1.4-1.4 1.4h-3c.1.5.2.9.2 1.4 0 3-2.4 5.5-5.5 5.5-1.5 0-2.8-.6-3.9-1.6s-1.6-2.4-1.6-3.9.6-2.8 1.6-3.9c1.1-1 2.4-1.6 3.9-1.6 1.7 0 3.3.8 4.3 2.1.2-.4.7-.7 1.2-.7h1.4v-8.3h-8.2c-.8 0-1.4-.6-1.4-1.3v-8.2h-2.8v20.5h-7.6c-.7 0-1.4-.6-1.4-1.4 0-.8.6-1.4 1.4-1.4h4.9V7.3h-3.5c-1.8 0-1.8-2.7 0-2.7h4.8c.8-.1 1.4.5 1.4 1.3V10h8.3l6.9 6.8V31.9zm-9.6 0c-1.5 0-2.8 1.2-2.8 2.7s1.3 2.7 2.8 2.7 2.7-1.2 2.7-2.7-1.2-2.7-2.7-2.7zm6.9-13.7l-5.5-5.5h-1.4v6.8h6.9v-1.3zm-31 2.7c-2.6 0-5-1-6.9-2.8S0 13.9 0 11.4s1-4.9 2.9-6.7c1.8-1.8 4.3-2.8 6.9-2.8 5.3 0 9.6 4.3 9.6 9.5s-4.3 9.5-9.6 9.5zm0-16.4c-3.8 0-7 3.1-7 6.8s3.2 6.8 7 6.8 6.8-3.1 6.8-6.8-3-6.8-6.8-6.8zM11.3 15L9 12.7c-.4-.1-.7-.4-.7-.8v-.4-4.8c0-.4.4-.8.9-.8h1.1c.5 0 .8.4.8.8v3.9l2.3 2.3c.6.6.6 1.5 0 2.1s-1.5.6-2.1 0zm-7.1 7.3c.8 0 1.4.7 1.4 1.5v6.7H7c.8 0 1.4.5 1.4 1.4 0 .8-.6 1.4-1.4 1.4H4.2c-.8 0-1.4-.7-1.4-1.5v-8c0-.8.7-1.5 1.4-1.5zm9.7 6.9c3 0 5.5 2.4 5.5 5.5s-2.5 5.5-5.5 5.5c-1.5 0-2.8-.6-3.9-1.6s-1.6-2.4-1.6-3.9.6-2.8 1.6-3.9 2.4-1.6 3.9-1.6zm0 8.2c1.5 0 2.7-1.2 2.7-2.7S15.4 32 13.9 32s-2.8 1.2-2.8 2.7c0 1.4 1.3 2.7 2.8 2.7z" /><path class="st1" d="M0 0h43.5M0 41.9h43.5"/></svg>
