<svg viewBox="0 0 412 334.8" id="twitter" xmlns="http://www.w3.org/2000/svg"><title>Twitter logo</title><path d="M377.3 61.1c-12.6 5.6-26.2 9.4-40.4 11.1 14.5-8.7 25.7-22.5 30.9-38.9-13.6 8.1-28.6 13.9-44.6 17.1-12.8-13.7-31.1-22.2-51.3-22.2-45.4 0-78.7 42.3-68.5 86.3C145 111.6 93.2 83.6 58.5 41.1 40.1 72.6 49 114 80.3 134.9c-11.5-.4-22.4-3.5-31.8-8.8-.8 32.6 22.6 63 56.4 69.8-9.9 2.7-20.7 3.3-31.7 1.2 8.9 27.9 34.9 48.2 65.7 48.8-29.6 23.2-66.8 33.5-104.1 29.1 31.1 19.9 68.1 31.6 107.8 31.6 130.5 0 204.2-110.2 199.8-209.1 13.6-9.9 25.5-22.3 34.9-36.4z"></path></svg>
