<svg xmlns="http://www.w3.org/2000/svg" viewBox="0 0 33.64 33.64"><path d="M16.82,0A16.82,16.82,0,0,0,2.13,25,1.42,1.42,0,1,0,4.6,23.62a14,14,0,1,1,24.13.53,1.42,1.42,0,1,0,2.41,1.49A16.82,16.82,0,0,0,16.82,0Z"/><path d="M16.82,21a6,6,0,0,0,6-6V13.25a6,6,0,1,0-12,0v1.81A6,6,0,0,0,16.82,21Zm-3.15-7.79a3.15,3.15,0,0,1,6.29,0v1.81a3.15,3.15,0,0,1-6.29,0V13.25Z"/><path  d="M21.29,22.9a1.42,1.42,0,0,0-1,.39,5.34,5.34,0,0,1-7,0,1.42,1.42,0,0,0-1-.39C9.84,22.9,6,25.52,6,29a1.42,1.42,0,0,0,.55,1.12,16.82,16.82,0,0,0,20.59,0A1.42,1.42,0,0,0,27.66,29C27.66,25.28,23.89,22.9,21.29,22.9Zm-4.47,7.9a13.83,13.83,0,0,1-7.9-2.45,4.53,4.53,0,0,1,3-2.56,8.23,8.23,0,0,0,9.85,0,4,4,0,0,1,3,2.56A13.84,13.84,0,0,1,16.82,30.8Z"/></svg>