<?xml version="1.0" encoding="utf-8"?>
<svg xmlns="http://www.w3.org/2000/svg"
	xmlns:xlink="http://www.w3.org/1999/xlink"
	width="50px" height="51px" viewBox="0 0 50 51">
<path fillRule="evenodd" d="M 0.45 25.57C 0.45 39.14 11.5 50.19 25.07 50.19 38.64 50.19 49.68 39.14 49.68 25.57 49.68 12 38.64 0.95 25.07 0.95 11.5 0.95 0.45 12 0.45 25.57ZM 10.74 42.43C 14.37 39.98 17.49 38.4 18.41 37.95 18.97 37.67 19.32 37.12 19.32 36.49 19.32 36.49 19.32 33.4 19.32 33.4 19.32 33.18 19.26 32.97 19.15 32.78 18.52 31.72 18.09 30.44 17.87 29 17.8 28.52 17.43 28.12 16.98 28 16.86 27.85 16.51 27.32 16.08 25.8 15.74 24.59 15.74 23.99 15.77 23.75 16.14 23.75 16.5 23.58 16.74 23.27 17 22.94 17.07 22.5 16.93 22.1 16.44 20.73 16.38 19.33 16.76 17.89 17.08 16.52 17.82 15.23 18.96 14.05 19.57 13.4 20.28 12.81 21.04 12.34 21.05 12.33 21.07 12.32 21.08 12.31 21.71 11.86 22.37 11.53 23.03 11.31 23.03 11.31 23.04 11.31 23.04 11.31 23.59 11.12 24.17 11.02 24.78 10.99 26.44 10.84 27.92 11.15 29.23 11.92 30.66 12.71 31.24 13.74 31.24 13.74 31.44 14.13 31.82 14.38 32.25 14.41 32.26 14.41 32.8 14.51 33.3 15.16 33.88 15.93 34.71 17.95 33.7 22.83 33.59 23.39 33.86 23.94 34.36 24.18 34.4 24.37 34.45 24.96 34.06 26.32 33.72 27.54 33.44 28.11 33.27 28.37 33.05 28.34 32.82 28.37 32.62 28.45 32.24 28.62 31.95 28.97 31.88 29.37 31.68 30.51 31.37 31.53 30.94 32.4 30.86 32.57 30.82 32.76 30.82 32.94 30.82 32.94 30.82 36.51 30.82 36.51 30.82 37.14 31.17 37.69 31.73 37.97 32.66 38.42 35.78 40.01 39.41 42.45 35.54 45.74 30.54 47.73 25.08 47.73 19.6 47.71 14.61 45.72 10.74 42.43ZM 25.07 3.42C 37.27 3.42 47.21 13.36 47.21 25.57 47.21 31.4 44.94 36.73 41.23 40.68 37.77 38.31 34.69 36.66 33.3 35.97 33.3 35.97 33.3 33.2 33.3 33.2 33.63 32.47 33.9 31.67 34.1 30.81 35.09 30.43 35.79 29.28 36.45 26.97 37.04 24.86 36.99 23.38 36.29 22.53 37.02 18.48 36.69 15.49 35.29 13.64 34.56 12.67 33.71 12.25 33.12 12.07 32.71 11.48 31.87 10.53 30.48 9.76 28.75 8.74 26.77 8.32 24.64 8.5 23.83 8.54 23.04 8.69 22.26 8.96 22.26 8.96 22.25 8.96 22.25 8.96 21.38 9.25 20.53 9.68 19.71 10.25 18.79 10.84 17.93 11.55 17.19 12.33 15.74 13.81 14.79 15.49 14.37 17.28 13.99 18.75 13.95 20.23 14.26 21.68 14.13 21.78 14 21.89 13.89 22.03 13.16 22.91 13.1 24.31 13.71 26.47 14.11 27.89 14.64 29.35 15.54 30.03 15.82 31.39 16.25 32.64 16.85 33.73 16.85 33.73 16.85 35.97 16.85 35.97 15.46 36.66 12.37 38.31 8.91 40.68 5.2 36.73 2.92 31.4 2.92 25.57 2.92 13.36 12.86 3.42 25.07 3.42Z" /></svg>