<svg xmlns="http://www.w3.org/2000/svg" viewBox="0 0 75 17">
  <path fill="#00569F" d="M8.5 0C3.8 0 0 3.8 0 8.5S3.8 17 8.5 17 17 13.2 17 8.5 13.2 0 8.5 0zm0 15C4.9 15 2 12.1 2 8.5S4.9 2 8.5 2 15 4.9 15 8.5 12.1 15 8.5 15zm.3-9.1c.5 0 .9.1 1.4.3l.8-1.8c-.7-.3-1.4-.4-2.2-.4-1 0-1.9.3-2.6.8-.6.5-1.1 1.3-1.3 2.3H4v1.2h.8v.5H4V10h1c.2.9.6 1.7 1.3 2.2s1.5.8 2.5.8c.8 0 1.4-.1 1.8-.3v-1.9c-.5.2-1 .3-1.6.3-.9 0-1.5-.3-1.6-1H9V8.9H7.2V8.3h2.2V7.1H7.3c0-.4.2-.6.4-.9s.7-.3 1.1-.3z"/>
  <path fill="#363636" d="M25.3 9.5c-.3.9-.4 1.5-.4 1.8 0-.2-.1-.4-.2-.8s-.2-.7-.3-1l-1.6-5H21l2.9 8.4h2l2.9-8.4H27l-1.7 5zm8.9-2.7c-.5-.3-1-.4-1.7-.4-1 0-1.8.3-2.4.9s-.8 1.4-.8 2.4c0 .7.1 1.3.4 1.8.3.5.6.9 1.1 1.2.5.3 1 .4 1.7.4 1 0 1.8-.3 2.4-.9.6-.6.8-1.4.8-2.4 0-.7-.1-1.3-.4-1.8-.2-.6-.6-1-1.1-1.2zm-.6 4.3c-.2.3-.6.5-1 .5-.5 0-.8-.2-1-.5-.2-.3-.3-.8-.3-1.4 0-.6.1-1.1.3-1.4.2-.3.6-.5 1-.5.5 0 .8.2 1 .5.2.3.3.8.3 1.4 0 .6-.1 1.1-.3 1.4zm6.1-4.4c-.3.2-.6.5-.8.9h-.1l-.3-1.1h-1.4v6.4H39V9.6c0-.5.2-.9.5-1.2.3-.3.7-.4 1.3-.4.2 0 .4 0 .5.1l.1-1.6c-.2 0-.4-.1-.6-.1-.3 0-.7.1-1.1.3zm9.3-.2h-2l-1.8 1.9-.8 1 .1-1.4V4h-1.8v8.9h1.8v-2l.8-.6 1.9 2.6h2.1l-2.8-3.6L49 6.5zm3.8-.1c-.9 0-1.8.2-2.5.6l.6 1.2c.7-.3 1.3-.5 1.9-.5.7 0 1 .3 1 1V9h-1.1c-1 0-1.7.2-2.2.5-.5.3-.7.8-.7 1.5 0 .6.2 1.1.5 1.5.4.4.9.5 1.5.5.5 0 .9-.1 1.2-.2.3-.1.6-.4.9-.8l.3.9h1.3V8.6c0-.8-.2-1.3-.7-1.7-.4-.4-1.1-.5-2-.5zm1 4c0 .4-.1.7-.4.9-.2.2-.6.3-1 .3-.6 0-.9-.2-.9-.7 0-.3.1-.6.4-.8.3-.2.6-.3 1.2-.3h.7v.6zm7.5-.8c-.3-.2-.6-.4-1.1-.6-.6-.2-.9-.4-1.1-.5-.2-.1-.3-.2-.3-.4 0-.3.3-.4.8-.4.3 0 .6 0 .9.1.2.1.5.2.9.3l.5-1.3c-.7-.3-1.5-.5-2.3-.5-.8 0-1.5.2-1.9.5-.5.3-.7.8-.7 1.4 0 .3.1.6.2.8.1.2.3.4.5.6.2.2.6.4 1.1.6.4.1.6.3.8.4.2.1.4.2.4.3s.1.2.1.3c0 .4-.3.5-1 .5-.3 0-.7-.1-1.1-.2-.4-.1-.8-.2-1.1-.4v1.4l.9.3c.3.1.7.1 1.2.1.9 0 1.6-.2 2.1-.5s.7-.8.7-1.5c0-.3-.1-.6-.2-.8.1-.2-.1-.4-.3-.5zm6 0c-.3-.2-.7-.4-1.2-.6-.6-.2-.9-.4-1.1-.5-.2-.1-.3-.2-.3-.4 0-.3.3-.4.8-.4.3 0 .6 0 .9.1.3.1.6.2 1 .3l.5-1.3c-.7-.3-1.5-.5-2.3-.5-.8 0-1.5.2-1.9.5s-.7.8-.7 1.4c0 .3 0 .6.1.8.1.2.3.4.5.6.2.2.6.4 1.1.6.4.1.6.3.8.4.2.1.4.2.4.3.1.1.1.2.1.3 0 .4-.3.5-1 .5-.3 0-.7-.1-1.1-.2-.4-.1-.8-.2-1.1-.4v1.4l.9.3c.3.1.7.1 1.2.1.9 0 1.6-.2 2.1-.5s.7-.8.7-1.5c0-.3-.1-.6-.2-.8.2-.2 0-.4-.2-.5zm7.7-.3c0-.9-.3-1.6-.8-2.1S73 6.4 72 6.4c-1 0-1.7.3-2.3.9-.5.5-.7 1.4-.7 2.4s.3 1.8.9 2.4c.6.6 1.4.9 2.5.9.5 0 .9 0 1.3-.1s.7-.2 1-.3v-1.4c-.4.2-.8.3-1.1.4-.4.1-.7.1-1.1.1-.5 0-.9-.1-1.2-.4-.3-.3-.4-.7-.5-1.2H75v-.8zM70.8 9c0-.4.2-.8.4-1 .2-.2.5-.4.9-.4s.7.1.9.4c.2.2.3.6.3 1h-2.5z"/>
</svg>
