<?xml version="1.0" encoding="utf-8"?>
<svg xmlns="http://www.w3.org/2000/svg"
	xmlns:xlink="http://www.w3.org/1999/xlink"
	 viewBox="0 0 36 42">
<path fillRule="evenodd" d="M 35.4 38.14C 34.99 39.97 33.51 41.32 31.73 41.52 27.51 42 22.25 42 18 42 13.75 42 8.48 42 4.27 41.52 2.49 41.32 1.01 39.97 0.59 38.14-0 35.54-0 32.7-0 30.01-0 27.33 0.01 24.49 0.6 21.88 1.02 20.06 2.49 18.71 4.27 18.51 8.49 18.03 13.75 18 18 18 22.25 18 27.52 18.03 31.73 18.51 33.51 18.71 34.99 20.06 35.41 21.88 36 24.49 36 27.33 36 30.01 36 32.7 35.99 35.54 35.4 38.14ZM 9.97 21.99C 9.97 21.99 1.97 21.99 1.97 21.99 1.97 21.99 1.97 24.24 1.97 24.24 1.97 24.24 4.67 24.24 4.67 24.24 4.67 24.24 4.67 38 4.67 38 4.67 38 7.22 38 7.22 38 7.22 38 7.22 24.24 7.22 24.24 7.22 24.24 9.97 24.24 9.97 24.24 9.97 24.24 9.97 21.99 9.97 21.99ZM 15.86 26.02C 15.86 26.02 13.73 26.02 13.73 26.02 13.73 26.02 13.73 35.03 13.73 35.03 13.25 35.7 12.8 36.03 12.38 36.03 12.09 36.03 11.93 35.87 11.88 35.53 11.86 35.46 11.86 35.2 11.86 34.7 11.86 34.7 11.86 26.02 11.86 26.02 11.86 26.02 9.72 26.02 9.72 26.02 9.72 26.02 9.72 35.34 9.72 35.34 9.72 36.18 9.8 36.74 9.91 37.1 10.13 37.7 10.6 37.98 11.29 37.98 12.07 37.98 12.88 37.5 13.73 36.53 13.73 36.53 13.73 37.81 13.73 37.81 13.73 37.81 15.86 37.81 15.86 37.81 15.86 37.81 15.86 26.02 15.86 26.02ZM 23.97 29.58C 23.97 28.46 23.9 27.68 23.75 27.21 23.47 26.32 22.9 25.88 22.05 25.88 21.26 25.88 20.53 26.3 19.84 27.15 19.84 27.15 19.84 21.99 19.84 21.99 19.84 21.99 17.71 21.99 17.71 21.99 17.71 21.99 17.71 37.81 17.71 37.81 17.71 37.81 19.84 37.81 19.84 37.81 19.84 37.81 19.84 36.67 19.84 36.67 20.56 37.55 21.29 37.98 22.05 37.98 22.9 37.98 23.47 37.53 23.75 36.65 23.9 36.15 23.97 35.36 23.97 34.27 23.97 34.27 23.97 29.58 23.97 29.58ZM 32.03 29.86C 32.03 28.6 31.81 27.68 31.37 27.09 30.77 26.28 29.92 25.88 28.85 25.88 27.76 25.88 26.91 26.28 26.29 27.09 25.84 27.68 25.63 28.6 25.63 29.86 25.63 29.86 25.63 34 25.63 34 25.63 35.25 25.86 36.18 26.32 36.77 26.93 37.57 27.78 37.98 28.9 37.98 30.02 37.98 30.89 37.55 31.48 36.7 31.74 36.32 31.91 35.89 31.98 35.42 32 35.2 32.03 34.73 32.03 34.04 32.03 34.04 32.03 33.73 32.03 33.73 32.03 33.73 29.85 33.73 29.85 33.73 29.85 34.59 29.82 35.06 29.8 35.18 29.68 35.75 29.37 36.03 28.85 36.03 28.11 36.03 27.76 35.49 27.76 34.4 27.76 34.4 27.76 32.31 27.76 32.31 27.76 32.31 32.03 32.31 32.03 32.31 32.03 32.31 32.03 32.31 32.03 32.31 32.03 32.31 32.03 29.86 32.03 29.86ZM 27.76 29.44C 27.76 28.35 28.12 27.8 28.83 27.8 29.53 27.8 29.89 28.35 29.89 29.44 29.89 29.44 29.89 30.53 29.89 30.53 29.89 30.53 27.76 30.53 27.76 30.53 27.76 30.53 27.76 29.44 27.76 29.44ZM 20.91 36.03C 20.56 36.03 20.2 35.87 19.84 35.51 19.84 35.51 19.84 28.32 19.84 28.32 20.2 27.97 20.56 27.8 20.91 27.8 21.52 27.8 21.84 28.35 21.84 29.41 21.84 29.41 21.84 34.44 21.84 34.44 21.84 35.51 21.52 36.03 20.91 36.03ZM 25.89 14.54C 25.05 15.52 24.26 15.99 23.5 15.99 22.82 15.99 22.36 15.71 22.15 15.11 22.03 14.76 21.96 14.19 21.96 13.36 21.96 13.36 21.96 4.03 21.96 4.03 21.96 4.03 24.05 4.03 24.05 4.03 24.05 4.03 24.05 12.72 24.05 12.72 24.05 13.22 24.05 13.48 24.07 13.55 24.12 13.88 24.28 14.05 24.56 14.05 24.98 14.05 25.42 13.72 25.89 13.05 25.89 13.05 25.89 4.03 25.89 4.03 25.89 4.03 27.98 4.03 27.98 4.03 27.98 4.03 27.98 15.83 27.98 15.83 27.98 15.83 25.89 15.83 25.89 15.83 25.89 15.83 25.89 14.54 25.89 14.54ZM 17.14 15.99C 16.1 15.99 15.29 15.59 14.71 14.78 14.26 14.19 14.05 13.26 14.05 12.01 14.05 12.01 14.05 7.88 14.05 7.88 14.05 6.62 14.26 5.7 14.71 5.1 15.29 4.29 16.1 3.89 17.14 3.89 18.19 3.89 19.01 4.29 19.59 5.1 20.03 5.7 20.24 6.62 20.24 7.88 20.24 7.88 20.24 12.01 20.24 12.01 20.24 13.26 20.03 14.19 19.59 14.78 19.01 15.59 18.19 15.99 17.14 15.99ZM 18.14 7.45C 18.14 6.36 17.82 5.81 17.14 5.81 16.47 5.81 16.15 6.36 16.15 7.45 16.15 7.45 16.15 12.41 16.15 12.41 16.15 13.5 16.47 14.05 17.14 14.05 17.82 14.05 18.14 13.5 18.14 12.41 18.14 12.41 18.14 7.45 18.14 7.45ZM 11.24 15.83C 11.24 15.83 8.92 15.83 8.92 15.83 8.92 15.83 8.92 9.42 8.92 9.42 8.71 8.28 8.24 6.62 7.5 4.41 7.01 2.94 6.5 1.47 6.01 0 6.01 0 8.45 0 8.45 0 8.45 0 10.1 6.22 10.1 6.22 10.1 6.22 11.68 0 11.68 0 11.68 0 14.03 0 14.03 0 14.03 0 11.24 9.42 11.24 9.42 11.24 9.42 11.24 15.83 11.24 15.83Z" /></svg>