<svg xmlns="http://www.w3.org/2000/svg" width="23.969" height="21" viewBox="0 0 23.969 21">
    <path d="M21.927 19L11.978 2 2.035 19h19.892m0 2H2.035A2.082 2.082 0 0 1 .27 20a1.963 1.963 0 0 1-.006-2l9.944-17a2.067 2.067 0 0 1 3.541 0l9.948 17a1.966 1.966 0 0 1 0 2 2.083 2.083 0 0 1-1.765 1zm-9.944-7a1.329 1.329 0 0 1-1.28-1.4V7.9a1.283 1.283 0 1 1 2.556 0v4.7a1.326 1.326 0 0 1-1.276 1.4zm0 .5a1.283 1.283 0 0 1 1.276 1.2 1.276 1.276 0 1 1-2.551 0 1.282 1.282 0 0 1 1.275-1.2z" fill="#fed400" fill-rule="evenodd"/>
</svg>