<svg xmlns="http://www.w3.org/2000/svg" viewBox="0 0 426.667 426.667">
	<path fill="#fff" d="M92.821 92.821c31.424-31.573 74.176-50.155 120.512-50.155C307.435 42.667 384 119.232 384 213.333h42.667C426.667 95.68 330.965 0 213.333 0c-57.92 0-111.381 23.232-150.656 62.677L21.333 21.333v128h128L92.821 92.821zM333.845 333.845C302.421 365.419 259.691 384 213.333 384c-94.101 0-170.667-76.565-170.667-170.667H0c0 117.653 95.701 213.333 213.333 213.333 57.941 0 111.381-23.232 150.677-62.677l41.323 41.344v-128h-128l56.512 56.512z"/>
</svg>
