<svg xmlns="http://www.w3.org/2000/svg" viewBox="0 0 426.7 512"><path d="M298.7 426.7c0 47.1-38.2 85.3-85.3 85.3S128 473.8 128 426.7s38.2-85.3 85.3-85.3 85.4 38.1 85.4 85.3z" fill="#a3a3a3"/><path d="M426.6 387.3c-.6-10.2-5.2-19.7-13-26.3l-.1-.1-.1-.1c-1-.8-2-1.7-2.9-2.5-3.9-3.5-7.6-7.1-11-11-.1-.1-.2-.3-.4-.4l-2.1-2.4c-.5-.6-.9-1.1-1.4-1.7-.3-.4-.7-.8-1-1.2-19.9-24.6-31.1-55.2-31.8-87.3h-.1V192c0-82.3-67-149.3-149.3-149.3C131 42.7 64 109.7 64 192v62.3h-.1c-.6 32.1-11.9 62.7-31.8 87.3-.3.4-.7.8-1 1.2-.5.6-.9 1.1-1.4 1.7l-2.1 2.4c-.1.1-.2.3-.4.4-3.5 3.8-7.1 7.5-11 11-1 .9-1.9 1.7-2.9 2.5l-.1.1-.1.1C5.3 367.6.7 377.1.1 387.3c0 .7-.1 1.4-.1 2.1 0 3.2.4 6.3 1.2 9.3 4.1 16.1 18.8 28 36.2 28h352c17.4 0 32-11.9 36.2-28 .8-3 1.2-6.1 1.2-9.3-.1-.8-.2-1.4-.2-2.1z" fill="#c9c9c9"/></svg>